G04 #@! TF.GenerationSoftware,KiCad,Pcbnew,(5.1.5-0)*
G04 #@! TF.CreationDate,2020-06-12T17:52:12+02:00*
G04 #@! TF.ProjectId,Electrodes,456c6563-7472-46f6-9465-732e6b696361,rev?*
G04 #@! TF.SameCoordinates,Original*
G04 #@! TF.FileFunction,Legend,Top*
G04 #@! TF.FilePolarity,Positive*
%FSLAX46Y46*%
G04 Gerber Fmt 4.6, Leading zero omitted, Abs format (unit mm)*
G04 Created by KiCad (PCBNEW (5.1.5-0)) date 2020-06-12 17:52:12*
%MOMM*%
%LPD*%
G04 APERTURE LIST*
%ADD10C,0.100000*%
G04 APERTURE END LIST*
D10*
X62738095Y-86428571D02*
X63071428Y-86428571D01*
X63214285Y-86952380D02*
X62738095Y-86952380D01*
X62738095Y-85952380D01*
X63214285Y-85952380D01*
X63785714Y-86952380D02*
X63690476Y-86904761D01*
X63642857Y-86809523D01*
X63642857Y-85952380D01*
X64547619Y-86904761D02*
X64452380Y-86952380D01*
X64261904Y-86952380D01*
X64166666Y-86904761D01*
X64119047Y-86809523D01*
X64119047Y-86428571D01*
X64166666Y-86333333D01*
X64261904Y-86285714D01*
X64452380Y-86285714D01*
X64547619Y-86333333D01*
X64595238Y-86428571D01*
X64595238Y-86523809D01*
X64119047Y-86619047D01*
X65452380Y-86904761D02*
X65357142Y-86952380D01*
X65166666Y-86952380D01*
X65071428Y-86904761D01*
X65023809Y-86857142D01*
X64976190Y-86761904D01*
X64976190Y-86476190D01*
X65023809Y-86380952D01*
X65071428Y-86333333D01*
X65166666Y-86285714D01*
X65357142Y-86285714D01*
X65452380Y-86333333D01*
X65738095Y-86285714D02*
X66119047Y-86285714D01*
X65880952Y-85952380D02*
X65880952Y-86809523D01*
X65928571Y-86904761D01*
X66023809Y-86952380D01*
X66119047Y-86952380D01*
X66452380Y-86952380D02*
X66452380Y-86285714D01*
X66452380Y-86476190D02*
X66500000Y-86380952D01*
X66547619Y-86333333D01*
X66642857Y-86285714D01*
X66738095Y-86285714D01*
X67214285Y-86952380D02*
X67119047Y-86904761D01*
X67071428Y-86857142D01*
X67023809Y-86761904D01*
X67023809Y-86476190D01*
X67071428Y-86380952D01*
X67119047Y-86333333D01*
X67214285Y-86285714D01*
X67357142Y-86285714D01*
X67452380Y-86333333D01*
X67500000Y-86380952D01*
X67547619Y-86476190D01*
X67547619Y-86761904D01*
X67500000Y-86857142D01*
X67452380Y-86904761D01*
X67357142Y-86952380D01*
X67214285Y-86952380D01*
X68404761Y-86952380D02*
X68404761Y-85952380D01*
X68404761Y-86904761D02*
X68309523Y-86952380D01*
X68119047Y-86952380D01*
X68023809Y-86904761D01*
X67976190Y-86857142D01*
X67928571Y-86761904D01*
X67928571Y-86476190D01*
X67976190Y-86380952D01*
X68023809Y-86333333D01*
X68119047Y-86285714D01*
X68309523Y-86285714D01*
X68404761Y-86333333D01*
X69261904Y-86904761D02*
X69166666Y-86952380D01*
X68976190Y-86952380D01*
X68880952Y-86904761D01*
X68833333Y-86809523D01*
X68833333Y-86428571D01*
X68880952Y-86333333D01*
X68976190Y-86285714D01*
X69166666Y-86285714D01*
X69261904Y-86333333D01*
X69309523Y-86428571D01*
X69309523Y-86523809D01*
X68833333Y-86619047D01*
M02*
