G04 #@! TF.GenerationSoftware,KiCad,Pcbnew,(5.1.5-0)*
G04 #@! TF.CreationDate,2020-06-12T16:48:31+02:00*
G04 #@! TF.ProjectId,Divider1,44697669-6465-4723-912e-6b696361645f,rev?*
G04 #@! TF.SameCoordinates,Original*
G04 #@! TF.FileFunction,Paste,Top*
G04 #@! TF.FilePolarity,Positive*
%FSLAX46Y46*%
G04 Gerber Fmt 4.6, Leading zero omitted, Abs format (unit mm)*
G04 Created by KiCad (PCBNEW (5.1.5-0)) date 2020-06-12 16:48:31*
%MOMM*%
%LPD*%
G04 APERTURE LIST*
%ADD10C,0.100000*%
G04 APERTURE END LIST*
D10*
G36*
X51649504Y-77801204D02*
G01*
X51673773Y-77804804D01*
X51697571Y-77810765D01*
X51720671Y-77819030D01*
X51742849Y-77829520D01*
X51763893Y-77842133D01*
X51783598Y-77856747D01*
X51801777Y-77873223D01*
X51818253Y-77891402D01*
X51832867Y-77911107D01*
X51845480Y-77932151D01*
X51855970Y-77954329D01*
X51864235Y-77977429D01*
X51870196Y-78001227D01*
X51873796Y-78025496D01*
X51875000Y-78050000D01*
X51875000Y-78975000D01*
X51873796Y-78999504D01*
X51870196Y-79023773D01*
X51864235Y-79047571D01*
X51855970Y-79070671D01*
X51845480Y-79092849D01*
X51832867Y-79113893D01*
X51818253Y-79133598D01*
X51801777Y-79151777D01*
X51783598Y-79168253D01*
X51763893Y-79182867D01*
X51742849Y-79195480D01*
X51720671Y-79205970D01*
X51697571Y-79214235D01*
X51673773Y-79220196D01*
X51649504Y-79223796D01*
X51625000Y-79225000D01*
X50375000Y-79225000D01*
X50350496Y-79223796D01*
X50326227Y-79220196D01*
X50302429Y-79214235D01*
X50279329Y-79205970D01*
X50257151Y-79195480D01*
X50236107Y-79182867D01*
X50216402Y-79168253D01*
X50198223Y-79151777D01*
X50181747Y-79133598D01*
X50167133Y-79113893D01*
X50154520Y-79092849D01*
X50144030Y-79070671D01*
X50135765Y-79047571D01*
X50129804Y-79023773D01*
X50126204Y-78999504D01*
X50125000Y-78975000D01*
X50125000Y-78050000D01*
X50126204Y-78025496D01*
X50129804Y-78001227D01*
X50135765Y-77977429D01*
X50144030Y-77954329D01*
X50154520Y-77932151D01*
X50167133Y-77911107D01*
X50181747Y-77891402D01*
X50198223Y-77873223D01*
X50216402Y-77856747D01*
X50236107Y-77842133D01*
X50257151Y-77829520D01*
X50279329Y-77819030D01*
X50302429Y-77810765D01*
X50326227Y-77804804D01*
X50350496Y-77801204D01*
X50375000Y-77800000D01*
X51625000Y-77800000D01*
X51649504Y-77801204D01*
G37*
G36*
X51649504Y-80776204D02*
G01*
X51673773Y-80779804D01*
X51697571Y-80785765D01*
X51720671Y-80794030D01*
X51742849Y-80804520D01*
X51763893Y-80817133D01*
X51783598Y-80831747D01*
X51801777Y-80848223D01*
X51818253Y-80866402D01*
X51832867Y-80886107D01*
X51845480Y-80907151D01*
X51855970Y-80929329D01*
X51864235Y-80952429D01*
X51870196Y-80976227D01*
X51873796Y-81000496D01*
X51875000Y-81025000D01*
X51875000Y-81950000D01*
X51873796Y-81974504D01*
X51870196Y-81998773D01*
X51864235Y-82022571D01*
X51855970Y-82045671D01*
X51845480Y-82067849D01*
X51832867Y-82088893D01*
X51818253Y-82108598D01*
X51801777Y-82126777D01*
X51783598Y-82143253D01*
X51763893Y-82157867D01*
X51742849Y-82170480D01*
X51720671Y-82180970D01*
X51697571Y-82189235D01*
X51673773Y-82195196D01*
X51649504Y-82198796D01*
X51625000Y-82200000D01*
X50375000Y-82200000D01*
X50350496Y-82198796D01*
X50326227Y-82195196D01*
X50302429Y-82189235D01*
X50279329Y-82180970D01*
X50257151Y-82170480D01*
X50236107Y-82157867D01*
X50216402Y-82143253D01*
X50198223Y-82126777D01*
X50181747Y-82108598D01*
X50167133Y-82088893D01*
X50154520Y-82067849D01*
X50144030Y-82045671D01*
X50135765Y-82022571D01*
X50129804Y-81998773D01*
X50126204Y-81974504D01*
X50125000Y-81950000D01*
X50125000Y-81025000D01*
X50126204Y-81000496D01*
X50129804Y-80976227D01*
X50135765Y-80952429D01*
X50144030Y-80929329D01*
X50154520Y-80907151D01*
X50167133Y-80886107D01*
X50181747Y-80866402D01*
X50198223Y-80848223D01*
X50216402Y-80831747D01*
X50236107Y-80817133D01*
X50257151Y-80804520D01*
X50279329Y-80794030D01*
X50302429Y-80785765D01*
X50326227Y-80779804D01*
X50350496Y-80776204D01*
X50375000Y-80775000D01*
X51625000Y-80775000D01*
X51649504Y-80776204D01*
G37*
G36*
X145249504Y-77801204D02*
G01*
X145273773Y-77804804D01*
X145297571Y-77810765D01*
X145320671Y-77819030D01*
X145342849Y-77829520D01*
X145363893Y-77842133D01*
X145383598Y-77856747D01*
X145401777Y-77873223D01*
X145418253Y-77891402D01*
X145432867Y-77911107D01*
X145445480Y-77932151D01*
X145455970Y-77954329D01*
X145464235Y-77977429D01*
X145470196Y-78001227D01*
X145473796Y-78025496D01*
X145475000Y-78050000D01*
X145475000Y-78975000D01*
X145473796Y-78999504D01*
X145470196Y-79023773D01*
X145464235Y-79047571D01*
X145455970Y-79070671D01*
X145445480Y-79092849D01*
X145432867Y-79113893D01*
X145418253Y-79133598D01*
X145401777Y-79151777D01*
X145383598Y-79168253D01*
X145363893Y-79182867D01*
X145342849Y-79195480D01*
X145320671Y-79205970D01*
X145297571Y-79214235D01*
X145273773Y-79220196D01*
X145249504Y-79223796D01*
X145225000Y-79225000D01*
X143975000Y-79225000D01*
X143950496Y-79223796D01*
X143926227Y-79220196D01*
X143902429Y-79214235D01*
X143879329Y-79205970D01*
X143857151Y-79195480D01*
X143836107Y-79182867D01*
X143816402Y-79168253D01*
X143798223Y-79151777D01*
X143781747Y-79133598D01*
X143767133Y-79113893D01*
X143754520Y-79092849D01*
X143744030Y-79070671D01*
X143735765Y-79047571D01*
X143729804Y-79023773D01*
X143726204Y-78999504D01*
X143725000Y-78975000D01*
X143725000Y-78050000D01*
X143726204Y-78025496D01*
X143729804Y-78001227D01*
X143735765Y-77977429D01*
X143744030Y-77954329D01*
X143754520Y-77932151D01*
X143767133Y-77911107D01*
X143781747Y-77891402D01*
X143798223Y-77873223D01*
X143816402Y-77856747D01*
X143836107Y-77842133D01*
X143857151Y-77829520D01*
X143879329Y-77819030D01*
X143902429Y-77810765D01*
X143926227Y-77804804D01*
X143950496Y-77801204D01*
X143975000Y-77800000D01*
X145225000Y-77800000D01*
X145249504Y-77801204D01*
G37*
G36*
X145249504Y-80776204D02*
G01*
X145273773Y-80779804D01*
X145297571Y-80785765D01*
X145320671Y-80794030D01*
X145342849Y-80804520D01*
X145363893Y-80817133D01*
X145383598Y-80831747D01*
X145401777Y-80848223D01*
X145418253Y-80866402D01*
X145432867Y-80886107D01*
X145445480Y-80907151D01*
X145455970Y-80929329D01*
X145464235Y-80952429D01*
X145470196Y-80976227D01*
X145473796Y-81000496D01*
X145475000Y-81025000D01*
X145475000Y-81950000D01*
X145473796Y-81974504D01*
X145470196Y-81998773D01*
X145464235Y-82022571D01*
X145455970Y-82045671D01*
X145445480Y-82067849D01*
X145432867Y-82088893D01*
X145418253Y-82108598D01*
X145401777Y-82126777D01*
X145383598Y-82143253D01*
X145363893Y-82157867D01*
X145342849Y-82170480D01*
X145320671Y-82180970D01*
X145297571Y-82189235D01*
X145273773Y-82195196D01*
X145249504Y-82198796D01*
X145225000Y-82200000D01*
X143975000Y-82200000D01*
X143950496Y-82198796D01*
X143926227Y-82195196D01*
X143902429Y-82189235D01*
X143879329Y-82180970D01*
X143857151Y-82170480D01*
X143836107Y-82157867D01*
X143816402Y-82143253D01*
X143798223Y-82126777D01*
X143781747Y-82108598D01*
X143767133Y-82088893D01*
X143754520Y-82067849D01*
X143744030Y-82045671D01*
X143735765Y-82022571D01*
X143729804Y-81998773D01*
X143726204Y-81974504D01*
X143725000Y-81950000D01*
X143725000Y-81025000D01*
X143726204Y-81000496D01*
X143729804Y-80976227D01*
X143735765Y-80952429D01*
X143744030Y-80929329D01*
X143754520Y-80907151D01*
X143767133Y-80886107D01*
X143781747Y-80866402D01*
X143798223Y-80848223D01*
X143816402Y-80831747D01*
X143836107Y-80817133D01*
X143857151Y-80804520D01*
X143879329Y-80794030D01*
X143902429Y-80785765D01*
X143926227Y-80779804D01*
X143950496Y-80776204D01*
X143975000Y-80775000D01*
X145225000Y-80775000D01*
X145249504Y-80776204D01*
G37*
G36*
X138049504Y-77801204D02*
G01*
X138073773Y-77804804D01*
X138097571Y-77810765D01*
X138120671Y-77819030D01*
X138142849Y-77829520D01*
X138163893Y-77842133D01*
X138183598Y-77856747D01*
X138201777Y-77873223D01*
X138218253Y-77891402D01*
X138232867Y-77911107D01*
X138245480Y-77932151D01*
X138255970Y-77954329D01*
X138264235Y-77977429D01*
X138270196Y-78001227D01*
X138273796Y-78025496D01*
X138275000Y-78050000D01*
X138275000Y-78975000D01*
X138273796Y-78999504D01*
X138270196Y-79023773D01*
X138264235Y-79047571D01*
X138255970Y-79070671D01*
X138245480Y-79092849D01*
X138232867Y-79113893D01*
X138218253Y-79133598D01*
X138201777Y-79151777D01*
X138183598Y-79168253D01*
X138163893Y-79182867D01*
X138142849Y-79195480D01*
X138120671Y-79205970D01*
X138097571Y-79214235D01*
X138073773Y-79220196D01*
X138049504Y-79223796D01*
X138025000Y-79225000D01*
X136775000Y-79225000D01*
X136750496Y-79223796D01*
X136726227Y-79220196D01*
X136702429Y-79214235D01*
X136679329Y-79205970D01*
X136657151Y-79195480D01*
X136636107Y-79182867D01*
X136616402Y-79168253D01*
X136598223Y-79151777D01*
X136581747Y-79133598D01*
X136567133Y-79113893D01*
X136554520Y-79092849D01*
X136544030Y-79070671D01*
X136535765Y-79047571D01*
X136529804Y-79023773D01*
X136526204Y-78999504D01*
X136525000Y-78975000D01*
X136525000Y-78050000D01*
X136526204Y-78025496D01*
X136529804Y-78001227D01*
X136535765Y-77977429D01*
X136544030Y-77954329D01*
X136554520Y-77932151D01*
X136567133Y-77911107D01*
X136581747Y-77891402D01*
X136598223Y-77873223D01*
X136616402Y-77856747D01*
X136636107Y-77842133D01*
X136657151Y-77829520D01*
X136679329Y-77819030D01*
X136702429Y-77810765D01*
X136726227Y-77804804D01*
X136750496Y-77801204D01*
X136775000Y-77800000D01*
X138025000Y-77800000D01*
X138049504Y-77801204D01*
G37*
G36*
X138049504Y-80776204D02*
G01*
X138073773Y-80779804D01*
X138097571Y-80785765D01*
X138120671Y-80794030D01*
X138142849Y-80804520D01*
X138163893Y-80817133D01*
X138183598Y-80831747D01*
X138201777Y-80848223D01*
X138218253Y-80866402D01*
X138232867Y-80886107D01*
X138245480Y-80907151D01*
X138255970Y-80929329D01*
X138264235Y-80952429D01*
X138270196Y-80976227D01*
X138273796Y-81000496D01*
X138275000Y-81025000D01*
X138275000Y-81950000D01*
X138273796Y-81974504D01*
X138270196Y-81998773D01*
X138264235Y-82022571D01*
X138255970Y-82045671D01*
X138245480Y-82067849D01*
X138232867Y-82088893D01*
X138218253Y-82108598D01*
X138201777Y-82126777D01*
X138183598Y-82143253D01*
X138163893Y-82157867D01*
X138142849Y-82170480D01*
X138120671Y-82180970D01*
X138097571Y-82189235D01*
X138073773Y-82195196D01*
X138049504Y-82198796D01*
X138025000Y-82200000D01*
X136775000Y-82200000D01*
X136750496Y-82198796D01*
X136726227Y-82195196D01*
X136702429Y-82189235D01*
X136679329Y-82180970D01*
X136657151Y-82170480D01*
X136636107Y-82157867D01*
X136616402Y-82143253D01*
X136598223Y-82126777D01*
X136581747Y-82108598D01*
X136567133Y-82088893D01*
X136554520Y-82067849D01*
X136544030Y-82045671D01*
X136535765Y-82022571D01*
X136529804Y-81998773D01*
X136526204Y-81974504D01*
X136525000Y-81950000D01*
X136525000Y-81025000D01*
X136526204Y-81000496D01*
X136529804Y-80976227D01*
X136535765Y-80952429D01*
X136544030Y-80929329D01*
X136554520Y-80907151D01*
X136567133Y-80886107D01*
X136581747Y-80866402D01*
X136598223Y-80848223D01*
X136616402Y-80831747D01*
X136636107Y-80817133D01*
X136657151Y-80804520D01*
X136679329Y-80794030D01*
X136702429Y-80785765D01*
X136726227Y-80779804D01*
X136750496Y-80776204D01*
X136775000Y-80775000D01*
X138025000Y-80775000D01*
X138049504Y-80776204D01*
G37*
G36*
X130849504Y-77801204D02*
G01*
X130873773Y-77804804D01*
X130897571Y-77810765D01*
X130920671Y-77819030D01*
X130942849Y-77829520D01*
X130963893Y-77842133D01*
X130983598Y-77856747D01*
X131001777Y-77873223D01*
X131018253Y-77891402D01*
X131032867Y-77911107D01*
X131045480Y-77932151D01*
X131055970Y-77954329D01*
X131064235Y-77977429D01*
X131070196Y-78001227D01*
X131073796Y-78025496D01*
X131075000Y-78050000D01*
X131075000Y-78975000D01*
X131073796Y-78999504D01*
X131070196Y-79023773D01*
X131064235Y-79047571D01*
X131055970Y-79070671D01*
X131045480Y-79092849D01*
X131032867Y-79113893D01*
X131018253Y-79133598D01*
X131001777Y-79151777D01*
X130983598Y-79168253D01*
X130963893Y-79182867D01*
X130942849Y-79195480D01*
X130920671Y-79205970D01*
X130897571Y-79214235D01*
X130873773Y-79220196D01*
X130849504Y-79223796D01*
X130825000Y-79225000D01*
X129575000Y-79225000D01*
X129550496Y-79223796D01*
X129526227Y-79220196D01*
X129502429Y-79214235D01*
X129479329Y-79205970D01*
X129457151Y-79195480D01*
X129436107Y-79182867D01*
X129416402Y-79168253D01*
X129398223Y-79151777D01*
X129381747Y-79133598D01*
X129367133Y-79113893D01*
X129354520Y-79092849D01*
X129344030Y-79070671D01*
X129335765Y-79047571D01*
X129329804Y-79023773D01*
X129326204Y-78999504D01*
X129325000Y-78975000D01*
X129325000Y-78050000D01*
X129326204Y-78025496D01*
X129329804Y-78001227D01*
X129335765Y-77977429D01*
X129344030Y-77954329D01*
X129354520Y-77932151D01*
X129367133Y-77911107D01*
X129381747Y-77891402D01*
X129398223Y-77873223D01*
X129416402Y-77856747D01*
X129436107Y-77842133D01*
X129457151Y-77829520D01*
X129479329Y-77819030D01*
X129502429Y-77810765D01*
X129526227Y-77804804D01*
X129550496Y-77801204D01*
X129575000Y-77800000D01*
X130825000Y-77800000D01*
X130849504Y-77801204D01*
G37*
G36*
X130849504Y-80776204D02*
G01*
X130873773Y-80779804D01*
X130897571Y-80785765D01*
X130920671Y-80794030D01*
X130942849Y-80804520D01*
X130963893Y-80817133D01*
X130983598Y-80831747D01*
X131001777Y-80848223D01*
X131018253Y-80866402D01*
X131032867Y-80886107D01*
X131045480Y-80907151D01*
X131055970Y-80929329D01*
X131064235Y-80952429D01*
X131070196Y-80976227D01*
X131073796Y-81000496D01*
X131075000Y-81025000D01*
X131075000Y-81950000D01*
X131073796Y-81974504D01*
X131070196Y-81998773D01*
X131064235Y-82022571D01*
X131055970Y-82045671D01*
X131045480Y-82067849D01*
X131032867Y-82088893D01*
X131018253Y-82108598D01*
X131001777Y-82126777D01*
X130983598Y-82143253D01*
X130963893Y-82157867D01*
X130942849Y-82170480D01*
X130920671Y-82180970D01*
X130897571Y-82189235D01*
X130873773Y-82195196D01*
X130849504Y-82198796D01*
X130825000Y-82200000D01*
X129575000Y-82200000D01*
X129550496Y-82198796D01*
X129526227Y-82195196D01*
X129502429Y-82189235D01*
X129479329Y-82180970D01*
X129457151Y-82170480D01*
X129436107Y-82157867D01*
X129416402Y-82143253D01*
X129398223Y-82126777D01*
X129381747Y-82108598D01*
X129367133Y-82088893D01*
X129354520Y-82067849D01*
X129344030Y-82045671D01*
X129335765Y-82022571D01*
X129329804Y-81998773D01*
X129326204Y-81974504D01*
X129325000Y-81950000D01*
X129325000Y-81025000D01*
X129326204Y-81000496D01*
X129329804Y-80976227D01*
X129335765Y-80952429D01*
X129344030Y-80929329D01*
X129354520Y-80907151D01*
X129367133Y-80886107D01*
X129381747Y-80866402D01*
X129398223Y-80848223D01*
X129416402Y-80831747D01*
X129436107Y-80817133D01*
X129457151Y-80804520D01*
X129479329Y-80794030D01*
X129502429Y-80785765D01*
X129526227Y-80779804D01*
X129550496Y-80776204D01*
X129575000Y-80775000D01*
X130825000Y-80775000D01*
X130849504Y-80776204D01*
G37*
G36*
X123649504Y-77801204D02*
G01*
X123673773Y-77804804D01*
X123697571Y-77810765D01*
X123720671Y-77819030D01*
X123742849Y-77829520D01*
X123763893Y-77842133D01*
X123783598Y-77856747D01*
X123801777Y-77873223D01*
X123818253Y-77891402D01*
X123832867Y-77911107D01*
X123845480Y-77932151D01*
X123855970Y-77954329D01*
X123864235Y-77977429D01*
X123870196Y-78001227D01*
X123873796Y-78025496D01*
X123875000Y-78050000D01*
X123875000Y-78975000D01*
X123873796Y-78999504D01*
X123870196Y-79023773D01*
X123864235Y-79047571D01*
X123855970Y-79070671D01*
X123845480Y-79092849D01*
X123832867Y-79113893D01*
X123818253Y-79133598D01*
X123801777Y-79151777D01*
X123783598Y-79168253D01*
X123763893Y-79182867D01*
X123742849Y-79195480D01*
X123720671Y-79205970D01*
X123697571Y-79214235D01*
X123673773Y-79220196D01*
X123649504Y-79223796D01*
X123625000Y-79225000D01*
X122375000Y-79225000D01*
X122350496Y-79223796D01*
X122326227Y-79220196D01*
X122302429Y-79214235D01*
X122279329Y-79205970D01*
X122257151Y-79195480D01*
X122236107Y-79182867D01*
X122216402Y-79168253D01*
X122198223Y-79151777D01*
X122181747Y-79133598D01*
X122167133Y-79113893D01*
X122154520Y-79092849D01*
X122144030Y-79070671D01*
X122135765Y-79047571D01*
X122129804Y-79023773D01*
X122126204Y-78999504D01*
X122125000Y-78975000D01*
X122125000Y-78050000D01*
X122126204Y-78025496D01*
X122129804Y-78001227D01*
X122135765Y-77977429D01*
X122144030Y-77954329D01*
X122154520Y-77932151D01*
X122167133Y-77911107D01*
X122181747Y-77891402D01*
X122198223Y-77873223D01*
X122216402Y-77856747D01*
X122236107Y-77842133D01*
X122257151Y-77829520D01*
X122279329Y-77819030D01*
X122302429Y-77810765D01*
X122326227Y-77804804D01*
X122350496Y-77801204D01*
X122375000Y-77800000D01*
X123625000Y-77800000D01*
X123649504Y-77801204D01*
G37*
G36*
X123649504Y-80776204D02*
G01*
X123673773Y-80779804D01*
X123697571Y-80785765D01*
X123720671Y-80794030D01*
X123742849Y-80804520D01*
X123763893Y-80817133D01*
X123783598Y-80831747D01*
X123801777Y-80848223D01*
X123818253Y-80866402D01*
X123832867Y-80886107D01*
X123845480Y-80907151D01*
X123855970Y-80929329D01*
X123864235Y-80952429D01*
X123870196Y-80976227D01*
X123873796Y-81000496D01*
X123875000Y-81025000D01*
X123875000Y-81950000D01*
X123873796Y-81974504D01*
X123870196Y-81998773D01*
X123864235Y-82022571D01*
X123855970Y-82045671D01*
X123845480Y-82067849D01*
X123832867Y-82088893D01*
X123818253Y-82108598D01*
X123801777Y-82126777D01*
X123783598Y-82143253D01*
X123763893Y-82157867D01*
X123742849Y-82170480D01*
X123720671Y-82180970D01*
X123697571Y-82189235D01*
X123673773Y-82195196D01*
X123649504Y-82198796D01*
X123625000Y-82200000D01*
X122375000Y-82200000D01*
X122350496Y-82198796D01*
X122326227Y-82195196D01*
X122302429Y-82189235D01*
X122279329Y-82180970D01*
X122257151Y-82170480D01*
X122236107Y-82157867D01*
X122216402Y-82143253D01*
X122198223Y-82126777D01*
X122181747Y-82108598D01*
X122167133Y-82088893D01*
X122154520Y-82067849D01*
X122144030Y-82045671D01*
X122135765Y-82022571D01*
X122129804Y-81998773D01*
X122126204Y-81974504D01*
X122125000Y-81950000D01*
X122125000Y-81025000D01*
X122126204Y-81000496D01*
X122129804Y-80976227D01*
X122135765Y-80952429D01*
X122144030Y-80929329D01*
X122154520Y-80907151D01*
X122167133Y-80886107D01*
X122181747Y-80866402D01*
X122198223Y-80848223D01*
X122216402Y-80831747D01*
X122236107Y-80817133D01*
X122257151Y-80804520D01*
X122279329Y-80794030D01*
X122302429Y-80785765D01*
X122326227Y-80779804D01*
X122350496Y-80776204D01*
X122375000Y-80775000D01*
X123625000Y-80775000D01*
X123649504Y-80776204D01*
G37*
G36*
X116449504Y-77801204D02*
G01*
X116473773Y-77804804D01*
X116497571Y-77810765D01*
X116520671Y-77819030D01*
X116542849Y-77829520D01*
X116563893Y-77842133D01*
X116583598Y-77856747D01*
X116601777Y-77873223D01*
X116618253Y-77891402D01*
X116632867Y-77911107D01*
X116645480Y-77932151D01*
X116655970Y-77954329D01*
X116664235Y-77977429D01*
X116670196Y-78001227D01*
X116673796Y-78025496D01*
X116675000Y-78050000D01*
X116675000Y-78975000D01*
X116673796Y-78999504D01*
X116670196Y-79023773D01*
X116664235Y-79047571D01*
X116655970Y-79070671D01*
X116645480Y-79092849D01*
X116632867Y-79113893D01*
X116618253Y-79133598D01*
X116601777Y-79151777D01*
X116583598Y-79168253D01*
X116563893Y-79182867D01*
X116542849Y-79195480D01*
X116520671Y-79205970D01*
X116497571Y-79214235D01*
X116473773Y-79220196D01*
X116449504Y-79223796D01*
X116425000Y-79225000D01*
X115175000Y-79225000D01*
X115150496Y-79223796D01*
X115126227Y-79220196D01*
X115102429Y-79214235D01*
X115079329Y-79205970D01*
X115057151Y-79195480D01*
X115036107Y-79182867D01*
X115016402Y-79168253D01*
X114998223Y-79151777D01*
X114981747Y-79133598D01*
X114967133Y-79113893D01*
X114954520Y-79092849D01*
X114944030Y-79070671D01*
X114935765Y-79047571D01*
X114929804Y-79023773D01*
X114926204Y-78999504D01*
X114925000Y-78975000D01*
X114925000Y-78050000D01*
X114926204Y-78025496D01*
X114929804Y-78001227D01*
X114935765Y-77977429D01*
X114944030Y-77954329D01*
X114954520Y-77932151D01*
X114967133Y-77911107D01*
X114981747Y-77891402D01*
X114998223Y-77873223D01*
X115016402Y-77856747D01*
X115036107Y-77842133D01*
X115057151Y-77829520D01*
X115079329Y-77819030D01*
X115102429Y-77810765D01*
X115126227Y-77804804D01*
X115150496Y-77801204D01*
X115175000Y-77800000D01*
X116425000Y-77800000D01*
X116449504Y-77801204D01*
G37*
G36*
X116449504Y-80776204D02*
G01*
X116473773Y-80779804D01*
X116497571Y-80785765D01*
X116520671Y-80794030D01*
X116542849Y-80804520D01*
X116563893Y-80817133D01*
X116583598Y-80831747D01*
X116601777Y-80848223D01*
X116618253Y-80866402D01*
X116632867Y-80886107D01*
X116645480Y-80907151D01*
X116655970Y-80929329D01*
X116664235Y-80952429D01*
X116670196Y-80976227D01*
X116673796Y-81000496D01*
X116675000Y-81025000D01*
X116675000Y-81950000D01*
X116673796Y-81974504D01*
X116670196Y-81998773D01*
X116664235Y-82022571D01*
X116655970Y-82045671D01*
X116645480Y-82067849D01*
X116632867Y-82088893D01*
X116618253Y-82108598D01*
X116601777Y-82126777D01*
X116583598Y-82143253D01*
X116563893Y-82157867D01*
X116542849Y-82170480D01*
X116520671Y-82180970D01*
X116497571Y-82189235D01*
X116473773Y-82195196D01*
X116449504Y-82198796D01*
X116425000Y-82200000D01*
X115175000Y-82200000D01*
X115150496Y-82198796D01*
X115126227Y-82195196D01*
X115102429Y-82189235D01*
X115079329Y-82180970D01*
X115057151Y-82170480D01*
X115036107Y-82157867D01*
X115016402Y-82143253D01*
X114998223Y-82126777D01*
X114981747Y-82108598D01*
X114967133Y-82088893D01*
X114954520Y-82067849D01*
X114944030Y-82045671D01*
X114935765Y-82022571D01*
X114929804Y-81998773D01*
X114926204Y-81974504D01*
X114925000Y-81950000D01*
X114925000Y-81025000D01*
X114926204Y-81000496D01*
X114929804Y-80976227D01*
X114935765Y-80952429D01*
X114944030Y-80929329D01*
X114954520Y-80907151D01*
X114967133Y-80886107D01*
X114981747Y-80866402D01*
X114998223Y-80848223D01*
X115016402Y-80831747D01*
X115036107Y-80817133D01*
X115057151Y-80804520D01*
X115079329Y-80794030D01*
X115102429Y-80785765D01*
X115126227Y-80779804D01*
X115150496Y-80776204D01*
X115175000Y-80775000D01*
X116425000Y-80775000D01*
X116449504Y-80776204D01*
G37*
G36*
X109249504Y-77801204D02*
G01*
X109273773Y-77804804D01*
X109297571Y-77810765D01*
X109320671Y-77819030D01*
X109342849Y-77829520D01*
X109363893Y-77842133D01*
X109383598Y-77856747D01*
X109401777Y-77873223D01*
X109418253Y-77891402D01*
X109432867Y-77911107D01*
X109445480Y-77932151D01*
X109455970Y-77954329D01*
X109464235Y-77977429D01*
X109470196Y-78001227D01*
X109473796Y-78025496D01*
X109475000Y-78050000D01*
X109475000Y-78975000D01*
X109473796Y-78999504D01*
X109470196Y-79023773D01*
X109464235Y-79047571D01*
X109455970Y-79070671D01*
X109445480Y-79092849D01*
X109432867Y-79113893D01*
X109418253Y-79133598D01*
X109401777Y-79151777D01*
X109383598Y-79168253D01*
X109363893Y-79182867D01*
X109342849Y-79195480D01*
X109320671Y-79205970D01*
X109297571Y-79214235D01*
X109273773Y-79220196D01*
X109249504Y-79223796D01*
X109225000Y-79225000D01*
X107975000Y-79225000D01*
X107950496Y-79223796D01*
X107926227Y-79220196D01*
X107902429Y-79214235D01*
X107879329Y-79205970D01*
X107857151Y-79195480D01*
X107836107Y-79182867D01*
X107816402Y-79168253D01*
X107798223Y-79151777D01*
X107781747Y-79133598D01*
X107767133Y-79113893D01*
X107754520Y-79092849D01*
X107744030Y-79070671D01*
X107735765Y-79047571D01*
X107729804Y-79023773D01*
X107726204Y-78999504D01*
X107725000Y-78975000D01*
X107725000Y-78050000D01*
X107726204Y-78025496D01*
X107729804Y-78001227D01*
X107735765Y-77977429D01*
X107744030Y-77954329D01*
X107754520Y-77932151D01*
X107767133Y-77911107D01*
X107781747Y-77891402D01*
X107798223Y-77873223D01*
X107816402Y-77856747D01*
X107836107Y-77842133D01*
X107857151Y-77829520D01*
X107879329Y-77819030D01*
X107902429Y-77810765D01*
X107926227Y-77804804D01*
X107950496Y-77801204D01*
X107975000Y-77800000D01*
X109225000Y-77800000D01*
X109249504Y-77801204D01*
G37*
G36*
X109249504Y-80776204D02*
G01*
X109273773Y-80779804D01*
X109297571Y-80785765D01*
X109320671Y-80794030D01*
X109342849Y-80804520D01*
X109363893Y-80817133D01*
X109383598Y-80831747D01*
X109401777Y-80848223D01*
X109418253Y-80866402D01*
X109432867Y-80886107D01*
X109445480Y-80907151D01*
X109455970Y-80929329D01*
X109464235Y-80952429D01*
X109470196Y-80976227D01*
X109473796Y-81000496D01*
X109475000Y-81025000D01*
X109475000Y-81950000D01*
X109473796Y-81974504D01*
X109470196Y-81998773D01*
X109464235Y-82022571D01*
X109455970Y-82045671D01*
X109445480Y-82067849D01*
X109432867Y-82088893D01*
X109418253Y-82108598D01*
X109401777Y-82126777D01*
X109383598Y-82143253D01*
X109363893Y-82157867D01*
X109342849Y-82170480D01*
X109320671Y-82180970D01*
X109297571Y-82189235D01*
X109273773Y-82195196D01*
X109249504Y-82198796D01*
X109225000Y-82200000D01*
X107975000Y-82200000D01*
X107950496Y-82198796D01*
X107926227Y-82195196D01*
X107902429Y-82189235D01*
X107879329Y-82180970D01*
X107857151Y-82170480D01*
X107836107Y-82157867D01*
X107816402Y-82143253D01*
X107798223Y-82126777D01*
X107781747Y-82108598D01*
X107767133Y-82088893D01*
X107754520Y-82067849D01*
X107744030Y-82045671D01*
X107735765Y-82022571D01*
X107729804Y-81998773D01*
X107726204Y-81974504D01*
X107725000Y-81950000D01*
X107725000Y-81025000D01*
X107726204Y-81000496D01*
X107729804Y-80976227D01*
X107735765Y-80952429D01*
X107744030Y-80929329D01*
X107754520Y-80907151D01*
X107767133Y-80886107D01*
X107781747Y-80866402D01*
X107798223Y-80848223D01*
X107816402Y-80831747D01*
X107836107Y-80817133D01*
X107857151Y-80804520D01*
X107879329Y-80794030D01*
X107902429Y-80785765D01*
X107926227Y-80779804D01*
X107950496Y-80776204D01*
X107975000Y-80775000D01*
X109225000Y-80775000D01*
X109249504Y-80776204D01*
G37*
G36*
X102049504Y-77801204D02*
G01*
X102073773Y-77804804D01*
X102097571Y-77810765D01*
X102120671Y-77819030D01*
X102142849Y-77829520D01*
X102163893Y-77842133D01*
X102183598Y-77856747D01*
X102201777Y-77873223D01*
X102218253Y-77891402D01*
X102232867Y-77911107D01*
X102245480Y-77932151D01*
X102255970Y-77954329D01*
X102264235Y-77977429D01*
X102270196Y-78001227D01*
X102273796Y-78025496D01*
X102275000Y-78050000D01*
X102275000Y-78975000D01*
X102273796Y-78999504D01*
X102270196Y-79023773D01*
X102264235Y-79047571D01*
X102255970Y-79070671D01*
X102245480Y-79092849D01*
X102232867Y-79113893D01*
X102218253Y-79133598D01*
X102201777Y-79151777D01*
X102183598Y-79168253D01*
X102163893Y-79182867D01*
X102142849Y-79195480D01*
X102120671Y-79205970D01*
X102097571Y-79214235D01*
X102073773Y-79220196D01*
X102049504Y-79223796D01*
X102025000Y-79225000D01*
X100775000Y-79225000D01*
X100750496Y-79223796D01*
X100726227Y-79220196D01*
X100702429Y-79214235D01*
X100679329Y-79205970D01*
X100657151Y-79195480D01*
X100636107Y-79182867D01*
X100616402Y-79168253D01*
X100598223Y-79151777D01*
X100581747Y-79133598D01*
X100567133Y-79113893D01*
X100554520Y-79092849D01*
X100544030Y-79070671D01*
X100535765Y-79047571D01*
X100529804Y-79023773D01*
X100526204Y-78999504D01*
X100525000Y-78975000D01*
X100525000Y-78050000D01*
X100526204Y-78025496D01*
X100529804Y-78001227D01*
X100535765Y-77977429D01*
X100544030Y-77954329D01*
X100554520Y-77932151D01*
X100567133Y-77911107D01*
X100581747Y-77891402D01*
X100598223Y-77873223D01*
X100616402Y-77856747D01*
X100636107Y-77842133D01*
X100657151Y-77829520D01*
X100679329Y-77819030D01*
X100702429Y-77810765D01*
X100726227Y-77804804D01*
X100750496Y-77801204D01*
X100775000Y-77800000D01*
X102025000Y-77800000D01*
X102049504Y-77801204D01*
G37*
G36*
X102049504Y-80776204D02*
G01*
X102073773Y-80779804D01*
X102097571Y-80785765D01*
X102120671Y-80794030D01*
X102142849Y-80804520D01*
X102163893Y-80817133D01*
X102183598Y-80831747D01*
X102201777Y-80848223D01*
X102218253Y-80866402D01*
X102232867Y-80886107D01*
X102245480Y-80907151D01*
X102255970Y-80929329D01*
X102264235Y-80952429D01*
X102270196Y-80976227D01*
X102273796Y-81000496D01*
X102275000Y-81025000D01*
X102275000Y-81950000D01*
X102273796Y-81974504D01*
X102270196Y-81998773D01*
X102264235Y-82022571D01*
X102255970Y-82045671D01*
X102245480Y-82067849D01*
X102232867Y-82088893D01*
X102218253Y-82108598D01*
X102201777Y-82126777D01*
X102183598Y-82143253D01*
X102163893Y-82157867D01*
X102142849Y-82170480D01*
X102120671Y-82180970D01*
X102097571Y-82189235D01*
X102073773Y-82195196D01*
X102049504Y-82198796D01*
X102025000Y-82200000D01*
X100775000Y-82200000D01*
X100750496Y-82198796D01*
X100726227Y-82195196D01*
X100702429Y-82189235D01*
X100679329Y-82180970D01*
X100657151Y-82170480D01*
X100636107Y-82157867D01*
X100616402Y-82143253D01*
X100598223Y-82126777D01*
X100581747Y-82108598D01*
X100567133Y-82088893D01*
X100554520Y-82067849D01*
X100544030Y-82045671D01*
X100535765Y-82022571D01*
X100529804Y-81998773D01*
X100526204Y-81974504D01*
X100525000Y-81950000D01*
X100525000Y-81025000D01*
X100526204Y-81000496D01*
X100529804Y-80976227D01*
X100535765Y-80952429D01*
X100544030Y-80929329D01*
X100554520Y-80907151D01*
X100567133Y-80886107D01*
X100581747Y-80866402D01*
X100598223Y-80848223D01*
X100616402Y-80831747D01*
X100636107Y-80817133D01*
X100657151Y-80804520D01*
X100679329Y-80794030D01*
X100702429Y-80785765D01*
X100726227Y-80779804D01*
X100750496Y-80776204D01*
X100775000Y-80775000D01*
X102025000Y-80775000D01*
X102049504Y-80776204D01*
G37*
G36*
X94849504Y-77801204D02*
G01*
X94873773Y-77804804D01*
X94897571Y-77810765D01*
X94920671Y-77819030D01*
X94942849Y-77829520D01*
X94963893Y-77842133D01*
X94983598Y-77856747D01*
X95001777Y-77873223D01*
X95018253Y-77891402D01*
X95032867Y-77911107D01*
X95045480Y-77932151D01*
X95055970Y-77954329D01*
X95064235Y-77977429D01*
X95070196Y-78001227D01*
X95073796Y-78025496D01*
X95075000Y-78050000D01*
X95075000Y-78975000D01*
X95073796Y-78999504D01*
X95070196Y-79023773D01*
X95064235Y-79047571D01*
X95055970Y-79070671D01*
X95045480Y-79092849D01*
X95032867Y-79113893D01*
X95018253Y-79133598D01*
X95001777Y-79151777D01*
X94983598Y-79168253D01*
X94963893Y-79182867D01*
X94942849Y-79195480D01*
X94920671Y-79205970D01*
X94897571Y-79214235D01*
X94873773Y-79220196D01*
X94849504Y-79223796D01*
X94825000Y-79225000D01*
X93575000Y-79225000D01*
X93550496Y-79223796D01*
X93526227Y-79220196D01*
X93502429Y-79214235D01*
X93479329Y-79205970D01*
X93457151Y-79195480D01*
X93436107Y-79182867D01*
X93416402Y-79168253D01*
X93398223Y-79151777D01*
X93381747Y-79133598D01*
X93367133Y-79113893D01*
X93354520Y-79092849D01*
X93344030Y-79070671D01*
X93335765Y-79047571D01*
X93329804Y-79023773D01*
X93326204Y-78999504D01*
X93325000Y-78975000D01*
X93325000Y-78050000D01*
X93326204Y-78025496D01*
X93329804Y-78001227D01*
X93335765Y-77977429D01*
X93344030Y-77954329D01*
X93354520Y-77932151D01*
X93367133Y-77911107D01*
X93381747Y-77891402D01*
X93398223Y-77873223D01*
X93416402Y-77856747D01*
X93436107Y-77842133D01*
X93457151Y-77829520D01*
X93479329Y-77819030D01*
X93502429Y-77810765D01*
X93526227Y-77804804D01*
X93550496Y-77801204D01*
X93575000Y-77800000D01*
X94825000Y-77800000D01*
X94849504Y-77801204D01*
G37*
G36*
X94849504Y-80776204D02*
G01*
X94873773Y-80779804D01*
X94897571Y-80785765D01*
X94920671Y-80794030D01*
X94942849Y-80804520D01*
X94963893Y-80817133D01*
X94983598Y-80831747D01*
X95001777Y-80848223D01*
X95018253Y-80866402D01*
X95032867Y-80886107D01*
X95045480Y-80907151D01*
X95055970Y-80929329D01*
X95064235Y-80952429D01*
X95070196Y-80976227D01*
X95073796Y-81000496D01*
X95075000Y-81025000D01*
X95075000Y-81950000D01*
X95073796Y-81974504D01*
X95070196Y-81998773D01*
X95064235Y-82022571D01*
X95055970Y-82045671D01*
X95045480Y-82067849D01*
X95032867Y-82088893D01*
X95018253Y-82108598D01*
X95001777Y-82126777D01*
X94983598Y-82143253D01*
X94963893Y-82157867D01*
X94942849Y-82170480D01*
X94920671Y-82180970D01*
X94897571Y-82189235D01*
X94873773Y-82195196D01*
X94849504Y-82198796D01*
X94825000Y-82200000D01*
X93575000Y-82200000D01*
X93550496Y-82198796D01*
X93526227Y-82195196D01*
X93502429Y-82189235D01*
X93479329Y-82180970D01*
X93457151Y-82170480D01*
X93436107Y-82157867D01*
X93416402Y-82143253D01*
X93398223Y-82126777D01*
X93381747Y-82108598D01*
X93367133Y-82088893D01*
X93354520Y-82067849D01*
X93344030Y-82045671D01*
X93335765Y-82022571D01*
X93329804Y-81998773D01*
X93326204Y-81974504D01*
X93325000Y-81950000D01*
X93325000Y-81025000D01*
X93326204Y-81000496D01*
X93329804Y-80976227D01*
X93335765Y-80952429D01*
X93344030Y-80929329D01*
X93354520Y-80907151D01*
X93367133Y-80886107D01*
X93381747Y-80866402D01*
X93398223Y-80848223D01*
X93416402Y-80831747D01*
X93436107Y-80817133D01*
X93457151Y-80804520D01*
X93479329Y-80794030D01*
X93502429Y-80785765D01*
X93526227Y-80779804D01*
X93550496Y-80776204D01*
X93575000Y-80775000D01*
X94825000Y-80775000D01*
X94849504Y-80776204D01*
G37*
G36*
X87649504Y-77801204D02*
G01*
X87673773Y-77804804D01*
X87697571Y-77810765D01*
X87720671Y-77819030D01*
X87742849Y-77829520D01*
X87763893Y-77842133D01*
X87783598Y-77856747D01*
X87801777Y-77873223D01*
X87818253Y-77891402D01*
X87832867Y-77911107D01*
X87845480Y-77932151D01*
X87855970Y-77954329D01*
X87864235Y-77977429D01*
X87870196Y-78001227D01*
X87873796Y-78025496D01*
X87875000Y-78050000D01*
X87875000Y-78975000D01*
X87873796Y-78999504D01*
X87870196Y-79023773D01*
X87864235Y-79047571D01*
X87855970Y-79070671D01*
X87845480Y-79092849D01*
X87832867Y-79113893D01*
X87818253Y-79133598D01*
X87801777Y-79151777D01*
X87783598Y-79168253D01*
X87763893Y-79182867D01*
X87742849Y-79195480D01*
X87720671Y-79205970D01*
X87697571Y-79214235D01*
X87673773Y-79220196D01*
X87649504Y-79223796D01*
X87625000Y-79225000D01*
X86375000Y-79225000D01*
X86350496Y-79223796D01*
X86326227Y-79220196D01*
X86302429Y-79214235D01*
X86279329Y-79205970D01*
X86257151Y-79195480D01*
X86236107Y-79182867D01*
X86216402Y-79168253D01*
X86198223Y-79151777D01*
X86181747Y-79133598D01*
X86167133Y-79113893D01*
X86154520Y-79092849D01*
X86144030Y-79070671D01*
X86135765Y-79047571D01*
X86129804Y-79023773D01*
X86126204Y-78999504D01*
X86125000Y-78975000D01*
X86125000Y-78050000D01*
X86126204Y-78025496D01*
X86129804Y-78001227D01*
X86135765Y-77977429D01*
X86144030Y-77954329D01*
X86154520Y-77932151D01*
X86167133Y-77911107D01*
X86181747Y-77891402D01*
X86198223Y-77873223D01*
X86216402Y-77856747D01*
X86236107Y-77842133D01*
X86257151Y-77829520D01*
X86279329Y-77819030D01*
X86302429Y-77810765D01*
X86326227Y-77804804D01*
X86350496Y-77801204D01*
X86375000Y-77800000D01*
X87625000Y-77800000D01*
X87649504Y-77801204D01*
G37*
G36*
X87649504Y-80776204D02*
G01*
X87673773Y-80779804D01*
X87697571Y-80785765D01*
X87720671Y-80794030D01*
X87742849Y-80804520D01*
X87763893Y-80817133D01*
X87783598Y-80831747D01*
X87801777Y-80848223D01*
X87818253Y-80866402D01*
X87832867Y-80886107D01*
X87845480Y-80907151D01*
X87855970Y-80929329D01*
X87864235Y-80952429D01*
X87870196Y-80976227D01*
X87873796Y-81000496D01*
X87875000Y-81025000D01*
X87875000Y-81950000D01*
X87873796Y-81974504D01*
X87870196Y-81998773D01*
X87864235Y-82022571D01*
X87855970Y-82045671D01*
X87845480Y-82067849D01*
X87832867Y-82088893D01*
X87818253Y-82108598D01*
X87801777Y-82126777D01*
X87783598Y-82143253D01*
X87763893Y-82157867D01*
X87742849Y-82170480D01*
X87720671Y-82180970D01*
X87697571Y-82189235D01*
X87673773Y-82195196D01*
X87649504Y-82198796D01*
X87625000Y-82200000D01*
X86375000Y-82200000D01*
X86350496Y-82198796D01*
X86326227Y-82195196D01*
X86302429Y-82189235D01*
X86279329Y-82180970D01*
X86257151Y-82170480D01*
X86236107Y-82157867D01*
X86216402Y-82143253D01*
X86198223Y-82126777D01*
X86181747Y-82108598D01*
X86167133Y-82088893D01*
X86154520Y-82067849D01*
X86144030Y-82045671D01*
X86135765Y-82022571D01*
X86129804Y-81998773D01*
X86126204Y-81974504D01*
X86125000Y-81950000D01*
X86125000Y-81025000D01*
X86126204Y-81000496D01*
X86129804Y-80976227D01*
X86135765Y-80952429D01*
X86144030Y-80929329D01*
X86154520Y-80907151D01*
X86167133Y-80886107D01*
X86181747Y-80866402D01*
X86198223Y-80848223D01*
X86216402Y-80831747D01*
X86236107Y-80817133D01*
X86257151Y-80804520D01*
X86279329Y-80794030D01*
X86302429Y-80785765D01*
X86326227Y-80779804D01*
X86350496Y-80776204D01*
X86375000Y-80775000D01*
X87625000Y-80775000D01*
X87649504Y-80776204D01*
G37*
G36*
X80449504Y-77801204D02*
G01*
X80473773Y-77804804D01*
X80497571Y-77810765D01*
X80520671Y-77819030D01*
X80542849Y-77829520D01*
X80563893Y-77842133D01*
X80583598Y-77856747D01*
X80601777Y-77873223D01*
X80618253Y-77891402D01*
X80632867Y-77911107D01*
X80645480Y-77932151D01*
X80655970Y-77954329D01*
X80664235Y-77977429D01*
X80670196Y-78001227D01*
X80673796Y-78025496D01*
X80675000Y-78050000D01*
X80675000Y-78975000D01*
X80673796Y-78999504D01*
X80670196Y-79023773D01*
X80664235Y-79047571D01*
X80655970Y-79070671D01*
X80645480Y-79092849D01*
X80632867Y-79113893D01*
X80618253Y-79133598D01*
X80601777Y-79151777D01*
X80583598Y-79168253D01*
X80563893Y-79182867D01*
X80542849Y-79195480D01*
X80520671Y-79205970D01*
X80497571Y-79214235D01*
X80473773Y-79220196D01*
X80449504Y-79223796D01*
X80425000Y-79225000D01*
X79175000Y-79225000D01*
X79150496Y-79223796D01*
X79126227Y-79220196D01*
X79102429Y-79214235D01*
X79079329Y-79205970D01*
X79057151Y-79195480D01*
X79036107Y-79182867D01*
X79016402Y-79168253D01*
X78998223Y-79151777D01*
X78981747Y-79133598D01*
X78967133Y-79113893D01*
X78954520Y-79092849D01*
X78944030Y-79070671D01*
X78935765Y-79047571D01*
X78929804Y-79023773D01*
X78926204Y-78999504D01*
X78925000Y-78975000D01*
X78925000Y-78050000D01*
X78926204Y-78025496D01*
X78929804Y-78001227D01*
X78935765Y-77977429D01*
X78944030Y-77954329D01*
X78954520Y-77932151D01*
X78967133Y-77911107D01*
X78981747Y-77891402D01*
X78998223Y-77873223D01*
X79016402Y-77856747D01*
X79036107Y-77842133D01*
X79057151Y-77829520D01*
X79079329Y-77819030D01*
X79102429Y-77810765D01*
X79126227Y-77804804D01*
X79150496Y-77801204D01*
X79175000Y-77800000D01*
X80425000Y-77800000D01*
X80449504Y-77801204D01*
G37*
G36*
X80449504Y-80776204D02*
G01*
X80473773Y-80779804D01*
X80497571Y-80785765D01*
X80520671Y-80794030D01*
X80542849Y-80804520D01*
X80563893Y-80817133D01*
X80583598Y-80831747D01*
X80601777Y-80848223D01*
X80618253Y-80866402D01*
X80632867Y-80886107D01*
X80645480Y-80907151D01*
X80655970Y-80929329D01*
X80664235Y-80952429D01*
X80670196Y-80976227D01*
X80673796Y-81000496D01*
X80675000Y-81025000D01*
X80675000Y-81950000D01*
X80673796Y-81974504D01*
X80670196Y-81998773D01*
X80664235Y-82022571D01*
X80655970Y-82045671D01*
X80645480Y-82067849D01*
X80632867Y-82088893D01*
X80618253Y-82108598D01*
X80601777Y-82126777D01*
X80583598Y-82143253D01*
X80563893Y-82157867D01*
X80542849Y-82170480D01*
X80520671Y-82180970D01*
X80497571Y-82189235D01*
X80473773Y-82195196D01*
X80449504Y-82198796D01*
X80425000Y-82200000D01*
X79175000Y-82200000D01*
X79150496Y-82198796D01*
X79126227Y-82195196D01*
X79102429Y-82189235D01*
X79079329Y-82180970D01*
X79057151Y-82170480D01*
X79036107Y-82157867D01*
X79016402Y-82143253D01*
X78998223Y-82126777D01*
X78981747Y-82108598D01*
X78967133Y-82088893D01*
X78954520Y-82067849D01*
X78944030Y-82045671D01*
X78935765Y-82022571D01*
X78929804Y-81998773D01*
X78926204Y-81974504D01*
X78925000Y-81950000D01*
X78925000Y-81025000D01*
X78926204Y-81000496D01*
X78929804Y-80976227D01*
X78935765Y-80952429D01*
X78944030Y-80929329D01*
X78954520Y-80907151D01*
X78967133Y-80886107D01*
X78981747Y-80866402D01*
X78998223Y-80848223D01*
X79016402Y-80831747D01*
X79036107Y-80817133D01*
X79057151Y-80804520D01*
X79079329Y-80794030D01*
X79102429Y-80785765D01*
X79126227Y-80779804D01*
X79150496Y-80776204D01*
X79175000Y-80775000D01*
X80425000Y-80775000D01*
X80449504Y-80776204D01*
G37*
G36*
X73249504Y-77801204D02*
G01*
X73273773Y-77804804D01*
X73297571Y-77810765D01*
X73320671Y-77819030D01*
X73342849Y-77829520D01*
X73363893Y-77842133D01*
X73383598Y-77856747D01*
X73401777Y-77873223D01*
X73418253Y-77891402D01*
X73432867Y-77911107D01*
X73445480Y-77932151D01*
X73455970Y-77954329D01*
X73464235Y-77977429D01*
X73470196Y-78001227D01*
X73473796Y-78025496D01*
X73475000Y-78050000D01*
X73475000Y-78975000D01*
X73473796Y-78999504D01*
X73470196Y-79023773D01*
X73464235Y-79047571D01*
X73455970Y-79070671D01*
X73445480Y-79092849D01*
X73432867Y-79113893D01*
X73418253Y-79133598D01*
X73401777Y-79151777D01*
X73383598Y-79168253D01*
X73363893Y-79182867D01*
X73342849Y-79195480D01*
X73320671Y-79205970D01*
X73297571Y-79214235D01*
X73273773Y-79220196D01*
X73249504Y-79223796D01*
X73225000Y-79225000D01*
X71975000Y-79225000D01*
X71950496Y-79223796D01*
X71926227Y-79220196D01*
X71902429Y-79214235D01*
X71879329Y-79205970D01*
X71857151Y-79195480D01*
X71836107Y-79182867D01*
X71816402Y-79168253D01*
X71798223Y-79151777D01*
X71781747Y-79133598D01*
X71767133Y-79113893D01*
X71754520Y-79092849D01*
X71744030Y-79070671D01*
X71735765Y-79047571D01*
X71729804Y-79023773D01*
X71726204Y-78999504D01*
X71725000Y-78975000D01*
X71725000Y-78050000D01*
X71726204Y-78025496D01*
X71729804Y-78001227D01*
X71735765Y-77977429D01*
X71744030Y-77954329D01*
X71754520Y-77932151D01*
X71767133Y-77911107D01*
X71781747Y-77891402D01*
X71798223Y-77873223D01*
X71816402Y-77856747D01*
X71836107Y-77842133D01*
X71857151Y-77829520D01*
X71879329Y-77819030D01*
X71902429Y-77810765D01*
X71926227Y-77804804D01*
X71950496Y-77801204D01*
X71975000Y-77800000D01*
X73225000Y-77800000D01*
X73249504Y-77801204D01*
G37*
G36*
X73249504Y-80776204D02*
G01*
X73273773Y-80779804D01*
X73297571Y-80785765D01*
X73320671Y-80794030D01*
X73342849Y-80804520D01*
X73363893Y-80817133D01*
X73383598Y-80831747D01*
X73401777Y-80848223D01*
X73418253Y-80866402D01*
X73432867Y-80886107D01*
X73445480Y-80907151D01*
X73455970Y-80929329D01*
X73464235Y-80952429D01*
X73470196Y-80976227D01*
X73473796Y-81000496D01*
X73475000Y-81025000D01*
X73475000Y-81950000D01*
X73473796Y-81974504D01*
X73470196Y-81998773D01*
X73464235Y-82022571D01*
X73455970Y-82045671D01*
X73445480Y-82067849D01*
X73432867Y-82088893D01*
X73418253Y-82108598D01*
X73401777Y-82126777D01*
X73383598Y-82143253D01*
X73363893Y-82157867D01*
X73342849Y-82170480D01*
X73320671Y-82180970D01*
X73297571Y-82189235D01*
X73273773Y-82195196D01*
X73249504Y-82198796D01*
X73225000Y-82200000D01*
X71975000Y-82200000D01*
X71950496Y-82198796D01*
X71926227Y-82195196D01*
X71902429Y-82189235D01*
X71879329Y-82180970D01*
X71857151Y-82170480D01*
X71836107Y-82157867D01*
X71816402Y-82143253D01*
X71798223Y-82126777D01*
X71781747Y-82108598D01*
X71767133Y-82088893D01*
X71754520Y-82067849D01*
X71744030Y-82045671D01*
X71735765Y-82022571D01*
X71729804Y-81998773D01*
X71726204Y-81974504D01*
X71725000Y-81950000D01*
X71725000Y-81025000D01*
X71726204Y-81000496D01*
X71729804Y-80976227D01*
X71735765Y-80952429D01*
X71744030Y-80929329D01*
X71754520Y-80907151D01*
X71767133Y-80886107D01*
X71781747Y-80866402D01*
X71798223Y-80848223D01*
X71816402Y-80831747D01*
X71836107Y-80817133D01*
X71857151Y-80804520D01*
X71879329Y-80794030D01*
X71902429Y-80785765D01*
X71926227Y-80779804D01*
X71950496Y-80776204D01*
X71975000Y-80775000D01*
X73225000Y-80775000D01*
X73249504Y-80776204D01*
G37*
G36*
X66049504Y-77801204D02*
G01*
X66073773Y-77804804D01*
X66097571Y-77810765D01*
X66120671Y-77819030D01*
X66142849Y-77829520D01*
X66163893Y-77842133D01*
X66183598Y-77856747D01*
X66201777Y-77873223D01*
X66218253Y-77891402D01*
X66232867Y-77911107D01*
X66245480Y-77932151D01*
X66255970Y-77954329D01*
X66264235Y-77977429D01*
X66270196Y-78001227D01*
X66273796Y-78025496D01*
X66275000Y-78050000D01*
X66275000Y-78975000D01*
X66273796Y-78999504D01*
X66270196Y-79023773D01*
X66264235Y-79047571D01*
X66255970Y-79070671D01*
X66245480Y-79092849D01*
X66232867Y-79113893D01*
X66218253Y-79133598D01*
X66201777Y-79151777D01*
X66183598Y-79168253D01*
X66163893Y-79182867D01*
X66142849Y-79195480D01*
X66120671Y-79205970D01*
X66097571Y-79214235D01*
X66073773Y-79220196D01*
X66049504Y-79223796D01*
X66025000Y-79225000D01*
X64775000Y-79225000D01*
X64750496Y-79223796D01*
X64726227Y-79220196D01*
X64702429Y-79214235D01*
X64679329Y-79205970D01*
X64657151Y-79195480D01*
X64636107Y-79182867D01*
X64616402Y-79168253D01*
X64598223Y-79151777D01*
X64581747Y-79133598D01*
X64567133Y-79113893D01*
X64554520Y-79092849D01*
X64544030Y-79070671D01*
X64535765Y-79047571D01*
X64529804Y-79023773D01*
X64526204Y-78999504D01*
X64525000Y-78975000D01*
X64525000Y-78050000D01*
X64526204Y-78025496D01*
X64529804Y-78001227D01*
X64535765Y-77977429D01*
X64544030Y-77954329D01*
X64554520Y-77932151D01*
X64567133Y-77911107D01*
X64581747Y-77891402D01*
X64598223Y-77873223D01*
X64616402Y-77856747D01*
X64636107Y-77842133D01*
X64657151Y-77829520D01*
X64679329Y-77819030D01*
X64702429Y-77810765D01*
X64726227Y-77804804D01*
X64750496Y-77801204D01*
X64775000Y-77800000D01*
X66025000Y-77800000D01*
X66049504Y-77801204D01*
G37*
G36*
X66049504Y-80776204D02*
G01*
X66073773Y-80779804D01*
X66097571Y-80785765D01*
X66120671Y-80794030D01*
X66142849Y-80804520D01*
X66163893Y-80817133D01*
X66183598Y-80831747D01*
X66201777Y-80848223D01*
X66218253Y-80866402D01*
X66232867Y-80886107D01*
X66245480Y-80907151D01*
X66255970Y-80929329D01*
X66264235Y-80952429D01*
X66270196Y-80976227D01*
X66273796Y-81000496D01*
X66275000Y-81025000D01*
X66275000Y-81950000D01*
X66273796Y-81974504D01*
X66270196Y-81998773D01*
X66264235Y-82022571D01*
X66255970Y-82045671D01*
X66245480Y-82067849D01*
X66232867Y-82088893D01*
X66218253Y-82108598D01*
X66201777Y-82126777D01*
X66183598Y-82143253D01*
X66163893Y-82157867D01*
X66142849Y-82170480D01*
X66120671Y-82180970D01*
X66097571Y-82189235D01*
X66073773Y-82195196D01*
X66049504Y-82198796D01*
X66025000Y-82200000D01*
X64775000Y-82200000D01*
X64750496Y-82198796D01*
X64726227Y-82195196D01*
X64702429Y-82189235D01*
X64679329Y-82180970D01*
X64657151Y-82170480D01*
X64636107Y-82157867D01*
X64616402Y-82143253D01*
X64598223Y-82126777D01*
X64581747Y-82108598D01*
X64567133Y-82088893D01*
X64554520Y-82067849D01*
X64544030Y-82045671D01*
X64535765Y-82022571D01*
X64529804Y-81998773D01*
X64526204Y-81974504D01*
X64525000Y-81950000D01*
X64525000Y-81025000D01*
X64526204Y-81000496D01*
X64529804Y-80976227D01*
X64535765Y-80952429D01*
X64544030Y-80929329D01*
X64554520Y-80907151D01*
X64567133Y-80886107D01*
X64581747Y-80866402D01*
X64598223Y-80848223D01*
X64616402Y-80831747D01*
X64636107Y-80817133D01*
X64657151Y-80804520D01*
X64679329Y-80794030D01*
X64702429Y-80785765D01*
X64726227Y-80779804D01*
X64750496Y-80776204D01*
X64775000Y-80775000D01*
X66025000Y-80775000D01*
X66049504Y-80776204D01*
G37*
G36*
X58849504Y-77801204D02*
G01*
X58873773Y-77804804D01*
X58897571Y-77810765D01*
X58920671Y-77819030D01*
X58942849Y-77829520D01*
X58963893Y-77842133D01*
X58983598Y-77856747D01*
X59001777Y-77873223D01*
X59018253Y-77891402D01*
X59032867Y-77911107D01*
X59045480Y-77932151D01*
X59055970Y-77954329D01*
X59064235Y-77977429D01*
X59070196Y-78001227D01*
X59073796Y-78025496D01*
X59075000Y-78050000D01*
X59075000Y-78975000D01*
X59073796Y-78999504D01*
X59070196Y-79023773D01*
X59064235Y-79047571D01*
X59055970Y-79070671D01*
X59045480Y-79092849D01*
X59032867Y-79113893D01*
X59018253Y-79133598D01*
X59001777Y-79151777D01*
X58983598Y-79168253D01*
X58963893Y-79182867D01*
X58942849Y-79195480D01*
X58920671Y-79205970D01*
X58897571Y-79214235D01*
X58873773Y-79220196D01*
X58849504Y-79223796D01*
X58825000Y-79225000D01*
X57575000Y-79225000D01*
X57550496Y-79223796D01*
X57526227Y-79220196D01*
X57502429Y-79214235D01*
X57479329Y-79205970D01*
X57457151Y-79195480D01*
X57436107Y-79182867D01*
X57416402Y-79168253D01*
X57398223Y-79151777D01*
X57381747Y-79133598D01*
X57367133Y-79113893D01*
X57354520Y-79092849D01*
X57344030Y-79070671D01*
X57335765Y-79047571D01*
X57329804Y-79023773D01*
X57326204Y-78999504D01*
X57325000Y-78975000D01*
X57325000Y-78050000D01*
X57326204Y-78025496D01*
X57329804Y-78001227D01*
X57335765Y-77977429D01*
X57344030Y-77954329D01*
X57354520Y-77932151D01*
X57367133Y-77911107D01*
X57381747Y-77891402D01*
X57398223Y-77873223D01*
X57416402Y-77856747D01*
X57436107Y-77842133D01*
X57457151Y-77829520D01*
X57479329Y-77819030D01*
X57502429Y-77810765D01*
X57526227Y-77804804D01*
X57550496Y-77801204D01*
X57575000Y-77800000D01*
X58825000Y-77800000D01*
X58849504Y-77801204D01*
G37*
G36*
X58849504Y-80776204D02*
G01*
X58873773Y-80779804D01*
X58897571Y-80785765D01*
X58920671Y-80794030D01*
X58942849Y-80804520D01*
X58963893Y-80817133D01*
X58983598Y-80831747D01*
X59001777Y-80848223D01*
X59018253Y-80866402D01*
X59032867Y-80886107D01*
X59045480Y-80907151D01*
X59055970Y-80929329D01*
X59064235Y-80952429D01*
X59070196Y-80976227D01*
X59073796Y-81000496D01*
X59075000Y-81025000D01*
X59075000Y-81950000D01*
X59073796Y-81974504D01*
X59070196Y-81998773D01*
X59064235Y-82022571D01*
X59055970Y-82045671D01*
X59045480Y-82067849D01*
X59032867Y-82088893D01*
X59018253Y-82108598D01*
X59001777Y-82126777D01*
X58983598Y-82143253D01*
X58963893Y-82157867D01*
X58942849Y-82170480D01*
X58920671Y-82180970D01*
X58897571Y-82189235D01*
X58873773Y-82195196D01*
X58849504Y-82198796D01*
X58825000Y-82200000D01*
X57575000Y-82200000D01*
X57550496Y-82198796D01*
X57526227Y-82195196D01*
X57502429Y-82189235D01*
X57479329Y-82180970D01*
X57457151Y-82170480D01*
X57436107Y-82157867D01*
X57416402Y-82143253D01*
X57398223Y-82126777D01*
X57381747Y-82108598D01*
X57367133Y-82088893D01*
X57354520Y-82067849D01*
X57344030Y-82045671D01*
X57335765Y-82022571D01*
X57329804Y-81998773D01*
X57326204Y-81974504D01*
X57325000Y-81950000D01*
X57325000Y-81025000D01*
X57326204Y-81000496D01*
X57329804Y-80976227D01*
X57335765Y-80952429D01*
X57344030Y-80929329D01*
X57354520Y-80907151D01*
X57367133Y-80886107D01*
X57381747Y-80866402D01*
X57398223Y-80848223D01*
X57416402Y-80831747D01*
X57436107Y-80817133D01*
X57457151Y-80804520D01*
X57479329Y-80794030D01*
X57502429Y-80785765D01*
X57526227Y-80779804D01*
X57550496Y-80776204D01*
X57575000Y-80775000D01*
X58825000Y-80775000D01*
X58849504Y-80776204D01*
G37*
G36*
X141649504Y-69801204D02*
G01*
X141673773Y-69804804D01*
X141697571Y-69810765D01*
X141720671Y-69819030D01*
X141742849Y-69829520D01*
X141763893Y-69842133D01*
X141783598Y-69856747D01*
X141801777Y-69873223D01*
X141818253Y-69891402D01*
X141832867Y-69911107D01*
X141845480Y-69932151D01*
X141855970Y-69954329D01*
X141864235Y-69977429D01*
X141870196Y-70001227D01*
X141873796Y-70025496D01*
X141875000Y-70050000D01*
X141875000Y-70975000D01*
X141873796Y-70999504D01*
X141870196Y-71023773D01*
X141864235Y-71047571D01*
X141855970Y-71070671D01*
X141845480Y-71092849D01*
X141832867Y-71113893D01*
X141818253Y-71133598D01*
X141801777Y-71151777D01*
X141783598Y-71168253D01*
X141763893Y-71182867D01*
X141742849Y-71195480D01*
X141720671Y-71205970D01*
X141697571Y-71214235D01*
X141673773Y-71220196D01*
X141649504Y-71223796D01*
X141625000Y-71225000D01*
X140375000Y-71225000D01*
X140350496Y-71223796D01*
X140326227Y-71220196D01*
X140302429Y-71214235D01*
X140279329Y-71205970D01*
X140257151Y-71195480D01*
X140236107Y-71182867D01*
X140216402Y-71168253D01*
X140198223Y-71151777D01*
X140181747Y-71133598D01*
X140167133Y-71113893D01*
X140154520Y-71092849D01*
X140144030Y-71070671D01*
X140135765Y-71047571D01*
X140129804Y-71023773D01*
X140126204Y-70999504D01*
X140125000Y-70975000D01*
X140125000Y-70050000D01*
X140126204Y-70025496D01*
X140129804Y-70001227D01*
X140135765Y-69977429D01*
X140144030Y-69954329D01*
X140154520Y-69932151D01*
X140167133Y-69911107D01*
X140181747Y-69891402D01*
X140198223Y-69873223D01*
X140216402Y-69856747D01*
X140236107Y-69842133D01*
X140257151Y-69829520D01*
X140279329Y-69819030D01*
X140302429Y-69810765D01*
X140326227Y-69804804D01*
X140350496Y-69801204D01*
X140375000Y-69800000D01*
X141625000Y-69800000D01*
X141649504Y-69801204D01*
G37*
G36*
X141649504Y-72776204D02*
G01*
X141673773Y-72779804D01*
X141697571Y-72785765D01*
X141720671Y-72794030D01*
X141742849Y-72804520D01*
X141763893Y-72817133D01*
X141783598Y-72831747D01*
X141801777Y-72848223D01*
X141818253Y-72866402D01*
X141832867Y-72886107D01*
X141845480Y-72907151D01*
X141855970Y-72929329D01*
X141864235Y-72952429D01*
X141870196Y-72976227D01*
X141873796Y-73000496D01*
X141875000Y-73025000D01*
X141875000Y-73950000D01*
X141873796Y-73974504D01*
X141870196Y-73998773D01*
X141864235Y-74022571D01*
X141855970Y-74045671D01*
X141845480Y-74067849D01*
X141832867Y-74088893D01*
X141818253Y-74108598D01*
X141801777Y-74126777D01*
X141783598Y-74143253D01*
X141763893Y-74157867D01*
X141742849Y-74170480D01*
X141720671Y-74180970D01*
X141697571Y-74189235D01*
X141673773Y-74195196D01*
X141649504Y-74198796D01*
X141625000Y-74200000D01*
X140375000Y-74200000D01*
X140350496Y-74198796D01*
X140326227Y-74195196D01*
X140302429Y-74189235D01*
X140279329Y-74180970D01*
X140257151Y-74170480D01*
X140236107Y-74157867D01*
X140216402Y-74143253D01*
X140198223Y-74126777D01*
X140181747Y-74108598D01*
X140167133Y-74088893D01*
X140154520Y-74067849D01*
X140144030Y-74045671D01*
X140135765Y-74022571D01*
X140129804Y-73998773D01*
X140126204Y-73974504D01*
X140125000Y-73950000D01*
X140125000Y-73025000D01*
X140126204Y-73000496D01*
X140129804Y-72976227D01*
X140135765Y-72952429D01*
X140144030Y-72929329D01*
X140154520Y-72907151D01*
X140167133Y-72886107D01*
X140181747Y-72866402D01*
X140198223Y-72848223D01*
X140216402Y-72831747D01*
X140236107Y-72817133D01*
X140257151Y-72804520D01*
X140279329Y-72794030D01*
X140302429Y-72785765D01*
X140326227Y-72779804D01*
X140350496Y-72776204D01*
X140375000Y-72775000D01*
X141625000Y-72775000D01*
X141649504Y-72776204D01*
G37*
G36*
X134449504Y-69801204D02*
G01*
X134473773Y-69804804D01*
X134497571Y-69810765D01*
X134520671Y-69819030D01*
X134542849Y-69829520D01*
X134563893Y-69842133D01*
X134583598Y-69856747D01*
X134601777Y-69873223D01*
X134618253Y-69891402D01*
X134632867Y-69911107D01*
X134645480Y-69932151D01*
X134655970Y-69954329D01*
X134664235Y-69977429D01*
X134670196Y-70001227D01*
X134673796Y-70025496D01*
X134675000Y-70050000D01*
X134675000Y-70975000D01*
X134673796Y-70999504D01*
X134670196Y-71023773D01*
X134664235Y-71047571D01*
X134655970Y-71070671D01*
X134645480Y-71092849D01*
X134632867Y-71113893D01*
X134618253Y-71133598D01*
X134601777Y-71151777D01*
X134583598Y-71168253D01*
X134563893Y-71182867D01*
X134542849Y-71195480D01*
X134520671Y-71205970D01*
X134497571Y-71214235D01*
X134473773Y-71220196D01*
X134449504Y-71223796D01*
X134425000Y-71225000D01*
X133175000Y-71225000D01*
X133150496Y-71223796D01*
X133126227Y-71220196D01*
X133102429Y-71214235D01*
X133079329Y-71205970D01*
X133057151Y-71195480D01*
X133036107Y-71182867D01*
X133016402Y-71168253D01*
X132998223Y-71151777D01*
X132981747Y-71133598D01*
X132967133Y-71113893D01*
X132954520Y-71092849D01*
X132944030Y-71070671D01*
X132935765Y-71047571D01*
X132929804Y-71023773D01*
X132926204Y-70999504D01*
X132925000Y-70975000D01*
X132925000Y-70050000D01*
X132926204Y-70025496D01*
X132929804Y-70001227D01*
X132935765Y-69977429D01*
X132944030Y-69954329D01*
X132954520Y-69932151D01*
X132967133Y-69911107D01*
X132981747Y-69891402D01*
X132998223Y-69873223D01*
X133016402Y-69856747D01*
X133036107Y-69842133D01*
X133057151Y-69829520D01*
X133079329Y-69819030D01*
X133102429Y-69810765D01*
X133126227Y-69804804D01*
X133150496Y-69801204D01*
X133175000Y-69800000D01*
X134425000Y-69800000D01*
X134449504Y-69801204D01*
G37*
G36*
X134449504Y-72776204D02*
G01*
X134473773Y-72779804D01*
X134497571Y-72785765D01*
X134520671Y-72794030D01*
X134542849Y-72804520D01*
X134563893Y-72817133D01*
X134583598Y-72831747D01*
X134601777Y-72848223D01*
X134618253Y-72866402D01*
X134632867Y-72886107D01*
X134645480Y-72907151D01*
X134655970Y-72929329D01*
X134664235Y-72952429D01*
X134670196Y-72976227D01*
X134673796Y-73000496D01*
X134675000Y-73025000D01*
X134675000Y-73950000D01*
X134673796Y-73974504D01*
X134670196Y-73998773D01*
X134664235Y-74022571D01*
X134655970Y-74045671D01*
X134645480Y-74067849D01*
X134632867Y-74088893D01*
X134618253Y-74108598D01*
X134601777Y-74126777D01*
X134583598Y-74143253D01*
X134563893Y-74157867D01*
X134542849Y-74170480D01*
X134520671Y-74180970D01*
X134497571Y-74189235D01*
X134473773Y-74195196D01*
X134449504Y-74198796D01*
X134425000Y-74200000D01*
X133175000Y-74200000D01*
X133150496Y-74198796D01*
X133126227Y-74195196D01*
X133102429Y-74189235D01*
X133079329Y-74180970D01*
X133057151Y-74170480D01*
X133036107Y-74157867D01*
X133016402Y-74143253D01*
X132998223Y-74126777D01*
X132981747Y-74108598D01*
X132967133Y-74088893D01*
X132954520Y-74067849D01*
X132944030Y-74045671D01*
X132935765Y-74022571D01*
X132929804Y-73998773D01*
X132926204Y-73974504D01*
X132925000Y-73950000D01*
X132925000Y-73025000D01*
X132926204Y-73000496D01*
X132929804Y-72976227D01*
X132935765Y-72952429D01*
X132944030Y-72929329D01*
X132954520Y-72907151D01*
X132967133Y-72886107D01*
X132981747Y-72866402D01*
X132998223Y-72848223D01*
X133016402Y-72831747D01*
X133036107Y-72817133D01*
X133057151Y-72804520D01*
X133079329Y-72794030D01*
X133102429Y-72785765D01*
X133126227Y-72779804D01*
X133150496Y-72776204D01*
X133175000Y-72775000D01*
X134425000Y-72775000D01*
X134449504Y-72776204D01*
G37*
G36*
X127249504Y-69801204D02*
G01*
X127273773Y-69804804D01*
X127297571Y-69810765D01*
X127320671Y-69819030D01*
X127342849Y-69829520D01*
X127363893Y-69842133D01*
X127383598Y-69856747D01*
X127401777Y-69873223D01*
X127418253Y-69891402D01*
X127432867Y-69911107D01*
X127445480Y-69932151D01*
X127455970Y-69954329D01*
X127464235Y-69977429D01*
X127470196Y-70001227D01*
X127473796Y-70025496D01*
X127475000Y-70050000D01*
X127475000Y-70975000D01*
X127473796Y-70999504D01*
X127470196Y-71023773D01*
X127464235Y-71047571D01*
X127455970Y-71070671D01*
X127445480Y-71092849D01*
X127432867Y-71113893D01*
X127418253Y-71133598D01*
X127401777Y-71151777D01*
X127383598Y-71168253D01*
X127363893Y-71182867D01*
X127342849Y-71195480D01*
X127320671Y-71205970D01*
X127297571Y-71214235D01*
X127273773Y-71220196D01*
X127249504Y-71223796D01*
X127225000Y-71225000D01*
X125975000Y-71225000D01*
X125950496Y-71223796D01*
X125926227Y-71220196D01*
X125902429Y-71214235D01*
X125879329Y-71205970D01*
X125857151Y-71195480D01*
X125836107Y-71182867D01*
X125816402Y-71168253D01*
X125798223Y-71151777D01*
X125781747Y-71133598D01*
X125767133Y-71113893D01*
X125754520Y-71092849D01*
X125744030Y-71070671D01*
X125735765Y-71047571D01*
X125729804Y-71023773D01*
X125726204Y-70999504D01*
X125725000Y-70975000D01*
X125725000Y-70050000D01*
X125726204Y-70025496D01*
X125729804Y-70001227D01*
X125735765Y-69977429D01*
X125744030Y-69954329D01*
X125754520Y-69932151D01*
X125767133Y-69911107D01*
X125781747Y-69891402D01*
X125798223Y-69873223D01*
X125816402Y-69856747D01*
X125836107Y-69842133D01*
X125857151Y-69829520D01*
X125879329Y-69819030D01*
X125902429Y-69810765D01*
X125926227Y-69804804D01*
X125950496Y-69801204D01*
X125975000Y-69800000D01*
X127225000Y-69800000D01*
X127249504Y-69801204D01*
G37*
G36*
X127249504Y-72776204D02*
G01*
X127273773Y-72779804D01*
X127297571Y-72785765D01*
X127320671Y-72794030D01*
X127342849Y-72804520D01*
X127363893Y-72817133D01*
X127383598Y-72831747D01*
X127401777Y-72848223D01*
X127418253Y-72866402D01*
X127432867Y-72886107D01*
X127445480Y-72907151D01*
X127455970Y-72929329D01*
X127464235Y-72952429D01*
X127470196Y-72976227D01*
X127473796Y-73000496D01*
X127475000Y-73025000D01*
X127475000Y-73950000D01*
X127473796Y-73974504D01*
X127470196Y-73998773D01*
X127464235Y-74022571D01*
X127455970Y-74045671D01*
X127445480Y-74067849D01*
X127432867Y-74088893D01*
X127418253Y-74108598D01*
X127401777Y-74126777D01*
X127383598Y-74143253D01*
X127363893Y-74157867D01*
X127342849Y-74170480D01*
X127320671Y-74180970D01*
X127297571Y-74189235D01*
X127273773Y-74195196D01*
X127249504Y-74198796D01*
X127225000Y-74200000D01*
X125975000Y-74200000D01*
X125950496Y-74198796D01*
X125926227Y-74195196D01*
X125902429Y-74189235D01*
X125879329Y-74180970D01*
X125857151Y-74170480D01*
X125836107Y-74157867D01*
X125816402Y-74143253D01*
X125798223Y-74126777D01*
X125781747Y-74108598D01*
X125767133Y-74088893D01*
X125754520Y-74067849D01*
X125744030Y-74045671D01*
X125735765Y-74022571D01*
X125729804Y-73998773D01*
X125726204Y-73974504D01*
X125725000Y-73950000D01*
X125725000Y-73025000D01*
X125726204Y-73000496D01*
X125729804Y-72976227D01*
X125735765Y-72952429D01*
X125744030Y-72929329D01*
X125754520Y-72907151D01*
X125767133Y-72886107D01*
X125781747Y-72866402D01*
X125798223Y-72848223D01*
X125816402Y-72831747D01*
X125836107Y-72817133D01*
X125857151Y-72804520D01*
X125879329Y-72794030D01*
X125902429Y-72785765D01*
X125926227Y-72779804D01*
X125950496Y-72776204D01*
X125975000Y-72775000D01*
X127225000Y-72775000D01*
X127249504Y-72776204D01*
G37*
G36*
X120049504Y-69801204D02*
G01*
X120073773Y-69804804D01*
X120097571Y-69810765D01*
X120120671Y-69819030D01*
X120142849Y-69829520D01*
X120163893Y-69842133D01*
X120183598Y-69856747D01*
X120201777Y-69873223D01*
X120218253Y-69891402D01*
X120232867Y-69911107D01*
X120245480Y-69932151D01*
X120255970Y-69954329D01*
X120264235Y-69977429D01*
X120270196Y-70001227D01*
X120273796Y-70025496D01*
X120275000Y-70050000D01*
X120275000Y-70975000D01*
X120273796Y-70999504D01*
X120270196Y-71023773D01*
X120264235Y-71047571D01*
X120255970Y-71070671D01*
X120245480Y-71092849D01*
X120232867Y-71113893D01*
X120218253Y-71133598D01*
X120201777Y-71151777D01*
X120183598Y-71168253D01*
X120163893Y-71182867D01*
X120142849Y-71195480D01*
X120120671Y-71205970D01*
X120097571Y-71214235D01*
X120073773Y-71220196D01*
X120049504Y-71223796D01*
X120025000Y-71225000D01*
X118775000Y-71225000D01*
X118750496Y-71223796D01*
X118726227Y-71220196D01*
X118702429Y-71214235D01*
X118679329Y-71205970D01*
X118657151Y-71195480D01*
X118636107Y-71182867D01*
X118616402Y-71168253D01*
X118598223Y-71151777D01*
X118581747Y-71133598D01*
X118567133Y-71113893D01*
X118554520Y-71092849D01*
X118544030Y-71070671D01*
X118535765Y-71047571D01*
X118529804Y-71023773D01*
X118526204Y-70999504D01*
X118525000Y-70975000D01*
X118525000Y-70050000D01*
X118526204Y-70025496D01*
X118529804Y-70001227D01*
X118535765Y-69977429D01*
X118544030Y-69954329D01*
X118554520Y-69932151D01*
X118567133Y-69911107D01*
X118581747Y-69891402D01*
X118598223Y-69873223D01*
X118616402Y-69856747D01*
X118636107Y-69842133D01*
X118657151Y-69829520D01*
X118679329Y-69819030D01*
X118702429Y-69810765D01*
X118726227Y-69804804D01*
X118750496Y-69801204D01*
X118775000Y-69800000D01*
X120025000Y-69800000D01*
X120049504Y-69801204D01*
G37*
G36*
X120049504Y-72776204D02*
G01*
X120073773Y-72779804D01*
X120097571Y-72785765D01*
X120120671Y-72794030D01*
X120142849Y-72804520D01*
X120163893Y-72817133D01*
X120183598Y-72831747D01*
X120201777Y-72848223D01*
X120218253Y-72866402D01*
X120232867Y-72886107D01*
X120245480Y-72907151D01*
X120255970Y-72929329D01*
X120264235Y-72952429D01*
X120270196Y-72976227D01*
X120273796Y-73000496D01*
X120275000Y-73025000D01*
X120275000Y-73950000D01*
X120273796Y-73974504D01*
X120270196Y-73998773D01*
X120264235Y-74022571D01*
X120255970Y-74045671D01*
X120245480Y-74067849D01*
X120232867Y-74088893D01*
X120218253Y-74108598D01*
X120201777Y-74126777D01*
X120183598Y-74143253D01*
X120163893Y-74157867D01*
X120142849Y-74170480D01*
X120120671Y-74180970D01*
X120097571Y-74189235D01*
X120073773Y-74195196D01*
X120049504Y-74198796D01*
X120025000Y-74200000D01*
X118775000Y-74200000D01*
X118750496Y-74198796D01*
X118726227Y-74195196D01*
X118702429Y-74189235D01*
X118679329Y-74180970D01*
X118657151Y-74170480D01*
X118636107Y-74157867D01*
X118616402Y-74143253D01*
X118598223Y-74126777D01*
X118581747Y-74108598D01*
X118567133Y-74088893D01*
X118554520Y-74067849D01*
X118544030Y-74045671D01*
X118535765Y-74022571D01*
X118529804Y-73998773D01*
X118526204Y-73974504D01*
X118525000Y-73950000D01*
X118525000Y-73025000D01*
X118526204Y-73000496D01*
X118529804Y-72976227D01*
X118535765Y-72952429D01*
X118544030Y-72929329D01*
X118554520Y-72907151D01*
X118567133Y-72886107D01*
X118581747Y-72866402D01*
X118598223Y-72848223D01*
X118616402Y-72831747D01*
X118636107Y-72817133D01*
X118657151Y-72804520D01*
X118679329Y-72794030D01*
X118702429Y-72785765D01*
X118726227Y-72779804D01*
X118750496Y-72776204D01*
X118775000Y-72775000D01*
X120025000Y-72775000D01*
X120049504Y-72776204D01*
G37*
G36*
X112849504Y-69801204D02*
G01*
X112873773Y-69804804D01*
X112897571Y-69810765D01*
X112920671Y-69819030D01*
X112942849Y-69829520D01*
X112963893Y-69842133D01*
X112983598Y-69856747D01*
X113001777Y-69873223D01*
X113018253Y-69891402D01*
X113032867Y-69911107D01*
X113045480Y-69932151D01*
X113055970Y-69954329D01*
X113064235Y-69977429D01*
X113070196Y-70001227D01*
X113073796Y-70025496D01*
X113075000Y-70050000D01*
X113075000Y-70975000D01*
X113073796Y-70999504D01*
X113070196Y-71023773D01*
X113064235Y-71047571D01*
X113055970Y-71070671D01*
X113045480Y-71092849D01*
X113032867Y-71113893D01*
X113018253Y-71133598D01*
X113001777Y-71151777D01*
X112983598Y-71168253D01*
X112963893Y-71182867D01*
X112942849Y-71195480D01*
X112920671Y-71205970D01*
X112897571Y-71214235D01*
X112873773Y-71220196D01*
X112849504Y-71223796D01*
X112825000Y-71225000D01*
X111575000Y-71225000D01*
X111550496Y-71223796D01*
X111526227Y-71220196D01*
X111502429Y-71214235D01*
X111479329Y-71205970D01*
X111457151Y-71195480D01*
X111436107Y-71182867D01*
X111416402Y-71168253D01*
X111398223Y-71151777D01*
X111381747Y-71133598D01*
X111367133Y-71113893D01*
X111354520Y-71092849D01*
X111344030Y-71070671D01*
X111335765Y-71047571D01*
X111329804Y-71023773D01*
X111326204Y-70999504D01*
X111325000Y-70975000D01*
X111325000Y-70050000D01*
X111326204Y-70025496D01*
X111329804Y-70001227D01*
X111335765Y-69977429D01*
X111344030Y-69954329D01*
X111354520Y-69932151D01*
X111367133Y-69911107D01*
X111381747Y-69891402D01*
X111398223Y-69873223D01*
X111416402Y-69856747D01*
X111436107Y-69842133D01*
X111457151Y-69829520D01*
X111479329Y-69819030D01*
X111502429Y-69810765D01*
X111526227Y-69804804D01*
X111550496Y-69801204D01*
X111575000Y-69800000D01*
X112825000Y-69800000D01*
X112849504Y-69801204D01*
G37*
G36*
X112849504Y-72776204D02*
G01*
X112873773Y-72779804D01*
X112897571Y-72785765D01*
X112920671Y-72794030D01*
X112942849Y-72804520D01*
X112963893Y-72817133D01*
X112983598Y-72831747D01*
X113001777Y-72848223D01*
X113018253Y-72866402D01*
X113032867Y-72886107D01*
X113045480Y-72907151D01*
X113055970Y-72929329D01*
X113064235Y-72952429D01*
X113070196Y-72976227D01*
X113073796Y-73000496D01*
X113075000Y-73025000D01*
X113075000Y-73950000D01*
X113073796Y-73974504D01*
X113070196Y-73998773D01*
X113064235Y-74022571D01*
X113055970Y-74045671D01*
X113045480Y-74067849D01*
X113032867Y-74088893D01*
X113018253Y-74108598D01*
X113001777Y-74126777D01*
X112983598Y-74143253D01*
X112963893Y-74157867D01*
X112942849Y-74170480D01*
X112920671Y-74180970D01*
X112897571Y-74189235D01*
X112873773Y-74195196D01*
X112849504Y-74198796D01*
X112825000Y-74200000D01*
X111575000Y-74200000D01*
X111550496Y-74198796D01*
X111526227Y-74195196D01*
X111502429Y-74189235D01*
X111479329Y-74180970D01*
X111457151Y-74170480D01*
X111436107Y-74157867D01*
X111416402Y-74143253D01*
X111398223Y-74126777D01*
X111381747Y-74108598D01*
X111367133Y-74088893D01*
X111354520Y-74067849D01*
X111344030Y-74045671D01*
X111335765Y-74022571D01*
X111329804Y-73998773D01*
X111326204Y-73974504D01*
X111325000Y-73950000D01*
X111325000Y-73025000D01*
X111326204Y-73000496D01*
X111329804Y-72976227D01*
X111335765Y-72952429D01*
X111344030Y-72929329D01*
X111354520Y-72907151D01*
X111367133Y-72886107D01*
X111381747Y-72866402D01*
X111398223Y-72848223D01*
X111416402Y-72831747D01*
X111436107Y-72817133D01*
X111457151Y-72804520D01*
X111479329Y-72794030D01*
X111502429Y-72785765D01*
X111526227Y-72779804D01*
X111550496Y-72776204D01*
X111575000Y-72775000D01*
X112825000Y-72775000D01*
X112849504Y-72776204D01*
G37*
G36*
X105649504Y-69801204D02*
G01*
X105673773Y-69804804D01*
X105697571Y-69810765D01*
X105720671Y-69819030D01*
X105742849Y-69829520D01*
X105763893Y-69842133D01*
X105783598Y-69856747D01*
X105801777Y-69873223D01*
X105818253Y-69891402D01*
X105832867Y-69911107D01*
X105845480Y-69932151D01*
X105855970Y-69954329D01*
X105864235Y-69977429D01*
X105870196Y-70001227D01*
X105873796Y-70025496D01*
X105875000Y-70050000D01*
X105875000Y-70975000D01*
X105873796Y-70999504D01*
X105870196Y-71023773D01*
X105864235Y-71047571D01*
X105855970Y-71070671D01*
X105845480Y-71092849D01*
X105832867Y-71113893D01*
X105818253Y-71133598D01*
X105801777Y-71151777D01*
X105783598Y-71168253D01*
X105763893Y-71182867D01*
X105742849Y-71195480D01*
X105720671Y-71205970D01*
X105697571Y-71214235D01*
X105673773Y-71220196D01*
X105649504Y-71223796D01*
X105625000Y-71225000D01*
X104375000Y-71225000D01*
X104350496Y-71223796D01*
X104326227Y-71220196D01*
X104302429Y-71214235D01*
X104279329Y-71205970D01*
X104257151Y-71195480D01*
X104236107Y-71182867D01*
X104216402Y-71168253D01*
X104198223Y-71151777D01*
X104181747Y-71133598D01*
X104167133Y-71113893D01*
X104154520Y-71092849D01*
X104144030Y-71070671D01*
X104135765Y-71047571D01*
X104129804Y-71023773D01*
X104126204Y-70999504D01*
X104125000Y-70975000D01*
X104125000Y-70050000D01*
X104126204Y-70025496D01*
X104129804Y-70001227D01*
X104135765Y-69977429D01*
X104144030Y-69954329D01*
X104154520Y-69932151D01*
X104167133Y-69911107D01*
X104181747Y-69891402D01*
X104198223Y-69873223D01*
X104216402Y-69856747D01*
X104236107Y-69842133D01*
X104257151Y-69829520D01*
X104279329Y-69819030D01*
X104302429Y-69810765D01*
X104326227Y-69804804D01*
X104350496Y-69801204D01*
X104375000Y-69800000D01*
X105625000Y-69800000D01*
X105649504Y-69801204D01*
G37*
G36*
X105649504Y-72776204D02*
G01*
X105673773Y-72779804D01*
X105697571Y-72785765D01*
X105720671Y-72794030D01*
X105742849Y-72804520D01*
X105763893Y-72817133D01*
X105783598Y-72831747D01*
X105801777Y-72848223D01*
X105818253Y-72866402D01*
X105832867Y-72886107D01*
X105845480Y-72907151D01*
X105855970Y-72929329D01*
X105864235Y-72952429D01*
X105870196Y-72976227D01*
X105873796Y-73000496D01*
X105875000Y-73025000D01*
X105875000Y-73950000D01*
X105873796Y-73974504D01*
X105870196Y-73998773D01*
X105864235Y-74022571D01*
X105855970Y-74045671D01*
X105845480Y-74067849D01*
X105832867Y-74088893D01*
X105818253Y-74108598D01*
X105801777Y-74126777D01*
X105783598Y-74143253D01*
X105763893Y-74157867D01*
X105742849Y-74170480D01*
X105720671Y-74180970D01*
X105697571Y-74189235D01*
X105673773Y-74195196D01*
X105649504Y-74198796D01*
X105625000Y-74200000D01*
X104375000Y-74200000D01*
X104350496Y-74198796D01*
X104326227Y-74195196D01*
X104302429Y-74189235D01*
X104279329Y-74180970D01*
X104257151Y-74170480D01*
X104236107Y-74157867D01*
X104216402Y-74143253D01*
X104198223Y-74126777D01*
X104181747Y-74108598D01*
X104167133Y-74088893D01*
X104154520Y-74067849D01*
X104144030Y-74045671D01*
X104135765Y-74022571D01*
X104129804Y-73998773D01*
X104126204Y-73974504D01*
X104125000Y-73950000D01*
X104125000Y-73025000D01*
X104126204Y-73000496D01*
X104129804Y-72976227D01*
X104135765Y-72952429D01*
X104144030Y-72929329D01*
X104154520Y-72907151D01*
X104167133Y-72886107D01*
X104181747Y-72866402D01*
X104198223Y-72848223D01*
X104216402Y-72831747D01*
X104236107Y-72817133D01*
X104257151Y-72804520D01*
X104279329Y-72794030D01*
X104302429Y-72785765D01*
X104326227Y-72779804D01*
X104350496Y-72776204D01*
X104375000Y-72775000D01*
X105625000Y-72775000D01*
X105649504Y-72776204D01*
G37*
G36*
X98449504Y-69801204D02*
G01*
X98473773Y-69804804D01*
X98497571Y-69810765D01*
X98520671Y-69819030D01*
X98542849Y-69829520D01*
X98563893Y-69842133D01*
X98583598Y-69856747D01*
X98601777Y-69873223D01*
X98618253Y-69891402D01*
X98632867Y-69911107D01*
X98645480Y-69932151D01*
X98655970Y-69954329D01*
X98664235Y-69977429D01*
X98670196Y-70001227D01*
X98673796Y-70025496D01*
X98675000Y-70050000D01*
X98675000Y-70975000D01*
X98673796Y-70999504D01*
X98670196Y-71023773D01*
X98664235Y-71047571D01*
X98655970Y-71070671D01*
X98645480Y-71092849D01*
X98632867Y-71113893D01*
X98618253Y-71133598D01*
X98601777Y-71151777D01*
X98583598Y-71168253D01*
X98563893Y-71182867D01*
X98542849Y-71195480D01*
X98520671Y-71205970D01*
X98497571Y-71214235D01*
X98473773Y-71220196D01*
X98449504Y-71223796D01*
X98425000Y-71225000D01*
X97175000Y-71225000D01*
X97150496Y-71223796D01*
X97126227Y-71220196D01*
X97102429Y-71214235D01*
X97079329Y-71205970D01*
X97057151Y-71195480D01*
X97036107Y-71182867D01*
X97016402Y-71168253D01*
X96998223Y-71151777D01*
X96981747Y-71133598D01*
X96967133Y-71113893D01*
X96954520Y-71092849D01*
X96944030Y-71070671D01*
X96935765Y-71047571D01*
X96929804Y-71023773D01*
X96926204Y-70999504D01*
X96925000Y-70975000D01*
X96925000Y-70050000D01*
X96926204Y-70025496D01*
X96929804Y-70001227D01*
X96935765Y-69977429D01*
X96944030Y-69954329D01*
X96954520Y-69932151D01*
X96967133Y-69911107D01*
X96981747Y-69891402D01*
X96998223Y-69873223D01*
X97016402Y-69856747D01*
X97036107Y-69842133D01*
X97057151Y-69829520D01*
X97079329Y-69819030D01*
X97102429Y-69810765D01*
X97126227Y-69804804D01*
X97150496Y-69801204D01*
X97175000Y-69800000D01*
X98425000Y-69800000D01*
X98449504Y-69801204D01*
G37*
G36*
X98449504Y-72776204D02*
G01*
X98473773Y-72779804D01*
X98497571Y-72785765D01*
X98520671Y-72794030D01*
X98542849Y-72804520D01*
X98563893Y-72817133D01*
X98583598Y-72831747D01*
X98601777Y-72848223D01*
X98618253Y-72866402D01*
X98632867Y-72886107D01*
X98645480Y-72907151D01*
X98655970Y-72929329D01*
X98664235Y-72952429D01*
X98670196Y-72976227D01*
X98673796Y-73000496D01*
X98675000Y-73025000D01*
X98675000Y-73950000D01*
X98673796Y-73974504D01*
X98670196Y-73998773D01*
X98664235Y-74022571D01*
X98655970Y-74045671D01*
X98645480Y-74067849D01*
X98632867Y-74088893D01*
X98618253Y-74108598D01*
X98601777Y-74126777D01*
X98583598Y-74143253D01*
X98563893Y-74157867D01*
X98542849Y-74170480D01*
X98520671Y-74180970D01*
X98497571Y-74189235D01*
X98473773Y-74195196D01*
X98449504Y-74198796D01*
X98425000Y-74200000D01*
X97175000Y-74200000D01*
X97150496Y-74198796D01*
X97126227Y-74195196D01*
X97102429Y-74189235D01*
X97079329Y-74180970D01*
X97057151Y-74170480D01*
X97036107Y-74157867D01*
X97016402Y-74143253D01*
X96998223Y-74126777D01*
X96981747Y-74108598D01*
X96967133Y-74088893D01*
X96954520Y-74067849D01*
X96944030Y-74045671D01*
X96935765Y-74022571D01*
X96929804Y-73998773D01*
X96926204Y-73974504D01*
X96925000Y-73950000D01*
X96925000Y-73025000D01*
X96926204Y-73000496D01*
X96929804Y-72976227D01*
X96935765Y-72952429D01*
X96944030Y-72929329D01*
X96954520Y-72907151D01*
X96967133Y-72886107D01*
X96981747Y-72866402D01*
X96998223Y-72848223D01*
X97016402Y-72831747D01*
X97036107Y-72817133D01*
X97057151Y-72804520D01*
X97079329Y-72794030D01*
X97102429Y-72785765D01*
X97126227Y-72779804D01*
X97150496Y-72776204D01*
X97175000Y-72775000D01*
X98425000Y-72775000D01*
X98449504Y-72776204D01*
G37*
G36*
X91249504Y-69801204D02*
G01*
X91273773Y-69804804D01*
X91297571Y-69810765D01*
X91320671Y-69819030D01*
X91342849Y-69829520D01*
X91363893Y-69842133D01*
X91383598Y-69856747D01*
X91401777Y-69873223D01*
X91418253Y-69891402D01*
X91432867Y-69911107D01*
X91445480Y-69932151D01*
X91455970Y-69954329D01*
X91464235Y-69977429D01*
X91470196Y-70001227D01*
X91473796Y-70025496D01*
X91475000Y-70050000D01*
X91475000Y-70975000D01*
X91473796Y-70999504D01*
X91470196Y-71023773D01*
X91464235Y-71047571D01*
X91455970Y-71070671D01*
X91445480Y-71092849D01*
X91432867Y-71113893D01*
X91418253Y-71133598D01*
X91401777Y-71151777D01*
X91383598Y-71168253D01*
X91363893Y-71182867D01*
X91342849Y-71195480D01*
X91320671Y-71205970D01*
X91297571Y-71214235D01*
X91273773Y-71220196D01*
X91249504Y-71223796D01*
X91225000Y-71225000D01*
X89975000Y-71225000D01*
X89950496Y-71223796D01*
X89926227Y-71220196D01*
X89902429Y-71214235D01*
X89879329Y-71205970D01*
X89857151Y-71195480D01*
X89836107Y-71182867D01*
X89816402Y-71168253D01*
X89798223Y-71151777D01*
X89781747Y-71133598D01*
X89767133Y-71113893D01*
X89754520Y-71092849D01*
X89744030Y-71070671D01*
X89735765Y-71047571D01*
X89729804Y-71023773D01*
X89726204Y-70999504D01*
X89725000Y-70975000D01*
X89725000Y-70050000D01*
X89726204Y-70025496D01*
X89729804Y-70001227D01*
X89735765Y-69977429D01*
X89744030Y-69954329D01*
X89754520Y-69932151D01*
X89767133Y-69911107D01*
X89781747Y-69891402D01*
X89798223Y-69873223D01*
X89816402Y-69856747D01*
X89836107Y-69842133D01*
X89857151Y-69829520D01*
X89879329Y-69819030D01*
X89902429Y-69810765D01*
X89926227Y-69804804D01*
X89950496Y-69801204D01*
X89975000Y-69800000D01*
X91225000Y-69800000D01*
X91249504Y-69801204D01*
G37*
G36*
X91249504Y-72776204D02*
G01*
X91273773Y-72779804D01*
X91297571Y-72785765D01*
X91320671Y-72794030D01*
X91342849Y-72804520D01*
X91363893Y-72817133D01*
X91383598Y-72831747D01*
X91401777Y-72848223D01*
X91418253Y-72866402D01*
X91432867Y-72886107D01*
X91445480Y-72907151D01*
X91455970Y-72929329D01*
X91464235Y-72952429D01*
X91470196Y-72976227D01*
X91473796Y-73000496D01*
X91475000Y-73025000D01*
X91475000Y-73950000D01*
X91473796Y-73974504D01*
X91470196Y-73998773D01*
X91464235Y-74022571D01*
X91455970Y-74045671D01*
X91445480Y-74067849D01*
X91432867Y-74088893D01*
X91418253Y-74108598D01*
X91401777Y-74126777D01*
X91383598Y-74143253D01*
X91363893Y-74157867D01*
X91342849Y-74170480D01*
X91320671Y-74180970D01*
X91297571Y-74189235D01*
X91273773Y-74195196D01*
X91249504Y-74198796D01*
X91225000Y-74200000D01*
X89975000Y-74200000D01*
X89950496Y-74198796D01*
X89926227Y-74195196D01*
X89902429Y-74189235D01*
X89879329Y-74180970D01*
X89857151Y-74170480D01*
X89836107Y-74157867D01*
X89816402Y-74143253D01*
X89798223Y-74126777D01*
X89781747Y-74108598D01*
X89767133Y-74088893D01*
X89754520Y-74067849D01*
X89744030Y-74045671D01*
X89735765Y-74022571D01*
X89729804Y-73998773D01*
X89726204Y-73974504D01*
X89725000Y-73950000D01*
X89725000Y-73025000D01*
X89726204Y-73000496D01*
X89729804Y-72976227D01*
X89735765Y-72952429D01*
X89744030Y-72929329D01*
X89754520Y-72907151D01*
X89767133Y-72886107D01*
X89781747Y-72866402D01*
X89798223Y-72848223D01*
X89816402Y-72831747D01*
X89836107Y-72817133D01*
X89857151Y-72804520D01*
X89879329Y-72794030D01*
X89902429Y-72785765D01*
X89926227Y-72779804D01*
X89950496Y-72776204D01*
X89975000Y-72775000D01*
X91225000Y-72775000D01*
X91249504Y-72776204D01*
G37*
G36*
X84049504Y-69801204D02*
G01*
X84073773Y-69804804D01*
X84097571Y-69810765D01*
X84120671Y-69819030D01*
X84142849Y-69829520D01*
X84163893Y-69842133D01*
X84183598Y-69856747D01*
X84201777Y-69873223D01*
X84218253Y-69891402D01*
X84232867Y-69911107D01*
X84245480Y-69932151D01*
X84255970Y-69954329D01*
X84264235Y-69977429D01*
X84270196Y-70001227D01*
X84273796Y-70025496D01*
X84275000Y-70050000D01*
X84275000Y-70975000D01*
X84273796Y-70999504D01*
X84270196Y-71023773D01*
X84264235Y-71047571D01*
X84255970Y-71070671D01*
X84245480Y-71092849D01*
X84232867Y-71113893D01*
X84218253Y-71133598D01*
X84201777Y-71151777D01*
X84183598Y-71168253D01*
X84163893Y-71182867D01*
X84142849Y-71195480D01*
X84120671Y-71205970D01*
X84097571Y-71214235D01*
X84073773Y-71220196D01*
X84049504Y-71223796D01*
X84025000Y-71225000D01*
X82775000Y-71225000D01*
X82750496Y-71223796D01*
X82726227Y-71220196D01*
X82702429Y-71214235D01*
X82679329Y-71205970D01*
X82657151Y-71195480D01*
X82636107Y-71182867D01*
X82616402Y-71168253D01*
X82598223Y-71151777D01*
X82581747Y-71133598D01*
X82567133Y-71113893D01*
X82554520Y-71092849D01*
X82544030Y-71070671D01*
X82535765Y-71047571D01*
X82529804Y-71023773D01*
X82526204Y-70999504D01*
X82525000Y-70975000D01*
X82525000Y-70050000D01*
X82526204Y-70025496D01*
X82529804Y-70001227D01*
X82535765Y-69977429D01*
X82544030Y-69954329D01*
X82554520Y-69932151D01*
X82567133Y-69911107D01*
X82581747Y-69891402D01*
X82598223Y-69873223D01*
X82616402Y-69856747D01*
X82636107Y-69842133D01*
X82657151Y-69829520D01*
X82679329Y-69819030D01*
X82702429Y-69810765D01*
X82726227Y-69804804D01*
X82750496Y-69801204D01*
X82775000Y-69800000D01*
X84025000Y-69800000D01*
X84049504Y-69801204D01*
G37*
G36*
X84049504Y-72776204D02*
G01*
X84073773Y-72779804D01*
X84097571Y-72785765D01*
X84120671Y-72794030D01*
X84142849Y-72804520D01*
X84163893Y-72817133D01*
X84183598Y-72831747D01*
X84201777Y-72848223D01*
X84218253Y-72866402D01*
X84232867Y-72886107D01*
X84245480Y-72907151D01*
X84255970Y-72929329D01*
X84264235Y-72952429D01*
X84270196Y-72976227D01*
X84273796Y-73000496D01*
X84275000Y-73025000D01*
X84275000Y-73950000D01*
X84273796Y-73974504D01*
X84270196Y-73998773D01*
X84264235Y-74022571D01*
X84255970Y-74045671D01*
X84245480Y-74067849D01*
X84232867Y-74088893D01*
X84218253Y-74108598D01*
X84201777Y-74126777D01*
X84183598Y-74143253D01*
X84163893Y-74157867D01*
X84142849Y-74170480D01*
X84120671Y-74180970D01*
X84097571Y-74189235D01*
X84073773Y-74195196D01*
X84049504Y-74198796D01*
X84025000Y-74200000D01*
X82775000Y-74200000D01*
X82750496Y-74198796D01*
X82726227Y-74195196D01*
X82702429Y-74189235D01*
X82679329Y-74180970D01*
X82657151Y-74170480D01*
X82636107Y-74157867D01*
X82616402Y-74143253D01*
X82598223Y-74126777D01*
X82581747Y-74108598D01*
X82567133Y-74088893D01*
X82554520Y-74067849D01*
X82544030Y-74045671D01*
X82535765Y-74022571D01*
X82529804Y-73998773D01*
X82526204Y-73974504D01*
X82525000Y-73950000D01*
X82525000Y-73025000D01*
X82526204Y-73000496D01*
X82529804Y-72976227D01*
X82535765Y-72952429D01*
X82544030Y-72929329D01*
X82554520Y-72907151D01*
X82567133Y-72886107D01*
X82581747Y-72866402D01*
X82598223Y-72848223D01*
X82616402Y-72831747D01*
X82636107Y-72817133D01*
X82657151Y-72804520D01*
X82679329Y-72794030D01*
X82702429Y-72785765D01*
X82726227Y-72779804D01*
X82750496Y-72776204D01*
X82775000Y-72775000D01*
X84025000Y-72775000D01*
X84049504Y-72776204D01*
G37*
G36*
X76849504Y-69801204D02*
G01*
X76873773Y-69804804D01*
X76897571Y-69810765D01*
X76920671Y-69819030D01*
X76942849Y-69829520D01*
X76963893Y-69842133D01*
X76983598Y-69856747D01*
X77001777Y-69873223D01*
X77018253Y-69891402D01*
X77032867Y-69911107D01*
X77045480Y-69932151D01*
X77055970Y-69954329D01*
X77064235Y-69977429D01*
X77070196Y-70001227D01*
X77073796Y-70025496D01*
X77075000Y-70050000D01*
X77075000Y-70975000D01*
X77073796Y-70999504D01*
X77070196Y-71023773D01*
X77064235Y-71047571D01*
X77055970Y-71070671D01*
X77045480Y-71092849D01*
X77032867Y-71113893D01*
X77018253Y-71133598D01*
X77001777Y-71151777D01*
X76983598Y-71168253D01*
X76963893Y-71182867D01*
X76942849Y-71195480D01*
X76920671Y-71205970D01*
X76897571Y-71214235D01*
X76873773Y-71220196D01*
X76849504Y-71223796D01*
X76825000Y-71225000D01*
X75575000Y-71225000D01*
X75550496Y-71223796D01*
X75526227Y-71220196D01*
X75502429Y-71214235D01*
X75479329Y-71205970D01*
X75457151Y-71195480D01*
X75436107Y-71182867D01*
X75416402Y-71168253D01*
X75398223Y-71151777D01*
X75381747Y-71133598D01*
X75367133Y-71113893D01*
X75354520Y-71092849D01*
X75344030Y-71070671D01*
X75335765Y-71047571D01*
X75329804Y-71023773D01*
X75326204Y-70999504D01*
X75325000Y-70975000D01*
X75325000Y-70050000D01*
X75326204Y-70025496D01*
X75329804Y-70001227D01*
X75335765Y-69977429D01*
X75344030Y-69954329D01*
X75354520Y-69932151D01*
X75367133Y-69911107D01*
X75381747Y-69891402D01*
X75398223Y-69873223D01*
X75416402Y-69856747D01*
X75436107Y-69842133D01*
X75457151Y-69829520D01*
X75479329Y-69819030D01*
X75502429Y-69810765D01*
X75526227Y-69804804D01*
X75550496Y-69801204D01*
X75575000Y-69800000D01*
X76825000Y-69800000D01*
X76849504Y-69801204D01*
G37*
G36*
X76849504Y-72776204D02*
G01*
X76873773Y-72779804D01*
X76897571Y-72785765D01*
X76920671Y-72794030D01*
X76942849Y-72804520D01*
X76963893Y-72817133D01*
X76983598Y-72831747D01*
X77001777Y-72848223D01*
X77018253Y-72866402D01*
X77032867Y-72886107D01*
X77045480Y-72907151D01*
X77055970Y-72929329D01*
X77064235Y-72952429D01*
X77070196Y-72976227D01*
X77073796Y-73000496D01*
X77075000Y-73025000D01*
X77075000Y-73950000D01*
X77073796Y-73974504D01*
X77070196Y-73998773D01*
X77064235Y-74022571D01*
X77055970Y-74045671D01*
X77045480Y-74067849D01*
X77032867Y-74088893D01*
X77018253Y-74108598D01*
X77001777Y-74126777D01*
X76983598Y-74143253D01*
X76963893Y-74157867D01*
X76942849Y-74170480D01*
X76920671Y-74180970D01*
X76897571Y-74189235D01*
X76873773Y-74195196D01*
X76849504Y-74198796D01*
X76825000Y-74200000D01*
X75575000Y-74200000D01*
X75550496Y-74198796D01*
X75526227Y-74195196D01*
X75502429Y-74189235D01*
X75479329Y-74180970D01*
X75457151Y-74170480D01*
X75436107Y-74157867D01*
X75416402Y-74143253D01*
X75398223Y-74126777D01*
X75381747Y-74108598D01*
X75367133Y-74088893D01*
X75354520Y-74067849D01*
X75344030Y-74045671D01*
X75335765Y-74022571D01*
X75329804Y-73998773D01*
X75326204Y-73974504D01*
X75325000Y-73950000D01*
X75325000Y-73025000D01*
X75326204Y-73000496D01*
X75329804Y-72976227D01*
X75335765Y-72952429D01*
X75344030Y-72929329D01*
X75354520Y-72907151D01*
X75367133Y-72886107D01*
X75381747Y-72866402D01*
X75398223Y-72848223D01*
X75416402Y-72831747D01*
X75436107Y-72817133D01*
X75457151Y-72804520D01*
X75479329Y-72794030D01*
X75502429Y-72785765D01*
X75526227Y-72779804D01*
X75550496Y-72776204D01*
X75575000Y-72775000D01*
X76825000Y-72775000D01*
X76849504Y-72776204D01*
G37*
G36*
X69649504Y-69801204D02*
G01*
X69673773Y-69804804D01*
X69697571Y-69810765D01*
X69720671Y-69819030D01*
X69742849Y-69829520D01*
X69763893Y-69842133D01*
X69783598Y-69856747D01*
X69801777Y-69873223D01*
X69818253Y-69891402D01*
X69832867Y-69911107D01*
X69845480Y-69932151D01*
X69855970Y-69954329D01*
X69864235Y-69977429D01*
X69870196Y-70001227D01*
X69873796Y-70025496D01*
X69875000Y-70050000D01*
X69875000Y-70975000D01*
X69873796Y-70999504D01*
X69870196Y-71023773D01*
X69864235Y-71047571D01*
X69855970Y-71070671D01*
X69845480Y-71092849D01*
X69832867Y-71113893D01*
X69818253Y-71133598D01*
X69801777Y-71151777D01*
X69783598Y-71168253D01*
X69763893Y-71182867D01*
X69742849Y-71195480D01*
X69720671Y-71205970D01*
X69697571Y-71214235D01*
X69673773Y-71220196D01*
X69649504Y-71223796D01*
X69625000Y-71225000D01*
X68375000Y-71225000D01*
X68350496Y-71223796D01*
X68326227Y-71220196D01*
X68302429Y-71214235D01*
X68279329Y-71205970D01*
X68257151Y-71195480D01*
X68236107Y-71182867D01*
X68216402Y-71168253D01*
X68198223Y-71151777D01*
X68181747Y-71133598D01*
X68167133Y-71113893D01*
X68154520Y-71092849D01*
X68144030Y-71070671D01*
X68135765Y-71047571D01*
X68129804Y-71023773D01*
X68126204Y-70999504D01*
X68125000Y-70975000D01*
X68125000Y-70050000D01*
X68126204Y-70025496D01*
X68129804Y-70001227D01*
X68135765Y-69977429D01*
X68144030Y-69954329D01*
X68154520Y-69932151D01*
X68167133Y-69911107D01*
X68181747Y-69891402D01*
X68198223Y-69873223D01*
X68216402Y-69856747D01*
X68236107Y-69842133D01*
X68257151Y-69829520D01*
X68279329Y-69819030D01*
X68302429Y-69810765D01*
X68326227Y-69804804D01*
X68350496Y-69801204D01*
X68375000Y-69800000D01*
X69625000Y-69800000D01*
X69649504Y-69801204D01*
G37*
G36*
X69649504Y-72776204D02*
G01*
X69673773Y-72779804D01*
X69697571Y-72785765D01*
X69720671Y-72794030D01*
X69742849Y-72804520D01*
X69763893Y-72817133D01*
X69783598Y-72831747D01*
X69801777Y-72848223D01*
X69818253Y-72866402D01*
X69832867Y-72886107D01*
X69845480Y-72907151D01*
X69855970Y-72929329D01*
X69864235Y-72952429D01*
X69870196Y-72976227D01*
X69873796Y-73000496D01*
X69875000Y-73025000D01*
X69875000Y-73950000D01*
X69873796Y-73974504D01*
X69870196Y-73998773D01*
X69864235Y-74022571D01*
X69855970Y-74045671D01*
X69845480Y-74067849D01*
X69832867Y-74088893D01*
X69818253Y-74108598D01*
X69801777Y-74126777D01*
X69783598Y-74143253D01*
X69763893Y-74157867D01*
X69742849Y-74170480D01*
X69720671Y-74180970D01*
X69697571Y-74189235D01*
X69673773Y-74195196D01*
X69649504Y-74198796D01*
X69625000Y-74200000D01*
X68375000Y-74200000D01*
X68350496Y-74198796D01*
X68326227Y-74195196D01*
X68302429Y-74189235D01*
X68279329Y-74180970D01*
X68257151Y-74170480D01*
X68236107Y-74157867D01*
X68216402Y-74143253D01*
X68198223Y-74126777D01*
X68181747Y-74108598D01*
X68167133Y-74088893D01*
X68154520Y-74067849D01*
X68144030Y-74045671D01*
X68135765Y-74022571D01*
X68129804Y-73998773D01*
X68126204Y-73974504D01*
X68125000Y-73950000D01*
X68125000Y-73025000D01*
X68126204Y-73000496D01*
X68129804Y-72976227D01*
X68135765Y-72952429D01*
X68144030Y-72929329D01*
X68154520Y-72907151D01*
X68167133Y-72886107D01*
X68181747Y-72866402D01*
X68198223Y-72848223D01*
X68216402Y-72831747D01*
X68236107Y-72817133D01*
X68257151Y-72804520D01*
X68279329Y-72794030D01*
X68302429Y-72785765D01*
X68326227Y-72779804D01*
X68350496Y-72776204D01*
X68375000Y-72775000D01*
X69625000Y-72775000D01*
X69649504Y-72776204D01*
G37*
G36*
X62449504Y-69801204D02*
G01*
X62473773Y-69804804D01*
X62497571Y-69810765D01*
X62520671Y-69819030D01*
X62542849Y-69829520D01*
X62563893Y-69842133D01*
X62583598Y-69856747D01*
X62601777Y-69873223D01*
X62618253Y-69891402D01*
X62632867Y-69911107D01*
X62645480Y-69932151D01*
X62655970Y-69954329D01*
X62664235Y-69977429D01*
X62670196Y-70001227D01*
X62673796Y-70025496D01*
X62675000Y-70050000D01*
X62675000Y-70975000D01*
X62673796Y-70999504D01*
X62670196Y-71023773D01*
X62664235Y-71047571D01*
X62655970Y-71070671D01*
X62645480Y-71092849D01*
X62632867Y-71113893D01*
X62618253Y-71133598D01*
X62601777Y-71151777D01*
X62583598Y-71168253D01*
X62563893Y-71182867D01*
X62542849Y-71195480D01*
X62520671Y-71205970D01*
X62497571Y-71214235D01*
X62473773Y-71220196D01*
X62449504Y-71223796D01*
X62425000Y-71225000D01*
X61175000Y-71225000D01*
X61150496Y-71223796D01*
X61126227Y-71220196D01*
X61102429Y-71214235D01*
X61079329Y-71205970D01*
X61057151Y-71195480D01*
X61036107Y-71182867D01*
X61016402Y-71168253D01*
X60998223Y-71151777D01*
X60981747Y-71133598D01*
X60967133Y-71113893D01*
X60954520Y-71092849D01*
X60944030Y-71070671D01*
X60935765Y-71047571D01*
X60929804Y-71023773D01*
X60926204Y-70999504D01*
X60925000Y-70975000D01*
X60925000Y-70050000D01*
X60926204Y-70025496D01*
X60929804Y-70001227D01*
X60935765Y-69977429D01*
X60944030Y-69954329D01*
X60954520Y-69932151D01*
X60967133Y-69911107D01*
X60981747Y-69891402D01*
X60998223Y-69873223D01*
X61016402Y-69856747D01*
X61036107Y-69842133D01*
X61057151Y-69829520D01*
X61079329Y-69819030D01*
X61102429Y-69810765D01*
X61126227Y-69804804D01*
X61150496Y-69801204D01*
X61175000Y-69800000D01*
X62425000Y-69800000D01*
X62449504Y-69801204D01*
G37*
G36*
X62449504Y-72776204D02*
G01*
X62473773Y-72779804D01*
X62497571Y-72785765D01*
X62520671Y-72794030D01*
X62542849Y-72804520D01*
X62563893Y-72817133D01*
X62583598Y-72831747D01*
X62601777Y-72848223D01*
X62618253Y-72866402D01*
X62632867Y-72886107D01*
X62645480Y-72907151D01*
X62655970Y-72929329D01*
X62664235Y-72952429D01*
X62670196Y-72976227D01*
X62673796Y-73000496D01*
X62675000Y-73025000D01*
X62675000Y-73950000D01*
X62673796Y-73974504D01*
X62670196Y-73998773D01*
X62664235Y-74022571D01*
X62655970Y-74045671D01*
X62645480Y-74067849D01*
X62632867Y-74088893D01*
X62618253Y-74108598D01*
X62601777Y-74126777D01*
X62583598Y-74143253D01*
X62563893Y-74157867D01*
X62542849Y-74170480D01*
X62520671Y-74180970D01*
X62497571Y-74189235D01*
X62473773Y-74195196D01*
X62449504Y-74198796D01*
X62425000Y-74200000D01*
X61175000Y-74200000D01*
X61150496Y-74198796D01*
X61126227Y-74195196D01*
X61102429Y-74189235D01*
X61079329Y-74180970D01*
X61057151Y-74170480D01*
X61036107Y-74157867D01*
X61016402Y-74143253D01*
X60998223Y-74126777D01*
X60981747Y-74108598D01*
X60967133Y-74088893D01*
X60954520Y-74067849D01*
X60944030Y-74045671D01*
X60935765Y-74022571D01*
X60929804Y-73998773D01*
X60926204Y-73974504D01*
X60925000Y-73950000D01*
X60925000Y-73025000D01*
X60926204Y-73000496D01*
X60929804Y-72976227D01*
X60935765Y-72952429D01*
X60944030Y-72929329D01*
X60954520Y-72907151D01*
X60967133Y-72886107D01*
X60981747Y-72866402D01*
X60998223Y-72848223D01*
X61016402Y-72831747D01*
X61036107Y-72817133D01*
X61057151Y-72804520D01*
X61079329Y-72794030D01*
X61102429Y-72785765D01*
X61126227Y-72779804D01*
X61150496Y-72776204D01*
X61175000Y-72775000D01*
X62425000Y-72775000D01*
X62449504Y-72776204D01*
G37*
G36*
X55249504Y-69801204D02*
G01*
X55273773Y-69804804D01*
X55297571Y-69810765D01*
X55320671Y-69819030D01*
X55342849Y-69829520D01*
X55363893Y-69842133D01*
X55383598Y-69856747D01*
X55401777Y-69873223D01*
X55418253Y-69891402D01*
X55432867Y-69911107D01*
X55445480Y-69932151D01*
X55455970Y-69954329D01*
X55464235Y-69977429D01*
X55470196Y-70001227D01*
X55473796Y-70025496D01*
X55475000Y-70050000D01*
X55475000Y-70975000D01*
X55473796Y-70999504D01*
X55470196Y-71023773D01*
X55464235Y-71047571D01*
X55455970Y-71070671D01*
X55445480Y-71092849D01*
X55432867Y-71113893D01*
X55418253Y-71133598D01*
X55401777Y-71151777D01*
X55383598Y-71168253D01*
X55363893Y-71182867D01*
X55342849Y-71195480D01*
X55320671Y-71205970D01*
X55297571Y-71214235D01*
X55273773Y-71220196D01*
X55249504Y-71223796D01*
X55225000Y-71225000D01*
X53975000Y-71225000D01*
X53950496Y-71223796D01*
X53926227Y-71220196D01*
X53902429Y-71214235D01*
X53879329Y-71205970D01*
X53857151Y-71195480D01*
X53836107Y-71182867D01*
X53816402Y-71168253D01*
X53798223Y-71151777D01*
X53781747Y-71133598D01*
X53767133Y-71113893D01*
X53754520Y-71092849D01*
X53744030Y-71070671D01*
X53735765Y-71047571D01*
X53729804Y-71023773D01*
X53726204Y-70999504D01*
X53725000Y-70975000D01*
X53725000Y-70050000D01*
X53726204Y-70025496D01*
X53729804Y-70001227D01*
X53735765Y-69977429D01*
X53744030Y-69954329D01*
X53754520Y-69932151D01*
X53767133Y-69911107D01*
X53781747Y-69891402D01*
X53798223Y-69873223D01*
X53816402Y-69856747D01*
X53836107Y-69842133D01*
X53857151Y-69829520D01*
X53879329Y-69819030D01*
X53902429Y-69810765D01*
X53926227Y-69804804D01*
X53950496Y-69801204D01*
X53975000Y-69800000D01*
X55225000Y-69800000D01*
X55249504Y-69801204D01*
G37*
G36*
X55249504Y-72776204D02*
G01*
X55273773Y-72779804D01*
X55297571Y-72785765D01*
X55320671Y-72794030D01*
X55342849Y-72804520D01*
X55363893Y-72817133D01*
X55383598Y-72831747D01*
X55401777Y-72848223D01*
X55418253Y-72866402D01*
X55432867Y-72886107D01*
X55445480Y-72907151D01*
X55455970Y-72929329D01*
X55464235Y-72952429D01*
X55470196Y-72976227D01*
X55473796Y-73000496D01*
X55475000Y-73025000D01*
X55475000Y-73950000D01*
X55473796Y-73974504D01*
X55470196Y-73998773D01*
X55464235Y-74022571D01*
X55455970Y-74045671D01*
X55445480Y-74067849D01*
X55432867Y-74088893D01*
X55418253Y-74108598D01*
X55401777Y-74126777D01*
X55383598Y-74143253D01*
X55363893Y-74157867D01*
X55342849Y-74170480D01*
X55320671Y-74180970D01*
X55297571Y-74189235D01*
X55273773Y-74195196D01*
X55249504Y-74198796D01*
X55225000Y-74200000D01*
X53975000Y-74200000D01*
X53950496Y-74198796D01*
X53926227Y-74195196D01*
X53902429Y-74189235D01*
X53879329Y-74180970D01*
X53857151Y-74170480D01*
X53836107Y-74157867D01*
X53816402Y-74143253D01*
X53798223Y-74126777D01*
X53781747Y-74108598D01*
X53767133Y-74088893D01*
X53754520Y-74067849D01*
X53744030Y-74045671D01*
X53735765Y-74022571D01*
X53729804Y-73998773D01*
X53726204Y-73974504D01*
X53725000Y-73950000D01*
X53725000Y-73025000D01*
X53726204Y-73000496D01*
X53729804Y-72976227D01*
X53735765Y-72952429D01*
X53744030Y-72929329D01*
X53754520Y-72907151D01*
X53767133Y-72886107D01*
X53781747Y-72866402D01*
X53798223Y-72848223D01*
X53816402Y-72831747D01*
X53836107Y-72817133D01*
X53857151Y-72804520D01*
X53879329Y-72794030D01*
X53902429Y-72785765D01*
X53926227Y-72779804D01*
X53950496Y-72776204D01*
X53975000Y-72775000D01*
X55225000Y-72775000D01*
X55249504Y-72776204D01*
G37*
M02*
