G04 #@! TF.GenerationSoftware,KiCad,Pcbnew,(5.1.5-0)*
G04 #@! TF.CreationDate,2020-06-12T16:48:31+02:00*
G04 #@! TF.ProjectId,Divider1,44697669-6465-4723-912e-6b696361645f,rev?*
G04 #@! TF.SameCoordinates,Original*
G04 #@! TF.FileFunction,Soldermask,Top*
G04 #@! TF.FilePolarity,Negative*
%FSLAX46Y46*%
G04 Gerber Fmt 4.6, Leading zero omitted, Abs format (unit mm)*
G04 Created by KiCad (PCBNEW (5.1.5-0)) date 2020-06-12 16:48:31*
%MOMM*%
%LPD*%
G04 APERTURE LIST*
%ADD10C,0.100000*%
G04 APERTURE END LIST*
D10*
G36*
X51362857Y-88475782D02*
G01*
X51711776Y-88581626D01*
X52033332Y-88753500D01*
X52097620Y-88806260D01*
X52315188Y-88984812D01*
X52546497Y-89266664D01*
X52546500Y-89266668D01*
X52718374Y-89588223D01*
X52824218Y-89937142D01*
X52851000Y-90209065D01*
X52851000Y-96790935D01*
X52824218Y-97062858D01*
X52718374Y-97411777D01*
X52546500Y-97733332D01*
X52546498Y-97733335D01*
X52546497Y-97733336D01*
X52315188Y-98015188D01*
X52033336Y-98246497D01*
X52033332Y-98246500D01*
X51711777Y-98418374D01*
X51362858Y-98524218D01*
X51000000Y-98559956D01*
X50637143Y-98524218D01*
X50288224Y-98418374D01*
X49966669Y-98246500D01*
X49966665Y-98246497D01*
X49684813Y-98015188D01*
X49453504Y-97733336D01*
X49453503Y-97733335D01*
X49453501Y-97733332D01*
X49281627Y-97411777D01*
X49175783Y-97062858D01*
X49149001Y-96790935D01*
X49149000Y-90209066D01*
X49175782Y-89937143D01*
X49281626Y-89588224D01*
X49453500Y-89266668D01*
X49506260Y-89202380D01*
X49684812Y-88984812D01*
X49966664Y-88753503D01*
X49966665Y-88753502D01*
X49966668Y-88753500D01*
X50288223Y-88581626D01*
X50637142Y-88475782D01*
X51000000Y-88440044D01*
X51362857Y-88475782D01*
G37*
G36*
X58562857Y-88475782D02*
G01*
X58911776Y-88581626D01*
X59233332Y-88753500D01*
X59297620Y-88806260D01*
X59515188Y-88984812D01*
X59746497Y-89266664D01*
X59746500Y-89266668D01*
X59918374Y-89588223D01*
X60024218Y-89937142D01*
X60051000Y-90209065D01*
X60051000Y-96790935D01*
X60024218Y-97062858D01*
X59918374Y-97411777D01*
X59746500Y-97733332D01*
X59746498Y-97733335D01*
X59746497Y-97733336D01*
X59515188Y-98015188D01*
X59233336Y-98246497D01*
X59233332Y-98246500D01*
X58911777Y-98418374D01*
X58562858Y-98524218D01*
X58200000Y-98559956D01*
X57837143Y-98524218D01*
X57488224Y-98418374D01*
X57166669Y-98246500D01*
X57166665Y-98246497D01*
X56884813Y-98015188D01*
X56653504Y-97733336D01*
X56653503Y-97733335D01*
X56653501Y-97733332D01*
X56481627Y-97411777D01*
X56375783Y-97062858D01*
X56349001Y-96790935D01*
X56349000Y-90209066D01*
X56375782Y-89937143D01*
X56481626Y-89588224D01*
X56653500Y-89266668D01*
X56706260Y-89202380D01*
X56884812Y-88984812D01*
X57166664Y-88753503D01*
X57166665Y-88753502D01*
X57166668Y-88753500D01*
X57488223Y-88581626D01*
X57837142Y-88475782D01*
X58200000Y-88440044D01*
X58562857Y-88475782D01*
G37*
G36*
X65762857Y-88475782D02*
G01*
X66111776Y-88581626D01*
X66433332Y-88753500D01*
X66497620Y-88806260D01*
X66715188Y-88984812D01*
X66946497Y-89266664D01*
X66946500Y-89266668D01*
X67118374Y-89588223D01*
X67224218Y-89937142D01*
X67251000Y-90209065D01*
X67251000Y-96790935D01*
X67224218Y-97062858D01*
X67118374Y-97411777D01*
X66946500Y-97733332D01*
X66946498Y-97733335D01*
X66946497Y-97733336D01*
X66715188Y-98015188D01*
X66433336Y-98246497D01*
X66433332Y-98246500D01*
X66111777Y-98418374D01*
X65762858Y-98524218D01*
X65400000Y-98559956D01*
X65037143Y-98524218D01*
X64688224Y-98418374D01*
X64366669Y-98246500D01*
X64366665Y-98246497D01*
X64084813Y-98015188D01*
X63853504Y-97733336D01*
X63853503Y-97733335D01*
X63853501Y-97733332D01*
X63681627Y-97411777D01*
X63575783Y-97062858D01*
X63549001Y-96790935D01*
X63549000Y-90209066D01*
X63575782Y-89937143D01*
X63681626Y-89588224D01*
X63853500Y-89266668D01*
X63906260Y-89202380D01*
X64084812Y-88984812D01*
X64366664Y-88753503D01*
X64366665Y-88753502D01*
X64366668Y-88753500D01*
X64688223Y-88581626D01*
X65037142Y-88475782D01*
X65400000Y-88440044D01*
X65762857Y-88475782D01*
G37*
G36*
X72962857Y-88475782D02*
G01*
X73311776Y-88581626D01*
X73633332Y-88753500D01*
X73697620Y-88806260D01*
X73915188Y-88984812D01*
X74146497Y-89266664D01*
X74146500Y-89266668D01*
X74318374Y-89588223D01*
X74424218Y-89937142D01*
X74451000Y-90209065D01*
X74451000Y-96790935D01*
X74424218Y-97062858D01*
X74318374Y-97411777D01*
X74146500Y-97733332D01*
X74146498Y-97733335D01*
X74146497Y-97733336D01*
X73915188Y-98015188D01*
X73633336Y-98246497D01*
X73633332Y-98246500D01*
X73311777Y-98418374D01*
X72962858Y-98524218D01*
X72600000Y-98559956D01*
X72237143Y-98524218D01*
X71888224Y-98418374D01*
X71566669Y-98246500D01*
X71566665Y-98246497D01*
X71284813Y-98015188D01*
X71053504Y-97733336D01*
X71053503Y-97733335D01*
X71053501Y-97733332D01*
X70881627Y-97411777D01*
X70775783Y-97062858D01*
X70749001Y-96790935D01*
X70749000Y-90209066D01*
X70775782Y-89937143D01*
X70881626Y-89588224D01*
X71053500Y-89266668D01*
X71106260Y-89202380D01*
X71284812Y-88984812D01*
X71566664Y-88753503D01*
X71566665Y-88753502D01*
X71566668Y-88753500D01*
X71888223Y-88581626D01*
X72237142Y-88475782D01*
X72600000Y-88440044D01*
X72962857Y-88475782D01*
G37*
G36*
X80162857Y-88475782D02*
G01*
X80511776Y-88581626D01*
X80833332Y-88753500D01*
X80897620Y-88806260D01*
X81115188Y-88984812D01*
X81346497Y-89266664D01*
X81346500Y-89266668D01*
X81518374Y-89588223D01*
X81624218Y-89937142D01*
X81651000Y-90209065D01*
X81651000Y-96790935D01*
X81624218Y-97062858D01*
X81518374Y-97411777D01*
X81346500Y-97733332D01*
X81346498Y-97733335D01*
X81346497Y-97733336D01*
X81115188Y-98015188D01*
X80833336Y-98246497D01*
X80833332Y-98246500D01*
X80511777Y-98418374D01*
X80162858Y-98524218D01*
X79800000Y-98559956D01*
X79437143Y-98524218D01*
X79088224Y-98418374D01*
X78766669Y-98246500D01*
X78766665Y-98246497D01*
X78484813Y-98015188D01*
X78253504Y-97733336D01*
X78253503Y-97733335D01*
X78253501Y-97733332D01*
X78081627Y-97411777D01*
X77975783Y-97062858D01*
X77949001Y-96790935D01*
X77949000Y-90209066D01*
X77975782Y-89937143D01*
X78081626Y-89588224D01*
X78253500Y-89266668D01*
X78306260Y-89202380D01*
X78484812Y-88984812D01*
X78766664Y-88753503D01*
X78766665Y-88753502D01*
X78766668Y-88753500D01*
X79088223Y-88581626D01*
X79437142Y-88475782D01*
X79800000Y-88440044D01*
X80162857Y-88475782D01*
G37*
G36*
X87362857Y-88475782D02*
G01*
X87711776Y-88581626D01*
X88033332Y-88753500D01*
X88097620Y-88806260D01*
X88315188Y-88984812D01*
X88546497Y-89266664D01*
X88546500Y-89266668D01*
X88718374Y-89588223D01*
X88824218Y-89937142D01*
X88851000Y-90209065D01*
X88851000Y-96790935D01*
X88824218Y-97062858D01*
X88718374Y-97411777D01*
X88546500Y-97733332D01*
X88546498Y-97733335D01*
X88546497Y-97733336D01*
X88315188Y-98015188D01*
X88033336Y-98246497D01*
X88033332Y-98246500D01*
X87711777Y-98418374D01*
X87362858Y-98524218D01*
X87000000Y-98559956D01*
X86637143Y-98524218D01*
X86288224Y-98418374D01*
X85966669Y-98246500D01*
X85966665Y-98246497D01*
X85684813Y-98015188D01*
X85453504Y-97733336D01*
X85453503Y-97733335D01*
X85453501Y-97733332D01*
X85281627Y-97411777D01*
X85175783Y-97062858D01*
X85149001Y-96790935D01*
X85149000Y-90209066D01*
X85175782Y-89937143D01*
X85281626Y-89588224D01*
X85453500Y-89266668D01*
X85506260Y-89202380D01*
X85684812Y-88984812D01*
X85966664Y-88753503D01*
X85966665Y-88753502D01*
X85966668Y-88753500D01*
X86288223Y-88581626D01*
X86637142Y-88475782D01*
X87000000Y-88440044D01*
X87362857Y-88475782D01*
G37*
G36*
X94562857Y-88475782D02*
G01*
X94911776Y-88581626D01*
X95233332Y-88753500D01*
X95297620Y-88806260D01*
X95515188Y-88984812D01*
X95746497Y-89266664D01*
X95746500Y-89266668D01*
X95918374Y-89588223D01*
X96024218Y-89937142D01*
X96051000Y-90209065D01*
X96051000Y-96790935D01*
X96024218Y-97062858D01*
X95918374Y-97411777D01*
X95746500Y-97733332D01*
X95746498Y-97733335D01*
X95746497Y-97733336D01*
X95515188Y-98015188D01*
X95233336Y-98246497D01*
X95233332Y-98246500D01*
X94911777Y-98418374D01*
X94562858Y-98524218D01*
X94200000Y-98559956D01*
X93837143Y-98524218D01*
X93488224Y-98418374D01*
X93166669Y-98246500D01*
X93166665Y-98246497D01*
X92884813Y-98015188D01*
X92653504Y-97733336D01*
X92653503Y-97733335D01*
X92653501Y-97733332D01*
X92481627Y-97411777D01*
X92375783Y-97062858D01*
X92349001Y-96790935D01*
X92349000Y-90209066D01*
X92375782Y-89937143D01*
X92481626Y-89588224D01*
X92653500Y-89266668D01*
X92706260Y-89202380D01*
X92884812Y-88984812D01*
X93166664Y-88753503D01*
X93166665Y-88753502D01*
X93166668Y-88753500D01*
X93488223Y-88581626D01*
X93837142Y-88475782D01*
X94200000Y-88440044D01*
X94562857Y-88475782D01*
G37*
G36*
X101762857Y-88475782D02*
G01*
X102111776Y-88581626D01*
X102433332Y-88753500D01*
X102497620Y-88806260D01*
X102715188Y-88984812D01*
X102946497Y-89266664D01*
X102946500Y-89266668D01*
X103118374Y-89588223D01*
X103224218Y-89937142D01*
X103251000Y-90209065D01*
X103251000Y-96790935D01*
X103224218Y-97062858D01*
X103118374Y-97411777D01*
X102946500Y-97733332D01*
X102946498Y-97733335D01*
X102946497Y-97733336D01*
X102715188Y-98015188D01*
X102433336Y-98246497D01*
X102433332Y-98246500D01*
X102111777Y-98418374D01*
X101762858Y-98524218D01*
X101400000Y-98559956D01*
X101037143Y-98524218D01*
X100688224Y-98418374D01*
X100366669Y-98246500D01*
X100366665Y-98246497D01*
X100084813Y-98015188D01*
X99853504Y-97733336D01*
X99853503Y-97733335D01*
X99853501Y-97733332D01*
X99681627Y-97411777D01*
X99575783Y-97062858D01*
X99549001Y-96790935D01*
X99549000Y-90209066D01*
X99575782Y-89937143D01*
X99681626Y-89588224D01*
X99853500Y-89266668D01*
X99906260Y-89202380D01*
X100084812Y-88984812D01*
X100366664Y-88753503D01*
X100366665Y-88753502D01*
X100366668Y-88753500D01*
X100688223Y-88581626D01*
X101037142Y-88475782D01*
X101400000Y-88440044D01*
X101762857Y-88475782D01*
G37*
G36*
X108962857Y-88475782D02*
G01*
X109311776Y-88581626D01*
X109633332Y-88753500D01*
X109697620Y-88806260D01*
X109915188Y-88984812D01*
X110146497Y-89266664D01*
X110146500Y-89266668D01*
X110318374Y-89588223D01*
X110424218Y-89937142D01*
X110451000Y-90209065D01*
X110451000Y-96790935D01*
X110424218Y-97062858D01*
X110318374Y-97411777D01*
X110146500Y-97733332D01*
X110146498Y-97733335D01*
X110146497Y-97733336D01*
X109915188Y-98015188D01*
X109633336Y-98246497D01*
X109633332Y-98246500D01*
X109311777Y-98418374D01*
X108962858Y-98524218D01*
X108600000Y-98559956D01*
X108237143Y-98524218D01*
X107888224Y-98418374D01*
X107566669Y-98246500D01*
X107566665Y-98246497D01*
X107284813Y-98015188D01*
X107053504Y-97733336D01*
X107053503Y-97733335D01*
X107053501Y-97733332D01*
X106881627Y-97411777D01*
X106775783Y-97062858D01*
X106749001Y-96790935D01*
X106749000Y-90209066D01*
X106775782Y-89937143D01*
X106881626Y-89588224D01*
X107053500Y-89266668D01*
X107106260Y-89202380D01*
X107284812Y-88984812D01*
X107566664Y-88753503D01*
X107566665Y-88753502D01*
X107566668Y-88753500D01*
X107888223Y-88581626D01*
X108237142Y-88475782D01*
X108600000Y-88440044D01*
X108962857Y-88475782D01*
G37*
G36*
X116162857Y-88475782D02*
G01*
X116511776Y-88581626D01*
X116833332Y-88753500D01*
X116897620Y-88806260D01*
X117115188Y-88984812D01*
X117346497Y-89266664D01*
X117346500Y-89266668D01*
X117518374Y-89588223D01*
X117624218Y-89937142D01*
X117651000Y-90209065D01*
X117651000Y-96790935D01*
X117624218Y-97062858D01*
X117518374Y-97411777D01*
X117346500Y-97733332D01*
X117346498Y-97733335D01*
X117346497Y-97733336D01*
X117115188Y-98015188D01*
X116833336Y-98246497D01*
X116833332Y-98246500D01*
X116511777Y-98418374D01*
X116162858Y-98524218D01*
X115800000Y-98559956D01*
X115437143Y-98524218D01*
X115088224Y-98418374D01*
X114766669Y-98246500D01*
X114766665Y-98246497D01*
X114484813Y-98015188D01*
X114253504Y-97733336D01*
X114253503Y-97733335D01*
X114253501Y-97733332D01*
X114081627Y-97411777D01*
X113975783Y-97062858D01*
X113949001Y-96790935D01*
X113949000Y-90209066D01*
X113975782Y-89937143D01*
X114081626Y-89588224D01*
X114253500Y-89266668D01*
X114306260Y-89202380D01*
X114484812Y-88984812D01*
X114766664Y-88753503D01*
X114766665Y-88753502D01*
X114766668Y-88753500D01*
X115088223Y-88581626D01*
X115437142Y-88475782D01*
X115800000Y-88440044D01*
X116162857Y-88475782D01*
G37*
G36*
X123362857Y-88475782D02*
G01*
X123711776Y-88581626D01*
X124033332Y-88753500D01*
X124097620Y-88806260D01*
X124315188Y-88984812D01*
X124546497Y-89266664D01*
X124546500Y-89266668D01*
X124718374Y-89588223D01*
X124824218Y-89937142D01*
X124851000Y-90209065D01*
X124851000Y-96790935D01*
X124824218Y-97062858D01*
X124718374Y-97411777D01*
X124546500Y-97733332D01*
X124546498Y-97733335D01*
X124546497Y-97733336D01*
X124315188Y-98015188D01*
X124033336Y-98246497D01*
X124033332Y-98246500D01*
X123711777Y-98418374D01*
X123362858Y-98524218D01*
X123000000Y-98559956D01*
X122637143Y-98524218D01*
X122288224Y-98418374D01*
X121966669Y-98246500D01*
X121966665Y-98246497D01*
X121684813Y-98015188D01*
X121453504Y-97733336D01*
X121453503Y-97733335D01*
X121453501Y-97733332D01*
X121281627Y-97411777D01*
X121175783Y-97062858D01*
X121149001Y-96790935D01*
X121149000Y-90209066D01*
X121175782Y-89937143D01*
X121281626Y-89588224D01*
X121453500Y-89266668D01*
X121506260Y-89202380D01*
X121684812Y-88984812D01*
X121966664Y-88753503D01*
X121966665Y-88753502D01*
X121966668Y-88753500D01*
X122288223Y-88581626D01*
X122637142Y-88475782D01*
X123000000Y-88440044D01*
X123362857Y-88475782D01*
G37*
G36*
X130562857Y-88475782D02*
G01*
X130911776Y-88581626D01*
X131233332Y-88753500D01*
X131297620Y-88806260D01*
X131515188Y-88984812D01*
X131746497Y-89266664D01*
X131746500Y-89266668D01*
X131918374Y-89588223D01*
X132024218Y-89937142D01*
X132051000Y-90209065D01*
X132051000Y-96790935D01*
X132024218Y-97062858D01*
X131918374Y-97411777D01*
X131746500Y-97733332D01*
X131746498Y-97733335D01*
X131746497Y-97733336D01*
X131515188Y-98015188D01*
X131233336Y-98246497D01*
X131233332Y-98246500D01*
X130911777Y-98418374D01*
X130562858Y-98524218D01*
X130200000Y-98559956D01*
X129837143Y-98524218D01*
X129488224Y-98418374D01*
X129166669Y-98246500D01*
X129166665Y-98246497D01*
X128884813Y-98015188D01*
X128653504Y-97733336D01*
X128653503Y-97733335D01*
X128653501Y-97733332D01*
X128481627Y-97411777D01*
X128375783Y-97062858D01*
X128349001Y-96790935D01*
X128349000Y-90209066D01*
X128375782Y-89937143D01*
X128481626Y-89588224D01*
X128653500Y-89266668D01*
X128706260Y-89202380D01*
X128884812Y-88984812D01*
X129166664Y-88753503D01*
X129166665Y-88753502D01*
X129166668Y-88753500D01*
X129488223Y-88581626D01*
X129837142Y-88475782D01*
X130200000Y-88440044D01*
X130562857Y-88475782D01*
G37*
G36*
X137762857Y-88475782D02*
G01*
X138111776Y-88581626D01*
X138433332Y-88753500D01*
X138497620Y-88806260D01*
X138715188Y-88984812D01*
X138946497Y-89266664D01*
X138946500Y-89266668D01*
X139118374Y-89588223D01*
X139224218Y-89937142D01*
X139251000Y-90209065D01*
X139251000Y-96790935D01*
X139224218Y-97062858D01*
X139118374Y-97411777D01*
X138946500Y-97733332D01*
X138946498Y-97733335D01*
X138946497Y-97733336D01*
X138715188Y-98015188D01*
X138433336Y-98246497D01*
X138433332Y-98246500D01*
X138111777Y-98418374D01*
X137762858Y-98524218D01*
X137400000Y-98559956D01*
X137037143Y-98524218D01*
X136688224Y-98418374D01*
X136366669Y-98246500D01*
X136366665Y-98246497D01*
X136084813Y-98015188D01*
X135853504Y-97733336D01*
X135853503Y-97733335D01*
X135853501Y-97733332D01*
X135681627Y-97411777D01*
X135575783Y-97062858D01*
X135549001Y-96790935D01*
X135549000Y-90209066D01*
X135575782Y-89937143D01*
X135681626Y-89588224D01*
X135853500Y-89266668D01*
X135906260Y-89202380D01*
X136084812Y-88984812D01*
X136366664Y-88753503D01*
X136366665Y-88753502D01*
X136366668Y-88753500D01*
X136688223Y-88581626D01*
X137037142Y-88475782D01*
X137400000Y-88440044D01*
X137762857Y-88475782D01*
G37*
G36*
X144962857Y-88475782D02*
G01*
X145311776Y-88581626D01*
X145633332Y-88753500D01*
X145697620Y-88806260D01*
X145915188Y-88984812D01*
X146146497Y-89266664D01*
X146146500Y-89266668D01*
X146318374Y-89588223D01*
X146424218Y-89937142D01*
X146451000Y-90209065D01*
X146451000Y-96790935D01*
X146424218Y-97062858D01*
X146318374Y-97411777D01*
X146146500Y-97733332D01*
X146146498Y-97733335D01*
X146146497Y-97733336D01*
X145915188Y-98015188D01*
X145633336Y-98246497D01*
X145633332Y-98246500D01*
X145311777Y-98418374D01*
X144962858Y-98524218D01*
X144600000Y-98559956D01*
X144237143Y-98524218D01*
X143888224Y-98418374D01*
X143566669Y-98246500D01*
X143566665Y-98246497D01*
X143284813Y-98015188D01*
X143053504Y-97733336D01*
X143053503Y-97733335D01*
X143053501Y-97733332D01*
X142881627Y-97411777D01*
X142775783Y-97062858D01*
X142749001Y-96790935D01*
X142749000Y-90209066D01*
X142775782Y-89937143D01*
X142881626Y-89588224D01*
X143053500Y-89266668D01*
X143106260Y-89202380D01*
X143284812Y-88984812D01*
X143566664Y-88753503D01*
X143566665Y-88753502D01*
X143566668Y-88753500D01*
X143888223Y-88581626D01*
X144237142Y-88475782D01*
X144600000Y-88440044D01*
X144962857Y-88475782D01*
G37*
G36*
X51394072Y-84200918D02*
G01*
X51639939Y-84302759D01*
X51861212Y-84450610D01*
X52049390Y-84638788D01*
X52197241Y-84860061D01*
X52299082Y-85105928D01*
X52351000Y-85366938D01*
X52351000Y-85633062D01*
X52299082Y-85894072D01*
X52197241Y-86139939D01*
X52049390Y-86361212D01*
X51861212Y-86549390D01*
X51639939Y-86697241D01*
X51639938Y-86697242D01*
X51639937Y-86697242D01*
X51394072Y-86799082D01*
X51133063Y-86851000D01*
X50866937Y-86851000D01*
X50605928Y-86799082D01*
X50360063Y-86697242D01*
X50360062Y-86697242D01*
X50360061Y-86697241D01*
X50138788Y-86549390D01*
X49950610Y-86361212D01*
X49802759Y-86139939D01*
X49700918Y-85894072D01*
X49649000Y-85633062D01*
X49649000Y-85366938D01*
X49700918Y-85105928D01*
X49802759Y-84860061D01*
X49950610Y-84638788D01*
X50138788Y-84450610D01*
X50360061Y-84302759D01*
X50605928Y-84200918D01*
X50866937Y-84149000D01*
X51133063Y-84149000D01*
X51394072Y-84200918D01*
G37*
G36*
X58975562Y-80728181D02*
G01*
X59010481Y-80738774D01*
X59042663Y-80755976D01*
X59070873Y-80779127D01*
X59094024Y-80807337D01*
X59111226Y-80839519D01*
X59121819Y-80874438D01*
X59126000Y-80916895D01*
X59126000Y-82058105D01*
X59121819Y-82100562D01*
X59111226Y-82135481D01*
X59094024Y-82167663D01*
X59070873Y-82195873D01*
X59042663Y-82219024D01*
X59010481Y-82236226D01*
X58975562Y-82246819D01*
X58933105Y-82251000D01*
X57466895Y-82251000D01*
X57424438Y-82246819D01*
X57389519Y-82236226D01*
X57357337Y-82219024D01*
X57329127Y-82195873D01*
X57305976Y-82167663D01*
X57288774Y-82135481D01*
X57278181Y-82100562D01*
X57274000Y-82058105D01*
X57274000Y-80916895D01*
X57278181Y-80874438D01*
X57288774Y-80839519D01*
X57305976Y-80807337D01*
X57329127Y-80779127D01*
X57357337Y-80755976D01*
X57389519Y-80738774D01*
X57424438Y-80728181D01*
X57466895Y-80724000D01*
X58933105Y-80724000D01*
X58975562Y-80728181D01*
G37*
G36*
X109375562Y-80728181D02*
G01*
X109410481Y-80738774D01*
X109442663Y-80755976D01*
X109470873Y-80779127D01*
X109494024Y-80807337D01*
X109511226Y-80839519D01*
X109521819Y-80874438D01*
X109526000Y-80916895D01*
X109526000Y-82058105D01*
X109521819Y-82100562D01*
X109511226Y-82135481D01*
X109494024Y-82167663D01*
X109470873Y-82195873D01*
X109442663Y-82219024D01*
X109410481Y-82236226D01*
X109375562Y-82246819D01*
X109333105Y-82251000D01*
X107866895Y-82251000D01*
X107824438Y-82246819D01*
X107789519Y-82236226D01*
X107757337Y-82219024D01*
X107729127Y-82195873D01*
X107705976Y-82167663D01*
X107688774Y-82135481D01*
X107678181Y-82100562D01*
X107674000Y-82058105D01*
X107674000Y-80916895D01*
X107678181Y-80874438D01*
X107688774Y-80839519D01*
X107705976Y-80807337D01*
X107729127Y-80779127D01*
X107757337Y-80755976D01*
X107789519Y-80738774D01*
X107824438Y-80728181D01*
X107866895Y-80724000D01*
X109333105Y-80724000D01*
X109375562Y-80728181D01*
G37*
G36*
X51775562Y-80728181D02*
G01*
X51810481Y-80738774D01*
X51842663Y-80755976D01*
X51870873Y-80779127D01*
X51894024Y-80807337D01*
X51911226Y-80839519D01*
X51921819Y-80874438D01*
X51926000Y-80916895D01*
X51926000Y-82058105D01*
X51921819Y-82100562D01*
X51911226Y-82135481D01*
X51894024Y-82167663D01*
X51870873Y-82195873D01*
X51842663Y-82219024D01*
X51810481Y-82236226D01*
X51775562Y-82246819D01*
X51733105Y-82251000D01*
X50266895Y-82251000D01*
X50224438Y-82246819D01*
X50189519Y-82236226D01*
X50157337Y-82219024D01*
X50129127Y-82195873D01*
X50105976Y-82167663D01*
X50088774Y-82135481D01*
X50078181Y-82100562D01*
X50074000Y-82058105D01*
X50074000Y-80916895D01*
X50078181Y-80874438D01*
X50088774Y-80839519D01*
X50105976Y-80807337D01*
X50129127Y-80779127D01*
X50157337Y-80755976D01*
X50189519Y-80738774D01*
X50224438Y-80728181D01*
X50266895Y-80724000D01*
X51733105Y-80724000D01*
X51775562Y-80728181D01*
G37*
G36*
X145375562Y-80728181D02*
G01*
X145410481Y-80738774D01*
X145442663Y-80755976D01*
X145470873Y-80779127D01*
X145494024Y-80807337D01*
X145511226Y-80839519D01*
X145521819Y-80874438D01*
X145526000Y-80916895D01*
X145526000Y-82058105D01*
X145521819Y-82100562D01*
X145511226Y-82135481D01*
X145494024Y-82167663D01*
X145470873Y-82195873D01*
X145442663Y-82219024D01*
X145410481Y-82236226D01*
X145375562Y-82246819D01*
X145333105Y-82251000D01*
X143866895Y-82251000D01*
X143824438Y-82246819D01*
X143789519Y-82236226D01*
X143757337Y-82219024D01*
X143729127Y-82195873D01*
X143705976Y-82167663D01*
X143688774Y-82135481D01*
X143678181Y-82100562D01*
X143674000Y-82058105D01*
X143674000Y-80916895D01*
X143678181Y-80874438D01*
X143688774Y-80839519D01*
X143705976Y-80807337D01*
X143729127Y-80779127D01*
X143757337Y-80755976D01*
X143789519Y-80738774D01*
X143824438Y-80728181D01*
X143866895Y-80724000D01*
X145333105Y-80724000D01*
X145375562Y-80728181D01*
G37*
G36*
X138175562Y-80728181D02*
G01*
X138210481Y-80738774D01*
X138242663Y-80755976D01*
X138270873Y-80779127D01*
X138294024Y-80807337D01*
X138311226Y-80839519D01*
X138321819Y-80874438D01*
X138326000Y-80916895D01*
X138326000Y-82058105D01*
X138321819Y-82100562D01*
X138311226Y-82135481D01*
X138294024Y-82167663D01*
X138270873Y-82195873D01*
X138242663Y-82219024D01*
X138210481Y-82236226D01*
X138175562Y-82246819D01*
X138133105Y-82251000D01*
X136666895Y-82251000D01*
X136624438Y-82246819D01*
X136589519Y-82236226D01*
X136557337Y-82219024D01*
X136529127Y-82195873D01*
X136505976Y-82167663D01*
X136488774Y-82135481D01*
X136478181Y-82100562D01*
X136474000Y-82058105D01*
X136474000Y-80916895D01*
X136478181Y-80874438D01*
X136488774Y-80839519D01*
X136505976Y-80807337D01*
X136529127Y-80779127D01*
X136557337Y-80755976D01*
X136589519Y-80738774D01*
X136624438Y-80728181D01*
X136666895Y-80724000D01*
X138133105Y-80724000D01*
X138175562Y-80728181D01*
G37*
G36*
X130975562Y-80728181D02*
G01*
X131010481Y-80738774D01*
X131042663Y-80755976D01*
X131070873Y-80779127D01*
X131094024Y-80807337D01*
X131111226Y-80839519D01*
X131121819Y-80874438D01*
X131126000Y-80916895D01*
X131126000Y-82058105D01*
X131121819Y-82100562D01*
X131111226Y-82135481D01*
X131094024Y-82167663D01*
X131070873Y-82195873D01*
X131042663Y-82219024D01*
X131010481Y-82236226D01*
X130975562Y-82246819D01*
X130933105Y-82251000D01*
X129466895Y-82251000D01*
X129424438Y-82246819D01*
X129389519Y-82236226D01*
X129357337Y-82219024D01*
X129329127Y-82195873D01*
X129305976Y-82167663D01*
X129288774Y-82135481D01*
X129278181Y-82100562D01*
X129274000Y-82058105D01*
X129274000Y-80916895D01*
X129278181Y-80874438D01*
X129288774Y-80839519D01*
X129305976Y-80807337D01*
X129329127Y-80779127D01*
X129357337Y-80755976D01*
X129389519Y-80738774D01*
X129424438Y-80728181D01*
X129466895Y-80724000D01*
X130933105Y-80724000D01*
X130975562Y-80728181D01*
G37*
G36*
X123775562Y-80728181D02*
G01*
X123810481Y-80738774D01*
X123842663Y-80755976D01*
X123870873Y-80779127D01*
X123894024Y-80807337D01*
X123911226Y-80839519D01*
X123921819Y-80874438D01*
X123926000Y-80916895D01*
X123926000Y-82058105D01*
X123921819Y-82100562D01*
X123911226Y-82135481D01*
X123894024Y-82167663D01*
X123870873Y-82195873D01*
X123842663Y-82219024D01*
X123810481Y-82236226D01*
X123775562Y-82246819D01*
X123733105Y-82251000D01*
X122266895Y-82251000D01*
X122224438Y-82246819D01*
X122189519Y-82236226D01*
X122157337Y-82219024D01*
X122129127Y-82195873D01*
X122105976Y-82167663D01*
X122088774Y-82135481D01*
X122078181Y-82100562D01*
X122074000Y-82058105D01*
X122074000Y-80916895D01*
X122078181Y-80874438D01*
X122088774Y-80839519D01*
X122105976Y-80807337D01*
X122129127Y-80779127D01*
X122157337Y-80755976D01*
X122189519Y-80738774D01*
X122224438Y-80728181D01*
X122266895Y-80724000D01*
X123733105Y-80724000D01*
X123775562Y-80728181D01*
G37*
G36*
X116575562Y-80728181D02*
G01*
X116610481Y-80738774D01*
X116642663Y-80755976D01*
X116670873Y-80779127D01*
X116694024Y-80807337D01*
X116711226Y-80839519D01*
X116721819Y-80874438D01*
X116726000Y-80916895D01*
X116726000Y-82058105D01*
X116721819Y-82100562D01*
X116711226Y-82135481D01*
X116694024Y-82167663D01*
X116670873Y-82195873D01*
X116642663Y-82219024D01*
X116610481Y-82236226D01*
X116575562Y-82246819D01*
X116533105Y-82251000D01*
X115066895Y-82251000D01*
X115024438Y-82246819D01*
X114989519Y-82236226D01*
X114957337Y-82219024D01*
X114929127Y-82195873D01*
X114905976Y-82167663D01*
X114888774Y-82135481D01*
X114878181Y-82100562D01*
X114874000Y-82058105D01*
X114874000Y-80916895D01*
X114878181Y-80874438D01*
X114888774Y-80839519D01*
X114905976Y-80807337D01*
X114929127Y-80779127D01*
X114957337Y-80755976D01*
X114989519Y-80738774D01*
X115024438Y-80728181D01*
X115066895Y-80724000D01*
X116533105Y-80724000D01*
X116575562Y-80728181D01*
G37*
G36*
X102175562Y-80728181D02*
G01*
X102210481Y-80738774D01*
X102242663Y-80755976D01*
X102270873Y-80779127D01*
X102294024Y-80807337D01*
X102311226Y-80839519D01*
X102321819Y-80874438D01*
X102326000Y-80916895D01*
X102326000Y-82058105D01*
X102321819Y-82100562D01*
X102311226Y-82135481D01*
X102294024Y-82167663D01*
X102270873Y-82195873D01*
X102242663Y-82219024D01*
X102210481Y-82236226D01*
X102175562Y-82246819D01*
X102133105Y-82251000D01*
X100666895Y-82251000D01*
X100624438Y-82246819D01*
X100589519Y-82236226D01*
X100557337Y-82219024D01*
X100529127Y-82195873D01*
X100505976Y-82167663D01*
X100488774Y-82135481D01*
X100478181Y-82100562D01*
X100474000Y-82058105D01*
X100474000Y-80916895D01*
X100478181Y-80874438D01*
X100488774Y-80839519D01*
X100505976Y-80807337D01*
X100529127Y-80779127D01*
X100557337Y-80755976D01*
X100589519Y-80738774D01*
X100624438Y-80728181D01*
X100666895Y-80724000D01*
X102133105Y-80724000D01*
X102175562Y-80728181D01*
G37*
G36*
X94975562Y-80728181D02*
G01*
X95010481Y-80738774D01*
X95042663Y-80755976D01*
X95070873Y-80779127D01*
X95094024Y-80807337D01*
X95111226Y-80839519D01*
X95121819Y-80874438D01*
X95126000Y-80916895D01*
X95126000Y-82058105D01*
X95121819Y-82100562D01*
X95111226Y-82135481D01*
X95094024Y-82167663D01*
X95070873Y-82195873D01*
X95042663Y-82219024D01*
X95010481Y-82236226D01*
X94975562Y-82246819D01*
X94933105Y-82251000D01*
X93466895Y-82251000D01*
X93424438Y-82246819D01*
X93389519Y-82236226D01*
X93357337Y-82219024D01*
X93329127Y-82195873D01*
X93305976Y-82167663D01*
X93288774Y-82135481D01*
X93278181Y-82100562D01*
X93274000Y-82058105D01*
X93274000Y-80916895D01*
X93278181Y-80874438D01*
X93288774Y-80839519D01*
X93305976Y-80807337D01*
X93329127Y-80779127D01*
X93357337Y-80755976D01*
X93389519Y-80738774D01*
X93424438Y-80728181D01*
X93466895Y-80724000D01*
X94933105Y-80724000D01*
X94975562Y-80728181D01*
G37*
G36*
X87775562Y-80728181D02*
G01*
X87810481Y-80738774D01*
X87842663Y-80755976D01*
X87870873Y-80779127D01*
X87894024Y-80807337D01*
X87911226Y-80839519D01*
X87921819Y-80874438D01*
X87926000Y-80916895D01*
X87926000Y-82058105D01*
X87921819Y-82100562D01*
X87911226Y-82135481D01*
X87894024Y-82167663D01*
X87870873Y-82195873D01*
X87842663Y-82219024D01*
X87810481Y-82236226D01*
X87775562Y-82246819D01*
X87733105Y-82251000D01*
X86266895Y-82251000D01*
X86224438Y-82246819D01*
X86189519Y-82236226D01*
X86157337Y-82219024D01*
X86129127Y-82195873D01*
X86105976Y-82167663D01*
X86088774Y-82135481D01*
X86078181Y-82100562D01*
X86074000Y-82058105D01*
X86074000Y-80916895D01*
X86078181Y-80874438D01*
X86088774Y-80839519D01*
X86105976Y-80807337D01*
X86129127Y-80779127D01*
X86157337Y-80755976D01*
X86189519Y-80738774D01*
X86224438Y-80728181D01*
X86266895Y-80724000D01*
X87733105Y-80724000D01*
X87775562Y-80728181D01*
G37*
G36*
X80575562Y-80728181D02*
G01*
X80610481Y-80738774D01*
X80642663Y-80755976D01*
X80670873Y-80779127D01*
X80694024Y-80807337D01*
X80711226Y-80839519D01*
X80721819Y-80874438D01*
X80726000Y-80916895D01*
X80726000Y-82058105D01*
X80721819Y-82100562D01*
X80711226Y-82135481D01*
X80694024Y-82167663D01*
X80670873Y-82195873D01*
X80642663Y-82219024D01*
X80610481Y-82236226D01*
X80575562Y-82246819D01*
X80533105Y-82251000D01*
X79066895Y-82251000D01*
X79024438Y-82246819D01*
X78989519Y-82236226D01*
X78957337Y-82219024D01*
X78929127Y-82195873D01*
X78905976Y-82167663D01*
X78888774Y-82135481D01*
X78878181Y-82100562D01*
X78874000Y-82058105D01*
X78874000Y-80916895D01*
X78878181Y-80874438D01*
X78888774Y-80839519D01*
X78905976Y-80807337D01*
X78929127Y-80779127D01*
X78957337Y-80755976D01*
X78989519Y-80738774D01*
X79024438Y-80728181D01*
X79066895Y-80724000D01*
X80533105Y-80724000D01*
X80575562Y-80728181D01*
G37*
G36*
X73375562Y-80728181D02*
G01*
X73410481Y-80738774D01*
X73442663Y-80755976D01*
X73470873Y-80779127D01*
X73494024Y-80807337D01*
X73511226Y-80839519D01*
X73521819Y-80874438D01*
X73526000Y-80916895D01*
X73526000Y-82058105D01*
X73521819Y-82100562D01*
X73511226Y-82135481D01*
X73494024Y-82167663D01*
X73470873Y-82195873D01*
X73442663Y-82219024D01*
X73410481Y-82236226D01*
X73375562Y-82246819D01*
X73333105Y-82251000D01*
X71866895Y-82251000D01*
X71824438Y-82246819D01*
X71789519Y-82236226D01*
X71757337Y-82219024D01*
X71729127Y-82195873D01*
X71705976Y-82167663D01*
X71688774Y-82135481D01*
X71678181Y-82100562D01*
X71674000Y-82058105D01*
X71674000Y-80916895D01*
X71678181Y-80874438D01*
X71688774Y-80839519D01*
X71705976Y-80807337D01*
X71729127Y-80779127D01*
X71757337Y-80755976D01*
X71789519Y-80738774D01*
X71824438Y-80728181D01*
X71866895Y-80724000D01*
X73333105Y-80724000D01*
X73375562Y-80728181D01*
G37*
G36*
X66175562Y-80728181D02*
G01*
X66210481Y-80738774D01*
X66242663Y-80755976D01*
X66270873Y-80779127D01*
X66294024Y-80807337D01*
X66311226Y-80839519D01*
X66321819Y-80874438D01*
X66326000Y-80916895D01*
X66326000Y-82058105D01*
X66321819Y-82100562D01*
X66311226Y-82135481D01*
X66294024Y-82167663D01*
X66270873Y-82195873D01*
X66242663Y-82219024D01*
X66210481Y-82236226D01*
X66175562Y-82246819D01*
X66133105Y-82251000D01*
X64666895Y-82251000D01*
X64624438Y-82246819D01*
X64589519Y-82236226D01*
X64557337Y-82219024D01*
X64529127Y-82195873D01*
X64505976Y-82167663D01*
X64488774Y-82135481D01*
X64478181Y-82100562D01*
X64474000Y-82058105D01*
X64474000Y-80916895D01*
X64478181Y-80874438D01*
X64488774Y-80839519D01*
X64505976Y-80807337D01*
X64529127Y-80779127D01*
X64557337Y-80755976D01*
X64589519Y-80738774D01*
X64624438Y-80728181D01*
X64666895Y-80724000D01*
X66133105Y-80724000D01*
X66175562Y-80728181D01*
G37*
G36*
X109375562Y-77753181D02*
G01*
X109410481Y-77763774D01*
X109442663Y-77780976D01*
X109470873Y-77804127D01*
X109494024Y-77832337D01*
X109511226Y-77864519D01*
X109521819Y-77899438D01*
X109526000Y-77941895D01*
X109526000Y-79083105D01*
X109521819Y-79125562D01*
X109511226Y-79160481D01*
X109494024Y-79192663D01*
X109470873Y-79220873D01*
X109442663Y-79244024D01*
X109410481Y-79261226D01*
X109375562Y-79271819D01*
X109333105Y-79276000D01*
X107866895Y-79276000D01*
X107824438Y-79271819D01*
X107789519Y-79261226D01*
X107757337Y-79244024D01*
X107729127Y-79220873D01*
X107705976Y-79192663D01*
X107688774Y-79160481D01*
X107678181Y-79125562D01*
X107674000Y-79083105D01*
X107674000Y-77941895D01*
X107678181Y-77899438D01*
X107688774Y-77864519D01*
X107705976Y-77832337D01*
X107729127Y-77804127D01*
X107757337Y-77780976D01*
X107789519Y-77763774D01*
X107824438Y-77753181D01*
X107866895Y-77749000D01*
X109333105Y-77749000D01*
X109375562Y-77753181D01*
G37*
G36*
X138175562Y-77753181D02*
G01*
X138210481Y-77763774D01*
X138242663Y-77780976D01*
X138270873Y-77804127D01*
X138294024Y-77832337D01*
X138311226Y-77864519D01*
X138321819Y-77899438D01*
X138326000Y-77941895D01*
X138326000Y-79083105D01*
X138321819Y-79125562D01*
X138311226Y-79160481D01*
X138294024Y-79192663D01*
X138270873Y-79220873D01*
X138242663Y-79244024D01*
X138210481Y-79261226D01*
X138175562Y-79271819D01*
X138133105Y-79276000D01*
X136666895Y-79276000D01*
X136624438Y-79271819D01*
X136589519Y-79261226D01*
X136557337Y-79244024D01*
X136529127Y-79220873D01*
X136505976Y-79192663D01*
X136488774Y-79160481D01*
X136478181Y-79125562D01*
X136474000Y-79083105D01*
X136474000Y-77941895D01*
X136478181Y-77899438D01*
X136488774Y-77864519D01*
X136505976Y-77832337D01*
X136529127Y-77804127D01*
X136557337Y-77780976D01*
X136589519Y-77763774D01*
X136624438Y-77753181D01*
X136666895Y-77749000D01*
X138133105Y-77749000D01*
X138175562Y-77753181D01*
G37*
G36*
X116575562Y-77753181D02*
G01*
X116610481Y-77763774D01*
X116642663Y-77780976D01*
X116670873Y-77804127D01*
X116694024Y-77832337D01*
X116711226Y-77864519D01*
X116721819Y-77899438D01*
X116726000Y-77941895D01*
X116726000Y-79083105D01*
X116721819Y-79125562D01*
X116711226Y-79160481D01*
X116694024Y-79192663D01*
X116670873Y-79220873D01*
X116642663Y-79244024D01*
X116610481Y-79261226D01*
X116575562Y-79271819D01*
X116533105Y-79276000D01*
X115066895Y-79276000D01*
X115024438Y-79271819D01*
X114989519Y-79261226D01*
X114957337Y-79244024D01*
X114929127Y-79220873D01*
X114905976Y-79192663D01*
X114888774Y-79160481D01*
X114878181Y-79125562D01*
X114874000Y-79083105D01*
X114874000Y-77941895D01*
X114878181Y-77899438D01*
X114888774Y-77864519D01*
X114905976Y-77832337D01*
X114929127Y-77804127D01*
X114957337Y-77780976D01*
X114989519Y-77763774D01*
X115024438Y-77753181D01*
X115066895Y-77749000D01*
X116533105Y-77749000D01*
X116575562Y-77753181D01*
G37*
G36*
X102175562Y-77753181D02*
G01*
X102210481Y-77763774D01*
X102242663Y-77780976D01*
X102270873Y-77804127D01*
X102294024Y-77832337D01*
X102311226Y-77864519D01*
X102321819Y-77899438D01*
X102326000Y-77941895D01*
X102326000Y-79083105D01*
X102321819Y-79125562D01*
X102311226Y-79160481D01*
X102294024Y-79192663D01*
X102270873Y-79220873D01*
X102242663Y-79244024D01*
X102210481Y-79261226D01*
X102175562Y-79271819D01*
X102133105Y-79276000D01*
X100666895Y-79276000D01*
X100624438Y-79271819D01*
X100589519Y-79261226D01*
X100557337Y-79244024D01*
X100529127Y-79220873D01*
X100505976Y-79192663D01*
X100488774Y-79160481D01*
X100478181Y-79125562D01*
X100474000Y-79083105D01*
X100474000Y-77941895D01*
X100478181Y-77899438D01*
X100488774Y-77864519D01*
X100505976Y-77832337D01*
X100529127Y-77804127D01*
X100557337Y-77780976D01*
X100589519Y-77763774D01*
X100624438Y-77753181D01*
X100666895Y-77749000D01*
X102133105Y-77749000D01*
X102175562Y-77753181D01*
G37*
G36*
X123775562Y-77753181D02*
G01*
X123810481Y-77763774D01*
X123842663Y-77780976D01*
X123870873Y-77804127D01*
X123894024Y-77832337D01*
X123911226Y-77864519D01*
X123921819Y-77899438D01*
X123926000Y-77941895D01*
X123926000Y-79083105D01*
X123921819Y-79125562D01*
X123911226Y-79160481D01*
X123894024Y-79192663D01*
X123870873Y-79220873D01*
X123842663Y-79244024D01*
X123810481Y-79261226D01*
X123775562Y-79271819D01*
X123733105Y-79276000D01*
X122266895Y-79276000D01*
X122224438Y-79271819D01*
X122189519Y-79261226D01*
X122157337Y-79244024D01*
X122129127Y-79220873D01*
X122105976Y-79192663D01*
X122088774Y-79160481D01*
X122078181Y-79125562D01*
X122074000Y-79083105D01*
X122074000Y-77941895D01*
X122078181Y-77899438D01*
X122088774Y-77864519D01*
X122105976Y-77832337D01*
X122129127Y-77804127D01*
X122157337Y-77780976D01*
X122189519Y-77763774D01*
X122224438Y-77753181D01*
X122266895Y-77749000D01*
X123733105Y-77749000D01*
X123775562Y-77753181D01*
G37*
G36*
X94975562Y-77753181D02*
G01*
X95010481Y-77763774D01*
X95042663Y-77780976D01*
X95070873Y-77804127D01*
X95094024Y-77832337D01*
X95111226Y-77864519D01*
X95121819Y-77899438D01*
X95126000Y-77941895D01*
X95126000Y-79083105D01*
X95121819Y-79125562D01*
X95111226Y-79160481D01*
X95094024Y-79192663D01*
X95070873Y-79220873D01*
X95042663Y-79244024D01*
X95010481Y-79261226D01*
X94975562Y-79271819D01*
X94933105Y-79276000D01*
X93466895Y-79276000D01*
X93424438Y-79271819D01*
X93389519Y-79261226D01*
X93357337Y-79244024D01*
X93329127Y-79220873D01*
X93305976Y-79192663D01*
X93288774Y-79160481D01*
X93278181Y-79125562D01*
X93274000Y-79083105D01*
X93274000Y-77941895D01*
X93278181Y-77899438D01*
X93288774Y-77864519D01*
X93305976Y-77832337D01*
X93329127Y-77804127D01*
X93357337Y-77780976D01*
X93389519Y-77763774D01*
X93424438Y-77753181D01*
X93466895Y-77749000D01*
X94933105Y-77749000D01*
X94975562Y-77753181D01*
G37*
G36*
X130975562Y-77753181D02*
G01*
X131010481Y-77763774D01*
X131042663Y-77780976D01*
X131070873Y-77804127D01*
X131094024Y-77832337D01*
X131111226Y-77864519D01*
X131121819Y-77899438D01*
X131126000Y-77941895D01*
X131126000Y-79083105D01*
X131121819Y-79125562D01*
X131111226Y-79160481D01*
X131094024Y-79192663D01*
X131070873Y-79220873D01*
X131042663Y-79244024D01*
X131010481Y-79261226D01*
X130975562Y-79271819D01*
X130933105Y-79276000D01*
X129466895Y-79276000D01*
X129424438Y-79271819D01*
X129389519Y-79261226D01*
X129357337Y-79244024D01*
X129329127Y-79220873D01*
X129305976Y-79192663D01*
X129288774Y-79160481D01*
X129278181Y-79125562D01*
X129274000Y-79083105D01*
X129274000Y-77941895D01*
X129278181Y-77899438D01*
X129288774Y-77864519D01*
X129305976Y-77832337D01*
X129329127Y-77804127D01*
X129357337Y-77780976D01*
X129389519Y-77763774D01*
X129424438Y-77753181D01*
X129466895Y-77749000D01*
X130933105Y-77749000D01*
X130975562Y-77753181D01*
G37*
G36*
X87775562Y-77753181D02*
G01*
X87810481Y-77763774D01*
X87842663Y-77780976D01*
X87870873Y-77804127D01*
X87894024Y-77832337D01*
X87911226Y-77864519D01*
X87921819Y-77899438D01*
X87926000Y-77941895D01*
X87926000Y-79083105D01*
X87921819Y-79125562D01*
X87911226Y-79160481D01*
X87894024Y-79192663D01*
X87870873Y-79220873D01*
X87842663Y-79244024D01*
X87810481Y-79261226D01*
X87775562Y-79271819D01*
X87733105Y-79276000D01*
X86266895Y-79276000D01*
X86224438Y-79271819D01*
X86189519Y-79261226D01*
X86157337Y-79244024D01*
X86129127Y-79220873D01*
X86105976Y-79192663D01*
X86088774Y-79160481D01*
X86078181Y-79125562D01*
X86074000Y-79083105D01*
X86074000Y-77941895D01*
X86078181Y-77899438D01*
X86088774Y-77864519D01*
X86105976Y-77832337D01*
X86129127Y-77804127D01*
X86157337Y-77780976D01*
X86189519Y-77763774D01*
X86224438Y-77753181D01*
X86266895Y-77749000D01*
X87733105Y-77749000D01*
X87775562Y-77753181D01*
G37*
G36*
X80575562Y-77753181D02*
G01*
X80610481Y-77763774D01*
X80642663Y-77780976D01*
X80670873Y-77804127D01*
X80694024Y-77832337D01*
X80711226Y-77864519D01*
X80721819Y-77899438D01*
X80726000Y-77941895D01*
X80726000Y-79083105D01*
X80721819Y-79125562D01*
X80711226Y-79160481D01*
X80694024Y-79192663D01*
X80670873Y-79220873D01*
X80642663Y-79244024D01*
X80610481Y-79261226D01*
X80575562Y-79271819D01*
X80533105Y-79276000D01*
X79066895Y-79276000D01*
X79024438Y-79271819D01*
X78989519Y-79261226D01*
X78957337Y-79244024D01*
X78929127Y-79220873D01*
X78905976Y-79192663D01*
X78888774Y-79160481D01*
X78878181Y-79125562D01*
X78874000Y-79083105D01*
X78874000Y-77941895D01*
X78878181Y-77899438D01*
X78888774Y-77864519D01*
X78905976Y-77832337D01*
X78929127Y-77804127D01*
X78957337Y-77780976D01*
X78989519Y-77763774D01*
X79024438Y-77753181D01*
X79066895Y-77749000D01*
X80533105Y-77749000D01*
X80575562Y-77753181D01*
G37*
G36*
X145375562Y-77753181D02*
G01*
X145410481Y-77763774D01*
X145442663Y-77780976D01*
X145470873Y-77804127D01*
X145494024Y-77832337D01*
X145511226Y-77864519D01*
X145521819Y-77899438D01*
X145526000Y-77941895D01*
X145526000Y-79083105D01*
X145521819Y-79125562D01*
X145511226Y-79160481D01*
X145494024Y-79192663D01*
X145470873Y-79220873D01*
X145442663Y-79244024D01*
X145410481Y-79261226D01*
X145375562Y-79271819D01*
X145333105Y-79276000D01*
X143866895Y-79276000D01*
X143824438Y-79271819D01*
X143789519Y-79261226D01*
X143757337Y-79244024D01*
X143729127Y-79220873D01*
X143705976Y-79192663D01*
X143688774Y-79160481D01*
X143678181Y-79125562D01*
X143674000Y-79083105D01*
X143674000Y-77941895D01*
X143678181Y-77899438D01*
X143688774Y-77864519D01*
X143705976Y-77832337D01*
X143729127Y-77804127D01*
X143757337Y-77780976D01*
X143789519Y-77763774D01*
X143824438Y-77753181D01*
X143866895Y-77749000D01*
X145333105Y-77749000D01*
X145375562Y-77753181D01*
G37*
G36*
X73375562Y-77753181D02*
G01*
X73410481Y-77763774D01*
X73442663Y-77780976D01*
X73470873Y-77804127D01*
X73494024Y-77832337D01*
X73511226Y-77864519D01*
X73521819Y-77899438D01*
X73526000Y-77941895D01*
X73526000Y-79083105D01*
X73521819Y-79125562D01*
X73511226Y-79160481D01*
X73494024Y-79192663D01*
X73470873Y-79220873D01*
X73442663Y-79244024D01*
X73410481Y-79261226D01*
X73375562Y-79271819D01*
X73333105Y-79276000D01*
X71866895Y-79276000D01*
X71824438Y-79271819D01*
X71789519Y-79261226D01*
X71757337Y-79244024D01*
X71729127Y-79220873D01*
X71705976Y-79192663D01*
X71688774Y-79160481D01*
X71678181Y-79125562D01*
X71674000Y-79083105D01*
X71674000Y-77941895D01*
X71678181Y-77899438D01*
X71688774Y-77864519D01*
X71705976Y-77832337D01*
X71729127Y-77804127D01*
X71757337Y-77780976D01*
X71789519Y-77763774D01*
X71824438Y-77753181D01*
X71866895Y-77749000D01*
X73333105Y-77749000D01*
X73375562Y-77753181D01*
G37*
G36*
X66175562Y-77753181D02*
G01*
X66210481Y-77763774D01*
X66242663Y-77780976D01*
X66270873Y-77804127D01*
X66294024Y-77832337D01*
X66311226Y-77864519D01*
X66321819Y-77899438D01*
X66326000Y-77941895D01*
X66326000Y-79083105D01*
X66321819Y-79125562D01*
X66311226Y-79160481D01*
X66294024Y-79192663D01*
X66270873Y-79220873D01*
X66242663Y-79244024D01*
X66210481Y-79261226D01*
X66175562Y-79271819D01*
X66133105Y-79276000D01*
X64666895Y-79276000D01*
X64624438Y-79271819D01*
X64589519Y-79261226D01*
X64557337Y-79244024D01*
X64529127Y-79220873D01*
X64505976Y-79192663D01*
X64488774Y-79160481D01*
X64478181Y-79125562D01*
X64474000Y-79083105D01*
X64474000Y-77941895D01*
X64478181Y-77899438D01*
X64488774Y-77864519D01*
X64505976Y-77832337D01*
X64529127Y-77804127D01*
X64557337Y-77780976D01*
X64589519Y-77763774D01*
X64624438Y-77753181D01*
X64666895Y-77749000D01*
X66133105Y-77749000D01*
X66175562Y-77753181D01*
G37*
G36*
X58975562Y-77753181D02*
G01*
X59010481Y-77763774D01*
X59042663Y-77780976D01*
X59070873Y-77804127D01*
X59094024Y-77832337D01*
X59111226Y-77864519D01*
X59121819Y-77899438D01*
X59126000Y-77941895D01*
X59126000Y-79083105D01*
X59121819Y-79125562D01*
X59111226Y-79160481D01*
X59094024Y-79192663D01*
X59070873Y-79220873D01*
X59042663Y-79244024D01*
X59010481Y-79261226D01*
X58975562Y-79271819D01*
X58933105Y-79276000D01*
X57466895Y-79276000D01*
X57424438Y-79271819D01*
X57389519Y-79261226D01*
X57357337Y-79244024D01*
X57329127Y-79220873D01*
X57305976Y-79192663D01*
X57288774Y-79160481D01*
X57278181Y-79125562D01*
X57274000Y-79083105D01*
X57274000Y-77941895D01*
X57278181Y-77899438D01*
X57288774Y-77864519D01*
X57305976Y-77832337D01*
X57329127Y-77804127D01*
X57357337Y-77780976D01*
X57389519Y-77763774D01*
X57424438Y-77753181D01*
X57466895Y-77749000D01*
X58933105Y-77749000D01*
X58975562Y-77753181D01*
G37*
G36*
X51775562Y-77753181D02*
G01*
X51810481Y-77763774D01*
X51842663Y-77780976D01*
X51870873Y-77804127D01*
X51894024Y-77832337D01*
X51911226Y-77864519D01*
X51921819Y-77899438D01*
X51926000Y-77941895D01*
X51926000Y-79083105D01*
X51921819Y-79125562D01*
X51911226Y-79160481D01*
X51894024Y-79192663D01*
X51870873Y-79220873D01*
X51842663Y-79244024D01*
X51810481Y-79261226D01*
X51775562Y-79271819D01*
X51733105Y-79276000D01*
X50266895Y-79276000D01*
X50224438Y-79271819D01*
X50189519Y-79261226D01*
X50157337Y-79244024D01*
X50129127Y-79220873D01*
X50105976Y-79192663D01*
X50088774Y-79160481D01*
X50078181Y-79125562D01*
X50074000Y-79083105D01*
X50074000Y-77941895D01*
X50078181Y-77899438D01*
X50088774Y-77864519D01*
X50105976Y-77832337D01*
X50129127Y-77804127D01*
X50157337Y-77780976D01*
X50189519Y-77763774D01*
X50224438Y-77753181D01*
X50266895Y-77749000D01*
X51733105Y-77749000D01*
X51775562Y-77753181D01*
G37*
G36*
X55375562Y-72728181D02*
G01*
X55410481Y-72738774D01*
X55442663Y-72755976D01*
X55470873Y-72779127D01*
X55494024Y-72807337D01*
X55511226Y-72839519D01*
X55521819Y-72874438D01*
X55526000Y-72916895D01*
X55526000Y-74058105D01*
X55521819Y-74100562D01*
X55511226Y-74135481D01*
X55494024Y-74167663D01*
X55470873Y-74195873D01*
X55442663Y-74219024D01*
X55410481Y-74236226D01*
X55375562Y-74246819D01*
X55333105Y-74251000D01*
X53866895Y-74251000D01*
X53824438Y-74246819D01*
X53789519Y-74236226D01*
X53757337Y-74219024D01*
X53729127Y-74195873D01*
X53705976Y-74167663D01*
X53688774Y-74135481D01*
X53678181Y-74100562D01*
X53674000Y-74058105D01*
X53674000Y-72916895D01*
X53678181Y-72874438D01*
X53688774Y-72839519D01*
X53705976Y-72807337D01*
X53729127Y-72779127D01*
X53757337Y-72755976D01*
X53789519Y-72738774D01*
X53824438Y-72728181D01*
X53866895Y-72724000D01*
X55333105Y-72724000D01*
X55375562Y-72728181D01*
G37*
G36*
X62575562Y-72728181D02*
G01*
X62610481Y-72738774D01*
X62642663Y-72755976D01*
X62670873Y-72779127D01*
X62694024Y-72807337D01*
X62711226Y-72839519D01*
X62721819Y-72874438D01*
X62726000Y-72916895D01*
X62726000Y-74058105D01*
X62721819Y-74100562D01*
X62711226Y-74135481D01*
X62694024Y-74167663D01*
X62670873Y-74195873D01*
X62642663Y-74219024D01*
X62610481Y-74236226D01*
X62575562Y-74246819D01*
X62533105Y-74251000D01*
X61066895Y-74251000D01*
X61024438Y-74246819D01*
X60989519Y-74236226D01*
X60957337Y-74219024D01*
X60929127Y-74195873D01*
X60905976Y-74167663D01*
X60888774Y-74135481D01*
X60878181Y-74100562D01*
X60874000Y-74058105D01*
X60874000Y-72916895D01*
X60878181Y-72874438D01*
X60888774Y-72839519D01*
X60905976Y-72807337D01*
X60929127Y-72779127D01*
X60957337Y-72755976D01*
X60989519Y-72738774D01*
X61024438Y-72728181D01*
X61066895Y-72724000D01*
X62533105Y-72724000D01*
X62575562Y-72728181D01*
G37*
G36*
X69775562Y-72728181D02*
G01*
X69810481Y-72738774D01*
X69842663Y-72755976D01*
X69870873Y-72779127D01*
X69894024Y-72807337D01*
X69911226Y-72839519D01*
X69921819Y-72874438D01*
X69926000Y-72916895D01*
X69926000Y-74058105D01*
X69921819Y-74100562D01*
X69911226Y-74135481D01*
X69894024Y-74167663D01*
X69870873Y-74195873D01*
X69842663Y-74219024D01*
X69810481Y-74236226D01*
X69775562Y-74246819D01*
X69733105Y-74251000D01*
X68266895Y-74251000D01*
X68224438Y-74246819D01*
X68189519Y-74236226D01*
X68157337Y-74219024D01*
X68129127Y-74195873D01*
X68105976Y-74167663D01*
X68088774Y-74135481D01*
X68078181Y-74100562D01*
X68074000Y-74058105D01*
X68074000Y-72916895D01*
X68078181Y-72874438D01*
X68088774Y-72839519D01*
X68105976Y-72807337D01*
X68129127Y-72779127D01*
X68157337Y-72755976D01*
X68189519Y-72738774D01*
X68224438Y-72728181D01*
X68266895Y-72724000D01*
X69733105Y-72724000D01*
X69775562Y-72728181D01*
G37*
G36*
X76975562Y-72728181D02*
G01*
X77010481Y-72738774D01*
X77042663Y-72755976D01*
X77070873Y-72779127D01*
X77094024Y-72807337D01*
X77111226Y-72839519D01*
X77121819Y-72874438D01*
X77126000Y-72916895D01*
X77126000Y-74058105D01*
X77121819Y-74100562D01*
X77111226Y-74135481D01*
X77094024Y-74167663D01*
X77070873Y-74195873D01*
X77042663Y-74219024D01*
X77010481Y-74236226D01*
X76975562Y-74246819D01*
X76933105Y-74251000D01*
X75466895Y-74251000D01*
X75424438Y-74246819D01*
X75389519Y-74236226D01*
X75357337Y-74219024D01*
X75329127Y-74195873D01*
X75305976Y-74167663D01*
X75288774Y-74135481D01*
X75278181Y-74100562D01*
X75274000Y-74058105D01*
X75274000Y-72916895D01*
X75278181Y-72874438D01*
X75288774Y-72839519D01*
X75305976Y-72807337D01*
X75329127Y-72779127D01*
X75357337Y-72755976D01*
X75389519Y-72738774D01*
X75424438Y-72728181D01*
X75466895Y-72724000D01*
X76933105Y-72724000D01*
X76975562Y-72728181D01*
G37*
G36*
X84175562Y-72728181D02*
G01*
X84210481Y-72738774D01*
X84242663Y-72755976D01*
X84270873Y-72779127D01*
X84294024Y-72807337D01*
X84311226Y-72839519D01*
X84321819Y-72874438D01*
X84326000Y-72916895D01*
X84326000Y-74058105D01*
X84321819Y-74100562D01*
X84311226Y-74135481D01*
X84294024Y-74167663D01*
X84270873Y-74195873D01*
X84242663Y-74219024D01*
X84210481Y-74236226D01*
X84175562Y-74246819D01*
X84133105Y-74251000D01*
X82666895Y-74251000D01*
X82624438Y-74246819D01*
X82589519Y-74236226D01*
X82557337Y-74219024D01*
X82529127Y-74195873D01*
X82505976Y-74167663D01*
X82488774Y-74135481D01*
X82478181Y-74100562D01*
X82474000Y-74058105D01*
X82474000Y-72916895D01*
X82478181Y-72874438D01*
X82488774Y-72839519D01*
X82505976Y-72807337D01*
X82529127Y-72779127D01*
X82557337Y-72755976D01*
X82589519Y-72738774D01*
X82624438Y-72728181D01*
X82666895Y-72724000D01*
X84133105Y-72724000D01*
X84175562Y-72728181D01*
G37*
G36*
X91375562Y-72728181D02*
G01*
X91410481Y-72738774D01*
X91442663Y-72755976D01*
X91470873Y-72779127D01*
X91494024Y-72807337D01*
X91511226Y-72839519D01*
X91521819Y-72874438D01*
X91526000Y-72916895D01*
X91526000Y-74058105D01*
X91521819Y-74100562D01*
X91511226Y-74135481D01*
X91494024Y-74167663D01*
X91470873Y-74195873D01*
X91442663Y-74219024D01*
X91410481Y-74236226D01*
X91375562Y-74246819D01*
X91333105Y-74251000D01*
X89866895Y-74251000D01*
X89824438Y-74246819D01*
X89789519Y-74236226D01*
X89757337Y-74219024D01*
X89729127Y-74195873D01*
X89705976Y-74167663D01*
X89688774Y-74135481D01*
X89678181Y-74100562D01*
X89674000Y-74058105D01*
X89674000Y-72916895D01*
X89678181Y-72874438D01*
X89688774Y-72839519D01*
X89705976Y-72807337D01*
X89729127Y-72779127D01*
X89757337Y-72755976D01*
X89789519Y-72738774D01*
X89824438Y-72728181D01*
X89866895Y-72724000D01*
X91333105Y-72724000D01*
X91375562Y-72728181D01*
G37*
G36*
X98575562Y-72728181D02*
G01*
X98610481Y-72738774D01*
X98642663Y-72755976D01*
X98670873Y-72779127D01*
X98694024Y-72807337D01*
X98711226Y-72839519D01*
X98721819Y-72874438D01*
X98726000Y-72916895D01*
X98726000Y-74058105D01*
X98721819Y-74100562D01*
X98711226Y-74135481D01*
X98694024Y-74167663D01*
X98670873Y-74195873D01*
X98642663Y-74219024D01*
X98610481Y-74236226D01*
X98575562Y-74246819D01*
X98533105Y-74251000D01*
X97066895Y-74251000D01*
X97024438Y-74246819D01*
X96989519Y-74236226D01*
X96957337Y-74219024D01*
X96929127Y-74195873D01*
X96905976Y-74167663D01*
X96888774Y-74135481D01*
X96878181Y-74100562D01*
X96874000Y-74058105D01*
X96874000Y-72916895D01*
X96878181Y-72874438D01*
X96888774Y-72839519D01*
X96905976Y-72807337D01*
X96929127Y-72779127D01*
X96957337Y-72755976D01*
X96989519Y-72738774D01*
X97024438Y-72728181D01*
X97066895Y-72724000D01*
X98533105Y-72724000D01*
X98575562Y-72728181D01*
G37*
G36*
X105775562Y-72728181D02*
G01*
X105810481Y-72738774D01*
X105842663Y-72755976D01*
X105870873Y-72779127D01*
X105894024Y-72807337D01*
X105911226Y-72839519D01*
X105921819Y-72874438D01*
X105926000Y-72916895D01*
X105926000Y-74058105D01*
X105921819Y-74100562D01*
X105911226Y-74135481D01*
X105894024Y-74167663D01*
X105870873Y-74195873D01*
X105842663Y-74219024D01*
X105810481Y-74236226D01*
X105775562Y-74246819D01*
X105733105Y-74251000D01*
X104266895Y-74251000D01*
X104224438Y-74246819D01*
X104189519Y-74236226D01*
X104157337Y-74219024D01*
X104129127Y-74195873D01*
X104105976Y-74167663D01*
X104088774Y-74135481D01*
X104078181Y-74100562D01*
X104074000Y-74058105D01*
X104074000Y-72916895D01*
X104078181Y-72874438D01*
X104088774Y-72839519D01*
X104105976Y-72807337D01*
X104129127Y-72779127D01*
X104157337Y-72755976D01*
X104189519Y-72738774D01*
X104224438Y-72728181D01*
X104266895Y-72724000D01*
X105733105Y-72724000D01*
X105775562Y-72728181D01*
G37*
G36*
X112975562Y-72728181D02*
G01*
X113010481Y-72738774D01*
X113042663Y-72755976D01*
X113070873Y-72779127D01*
X113094024Y-72807337D01*
X113111226Y-72839519D01*
X113121819Y-72874438D01*
X113126000Y-72916895D01*
X113126000Y-74058105D01*
X113121819Y-74100562D01*
X113111226Y-74135481D01*
X113094024Y-74167663D01*
X113070873Y-74195873D01*
X113042663Y-74219024D01*
X113010481Y-74236226D01*
X112975562Y-74246819D01*
X112933105Y-74251000D01*
X111466895Y-74251000D01*
X111424438Y-74246819D01*
X111389519Y-74236226D01*
X111357337Y-74219024D01*
X111329127Y-74195873D01*
X111305976Y-74167663D01*
X111288774Y-74135481D01*
X111278181Y-74100562D01*
X111274000Y-74058105D01*
X111274000Y-72916895D01*
X111278181Y-72874438D01*
X111288774Y-72839519D01*
X111305976Y-72807337D01*
X111329127Y-72779127D01*
X111357337Y-72755976D01*
X111389519Y-72738774D01*
X111424438Y-72728181D01*
X111466895Y-72724000D01*
X112933105Y-72724000D01*
X112975562Y-72728181D01*
G37*
G36*
X120175562Y-72728181D02*
G01*
X120210481Y-72738774D01*
X120242663Y-72755976D01*
X120270873Y-72779127D01*
X120294024Y-72807337D01*
X120311226Y-72839519D01*
X120321819Y-72874438D01*
X120326000Y-72916895D01*
X120326000Y-74058105D01*
X120321819Y-74100562D01*
X120311226Y-74135481D01*
X120294024Y-74167663D01*
X120270873Y-74195873D01*
X120242663Y-74219024D01*
X120210481Y-74236226D01*
X120175562Y-74246819D01*
X120133105Y-74251000D01*
X118666895Y-74251000D01*
X118624438Y-74246819D01*
X118589519Y-74236226D01*
X118557337Y-74219024D01*
X118529127Y-74195873D01*
X118505976Y-74167663D01*
X118488774Y-74135481D01*
X118478181Y-74100562D01*
X118474000Y-74058105D01*
X118474000Y-72916895D01*
X118478181Y-72874438D01*
X118488774Y-72839519D01*
X118505976Y-72807337D01*
X118529127Y-72779127D01*
X118557337Y-72755976D01*
X118589519Y-72738774D01*
X118624438Y-72728181D01*
X118666895Y-72724000D01*
X120133105Y-72724000D01*
X120175562Y-72728181D01*
G37*
G36*
X127375562Y-72728181D02*
G01*
X127410481Y-72738774D01*
X127442663Y-72755976D01*
X127470873Y-72779127D01*
X127494024Y-72807337D01*
X127511226Y-72839519D01*
X127521819Y-72874438D01*
X127526000Y-72916895D01*
X127526000Y-74058105D01*
X127521819Y-74100562D01*
X127511226Y-74135481D01*
X127494024Y-74167663D01*
X127470873Y-74195873D01*
X127442663Y-74219024D01*
X127410481Y-74236226D01*
X127375562Y-74246819D01*
X127333105Y-74251000D01*
X125866895Y-74251000D01*
X125824438Y-74246819D01*
X125789519Y-74236226D01*
X125757337Y-74219024D01*
X125729127Y-74195873D01*
X125705976Y-74167663D01*
X125688774Y-74135481D01*
X125678181Y-74100562D01*
X125674000Y-74058105D01*
X125674000Y-72916895D01*
X125678181Y-72874438D01*
X125688774Y-72839519D01*
X125705976Y-72807337D01*
X125729127Y-72779127D01*
X125757337Y-72755976D01*
X125789519Y-72738774D01*
X125824438Y-72728181D01*
X125866895Y-72724000D01*
X127333105Y-72724000D01*
X127375562Y-72728181D01*
G37*
G36*
X134575562Y-72728181D02*
G01*
X134610481Y-72738774D01*
X134642663Y-72755976D01*
X134670873Y-72779127D01*
X134694024Y-72807337D01*
X134711226Y-72839519D01*
X134721819Y-72874438D01*
X134726000Y-72916895D01*
X134726000Y-74058105D01*
X134721819Y-74100562D01*
X134711226Y-74135481D01*
X134694024Y-74167663D01*
X134670873Y-74195873D01*
X134642663Y-74219024D01*
X134610481Y-74236226D01*
X134575562Y-74246819D01*
X134533105Y-74251000D01*
X133066895Y-74251000D01*
X133024438Y-74246819D01*
X132989519Y-74236226D01*
X132957337Y-74219024D01*
X132929127Y-74195873D01*
X132905976Y-74167663D01*
X132888774Y-74135481D01*
X132878181Y-74100562D01*
X132874000Y-74058105D01*
X132874000Y-72916895D01*
X132878181Y-72874438D01*
X132888774Y-72839519D01*
X132905976Y-72807337D01*
X132929127Y-72779127D01*
X132957337Y-72755976D01*
X132989519Y-72738774D01*
X133024438Y-72728181D01*
X133066895Y-72724000D01*
X134533105Y-72724000D01*
X134575562Y-72728181D01*
G37*
G36*
X141775562Y-72728181D02*
G01*
X141810481Y-72738774D01*
X141842663Y-72755976D01*
X141870873Y-72779127D01*
X141894024Y-72807337D01*
X141911226Y-72839519D01*
X141921819Y-72874438D01*
X141926000Y-72916895D01*
X141926000Y-74058105D01*
X141921819Y-74100562D01*
X141911226Y-74135481D01*
X141894024Y-74167663D01*
X141870873Y-74195873D01*
X141842663Y-74219024D01*
X141810481Y-74236226D01*
X141775562Y-74246819D01*
X141733105Y-74251000D01*
X140266895Y-74251000D01*
X140224438Y-74246819D01*
X140189519Y-74236226D01*
X140157337Y-74219024D01*
X140129127Y-74195873D01*
X140105976Y-74167663D01*
X140088774Y-74135481D01*
X140078181Y-74100562D01*
X140074000Y-74058105D01*
X140074000Y-72916895D01*
X140078181Y-72874438D01*
X140088774Y-72839519D01*
X140105976Y-72807337D01*
X140129127Y-72779127D01*
X140157337Y-72755976D01*
X140189519Y-72738774D01*
X140224438Y-72728181D01*
X140266895Y-72724000D01*
X141733105Y-72724000D01*
X141775562Y-72728181D01*
G37*
G36*
X148506564Y-70989389D02*
G01*
X148677925Y-71060369D01*
X148697835Y-71068616D01*
X148830020Y-71156939D01*
X148869973Y-71183635D01*
X149016365Y-71330027D01*
X149131385Y-71502167D01*
X149210611Y-71693436D01*
X149251000Y-71896484D01*
X149251000Y-72103516D01*
X149210611Y-72306564D01*
X149131385Y-72497833D01*
X149131384Y-72497835D01*
X149016365Y-72669973D01*
X148869973Y-72816365D01*
X148697835Y-72931384D01*
X148697834Y-72931385D01*
X148697833Y-72931385D01*
X148506564Y-73010611D01*
X148303516Y-73051000D01*
X148096484Y-73051000D01*
X147893436Y-73010611D01*
X147702167Y-72931385D01*
X147702166Y-72931385D01*
X147702165Y-72931384D01*
X147530027Y-72816365D01*
X147383635Y-72669973D01*
X147268616Y-72497835D01*
X147268615Y-72497833D01*
X147189389Y-72306564D01*
X147149000Y-72103516D01*
X147149000Y-71896484D01*
X147189389Y-71693436D01*
X147268615Y-71502167D01*
X147383635Y-71330027D01*
X147530027Y-71183635D01*
X147569980Y-71156939D01*
X147702165Y-71068616D01*
X147722075Y-71060369D01*
X147893436Y-70989389D01*
X148096484Y-70949000D01*
X148303516Y-70949000D01*
X148506564Y-70989389D01*
G37*
G36*
X141775562Y-69753181D02*
G01*
X141810481Y-69763774D01*
X141842663Y-69780976D01*
X141870873Y-69804127D01*
X141894024Y-69832337D01*
X141911226Y-69864519D01*
X141921819Y-69899438D01*
X141926000Y-69941895D01*
X141926000Y-71083105D01*
X141921819Y-71125562D01*
X141911226Y-71160481D01*
X141894024Y-71192663D01*
X141870873Y-71220873D01*
X141842663Y-71244024D01*
X141810481Y-71261226D01*
X141775562Y-71271819D01*
X141733105Y-71276000D01*
X140266895Y-71276000D01*
X140224438Y-71271819D01*
X140189519Y-71261226D01*
X140157337Y-71244024D01*
X140129127Y-71220873D01*
X140105976Y-71192663D01*
X140088774Y-71160481D01*
X140078181Y-71125562D01*
X140074000Y-71083105D01*
X140074000Y-69941895D01*
X140078181Y-69899438D01*
X140088774Y-69864519D01*
X140105976Y-69832337D01*
X140129127Y-69804127D01*
X140157337Y-69780976D01*
X140189519Y-69763774D01*
X140224438Y-69753181D01*
X140266895Y-69749000D01*
X141733105Y-69749000D01*
X141775562Y-69753181D01*
G37*
G36*
X55375562Y-69753181D02*
G01*
X55410481Y-69763774D01*
X55442663Y-69780976D01*
X55470873Y-69804127D01*
X55494024Y-69832337D01*
X55511226Y-69864519D01*
X55521819Y-69899438D01*
X55526000Y-69941895D01*
X55526000Y-71083105D01*
X55521819Y-71125562D01*
X55511226Y-71160481D01*
X55494024Y-71192663D01*
X55470873Y-71220873D01*
X55442663Y-71244024D01*
X55410481Y-71261226D01*
X55375562Y-71271819D01*
X55333105Y-71276000D01*
X53866895Y-71276000D01*
X53824438Y-71271819D01*
X53789519Y-71261226D01*
X53757337Y-71244024D01*
X53729127Y-71220873D01*
X53705976Y-71192663D01*
X53688774Y-71160481D01*
X53678181Y-71125562D01*
X53674000Y-71083105D01*
X53674000Y-69941895D01*
X53678181Y-69899438D01*
X53688774Y-69864519D01*
X53705976Y-69832337D01*
X53729127Y-69804127D01*
X53757337Y-69780976D01*
X53789519Y-69763774D01*
X53824438Y-69753181D01*
X53866895Y-69749000D01*
X55333105Y-69749000D01*
X55375562Y-69753181D01*
G37*
G36*
X62575562Y-69753181D02*
G01*
X62610481Y-69763774D01*
X62642663Y-69780976D01*
X62670873Y-69804127D01*
X62694024Y-69832337D01*
X62711226Y-69864519D01*
X62721819Y-69899438D01*
X62726000Y-69941895D01*
X62726000Y-71083105D01*
X62721819Y-71125562D01*
X62711226Y-71160481D01*
X62694024Y-71192663D01*
X62670873Y-71220873D01*
X62642663Y-71244024D01*
X62610481Y-71261226D01*
X62575562Y-71271819D01*
X62533105Y-71276000D01*
X61066895Y-71276000D01*
X61024438Y-71271819D01*
X60989519Y-71261226D01*
X60957337Y-71244024D01*
X60929127Y-71220873D01*
X60905976Y-71192663D01*
X60888774Y-71160481D01*
X60878181Y-71125562D01*
X60874000Y-71083105D01*
X60874000Y-69941895D01*
X60878181Y-69899438D01*
X60888774Y-69864519D01*
X60905976Y-69832337D01*
X60929127Y-69804127D01*
X60957337Y-69780976D01*
X60989519Y-69763774D01*
X61024438Y-69753181D01*
X61066895Y-69749000D01*
X62533105Y-69749000D01*
X62575562Y-69753181D01*
G37*
G36*
X69775562Y-69753181D02*
G01*
X69810481Y-69763774D01*
X69842663Y-69780976D01*
X69870873Y-69804127D01*
X69894024Y-69832337D01*
X69911226Y-69864519D01*
X69921819Y-69899438D01*
X69926000Y-69941895D01*
X69926000Y-71083105D01*
X69921819Y-71125562D01*
X69911226Y-71160481D01*
X69894024Y-71192663D01*
X69870873Y-71220873D01*
X69842663Y-71244024D01*
X69810481Y-71261226D01*
X69775562Y-71271819D01*
X69733105Y-71276000D01*
X68266895Y-71276000D01*
X68224438Y-71271819D01*
X68189519Y-71261226D01*
X68157337Y-71244024D01*
X68129127Y-71220873D01*
X68105976Y-71192663D01*
X68088774Y-71160481D01*
X68078181Y-71125562D01*
X68074000Y-71083105D01*
X68074000Y-69941895D01*
X68078181Y-69899438D01*
X68088774Y-69864519D01*
X68105976Y-69832337D01*
X68129127Y-69804127D01*
X68157337Y-69780976D01*
X68189519Y-69763774D01*
X68224438Y-69753181D01*
X68266895Y-69749000D01*
X69733105Y-69749000D01*
X69775562Y-69753181D01*
G37*
G36*
X76975562Y-69753181D02*
G01*
X77010481Y-69763774D01*
X77042663Y-69780976D01*
X77070873Y-69804127D01*
X77094024Y-69832337D01*
X77111226Y-69864519D01*
X77121819Y-69899438D01*
X77126000Y-69941895D01*
X77126000Y-71083105D01*
X77121819Y-71125562D01*
X77111226Y-71160481D01*
X77094024Y-71192663D01*
X77070873Y-71220873D01*
X77042663Y-71244024D01*
X77010481Y-71261226D01*
X76975562Y-71271819D01*
X76933105Y-71276000D01*
X75466895Y-71276000D01*
X75424438Y-71271819D01*
X75389519Y-71261226D01*
X75357337Y-71244024D01*
X75329127Y-71220873D01*
X75305976Y-71192663D01*
X75288774Y-71160481D01*
X75278181Y-71125562D01*
X75274000Y-71083105D01*
X75274000Y-69941895D01*
X75278181Y-69899438D01*
X75288774Y-69864519D01*
X75305976Y-69832337D01*
X75329127Y-69804127D01*
X75357337Y-69780976D01*
X75389519Y-69763774D01*
X75424438Y-69753181D01*
X75466895Y-69749000D01*
X76933105Y-69749000D01*
X76975562Y-69753181D01*
G37*
G36*
X84175562Y-69753181D02*
G01*
X84210481Y-69763774D01*
X84242663Y-69780976D01*
X84270873Y-69804127D01*
X84294024Y-69832337D01*
X84311226Y-69864519D01*
X84321819Y-69899438D01*
X84326000Y-69941895D01*
X84326000Y-71083105D01*
X84321819Y-71125562D01*
X84311226Y-71160481D01*
X84294024Y-71192663D01*
X84270873Y-71220873D01*
X84242663Y-71244024D01*
X84210481Y-71261226D01*
X84175562Y-71271819D01*
X84133105Y-71276000D01*
X82666895Y-71276000D01*
X82624438Y-71271819D01*
X82589519Y-71261226D01*
X82557337Y-71244024D01*
X82529127Y-71220873D01*
X82505976Y-71192663D01*
X82488774Y-71160481D01*
X82478181Y-71125562D01*
X82474000Y-71083105D01*
X82474000Y-69941895D01*
X82478181Y-69899438D01*
X82488774Y-69864519D01*
X82505976Y-69832337D01*
X82529127Y-69804127D01*
X82557337Y-69780976D01*
X82589519Y-69763774D01*
X82624438Y-69753181D01*
X82666895Y-69749000D01*
X84133105Y-69749000D01*
X84175562Y-69753181D01*
G37*
G36*
X91375562Y-69753181D02*
G01*
X91410481Y-69763774D01*
X91442663Y-69780976D01*
X91470873Y-69804127D01*
X91494024Y-69832337D01*
X91511226Y-69864519D01*
X91521819Y-69899438D01*
X91526000Y-69941895D01*
X91526000Y-71083105D01*
X91521819Y-71125562D01*
X91511226Y-71160481D01*
X91494024Y-71192663D01*
X91470873Y-71220873D01*
X91442663Y-71244024D01*
X91410481Y-71261226D01*
X91375562Y-71271819D01*
X91333105Y-71276000D01*
X89866895Y-71276000D01*
X89824438Y-71271819D01*
X89789519Y-71261226D01*
X89757337Y-71244024D01*
X89729127Y-71220873D01*
X89705976Y-71192663D01*
X89688774Y-71160481D01*
X89678181Y-71125562D01*
X89674000Y-71083105D01*
X89674000Y-69941895D01*
X89678181Y-69899438D01*
X89688774Y-69864519D01*
X89705976Y-69832337D01*
X89729127Y-69804127D01*
X89757337Y-69780976D01*
X89789519Y-69763774D01*
X89824438Y-69753181D01*
X89866895Y-69749000D01*
X91333105Y-69749000D01*
X91375562Y-69753181D01*
G37*
G36*
X98575562Y-69753181D02*
G01*
X98610481Y-69763774D01*
X98642663Y-69780976D01*
X98670873Y-69804127D01*
X98694024Y-69832337D01*
X98711226Y-69864519D01*
X98721819Y-69899438D01*
X98726000Y-69941895D01*
X98726000Y-71083105D01*
X98721819Y-71125562D01*
X98711226Y-71160481D01*
X98694024Y-71192663D01*
X98670873Y-71220873D01*
X98642663Y-71244024D01*
X98610481Y-71261226D01*
X98575562Y-71271819D01*
X98533105Y-71276000D01*
X97066895Y-71276000D01*
X97024438Y-71271819D01*
X96989519Y-71261226D01*
X96957337Y-71244024D01*
X96929127Y-71220873D01*
X96905976Y-71192663D01*
X96888774Y-71160481D01*
X96878181Y-71125562D01*
X96874000Y-71083105D01*
X96874000Y-69941895D01*
X96878181Y-69899438D01*
X96888774Y-69864519D01*
X96905976Y-69832337D01*
X96929127Y-69804127D01*
X96957337Y-69780976D01*
X96989519Y-69763774D01*
X97024438Y-69753181D01*
X97066895Y-69749000D01*
X98533105Y-69749000D01*
X98575562Y-69753181D01*
G37*
G36*
X105775562Y-69753181D02*
G01*
X105810481Y-69763774D01*
X105842663Y-69780976D01*
X105870873Y-69804127D01*
X105894024Y-69832337D01*
X105911226Y-69864519D01*
X105921819Y-69899438D01*
X105926000Y-69941895D01*
X105926000Y-71083105D01*
X105921819Y-71125562D01*
X105911226Y-71160481D01*
X105894024Y-71192663D01*
X105870873Y-71220873D01*
X105842663Y-71244024D01*
X105810481Y-71261226D01*
X105775562Y-71271819D01*
X105733105Y-71276000D01*
X104266895Y-71276000D01*
X104224438Y-71271819D01*
X104189519Y-71261226D01*
X104157337Y-71244024D01*
X104129127Y-71220873D01*
X104105976Y-71192663D01*
X104088774Y-71160481D01*
X104078181Y-71125562D01*
X104074000Y-71083105D01*
X104074000Y-69941895D01*
X104078181Y-69899438D01*
X104088774Y-69864519D01*
X104105976Y-69832337D01*
X104129127Y-69804127D01*
X104157337Y-69780976D01*
X104189519Y-69763774D01*
X104224438Y-69753181D01*
X104266895Y-69749000D01*
X105733105Y-69749000D01*
X105775562Y-69753181D01*
G37*
G36*
X112975562Y-69753181D02*
G01*
X113010481Y-69763774D01*
X113042663Y-69780976D01*
X113070873Y-69804127D01*
X113094024Y-69832337D01*
X113111226Y-69864519D01*
X113121819Y-69899438D01*
X113126000Y-69941895D01*
X113126000Y-71083105D01*
X113121819Y-71125562D01*
X113111226Y-71160481D01*
X113094024Y-71192663D01*
X113070873Y-71220873D01*
X113042663Y-71244024D01*
X113010481Y-71261226D01*
X112975562Y-71271819D01*
X112933105Y-71276000D01*
X111466895Y-71276000D01*
X111424438Y-71271819D01*
X111389519Y-71261226D01*
X111357337Y-71244024D01*
X111329127Y-71220873D01*
X111305976Y-71192663D01*
X111288774Y-71160481D01*
X111278181Y-71125562D01*
X111274000Y-71083105D01*
X111274000Y-69941895D01*
X111278181Y-69899438D01*
X111288774Y-69864519D01*
X111305976Y-69832337D01*
X111329127Y-69804127D01*
X111357337Y-69780976D01*
X111389519Y-69763774D01*
X111424438Y-69753181D01*
X111466895Y-69749000D01*
X112933105Y-69749000D01*
X112975562Y-69753181D01*
G37*
G36*
X120175562Y-69753181D02*
G01*
X120210481Y-69763774D01*
X120242663Y-69780976D01*
X120270873Y-69804127D01*
X120294024Y-69832337D01*
X120311226Y-69864519D01*
X120321819Y-69899438D01*
X120326000Y-69941895D01*
X120326000Y-71083105D01*
X120321819Y-71125562D01*
X120311226Y-71160481D01*
X120294024Y-71192663D01*
X120270873Y-71220873D01*
X120242663Y-71244024D01*
X120210481Y-71261226D01*
X120175562Y-71271819D01*
X120133105Y-71276000D01*
X118666895Y-71276000D01*
X118624438Y-71271819D01*
X118589519Y-71261226D01*
X118557337Y-71244024D01*
X118529127Y-71220873D01*
X118505976Y-71192663D01*
X118488774Y-71160481D01*
X118478181Y-71125562D01*
X118474000Y-71083105D01*
X118474000Y-69941895D01*
X118478181Y-69899438D01*
X118488774Y-69864519D01*
X118505976Y-69832337D01*
X118529127Y-69804127D01*
X118557337Y-69780976D01*
X118589519Y-69763774D01*
X118624438Y-69753181D01*
X118666895Y-69749000D01*
X120133105Y-69749000D01*
X120175562Y-69753181D01*
G37*
G36*
X127375562Y-69753181D02*
G01*
X127410481Y-69763774D01*
X127442663Y-69780976D01*
X127470873Y-69804127D01*
X127494024Y-69832337D01*
X127511226Y-69864519D01*
X127521819Y-69899438D01*
X127526000Y-69941895D01*
X127526000Y-71083105D01*
X127521819Y-71125562D01*
X127511226Y-71160481D01*
X127494024Y-71192663D01*
X127470873Y-71220873D01*
X127442663Y-71244024D01*
X127410481Y-71261226D01*
X127375562Y-71271819D01*
X127333105Y-71276000D01*
X125866895Y-71276000D01*
X125824438Y-71271819D01*
X125789519Y-71261226D01*
X125757337Y-71244024D01*
X125729127Y-71220873D01*
X125705976Y-71192663D01*
X125688774Y-71160481D01*
X125678181Y-71125562D01*
X125674000Y-71083105D01*
X125674000Y-69941895D01*
X125678181Y-69899438D01*
X125688774Y-69864519D01*
X125705976Y-69832337D01*
X125729127Y-69804127D01*
X125757337Y-69780976D01*
X125789519Y-69763774D01*
X125824438Y-69753181D01*
X125866895Y-69749000D01*
X127333105Y-69749000D01*
X127375562Y-69753181D01*
G37*
G36*
X134575562Y-69753181D02*
G01*
X134610481Y-69763774D01*
X134642663Y-69780976D01*
X134670873Y-69804127D01*
X134694024Y-69832337D01*
X134711226Y-69864519D01*
X134721819Y-69899438D01*
X134726000Y-69941895D01*
X134726000Y-71083105D01*
X134721819Y-71125562D01*
X134711226Y-71160481D01*
X134694024Y-71192663D01*
X134670873Y-71220873D01*
X134642663Y-71244024D01*
X134610481Y-71261226D01*
X134575562Y-71271819D01*
X134533105Y-71276000D01*
X133066895Y-71276000D01*
X133024438Y-71271819D01*
X132989519Y-71261226D01*
X132957337Y-71244024D01*
X132929127Y-71220873D01*
X132905976Y-71192663D01*
X132888774Y-71160481D01*
X132878181Y-71125562D01*
X132874000Y-71083105D01*
X132874000Y-69941895D01*
X132878181Y-69899438D01*
X132888774Y-69864519D01*
X132905976Y-69832337D01*
X132929127Y-69804127D01*
X132957337Y-69780976D01*
X132989519Y-69763774D01*
X133024438Y-69753181D01*
X133066895Y-69749000D01*
X134533105Y-69749000D01*
X134575562Y-69753181D01*
G37*
G36*
X62162857Y-53475782D02*
G01*
X62511776Y-53581626D01*
X62833332Y-53753500D01*
X62897620Y-53806260D01*
X63115188Y-53984812D01*
X63346497Y-54266664D01*
X63346500Y-54266668D01*
X63518374Y-54588223D01*
X63624218Y-54937142D01*
X63651000Y-55209065D01*
X63651000Y-61790935D01*
X63624218Y-62062858D01*
X63518374Y-62411777D01*
X63346500Y-62733332D01*
X63346498Y-62733335D01*
X63346497Y-62733336D01*
X63115188Y-63015188D01*
X62833336Y-63246497D01*
X62833332Y-63246500D01*
X62511777Y-63418374D01*
X62162858Y-63524218D01*
X61800000Y-63559956D01*
X61437143Y-63524218D01*
X61088224Y-63418374D01*
X60766669Y-63246500D01*
X60766665Y-63246497D01*
X60484813Y-63015188D01*
X60253504Y-62733336D01*
X60253503Y-62733335D01*
X60253501Y-62733332D01*
X60081627Y-62411777D01*
X59975783Y-62062858D01*
X59949001Y-61790935D01*
X59949000Y-55209066D01*
X59975782Y-54937143D01*
X60081626Y-54588224D01*
X60253500Y-54266668D01*
X60306260Y-54202380D01*
X60484812Y-53984812D01*
X60766664Y-53753503D01*
X60766665Y-53753502D01*
X60766668Y-53753500D01*
X61088223Y-53581626D01*
X61437142Y-53475782D01*
X61800000Y-53440044D01*
X62162857Y-53475782D01*
G37*
G36*
X69362857Y-53475782D02*
G01*
X69711776Y-53581626D01*
X70033332Y-53753500D01*
X70097620Y-53806260D01*
X70315188Y-53984812D01*
X70546497Y-54266664D01*
X70546500Y-54266668D01*
X70718374Y-54588223D01*
X70824218Y-54937142D01*
X70851000Y-55209065D01*
X70851000Y-61790935D01*
X70824218Y-62062858D01*
X70718374Y-62411777D01*
X70546500Y-62733332D01*
X70546498Y-62733335D01*
X70546497Y-62733336D01*
X70315188Y-63015188D01*
X70033336Y-63246497D01*
X70033332Y-63246500D01*
X69711777Y-63418374D01*
X69362858Y-63524218D01*
X69000000Y-63559956D01*
X68637143Y-63524218D01*
X68288224Y-63418374D01*
X67966669Y-63246500D01*
X67966665Y-63246497D01*
X67684813Y-63015188D01*
X67453504Y-62733336D01*
X67453503Y-62733335D01*
X67453501Y-62733332D01*
X67281627Y-62411777D01*
X67175783Y-62062858D01*
X67149001Y-61790935D01*
X67149000Y-55209066D01*
X67175782Y-54937143D01*
X67281626Y-54588224D01*
X67453500Y-54266668D01*
X67506260Y-54202380D01*
X67684812Y-53984812D01*
X67966664Y-53753503D01*
X67966665Y-53753502D01*
X67966668Y-53753500D01*
X68288223Y-53581626D01*
X68637142Y-53475782D01*
X69000000Y-53440044D01*
X69362857Y-53475782D01*
G37*
G36*
X54962857Y-53475782D02*
G01*
X55311776Y-53581626D01*
X55633332Y-53753500D01*
X55697620Y-53806260D01*
X55915188Y-53984812D01*
X56146497Y-54266664D01*
X56146500Y-54266668D01*
X56318374Y-54588223D01*
X56424218Y-54937142D01*
X56451000Y-55209065D01*
X56451000Y-61790935D01*
X56424218Y-62062858D01*
X56318374Y-62411777D01*
X56146500Y-62733332D01*
X56146498Y-62733335D01*
X56146497Y-62733336D01*
X55915188Y-63015188D01*
X55633336Y-63246497D01*
X55633332Y-63246500D01*
X55311777Y-63418374D01*
X54962858Y-63524218D01*
X54600000Y-63559956D01*
X54237143Y-63524218D01*
X53888224Y-63418374D01*
X53566669Y-63246500D01*
X53566665Y-63246497D01*
X53284813Y-63015188D01*
X53053504Y-62733336D01*
X53053503Y-62733335D01*
X53053501Y-62733332D01*
X52881627Y-62411777D01*
X52775783Y-62062858D01*
X52749001Y-61790935D01*
X52749000Y-55209066D01*
X52775782Y-54937143D01*
X52881626Y-54588224D01*
X53053500Y-54266668D01*
X53106260Y-54202380D01*
X53284812Y-53984812D01*
X53566664Y-53753503D01*
X53566665Y-53753502D01*
X53566668Y-53753500D01*
X53888223Y-53581626D01*
X54237142Y-53475782D01*
X54600000Y-53440044D01*
X54962857Y-53475782D01*
G37*
G36*
X76562857Y-53475782D02*
G01*
X76911776Y-53581626D01*
X77233332Y-53753500D01*
X77297620Y-53806260D01*
X77515188Y-53984812D01*
X77746497Y-54266664D01*
X77746500Y-54266668D01*
X77918374Y-54588223D01*
X78024218Y-54937142D01*
X78051000Y-55209065D01*
X78051000Y-61790935D01*
X78024218Y-62062858D01*
X77918374Y-62411777D01*
X77746500Y-62733332D01*
X77746498Y-62733335D01*
X77746497Y-62733336D01*
X77515188Y-63015188D01*
X77233336Y-63246497D01*
X77233332Y-63246500D01*
X76911777Y-63418374D01*
X76562858Y-63524218D01*
X76200000Y-63559956D01*
X75837143Y-63524218D01*
X75488224Y-63418374D01*
X75166669Y-63246500D01*
X75166665Y-63246497D01*
X74884813Y-63015188D01*
X74653504Y-62733336D01*
X74653503Y-62733335D01*
X74653501Y-62733332D01*
X74481627Y-62411777D01*
X74375783Y-62062858D01*
X74349001Y-61790935D01*
X74349000Y-55209066D01*
X74375782Y-54937143D01*
X74481626Y-54588224D01*
X74653500Y-54266668D01*
X74706260Y-54202380D01*
X74884812Y-53984812D01*
X75166664Y-53753503D01*
X75166665Y-53753502D01*
X75166668Y-53753500D01*
X75488223Y-53581626D01*
X75837142Y-53475782D01*
X76200000Y-53440044D01*
X76562857Y-53475782D01*
G37*
G36*
X134162857Y-53475782D02*
G01*
X134511776Y-53581626D01*
X134833332Y-53753500D01*
X134897620Y-53806260D01*
X135115188Y-53984812D01*
X135346497Y-54266664D01*
X135346500Y-54266668D01*
X135518374Y-54588223D01*
X135624218Y-54937142D01*
X135651000Y-55209065D01*
X135651000Y-61790935D01*
X135624218Y-62062858D01*
X135518374Y-62411777D01*
X135346500Y-62733332D01*
X135346498Y-62733335D01*
X135346497Y-62733336D01*
X135115188Y-63015188D01*
X134833336Y-63246497D01*
X134833332Y-63246500D01*
X134511777Y-63418374D01*
X134162858Y-63524218D01*
X133800000Y-63559956D01*
X133437143Y-63524218D01*
X133088224Y-63418374D01*
X132766669Y-63246500D01*
X132766665Y-63246497D01*
X132484813Y-63015188D01*
X132253504Y-62733336D01*
X132253503Y-62733335D01*
X132253501Y-62733332D01*
X132081627Y-62411777D01*
X131975783Y-62062858D01*
X131949001Y-61790935D01*
X131949000Y-55209066D01*
X131975782Y-54937143D01*
X132081626Y-54588224D01*
X132253500Y-54266668D01*
X132306260Y-54202380D01*
X132484812Y-53984812D01*
X132766664Y-53753503D01*
X132766665Y-53753502D01*
X132766668Y-53753500D01*
X133088223Y-53581626D01*
X133437142Y-53475782D01*
X133800000Y-53440044D01*
X134162857Y-53475782D01*
G37*
G36*
X83762857Y-53475782D02*
G01*
X84111776Y-53581626D01*
X84433332Y-53753500D01*
X84497620Y-53806260D01*
X84715188Y-53984812D01*
X84946497Y-54266664D01*
X84946500Y-54266668D01*
X85118374Y-54588223D01*
X85224218Y-54937142D01*
X85251000Y-55209065D01*
X85251000Y-61790935D01*
X85224218Y-62062858D01*
X85118374Y-62411777D01*
X84946500Y-62733332D01*
X84946498Y-62733335D01*
X84946497Y-62733336D01*
X84715188Y-63015188D01*
X84433336Y-63246497D01*
X84433332Y-63246500D01*
X84111777Y-63418374D01*
X83762858Y-63524218D01*
X83400000Y-63559956D01*
X83037143Y-63524218D01*
X82688224Y-63418374D01*
X82366669Y-63246500D01*
X82366665Y-63246497D01*
X82084813Y-63015188D01*
X81853504Y-62733336D01*
X81853503Y-62733335D01*
X81853501Y-62733332D01*
X81681627Y-62411777D01*
X81575783Y-62062858D01*
X81549001Y-61790935D01*
X81549000Y-55209066D01*
X81575782Y-54937143D01*
X81681626Y-54588224D01*
X81853500Y-54266668D01*
X81906260Y-54202380D01*
X82084812Y-53984812D01*
X82366664Y-53753503D01*
X82366665Y-53753502D01*
X82366668Y-53753500D01*
X82688223Y-53581626D01*
X83037142Y-53475782D01*
X83400000Y-53440044D01*
X83762857Y-53475782D01*
G37*
G36*
X126962857Y-53475782D02*
G01*
X127311776Y-53581626D01*
X127633332Y-53753500D01*
X127697620Y-53806260D01*
X127915188Y-53984812D01*
X128146497Y-54266664D01*
X128146500Y-54266668D01*
X128318374Y-54588223D01*
X128424218Y-54937142D01*
X128451000Y-55209065D01*
X128451000Y-61790935D01*
X128424218Y-62062858D01*
X128318374Y-62411777D01*
X128146500Y-62733332D01*
X128146498Y-62733335D01*
X128146497Y-62733336D01*
X127915188Y-63015188D01*
X127633336Y-63246497D01*
X127633332Y-63246500D01*
X127311777Y-63418374D01*
X126962858Y-63524218D01*
X126600000Y-63559956D01*
X126237143Y-63524218D01*
X125888224Y-63418374D01*
X125566669Y-63246500D01*
X125566665Y-63246497D01*
X125284813Y-63015188D01*
X125053504Y-62733336D01*
X125053503Y-62733335D01*
X125053501Y-62733332D01*
X124881627Y-62411777D01*
X124775783Y-62062858D01*
X124749001Y-61790935D01*
X124749000Y-55209066D01*
X124775782Y-54937143D01*
X124881626Y-54588224D01*
X125053500Y-54266668D01*
X125106260Y-54202380D01*
X125284812Y-53984812D01*
X125566664Y-53753503D01*
X125566665Y-53753502D01*
X125566668Y-53753500D01*
X125888223Y-53581626D01*
X126237142Y-53475782D01*
X126600000Y-53440044D01*
X126962857Y-53475782D01*
G37*
G36*
X90962857Y-53475782D02*
G01*
X91311776Y-53581626D01*
X91633332Y-53753500D01*
X91697620Y-53806260D01*
X91915188Y-53984812D01*
X92146497Y-54266664D01*
X92146500Y-54266668D01*
X92318374Y-54588223D01*
X92424218Y-54937142D01*
X92451000Y-55209065D01*
X92451000Y-61790935D01*
X92424218Y-62062858D01*
X92318374Y-62411777D01*
X92146500Y-62733332D01*
X92146498Y-62733335D01*
X92146497Y-62733336D01*
X91915188Y-63015188D01*
X91633336Y-63246497D01*
X91633332Y-63246500D01*
X91311777Y-63418374D01*
X90962858Y-63524218D01*
X90600000Y-63559956D01*
X90237143Y-63524218D01*
X89888224Y-63418374D01*
X89566669Y-63246500D01*
X89566665Y-63246497D01*
X89284813Y-63015188D01*
X89053504Y-62733336D01*
X89053503Y-62733335D01*
X89053501Y-62733332D01*
X88881627Y-62411777D01*
X88775783Y-62062858D01*
X88749001Y-61790935D01*
X88749000Y-55209066D01*
X88775782Y-54937143D01*
X88881626Y-54588224D01*
X89053500Y-54266668D01*
X89106260Y-54202380D01*
X89284812Y-53984812D01*
X89566664Y-53753503D01*
X89566665Y-53753502D01*
X89566668Y-53753500D01*
X89888223Y-53581626D01*
X90237142Y-53475782D01*
X90600000Y-53440044D01*
X90962857Y-53475782D01*
G37*
G36*
X119762857Y-53475782D02*
G01*
X120111776Y-53581626D01*
X120433332Y-53753500D01*
X120497620Y-53806260D01*
X120715188Y-53984812D01*
X120946497Y-54266664D01*
X120946500Y-54266668D01*
X121118374Y-54588223D01*
X121224218Y-54937142D01*
X121251000Y-55209065D01*
X121251000Y-61790935D01*
X121224218Y-62062858D01*
X121118374Y-62411777D01*
X120946500Y-62733332D01*
X120946498Y-62733335D01*
X120946497Y-62733336D01*
X120715188Y-63015188D01*
X120433336Y-63246497D01*
X120433332Y-63246500D01*
X120111777Y-63418374D01*
X119762858Y-63524218D01*
X119400000Y-63559956D01*
X119037143Y-63524218D01*
X118688224Y-63418374D01*
X118366669Y-63246500D01*
X118366665Y-63246497D01*
X118084813Y-63015188D01*
X117853504Y-62733336D01*
X117853503Y-62733335D01*
X117853501Y-62733332D01*
X117681627Y-62411777D01*
X117575783Y-62062858D01*
X117549001Y-61790935D01*
X117549000Y-55209066D01*
X117575782Y-54937143D01*
X117681626Y-54588224D01*
X117853500Y-54266668D01*
X117906260Y-54202380D01*
X118084812Y-53984812D01*
X118366664Y-53753503D01*
X118366665Y-53753502D01*
X118366668Y-53753500D01*
X118688223Y-53581626D01*
X119037142Y-53475782D01*
X119400000Y-53440044D01*
X119762857Y-53475782D01*
G37*
G36*
X98162857Y-53475782D02*
G01*
X98511776Y-53581626D01*
X98833332Y-53753500D01*
X98897620Y-53806260D01*
X99115188Y-53984812D01*
X99346497Y-54266664D01*
X99346500Y-54266668D01*
X99518374Y-54588223D01*
X99624218Y-54937142D01*
X99651000Y-55209065D01*
X99651000Y-61790935D01*
X99624218Y-62062858D01*
X99518374Y-62411777D01*
X99346500Y-62733332D01*
X99346498Y-62733335D01*
X99346497Y-62733336D01*
X99115188Y-63015188D01*
X98833336Y-63246497D01*
X98833332Y-63246500D01*
X98511777Y-63418374D01*
X98162858Y-63524218D01*
X97800000Y-63559956D01*
X97437143Y-63524218D01*
X97088224Y-63418374D01*
X96766669Y-63246500D01*
X96766665Y-63246497D01*
X96484813Y-63015188D01*
X96253504Y-62733336D01*
X96253503Y-62733335D01*
X96253501Y-62733332D01*
X96081627Y-62411777D01*
X95975783Y-62062858D01*
X95949001Y-61790935D01*
X95949000Y-55209066D01*
X95975782Y-54937143D01*
X96081626Y-54588224D01*
X96253500Y-54266668D01*
X96306260Y-54202380D01*
X96484812Y-53984812D01*
X96766664Y-53753503D01*
X96766665Y-53753502D01*
X96766668Y-53753500D01*
X97088223Y-53581626D01*
X97437142Y-53475782D01*
X97800000Y-53440044D01*
X98162857Y-53475782D01*
G37*
G36*
X112562857Y-53475782D02*
G01*
X112911776Y-53581626D01*
X113233332Y-53753500D01*
X113297620Y-53806260D01*
X113515188Y-53984812D01*
X113746497Y-54266664D01*
X113746500Y-54266668D01*
X113918374Y-54588223D01*
X114024218Y-54937142D01*
X114051000Y-55209065D01*
X114051000Y-61790935D01*
X114024218Y-62062858D01*
X113918374Y-62411777D01*
X113746500Y-62733332D01*
X113746498Y-62733335D01*
X113746497Y-62733336D01*
X113515188Y-63015188D01*
X113233336Y-63246497D01*
X113233332Y-63246500D01*
X112911777Y-63418374D01*
X112562858Y-63524218D01*
X112200000Y-63559956D01*
X111837143Y-63524218D01*
X111488224Y-63418374D01*
X111166669Y-63246500D01*
X111166665Y-63246497D01*
X110884813Y-63015188D01*
X110653504Y-62733336D01*
X110653503Y-62733335D01*
X110653501Y-62733332D01*
X110481627Y-62411777D01*
X110375783Y-62062858D01*
X110349001Y-61790935D01*
X110349000Y-55209066D01*
X110375782Y-54937143D01*
X110481626Y-54588224D01*
X110653500Y-54266668D01*
X110706260Y-54202380D01*
X110884812Y-53984812D01*
X111166664Y-53753503D01*
X111166665Y-53753502D01*
X111166668Y-53753500D01*
X111488223Y-53581626D01*
X111837142Y-53475782D01*
X112200000Y-53440044D01*
X112562857Y-53475782D01*
G37*
G36*
X105362857Y-53475782D02*
G01*
X105711776Y-53581626D01*
X106033332Y-53753500D01*
X106097620Y-53806260D01*
X106315188Y-53984812D01*
X106546497Y-54266664D01*
X106546500Y-54266668D01*
X106718374Y-54588223D01*
X106824218Y-54937142D01*
X106851000Y-55209065D01*
X106851000Y-61790935D01*
X106824218Y-62062858D01*
X106718374Y-62411777D01*
X106546500Y-62733332D01*
X106546498Y-62733335D01*
X106546497Y-62733336D01*
X106315188Y-63015188D01*
X106033336Y-63246497D01*
X106033332Y-63246500D01*
X105711777Y-63418374D01*
X105362858Y-63524218D01*
X105000000Y-63559956D01*
X104637143Y-63524218D01*
X104288224Y-63418374D01*
X103966669Y-63246500D01*
X103966665Y-63246497D01*
X103684813Y-63015188D01*
X103453504Y-62733336D01*
X103453503Y-62733335D01*
X103453501Y-62733332D01*
X103281627Y-62411777D01*
X103175783Y-62062858D01*
X103149001Y-61790935D01*
X103149000Y-55209066D01*
X103175782Y-54937143D01*
X103281626Y-54588224D01*
X103453500Y-54266668D01*
X103506260Y-54202380D01*
X103684812Y-53984812D01*
X103966664Y-53753503D01*
X103966665Y-53753502D01*
X103966668Y-53753500D01*
X104288223Y-53581626D01*
X104637142Y-53475782D01*
X105000000Y-53440044D01*
X105362857Y-53475782D01*
G37*
G36*
X141362857Y-53475782D02*
G01*
X141711776Y-53581626D01*
X142033332Y-53753500D01*
X142097620Y-53806260D01*
X142315188Y-53984812D01*
X142546497Y-54266664D01*
X142546500Y-54266668D01*
X142718374Y-54588223D01*
X142824218Y-54937142D01*
X142851000Y-55209065D01*
X142851000Y-61790935D01*
X142824218Y-62062858D01*
X142718374Y-62411777D01*
X142546500Y-62733332D01*
X142546498Y-62733335D01*
X142546497Y-62733336D01*
X142315188Y-63015188D01*
X142033336Y-63246497D01*
X142033332Y-63246500D01*
X141711777Y-63418374D01*
X141362858Y-63524218D01*
X141000000Y-63559956D01*
X140637143Y-63524218D01*
X140288224Y-63418374D01*
X139966669Y-63246500D01*
X139966665Y-63246497D01*
X139684813Y-63015188D01*
X139453504Y-62733336D01*
X139453503Y-62733335D01*
X139453501Y-62733332D01*
X139281627Y-62411777D01*
X139175783Y-62062858D01*
X139149001Y-61790935D01*
X139149000Y-55209066D01*
X139175782Y-54937143D01*
X139281626Y-54588224D01*
X139453500Y-54266668D01*
X139506260Y-54202380D01*
X139684812Y-53984812D01*
X139966664Y-53753503D01*
X139966665Y-53753502D01*
X139966668Y-53753500D01*
X140288223Y-53581626D01*
X140637142Y-53475782D01*
X141000000Y-53440044D01*
X141362857Y-53475782D01*
G37*
G36*
X148562857Y-53475782D02*
G01*
X148911776Y-53581626D01*
X149233332Y-53753500D01*
X149297620Y-53806260D01*
X149515188Y-53984812D01*
X149746497Y-54266664D01*
X149746500Y-54266668D01*
X149918374Y-54588223D01*
X150024218Y-54937142D01*
X150051000Y-55209065D01*
X150051000Y-61790935D01*
X150024218Y-62062858D01*
X149918374Y-62411777D01*
X149746500Y-62733332D01*
X149746498Y-62733335D01*
X149746497Y-62733336D01*
X149515188Y-63015188D01*
X149233336Y-63246497D01*
X149233332Y-63246500D01*
X148911777Y-63418374D01*
X148562858Y-63524218D01*
X148200000Y-63559956D01*
X147837143Y-63524218D01*
X147488224Y-63418374D01*
X147166669Y-63246500D01*
X147166665Y-63246497D01*
X146884813Y-63015188D01*
X146653504Y-62733336D01*
X146653503Y-62733335D01*
X146653501Y-62733332D01*
X146481627Y-62411777D01*
X146375783Y-62062858D01*
X146349001Y-61790935D01*
X146349000Y-55209066D01*
X146375782Y-54937143D01*
X146481626Y-54588224D01*
X146653500Y-54266668D01*
X146706260Y-54202380D01*
X146884812Y-53984812D01*
X147166664Y-53753503D01*
X147166665Y-53753502D01*
X147166668Y-53753500D01*
X147488223Y-53581626D01*
X147837142Y-53475782D01*
X148200000Y-53440044D01*
X148562857Y-53475782D01*
G37*
M02*
