G04 #@! TF.GenerationSoftware,KiCad,Pcbnew,(5.1.5-0)*
G04 #@! TF.CreationDate,2020-06-12T16:48:31+02:00*
G04 #@! TF.ProjectId,Divider1,44697669-6465-4723-912e-6b696361645f,rev?*
G04 #@! TF.SameCoordinates,Original*
G04 #@! TF.FileFunction,Legend,Top*
G04 #@! TF.FilePolarity,Positive*
%FSLAX46Y46*%
G04 Gerber Fmt 4.6, Leading zero omitted, Abs format (unit mm)*
G04 Created by KiCad (PCBNEW (5.1.5-0)) date 2020-06-12 16:48:31*
%MOMM*%
%LPD*%
G04 APERTURE LIST*
%ADD10C,0.150000*%
%ADD11C,0.120000*%
G04 APERTURE END LIST*
D10*
X148400000Y-97719047D02*
X148352380Y-97814285D01*
X148352380Y-97957142D01*
X148400000Y-98100000D01*
X148495238Y-98195238D01*
X148590476Y-98242857D01*
X148780952Y-98290476D01*
X148923809Y-98290476D01*
X149114285Y-98242857D01*
X149209523Y-98195238D01*
X149304761Y-98100000D01*
X149352380Y-97957142D01*
X149352380Y-97861904D01*
X149304761Y-97719047D01*
X149257142Y-97671428D01*
X148923809Y-97671428D01*
X148923809Y-97861904D01*
X149066666Y-97290476D02*
X149066666Y-96814285D01*
X149352380Y-97385714D02*
X148352380Y-97052380D01*
X149352380Y-96719047D01*
X148352380Y-96528571D02*
X148352380Y-95957142D01*
X149352380Y-96242857D02*
X148352380Y-96242857D01*
X148828571Y-95623809D02*
X148828571Y-95290476D01*
X149352380Y-95147619D02*
X149352380Y-95623809D01*
X148352380Y-95623809D01*
X148352380Y-95147619D01*
X149304761Y-94004761D02*
X149352380Y-93861904D01*
X149352380Y-93623809D01*
X149304761Y-93528571D01*
X149257142Y-93480952D01*
X149161904Y-93433333D01*
X149066666Y-93433333D01*
X148971428Y-93480952D01*
X148923809Y-93528571D01*
X148876190Y-93623809D01*
X148828571Y-93814285D01*
X148780952Y-93909523D01*
X148733333Y-93957142D01*
X148638095Y-94004761D01*
X148542857Y-94004761D01*
X148447619Y-93957142D01*
X148400000Y-93909523D01*
X148352380Y-93814285D01*
X148352380Y-93576190D01*
X148400000Y-93433333D01*
X149352380Y-93004761D02*
X148352380Y-93004761D01*
X148828571Y-93004761D02*
X148828571Y-92433333D01*
X149352380Y-92433333D02*
X148352380Y-92433333D01*
X148352380Y-91957142D02*
X149161904Y-91957142D01*
X149257142Y-91909523D01*
X149304761Y-91861904D01*
X149352380Y-91766666D01*
X149352380Y-91576190D01*
X149304761Y-91480952D01*
X149257142Y-91433333D01*
X149161904Y-91385714D01*
X148352380Y-91385714D01*
X148352380Y-91052380D02*
X148352380Y-90480952D01*
X149352380Y-90766666D02*
X148352380Y-90766666D01*
X148352380Y-90290476D02*
X148352380Y-89719047D01*
X149352380Y-90004761D02*
X148352380Y-90004761D01*
X148828571Y-89385714D02*
X148828571Y-89052380D01*
X149352380Y-88909523D02*
X149352380Y-89385714D01*
X148352380Y-89385714D01*
X148352380Y-88909523D01*
X149352380Y-87909523D02*
X148876190Y-88242857D01*
X149352380Y-88480952D02*
X148352380Y-88480952D01*
X148352380Y-88100000D01*
X148400000Y-88004761D01*
X148447619Y-87957142D01*
X148542857Y-87909523D01*
X148685714Y-87909523D01*
X148780952Y-87957142D01*
X148828571Y-88004761D01*
X148876190Y-88100000D01*
X148876190Y-88480952D01*
X50452380Y-68461904D02*
X49452380Y-68461904D01*
X49452380Y-68223809D01*
X49500000Y-68080952D01*
X49595238Y-67985714D01*
X49690476Y-67938095D01*
X49880952Y-67890476D01*
X50023809Y-67890476D01*
X50214285Y-67938095D01*
X50309523Y-67985714D01*
X50404761Y-68080952D01*
X50452380Y-68223809D01*
X50452380Y-68461904D01*
X49928571Y-67461904D02*
X49928571Y-67128571D01*
X50452380Y-66985714D02*
X50452380Y-67461904D01*
X49452380Y-67461904D01*
X49452380Y-66985714D01*
X50404761Y-66604761D02*
X50452380Y-66461904D01*
X50452380Y-66223809D01*
X50404761Y-66128571D01*
X50357142Y-66080952D01*
X50261904Y-66033333D01*
X50166666Y-66033333D01*
X50071428Y-66080952D01*
X50023809Y-66128571D01*
X49976190Y-66223809D01*
X49928571Y-66414285D01*
X49880952Y-66509523D01*
X49833333Y-66557142D01*
X49738095Y-66604761D01*
X49642857Y-66604761D01*
X49547619Y-66557142D01*
X49500000Y-66509523D01*
X49452380Y-66414285D01*
X49452380Y-66176190D01*
X49500000Y-66033333D01*
X49452380Y-65414285D02*
X49452380Y-65223809D01*
X49500000Y-65128571D01*
X49595238Y-65033333D01*
X49785714Y-64985714D01*
X50119047Y-64985714D01*
X50309523Y-65033333D01*
X50404761Y-65128571D01*
X50452380Y-65223809D01*
X50452380Y-65414285D01*
X50404761Y-65509523D01*
X50309523Y-65604761D01*
X50119047Y-65652380D01*
X49785714Y-65652380D01*
X49595238Y-65604761D01*
X49500000Y-65509523D01*
X49452380Y-65414285D01*
X50452380Y-64080952D02*
X50452380Y-64557142D01*
X49452380Y-64557142D01*
X49452380Y-63890476D02*
X50452380Y-63557142D01*
X49452380Y-63223809D01*
X50166666Y-62938095D02*
X50166666Y-62461904D01*
X50452380Y-63033333D02*
X49452380Y-62700000D01*
X50452380Y-62366666D01*
X49452380Y-62176190D02*
X49452380Y-61604761D01*
X50452380Y-61890476D02*
X49452380Y-61890476D01*
X50452380Y-61271428D02*
X49452380Y-61271428D01*
X49452380Y-60604761D02*
X49452380Y-60414285D01*
X49500000Y-60319047D01*
X49595238Y-60223809D01*
X49785714Y-60176190D01*
X50119047Y-60176190D01*
X50309523Y-60223809D01*
X50404761Y-60319047D01*
X50452380Y-60414285D01*
X50452380Y-60604761D01*
X50404761Y-60700000D01*
X50309523Y-60795238D01*
X50119047Y-60842857D01*
X49785714Y-60842857D01*
X49595238Y-60795238D01*
X49500000Y-60700000D01*
X49452380Y-60604761D01*
X50452380Y-59747619D02*
X49452380Y-59747619D01*
X50452380Y-59176190D01*
X49452380Y-59176190D01*
X50452380Y-57366666D02*
X49976190Y-57700000D01*
X50452380Y-57938095D02*
X49452380Y-57938095D01*
X49452380Y-57557142D01*
X49500000Y-57461904D01*
X49547619Y-57414285D01*
X49642857Y-57366666D01*
X49785714Y-57366666D01*
X49880952Y-57414285D01*
X49928571Y-57461904D01*
X49976190Y-57557142D01*
X49976190Y-57938095D01*
X49928571Y-56938095D02*
X49928571Y-56604761D01*
X50452380Y-56461904D02*
X50452380Y-56938095D01*
X49452380Y-56938095D01*
X49452380Y-56461904D01*
X49500000Y-55509523D02*
X49452380Y-55604761D01*
X49452380Y-55747619D01*
X49500000Y-55890476D01*
X49595238Y-55985714D01*
X49690476Y-56033333D01*
X49880952Y-56080952D01*
X50023809Y-56080952D01*
X50214285Y-56033333D01*
X50309523Y-55985714D01*
X50404761Y-55890476D01*
X50452380Y-55747619D01*
X50452380Y-55652380D01*
X50404761Y-55509523D01*
X50357142Y-55461904D01*
X50023809Y-55461904D01*
X50023809Y-55652380D01*
X50452380Y-55033333D02*
X49452380Y-55033333D01*
X49452380Y-54366666D02*
X49452380Y-54176190D01*
X49500000Y-54080952D01*
X49595238Y-53985714D01*
X49785714Y-53938095D01*
X50119047Y-53938095D01*
X50309523Y-53985714D01*
X50404761Y-54080952D01*
X50452380Y-54176190D01*
X50452380Y-54366666D01*
X50404761Y-54461904D01*
X50309523Y-54557142D01*
X50119047Y-54604761D01*
X49785714Y-54604761D01*
X49595238Y-54557142D01*
X49500000Y-54461904D01*
X49452380Y-54366666D01*
X50452380Y-53509523D02*
X49452380Y-53509523D01*
X50452380Y-52938095D01*
X49452380Y-52938095D01*
X53952380Y-86523809D02*
X53952380Y-87095238D01*
X53952380Y-86809523D02*
X52952380Y-86809523D01*
X53095238Y-86904761D01*
X53190476Y-87000000D01*
X53238095Y-87095238D01*
X52952380Y-85619047D02*
X52952380Y-86095238D01*
X53428571Y-86142857D01*
X53380952Y-86095238D01*
X53333333Y-86000000D01*
X53333333Y-85761904D01*
X53380952Y-85666666D01*
X53428571Y-85619047D01*
X53523809Y-85571428D01*
X53761904Y-85571428D01*
X53857142Y-85619047D01*
X53904761Y-85666666D01*
X53952380Y-85761904D01*
X53952380Y-86000000D01*
X53904761Y-86095238D01*
X53857142Y-86142857D01*
X53952380Y-85142857D02*
X52952380Y-85142857D01*
X53571428Y-85047619D02*
X53952380Y-84761904D01*
X53285714Y-84761904D02*
X53666666Y-85142857D01*
X52952380Y-84476190D02*
X53952380Y-84142857D01*
X52952380Y-83809523D01*
D11*
X149451000Y-72000000D02*
G75*
G03X149451000Y-72000000I-1251000J0D01*
G01*
X52500000Y-84050000D02*
X49500000Y-84050000D01*
X52500000Y-86900000D02*
X52500000Y-84050000D01*
X49500000Y-86900000D02*
X49500000Y-84050000D01*
X52500000Y-86900000D02*
X49500000Y-86900000D01*
X51800000Y-94600000D02*
G75*
G02X50200000Y-94600000I-800000J0D01*
G01*
X50200000Y-92600000D02*
G75*
G02X51800000Y-92600000I800000J0D01*
G01*
X51800000Y-92600000D02*
X51800000Y-94600000D01*
X50200000Y-94600000D02*
X50200000Y-92600000D01*
X51910000Y-80602064D02*
X51910000Y-79397936D01*
X50090000Y-80602064D02*
X50090000Y-79397936D01*
X149000000Y-59600000D02*
G75*
G02X147400000Y-59600000I-800000J0D01*
G01*
X147400000Y-57600000D02*
G75*
G02X149000000Y-57600000I800000J0D01*
G01*
X149000000Y-57600000D02*
X149000000Y-59600000D01*
X147400000Y-59600000D02*
X147400000Y-57600000D01*
X141800000Y-59600000D02*
G75*
G02X140200000Y-59600000I-800000J0D01*
G01*
X140200000Y-57600000D02*
G75*
G02X141800000Y-57600000I800000J0D01*
G01*
X141800000Y-57600000D02*
X141800000Y-59600000D01*
X140200000Y-59600000D02*
X140200000Y-57600000D01*
X134600000Y-59600000D02*
G75*
G02X133000000Y-59600000I-800000J0D01*
G01*
X133000000Y-57600000D02*
G75*
G02X134600000Y-57600000I800000J0D01*
G01*
X134600000Y-57600000D02*
X134600000Y-59600000D01*
X133000000Y-59600000D02*
X133000000Y-57600000D01*
X127400000Y-59600000D02*
G75*
G02X125800000Y-59600000I-800000J0D01*
G01*
X125800000Y-57600000D02*
G75*
G02X127400000Y-57600000I800000J0D01*
G01*
X127400000Y-57600000D02*
X127400000Y-59600000D01*
X125800000Y-59600000D02*
X125800000Y-57600000D01*
X120200000Y-59600000D02*
G75*
G02X118600000Y-59600000I-800000J0D01*
G01*
X118600000Y-57600000D02*
G75*
G02X120200000Y-57600000I800000J0D01*
G01*
X120200000Y-57600000D02*
X120200000Y-59600000D01*
X118600000Y-59600000D02*
X118600000Y-57600000D01*
X113000000Y-59600000D02*
G75*
G02X111400000Y-59600000I-800000J0D01*
G01*
X111400000Y-57600000D02*
G75*
G02X113000000Y-57600000I800000J0D01*
G01*
X113000000Y-57600000D02*
X113000000Y-59600000D01*
X111400000Y-59600000D02*
X111400000Y-57600000D01*
X105800000Y-59600000D02*
G75*
G02X104200000Y-59600000I-800000J0D01*
G01*
X104200000Y-57600000D02*
G75*
G02X105800000Y-57600000I800000J0D01*
G01*
X105800000Y-57600000D02*
X105800000Y-59600000D01*
X104200000Y-59600000D02*
X104200000Y-57600000D01*
X98600000Y-59600000D02*
G75*
G02X97000000Y-59600000I-800000J0D01*
G01*
X97000000Y-57600000D02*
G75*
G02X98600000Y-57600000I800000J0D01*
G01*
X98600000Y-57600000D02*
X98600000Y-59600000D01*
X97000000Y-59600000D02*
X97000000Y-57600000D01*
X91400000Y-59600000D02*
G75*
G02X89800000Y-59600000I-800000J0D01*
G01*
X89800000Y-57600000D02*
G75*
G02X91400000Y-57600000I800000J0D01*
G01*
X91400000Y-57600000D02*
X91400000Y-59600000D01*
X89800000Y-59600000D02*
X89800000Y-57600000D01*
X84200000Y-59600000D02*
G75*
G02X82600000Y-59600000I-800000J0D01*
G01*
X82600000Y-57600000D02*
G75*
G02X84200000Y-57600000I800000J0D01*
G01*
X84200000Y-57600000D02*
X84200000Y-59600000D01*
X82600000Y-59600000D02*
X82600000Y-57600000D01*
X77000000Y-59600000D02*
G75*
G02X75400000Y-59600000I-800000J0D01*
G01*
X75400000Y-57600000D02*
G75*
G02X77000000Y-57600000I800000J0D01*
G01*
X77000000Y-57600000D02*
X77000000Y-59600000D01*
X75400000Y-59600000D02*
X75400000Y-57600000D01*
X69800000Y-59600000D02*
G75*
G02X68200000Y-59600000I-800000J0D01*
G01*
X68200000Y-57600000D02*
G75*
G02X69800000Y-57600000I800000J0D01*
G01*
X69800000Y-57600000D02*
X69800000Y-59600000D01*
X68200000Y-59600000D02*
X68200000Y-57600000D01*
X62600000Y-59600000D02*
G75*
G02X61000000Y-59600000I-800000J0D01*
G01*
X61000000Y-57600000D02*
G75*
G02X62600000Y-57600000I800000J0D01*
G01*
X62600000Y-57600000D02*
X62600000Y-59600000D01*
X61000000Y-59600000D02*
X61000000Y-57600000D01*
X55400000Y-59600000D02*
G75*
G02X53800000Y-59600000I-800000J0D01*
G01*
X53800000Y-57600000D02*
G75*
G02X55400000Y-57600000I800000J0D01*
G01*
X55400000Y-57600000D02*
X55400000Y-59600000D01*
X53800000Y-59600000D02*
X53800000Y-57600000D01*
X143800000Y-94600000D02*
X143800000Y-92600000D01*
X145400000Y-92600000D02*
X145400000Y-94600000D01*
X143800000Y-92600000D02*
G75*
G02X145400000Y-92600000I800000J0D01*
G01*
X145400000Y-94600000D02*
G75*
G02X143800000Y-94600000I-800000J0D01*
G01*
X136600000Y-94600000D02*
X136600000Y-92600000D01*
X138200000Y-92600000D02*
X138200000Y-94600000D01*
X136600000Y-92600000D02*
G75*
G02X138200000Y-92600000I800000J0D01*
G01*
X138200000Y-94600000D02*
G75*
G02X136600000Y-94600000I-800000J0D01*
G01*
X129400000Y-94600000D02*
X129400000Y-92600000D01*
X131000000Y-92600000D02*
X131000000Y-94600000D01*
X129400000Y-92600000D02*
G75*
G02X131000000Y-92600000I800000J0D01*
G01*
X131000000Y-94600000D02*
G75*
G02X129400000Y-94600000I-800000J0D01*
G01*
X122200000Y-94600000D02*
X122200000Y-92600000D01*
X123800000Y-92600000D02*
X123800000Y-94600000D01*
X122200000Y-92600000D02*
G75*
G02X123800000Y-92600000I800000J0D01*
G01*
X123800000Y-94600000D02*
G75*
G02X122200000Y-94600000I-800000J0D01*
G01*
X115000000Y-94600000D02*
X115000000Y-92600000D01*
X116600000Y-92600000D02*
X116600000Y-94600000D01*
X115000000Y-92600000D02*
G75*
G02X116600000Y-92600000I800000J0D01*
G01*
X116600000Y-94600000D02*
G75*
G02X115000000Y-94600000I-800000J0D01*
G01*
X107800000Y-94600000D02*
X107800000Y-92600000D01*
X109400000Y-92600000D02*
X109400000Y-94600000D01*
X107800000Y-92600000D02*
G75*
G02X109400000Y-92600000I800000J0D01*
G01*
X109400000Y-94600000D02*
G75*
G02X107800000Y-94600000I-800000J0D01*
G01*
X100600000Y-94600000D02*
X100600000Y-92600000D01*
X102200000Y-92600000D02*
X102200000Y-94600000D01*
X100600000Y-92600000D02*
G75*
G02X102200000Y-92600000I800000J0D01*
G01*
X102200000Y-94600000D02*
G75*
G02X100600000Y-94600000I-800000J0D01*
G01*
X93400000Y-94600000D02*
X93400000Y-92600000D01*
X95000000Y-92600000D02*
X95000000Y-94600000D01*
X93400000Y-92600000D02*
G75*
G02X95000000Y-92600000I800000J0D01*
G01*
X95000000Y-94600000D02*
G75*
G02X93400000Y-94600000I-800000J0D01*
G01*
X86200000Y-94600000D02*
X86200000Y-92600000D01*
X87800000Y-92600000D02*
X87800000Y-94600000D01*
X86200000Y-92600000D02*
G75*
G02X87800000Y-92600000I800000J0D01*
G01*
X87800000Y-94600000D02*
G75*
G02X86200000Y-94600000I-800000J0D01*
G01*
X79000000Y-94600000D02*
X79000000Y-92600000D01*
X80600000Y-92600000D02*
X80600000Y-94600000D01*
X79000000Y-92600000D02*
G75*
G02X80600000Y-92600000I800000J0D01*
G01*
X80600000Y-94600000D02*
G75*
G02X79000000Y-94600000I-800000J0D01*
G01*
X71800000Y-94600000D02*
X71800000Y-92600000D01*
X73400000Y-92600000D02*
X73400000Y-94600000D01*
X71800000Y-92600000D02*
G75*
G02X73400000Y-92600000I800000J0D01*
G01*
X73400000Y-94600000D02*
G75*
G02X71800000Y-94600000I-800000J0D01*
G01*
X64600000Y-94600000D02*
X64600000Y-92600000D01*
X66200000Y-92600000D02*
X66200000Y-94600000D01*
X64600000Y-92600000D02*
G75*
G02X66200000Y-92600000I800000J0D01*
G01*
X66200000Y-94600000D02*
G75*
G02X64600000Y-94600000I-800000J0D01*
G01*
X57400000Y-94600000D02*
X57400000Y-92600000D01*
X59000000Y-92600000D02*
X59000000Y-94600000D01*
X57400000Y-92600000D02*
G75*
G02X59000000Y-92600000I800000J0D01*
G01*
X59000000Y-94600000D02*
G75*
G02X57400000Y-94600000I-800000J0D01*
G01*
X145510000Y-80602064D02*
X145510000Y-79397936D01*
X143690000Y-80602064D02*
X143690000Y-79397936D01*
X138310000Y-80602064D02*
X138310000Y-79397936D01*
X136490000Y-80602064D02*
X136490000Y-79397936D01*
X131110000Y-80602064D02*
X131110000Y-79397936D01*
X129290000Y-80602064D02*
X129290000Y-79397936D01*
X123910000Y-80602064D02*
X123910000Y-79397936D01*
X122090000Y-80602064D02*
X122090000Y-79397936D01*
X116710000Y-80602064D02*
X116710000Y-79397936D01*
X114890000Y-80602064D02*
X114890000Y-79397936D01*
X109510000Y-80602064D02*
X109510000Y-79397936D01*
X107690000Y-80602064D02*
X107690000Y-79397936D01*
X102310000Y-80602064D02*
X102310000Y-79397936D01*
X100490000Y-80602064D02*
X100490000Y-79397936D01*
X95110000Y-80602064D02*
X95110000Y-79397936D01*
X93290000Y-80602064D02*
X93290000Y-79397936D01*
X87910000Y-80602064D02*
X87910000Y-79397936D01*
X86090000Y-80602064D02*
X86090000Y-79397936D01*
X80710000Y-80602064D02*
X80710000Y-79397936D01*
X78890000Y-80602064D02*
X78890000Y-79397936D01*
X73510000Y-80602064D02*
X73510000Y-79397936D01*
X71690000Y-80602064D02*
X71690000Y-79397936D01*
X66310000Y-80602064D02*
X66310000Y-79397936D01*
X64490000Y-80602064D02*
X64490000Y-79397936D01*
X59110000Y-80602064D02*
X59110000Y-79397936D01*
X57290000Y-80602064D02*
X57290000Y-79397936D01*
X141910000Y-72602064D02*
X141910000Y-71397936D01*
X140090000Y-72602064D02*
X140090000Y-71397936D01*
X134710000Y-72602064D02*
X134710000Y-71397936D01*
X132890000Y-72602064D02*
X132890000Y-71397936D01*
X127510000Y-72602064D02*
X127510000Y-71397936D01*
X125690000Y-72602064D02*
X125690000Y-71397936D01*
X120310000Y-72602064D02*
X120310000Y-71397936D01*
X118490000Y-72602064D02*
X118490000Y-71397936D01*
X113110000Y-72602064D02*
X113110000Y-71397936D01*
X111290000Y-72602064D02*
X111290000Y-71397936D01*
X105910000Y-72602064D02*
X105910000Y-71397936D01*
X104090000Y-72602064D02*
X104090000Y-71397936D01*
X98710000Y-72602064D02*
X98710000Y-71397936D01*
X96890000Y-72602064D02*
X96890000Y-71397936D01*
X91510000Y-72602064D02*
X91510000Y-71397936D01*
X89690000Y-72602064D02*
X89690000Y-71397936D01*
X84310000Y-72602064D02*
X84310000Y-71397936D01*
X82490000Y-72602064D02*
X82490000Y-71397936D01*
X77110000Y-72602064D02*
X77110000Y-71397936D01*
X75290000Y-72602064D02*
X75290000Y-71397936D01*
X69910000Y-72602064D02*
X69910000Y-71397936D01*
X68090000Y-72602064D02*
X68090000Y-71397936D01*
X62710000Y-72602064D02*
X62710000Y-71397936D01*
X60890000Y-72602064D02*
X60890000Y-71397936D01*
X55510000Y-72602064D02*
X55510000Y-71397936D01*
X53690000Y-72602064D02*
X53690000Y-71397936D01*
D10*
X147866666Y-73702380D02*
X147866666Y-74416666D01*
X147819047Y-74559523D01*
X147723809Y-74654761D01*
X147580952Y-74702380D01*
X147485714Y-74702380D01*
X148295238Y-73797619D02*
X148342857Y-73750000D01*
X148438095Y-73702380D01*
X148676190Y-73702380D01*
X148771428Y-73750000D01*
X148819047Y-73797619D01*
X148866666Y-73892857D01*
X148866666Y-73988095D01*
X148819047Y-74130952D01*
X148247619Y-74702380D01*
X148866666Y-74702380D01*
X50666666Y-82702380D02*
X50666666Y-83416666D01*
X50619047Y-83559523D01*
X50523809Y-83654761D01*
X50380952Y-83702380D01*
X50285714Y-83702380D01*
X51666666Y-83702380D02*
X51095238Y-83702380D01*
X51380952Y-83702380D02*
X51380952Y-82702380D01*
X51285714Y-82845238D01*
X51190476Y-82940476D01*
X51095238Y-82988095D01*
X49632380Y-80166666D02*
X49156190Y-80500000D01*
X49632380Y-80738095D02*
X48632380Y-80738095D01*
X48632380Y-80357142D01*
X48680000Y-80261904D01*
X48727619Y-80214285D01*
X48822857Y-80166666D01*
X48965714Y-80166666D01*
X49060952Y-80214285D01*
X49108571Y-80261904D01*
X49156190Y-80357142D01*
X49156190Y-80738095D01*
X49632380Y-79214285D02*
X49632380Y-79785714D01*
X49632380Y-79500000D02*
X48632380Y-79500000D01*
X48775238Y-79595238D01*
X48870476Y-79690476D01*
X48918095Y-79785714D01*
X143232380Y-80642857D02*
X142756190Y-80976190D01*
X143232380Y-81214285D02*
X142232380Y-81214285D01*
X142232380Y-80833333D01*
X142280000Y-80738095D01*
X142327619Y-80690476D01*
X142422857Y-80642857D01*
X142565714Y-80642857D01*
X142660952Y-80690476D01*
X142708571Y-80738095D01*
X142756190Y-80833333D01*
X142756190Y-81214285D01*
X142327619Y-80261904D02*
X142280000Y-80214285D01*
X142232380Y-80119047D01*
X142232380Y-79880952D01*
X142280000Y-79785714D01*
X142327619Y-79738095D01*
X142422857Y-79690476D01*
X142518095Y-79690476D01*
X142660952Y-79738095D01*
X143232380Y-80309523D01*
X143232380Y-79690476D01*
X142232380Y-79357142D02*
X142232380Y-78690476D01*
X143232380Y-79119047D01*
X136032380Y-80642857D02*
X135556190Y-80976190D01*
X136032380Y-81214285D02*
X135032380Y-81214285D01*
X135032380Y-80833333D01*
X135080000Y-80738095D01*
X135127619Y-80690476D01*
X135222857Y-80642857D01*
X135365714Y-80642857D01*
X135460952Y-80690476D01*
X135508571Y-80738095D01*
X135556190Y-80833333D01*
X135556190Y-81214285D01*
X135127619Y-80261904D02*
X135080000Y-80214285D01*
X135032380Y-80119047D01*
X135032380Y-79880952D01*
X135080000Y-79785714D01*
X135127619Y-79738095D01*
X135222857Y-79690476D01*
X135318095Y-79690476D01*
X135460952Y-79738095D01*
X136032380Y-80309523D01*
X136032380Y-79690476D01*
X135032380Y-78785714D02*
X135032380Y-79261904D01*
X135508571Y-79309523D01*
X135460952Y-79261904D01*
X135413333Y-79166666D01*
X135413333Y-78928571D01*
X135460952Y-78833333D01*
X135508571Y-78785714D01*
X135603809Y-78738095D01*
X135841904Y-78738095D01*
X135937142Y-78785714D01*
X135984761Y-78833333D01*
X136032380Y-78928571D01*
X136032380Y-79166666D01*
X135984761Y-79261904D01*
X135937142Y-79309523D01*
X128832380Y-80642857D02*
X128356190Y-80976190D01*
X128832380Y-81214285D02*
X127832380Y-81214285D01*
X127832380Y-80833333D01*
X127880000Y-80738095D01*
X127927619Y-80690476D01*
X128022857Y-80642857D01*
X128165714Y-80642857D01*
X128260952Y-80690476D01*
X128308571Y-80738095D01*
X128356190Y-80833333D01*
X128356190Y-81214285D01*
X127927619Y-80261904D02*
X127880000Y-80214285D01*
X127832380Y-80119047D01*
X127832380Y-79880952D01*
X127880000Y-79785714D01*
X127927619Y-79738095D01*
X128022857Y-79690476D01*
X128118095Y-79690476D01*
X128260952Y-79738095D01*
X128832380Y-80309523D01*
X128832380Y-79690476D01*
X127832380Y-79357142D02*
X127832380Y-78738095D01*
X128213333Y-79071428D01*
X128213333Y-78928571D01*
X128260952Y-78833333D01*
X128308571Y-78785714D01*
X128403809Y-78738095D01*
X128641904Y-78738095D01*
X128737142Y-78785714D01*
X128784761Y-78833333D01*
X128832380Y-78928571D01*
X128832380Y-79214285D01*
X128784761Y-79309523D01*
X128737142Y-79357142D01*
X121632380Y-80642857D02*
X121156190Y-80976190D01*
X121632380Y-81214285D02*
X120632380Y-81214285D01*
X120632380Y-80833333D01*
X120680000Y-80738095D01*
X120727619Y-80690476D01*
X120822857Y-80642857D01*
X120965714Y-80642857D01*
X121060952Y-80690476D01*
X121108571Y-80738095D01*
X121156190Y-80833333D01*
X121156190Y-81214285D01*
X120727619Y-80261904D02*
X120680000Y-80214285D01*
X120632380Y-80119047D01*
X120632380Y-79880952D01*
X120680000Y-79785714D01*
X120727619Y-79738095D01*
X120822857Y-79690476D01*
X120918095Y-79690476D01*
X121060952Y-79738095D01*
X121632380Y-80309523D01*
X121632380Y-79690476D01*
X121632380Y-78738095D02*
X121632380Y-79309523D01*
X121632380Y-79023809D02*
X120632380Y-79023809D01*
X120775238Y-79119047D01*
X120870476Y-79214285D01*
X120918095Y-79309523D01*
X114432380Y-80642857D02*
X113956190Y-80976190D01*
X114432380Y-81214285D02*
X113432380Y-81214285D01*
X113432380Y-80833333D01*
X113480000Y-80738095D01*
X113527619Y-80690476D01*
X113622857Y-80642857D01*
X113765714Y-80642857D01*
X113860952Y-80690476D01*
X113908571Y-80738095D01*
X113956190Y-80833333D01*
X113956190Y-81214285D01*
X114432380Y-79690476D02*
X114432380Y-80261904D01*
X114432380Y-79976190D02*
X113432380Y-79976190D01*
X113575238Y-80071428D01*
X113670476Y-80166666D01*
X113718095Y-80261904D01*
X114432380Y-79214285D02*
X114432380Y-79023809D01*
X114384761Y-78928571D01*
X114337142Y-78880952D01*
X114194285Y-78785714D01*
X114003809Y-78738095D01*
X113622857Y-78738095D01*
X113527619Y-78785714D01*
X113480000Y-78833333D01*
X113432380Y-78928571D01*
X113432380Y-79119047D01*
X113480000Y-79214285D01*
X113527619Y-79261904D01*
X113622857Y-79309523D01*
X113860952Y-79309523D01*
X113956190Y-79261904D01*
X114003809Y-79214285D01*
X114051428Y-79119047D01*
X114051428Y-78928571D01*
X114003809Y-78833333D01*
X113956190Y-78785714D01*
X113860952Y-78738095D01*
X107232380Y-80642857D02*
X106756190Y-80976190D01*
X107232380Y-81214285D02*
X106232380Y-81214285D01*
X106232380Y-80833333D01*
X106280000Y-80738095D01*
X106327619Y-80690476D01*
X106422857Y-80642857D01*
X106565714Y-80642857D01*
X106660952Y-80690476D01*
X106708571Y-80738095D01*
X106756190Y-80833333D01*
X106756190Y-81214285D01*
X107232380Y-79690476D02*
X107232380Y-80261904D01*
X107232380Y-79976190D02*
X106232380Y-79976190D01*
X106375238Y-80071428D01*
X106470476Y-80166666D01*
X106518095Y-80261904D01*
X106232380Y-79357142D02*
X106232380Y-78690476D01*
X107232380Y-79119047D01*
X100032380Y-80642857D02*
X99556190Y-80976190D01*
X100032380Y-81214285D02*
X99032380Y-81214285D01*
X99032380Y-80833333D01*
X99080000Y-80738095D01*
X99127619Y-80690476D01*
X99222857Y-80642857D01*
X99365714Y-80642857D01*
X99460952Y-80690476D01*
X99508571Y-80738095D01*
X99556190Y-80833333D01*
X99556190Y-81214285D01*
X100032380Y-79690476D02*
X100032380Y-80261904D01*
X100032380Y-79976190D02*
X99032380Y-79976190D01*
X99175238Y-80071428D01*
X99270476Y-80166666D01*
X99318095Y-80261904D01*
X99032380Y-78785714D02*
X99032380Y-79261904D01*
X99508571Y-79309523D01*
X99460952Y-79261904D01*
X99413333Y-79166666D01*
X99413333Y-78928571D01*
X99460952Y-78833333D01*
X99508571Y-78785714D01*
X99603809Y-78738095D01*
X99841904Y-78738095D01*
X99937142Y-78785714D01*
X99984761Y-78833333D01*
X100032380Y-78928571D01*
X100032380Y-79166666D01*
X99984761Y-79261904D01*
X99937142Y-79309523D01*
X92832380Y-80642857D02*
X92356190Y-80976190D01*
X92832380Y-81214285D02*
X91832380Y-81214285D01*
X91832380Y-80833333D01*
X91880000Y-80738095D01*
X91927619Y-80690476D01*
X92022857Y-80642857D01*
X92165714Y-80642857D01*
X92260952Y-80690476D01*
X92308571Y-80738095D01*
X92356190Y-80833333D01*
X92356190Y-81214285D01*
X92832380Y-79690476D02*
X92832380Y-80261904D01*
X92832380Y-79976190D02*
X91832380Y-79976190D01*
X91975238Y-80071428D01*
X92070476Y-80166666D01*
X92118095Y-80261904D01*
X91832380Y-79357142D02*
X91832380Y-78738095D01*
X92213333Y-79071428D01*
X92213333Y-78928571D01*
X92260952Y-78833333D01*
X92308571Y-78785714D01*
X92403809Y-78738095D01*
X92641904Y-78738095D01*
X92737142Y-78785714D01*
X92784761Y-78833333D01*
X92832380Y-78928571D01*
X92832380Y-79214285D01*
X92784761Y-79309523D01*
X92737142Y-79357142D01*
X85632380Y-80642857D02*
X85156190Y-80976190D01*
X85632380Y-81214285D02*
X84632380Y-81214285D01*
X84632380Y-80833333D01*
X84680000Y-80738095D01*
X84727619Y-80690476D01*
X84822857Y-80642857D01*
X84965714Y-80642857D01*
X85060952Y-80690476D01*
X85108571Y-80738095D01*
X85156190Y-80833333D01*
X85156190Y-81214285D01*
X85632380Y-79690476D02*
X85632380Y-80261904D01*
X85632380Y-79976190D02*
X84632380Y-79976190D01*
X84775238Y-80071428D01*
X84870476Y-80166666D01*
X84918095Y-80261904D01*
X85632380Y-78738095D02*
X85632380Y-79309523D01*
X85632380Y-79023809D02*
X84632380Y-79023809D01*
X84775238Y-79119047D01*
X84870476Y-79214285D01*
X84918095Y-79309523D01*
X78432380Y-80166666D02*
X77956190Y-80500000D01*
X78432380Y-80738095D02*
X77432380Y-80738095D01*
X77432380Y-80357142D01*
X77480000Y-80261904D01*
X77527619Y-80214285D01*
X77622857Y-80166666D01*
X77765714Y-80166666D01*
X77860952Y-80214285D01*
X77908571Y-80261904D01*
X77956190Y-80357142D01*
X77956190Y-80738095D01*
X78432380Y-79690476D02*
X78432380Y-79500000D01*
X78384761Y-79404761D01*
X78337142Y-79357142D01*
X78194285Y-79261904D01*
X78003809Y-79214285D01*
X77622857Y-79214285D01*
X77527619Y-79261904D01*
X77480000Y-79309523D01*
X77432380Y-79404761D01*
X77432380Y-79595238D01*
X77480000Y-79690476D01*
X77527619Y-79738095D01*
X77622857Y-79785714D01*
X77860952Y-79785714D01*
X77956190Y-79738095D01*
X78003809Y-79690476D01*
X78051428Y-79595238D01*
X78051428Y-79404761D01*
X78003809Y-79309523D01*
X77956190Y-79261904D01*
X77860952Y-79214285D01*
X71232380Y-80166666D02*
X70756190Y-80500000D01*
X71232380Y-80738095D02*
X70232380Y-80738095D01*
X70232380Y-80357142D01*
X70280000Y-80261904D01*
X70327619Y-80214285D01*
X70422857Y-80166666D01*
X70565714Y-80166666D01*
X70660952Y-80214285D01*
X70708571Y-80261904D01*
X70756190Y-80357142D01*
X70756190Y-80738095D01*
X70232380Y-79833333D02*
X70232380Y-79166666D01*
X71232380Y-79595238D01*
X64032380Y-80166666D02*
X63556190Y-80500000D01*
X64032380Y-80738095D02*
X63032380Y-80738095D01*
X63032380Y-80357142D01*
X63080000Y-80261904D01*
X63127619Y-80214285D01*
X63222857Y-80166666D01*
X63365714Y-80166666D01*
X63460952Y-80214285D01*
X63508571Y-80261904D01*
X63556190Y-80357142D01*
X63556190Y-80738095D01*
X63032380Y-79261904D02*
X63032380Y-79738095D01*
X63508571Y-79785714D01*
X63460952Y-79738095D01*
X63413333Y-79642857D01*
X63413333Y-79404761D01*
X63460952Y-79309523D01*
X63508571Y-79261904D01*
X63603809Y-79214285D01*
X63841904Y-79214285D01*
X63937142Y-79261904D01*
X63984761Y-79309523D01*
X64032380Y-79404761D01*
X64032380Y-79642857D01*
X63984761Y-79738095D01*
X63937142Y-79785714D01*
X56832380Y-80166666D02*
X56356190Y-80500000D01*
X56832380Y-80738095D02*
X55832380Y-80738095D01*
X55832380Y-80357142D01*
X55880000Y-80261904D01*
X55927619Y-80214285D01*
X56022857Y-80166666D01*
X56165714Y-80166666D01*
X56260952Y-80214285D01*
X56308571Y-80261904D01*
X56356190Y-80357142D01*
X56356190Y-80738095D01*
X55832380Y-79833333D02*
X55832380Y-79214285D01*
X56213333Y-79547619D01*
X56213333Y-79404761D01*
X56260952Y-79309523D01*
X56308571Y-79261904D01*
X56403809Y-79214285D01*
X56641904Y-79214285D01*
X56737142Y-79261904D01*
X56784761Y-79309523D01*
X56832380Y-79404761D01*
X56832380Y-79690476D01*
X56784761Y-79785714D01*
X56737142Y-79833333D01*
X139632380Y-72642857D02*
X139156190Y-72976190D01*
X139632380Y-73214285D02*
X138632380Y-73214285D01*
X138632380Y-72833333D01*
X138680000Y-72738095D01*
X138727619Y-72690476D01*
X138822857Y-72642857D01*
X138965714Y-72642857D01*
X139060952Y-72690476D01*
X139108571Y-72738095D01*
X139156190Y-72833333D01*
X139156190Y-73214285D01*
X138727619Y-72261904D02*
X138680000Y-72214285D01*
X138632380Y-72119047D01*
X138632380Y-71880952D01*
X138680000Y-71785714D01*
X138727619Y-71738095D01*
X138822857Y-71690476D01*
X138918095Y-71690476D01*
X139060952Y-71738095D01*
X139632380Y-72309523D01*
X139632380Y-71690476D01*
X138632380Y-70833333D02*
X138632380Y-71023809D01*
X138680000Y-71119047D01*
X138727619Y-71166666D01*
X138870476Y-71261904D01*
X139060952Y-71309523D01*
X139441904Y-71309523D01*
X139537142Y-71261904D01*
X139584761Y-71214285D01*
X139632380Y-71119047D01*
X139632380Y-70928571D01*
X139584761Y-70833333D01*
X139537142Y-70785714D01*
X139441904Y-70738095D01*
X139203809Y-70738095D01*
X139108571Y-70785714D01*
X139060952Y-70833333D01*
X139013333Y-70928571D01*
X139013333Y-71119047D01*
X139060952Y-71214285D01*
X139108571Y-71261904D01*
X139203809Y-71309523D01*
X132432380Y-72642857D02*
X131956190Y-72976190D01*
X132432380Y-73214285D02*
X131432380Y-73214285D01*
X131432380Y-72833333D01*
X131480000Y-72738095D01*
X131527619Y-72690476D01*
X131622857Y-72642857D01*
X131765714Y-72642857D01*
X131860952Y-72690476D01*
X131908571Y-72738095D01*
X131956190Y-72833333D01*
X131956190Y-73214285D01*
X131527619Y-72261904D02*
X131480000Y-72214285D01*
X131432380Y-72119047D01*
X131432380Y-71880952D01*
X131480000Y-71785714D01*
X131527619Y-71738095D01*
X131622857Y-71690476D01*
X131718095Y-71690476D01*
X131860952Y-71738095D01*
X132432380Y-72309523D01*
X132432380Y-71690476D01*
X131765714Y-70833333D02*
X132432380Y-70833333D01*
X131384761Y-71071428D02*
X132099047Y-71309523D01*
X132099047Y-70690476D01*
X125232380Y-72642857D02*
X124756190Y-72976190D01*
X125232380Y-73214285D02*
X124232380Y-73214285D01*
X124232380Y-72833333D01*
X124280000Y-72738095D01*
X124327619Y-72690476D01*
X124422857Y-72642857D01*
X124565714Y-72642857D01*
X124660952Y-72690476D01*
X124708571Y-72738095D01*
X124756190Y-72833333D01*
X124756190Y-73214285D01*
X124327619Y-72261904D02*
X124280000Y-72214285D01*
X124232380Y-72119047D01*
X124232380Y-71880952D01*
X124280000Y-71785714D01*
X124327619Y-71738095D01*
X124422857Y-71690476D01*
X124518095Y-71690476D01*
X124660952Y-71738095D01*
X125232380Y-72309523D01*
X125232380Y-71690476D01*
X124327619Y-71309523D02*
X124280000Y-71261904D01*
X124232380Y-71166666D01*
X124232380Y-70928571D01*
X124280000Y-70833333D01*
X124327619Y-70785714D01*
X124422857Y-70738095D01*
X124518095Y-70738095D01*
X124660952Y-70785714D01*
X125232380Y-71357142D01*
X125232380Y-70738095D01*
X117952380Y-72642857D02*
X117476190Y-72976190D01*
X117952380Y-73214285D02*
X116952380Y-73214285D01*
X116952380Y-72833333D01*
X117000000Y-72738095D01*
X117047619Y-72690476D01*
X117142857Y-72642857D01*
X117285714Y-72642857D01*
X117380952Y-72690476D01*
X117428571Y-72738095D01*
X117476190Y-72833333D01*
X117476190Y-73214285D01*
X117047619Y-72261904D02*
X117000000Y-72214285D01*
X116952380Y-72119047D01*
X116952380Y-71880952D01*
X117000000Y-71785714D01*
X117047619Y-71738095D01*
X117142857Y-71690476D01*
X117238095Y-71690476D01*
X117380952Y-71738095D01*
X117952380Y-72309523D01*
X117952380Y-71690476D01*
X116952380Y-71071428D02*
X116952380Y-70976190D01*
X117000000Y-70880952D01*
X117047619Y-70833333D01*
X117142857Y-70785714D01*
X117333333Y-70738095D01*
X117571428Y-70738095D01*
X117761904Y-70785714D01*
X117857142Y-70833333D01*
X117904761Y-70880952D01*
X117952380Y-70976190D01*
X117952380Y-71071428D01*
X117904761Y-71166666D01*
X117857142Y-71214285D01*
X117761904Y-71261904D01*
X117571428Y-71309523D01*
X117333333Y-71309523D01*
X117142857Y-71261904D01*
X117047619Y-71214285D01*
X117000000Y-71166666D01*
X116952380Y-71071428D01*
X110832380Y-72642857D02*
X110356190Y-72976190D01*
X110832380Y-73214285D02*
X109832380Y-73214285D01*
X109832380Y-72833333D01*
X109880000Y-72738095D01*
X109927619Y-72690476D01*
X110022857Y-72642857D01*
X110165714Y-72642857D01*
X110260952Y-72690476D01*
X110308571Y-72738095D01*
X110356190Y-72833333D01*
X110356190Y-73214285D01*
X110832380Y-71690476D02*
X110832380Y-72261904D01*
X110832380Y-71976190D02*
X109832380Y-71976190D01*
X109975238Y-72071428D01*
X110070476Y-72166666D01*
X110118095Y-72261904D01*
X110260952Y-71119047D02*
X110213333Y-71214285D01*
X110165714Y-71261904D01*
X110070476Y-71309523D01*
X110022857Y-71309523D01*
X109927619Y-71261904D01*
X109880000Y-71214285D01*
X109832380Y-71119047D01*
X109832380Y-70928571D01*
X109880000Y-70833333D01*
X109927619Y-70785714D01*
X110022857Y-70738095D01*
X110070476Y-70738095D01*
X110165714Y-70785714D01*
X110213333Y-70833333D01*
X110260952Y-70928571D01*
X110260952Y-71119047D01*
X110308571Y-71214285D01*
X110356190Y-71261904D01*
X110451428Y-71309523D01*
X110641904Y-71309523D01*
X110737142Y-71261904D01*
X110784761Y-71214285D01*
X110832380Y-71119047D01*
X110832380Y-70928571D01*
X110784761Y-70833333D01*
X110737142Y-70785714D01*
X110641904Y-70738095D01*
X110451428Y-70738095D01*
X110356190Y-70785714D01*
X110308571Y-70833333D01*
X110260952Y-70928571D01*
X103632380Y-72642857D02*
X103156190Y-72976190D01*
X103632380Y-73214285D02*
X102632380Y-73214285D01*
X102632380Y-72833333D01*
X102680000Y-72738095D01*
X102727619Y-72690476D01*
X102822857Y-72642857D01*
X102965714Y-72642857D01*
X103060952Y-72690476D01*
X103108571Y-72738095D01*
X103156190Y-72833333D01*
X103156190Y-73214285D01*
X103632380Y-71690476D02*
X103632380Y-72261904D01*
X103632380Y-71976190D02*
X102632380Y-71976190D01*
X102775238Y-72071428D01*
X102870476Y-72166666D01*
X102918095Y-72261904D01*
X102632380Y-70833333D02*
X102632380Y-71023809D01*
X102680000Y-71119047D01*
X102727619Y-71166666D01*
X102870476Y-71261904D01*
X103060952Y-71309523D01*
X103441904Y-71309523D01*
X103537142Y-71261904D01*
X103584761Y-71214285D01*
X103632380Y-71119047D01*
X103632380Y-70928571D01*
X103584761Y-70833333D01*
X103537142Y-70785714D01*
X103441904Y-70738095D01*
X103203809Y-70738095D01*
X103108571Y-70785714D01*
X103060952Y-70833333D01*
X103013333Y-70928571D01*
X103013333Y-71119047D01*
X103060952Y-71214285D01*
X103108571Y-71261904D01*
X103203809Y-71309523D01*
X96432380Y-72642857D02*
X95956190Y-72976190D01*
X96432380Y-73214285D02*
X95432380Y-73214285D01*
X95432380Y-72833333D01*
X95480000Y-72738095D01*
X95527619Y-72690476D01*
X95622857Y-72642857D01*
X95765714Y-72642857D01*
X95860952Y-72690476D01*
X95908571Y-72738095D01*
X95956190Y-72833333D01*
X95956190Y-73214285D01*
X96432380Y-71690476D02*
X96432380Y-72261904D01*
X96432380Y-71976190D02*
X95432380Y-71976190D01*
X95575238Y-72071428D01*
X95670476Y-72166666D01*
X95718095Y-72261904D01*
X95765714Y-70833333D02*
X96432380Y-70833333D01*
X95384761Y-71071428D02*
X96099047Y-71309523D01*
X96099047Y-70690476D01*
X89232380Y-72642857D02*
X88756190Y-72976190D01*
X89232380Y-73214285D02*
X88232380Y-73214285D01*
X88232380Y-72833333D01*
X88280000Y-72738095D01*
X88327619Y-72690476D01*
X88422857Y-72642857D01*
X88565714Y-72642857D01*
X88660952Y-72690476D01*
X88708571Y-72738095D01*
X88756190Y-72833333D01*
X88756190Y-73214285D01*
X89232380Y-71690476D02*
X89232380Y-72261904D01*
X89232380Y-71976190D02*
X88232380Y-71976190D01*
X88375238Y-72071428D01*
X88470476Y-72166666D01*
X88518095Y-72261904D01*
X88327619Y-71309523D02*
X88280000Y-71261904D01*
X88232380Y-71166666D01*
X88232380Y-70928571D01*
X88280000Y-70833333D01*
X88327619Y-70785714D01*
X88422857Y-70738095D01*
X88518095Y-70738095D01*
X88660952Y-70785714D01*
X89232380Y-71357142D01*
X89232380Y-70738095D01*
X82032380Y-72642857D02*
X81556190Y-72976190D01*
X82032380Y-73214285D02*
X81032380Y-73214285D01*
X81032380Y-72833333D01*
X81080000Y-72738095D01*
X81127619Y-72690476D01*
X81222857Y-72642857D01*
X81365714Y-72642857D01*
X81460952Y-72690476D01*
X81508571Y-72738095D01*
X81556190Y-72833333D01*
X81556190Y-73214285D01*
X82032380Y-71690476D02*
X82032380Y-72261904D01*
X82032380Y-71976190D02*
X81032380Y-71976190D01*
X81175238Y-72071428D01*
X81270476Y-72166666D01*
X81318095Y-72261904D01*
X81032380Y-71071428D02*
X81032380Y-70976190D01*
X81080000Y-70880952D01*
X81127619Y-70833333D01*
X81222857Y-70785714D01*
X81413333Y-70738095D01*
X81651428Y-70738095D01*
X81841904Y-70785714D01*
X81937142Y-70833333D01*
X81984761Y-70880952D01*
X82032380Y-70976190D01*
X82032380Y-71071428D01*
X81984761Y-71166666D01*
X81937142Y-71214285D01*
X81841904Y-71261904D01*
X81651428Y-71309523D01*
X81413333Y-71309523D01*
X81222857Y-71261904D01*
X81127619Y-71214285D01*
X81080000Y-71166666D01*
X81032380Y-71071428D01*
X74832380Y-72166666D02*
X74356190Y-72500000D01*
X74832380Y-72738095D02*
X73832380Y-72738095D01*
X73832380Y-72357142D01*
X73880000Y-72261904D01*
X73927619Y-72214285D01*
X74022857Y-72166666D01*
X74165714Y-72166666D01*
X74260952Y-72214285D01*
X74308571Y-72261904D01*
X74356190Y-72357142D01*
X74356190Y-72738095D01*
X74260952Y-71595238D02*
X74213333Y-71690476D01*
X74165714Y-71738095D01*
X74070476Y-71785714D01*
X74022857Y-71785714D01*
X73927619Y-71738095D01*
X73880000Y-71690476D01*
X73832380Y-71595238D01*
X73832380Y-71404761D01*
X73880000Y-71309523D01*
X73927619Y-71261904D01*
X74022857Y-71214285D01*
X74070476Y-71214285D01*
X74165714Y-71261904D01*
X74213333Y-71309523D01*
X74260952Y-71404761D01*
X74260952Y-71595238D01*
X74308571Y-71690476D01*
X74356190Y-71738095D01*
X74451428Y-71785714D01*
X74641904Y-71785714D01*
X74737142Y-71738095D01*
X74784761Y-71690476D01*
X74832380Y-71595238D01*
X74832380Y-71404761D01*
X74784761Y-71309523D01*
X74737142Y-71261904D01*
X74641904Y-71214285D01*
X74451428Y-71214285D01*
X74356190Y-71261904D01*
X74308571Y-71309523D01*
X74260952Y-71404761D01*
X67632380Y-72166666D02*
X67156190Y-72500000D01*
X67632380Y-72738095D02*
X66632380Y-72738095D01*
X66632380Y-72357142D01*
X66680000Y-72261904D01*
X66727619Y-72214285D01*
X66822857Y-72166666D01*
X66965714Y-72166666D01*
X67060952Y-72214285D01*
X67108571Y-72261904D01*
X67156190Y-72357142D01*
X67156190Y-72738095D01*
X66632380Y-71309523D02*
X66632380Y-71500000D01*
X66680000Y-71595238D01*
X66727619Y-71642857D01*
X66870476Y-71738095D01*
X67060952Y-71785714D01*
X67441904Y-71785714D01*
X67537142Y-71738095D01*
X67584761Y-71690476D01*
X67632380Y-71595238D01*
X67632380Y-71404761D01*
X67584761Y-71309523D01*
X67537142Y-71261904D01*
X67441904Y-71214285D01*
X67203809Y-71214285D01*
X67108571Y-71261904D01*
X67060952Y-71309523D01*
X67013333Y-71404761D01*
X67013333Y-71595238D01*
X67060952Y-71690476D01*
X67108571Y-71738095D01*
X67203809Y-71785714D01*
X60432380Y-72166666D02*
X59956190Y-72500000D01*
X60432380Y-72738095D02*
X59432380Y-72738095D01*
X59432380Y-72357142D01*
X59480000Y-72261904D01*
X59527619Y-72214285D01*
X59622857Y-72166666D01*
X59765714Y-72166666D01*
X59860952Y-72214285D01*
X59908571Y-72261904D01*
X59956190Y-72357142D01*
X59956190Y-72738095D01*
X59765714Y-71309523D02*
X60432380Y-71309523D01*
X59384761Y-71547619D02*
X60099047Y-71785714D01*
X60099047Y-71166666D01*
X53232380Y-72166666D02*
X52756190Y-72500000D01*
X53232380Y-72738095D02*
X52232380Y-72738095D01*
X52232380Y-72357142D01*
X52280000Y-72261904D01*
X52327619Y-72214285D01*
X52422857Y-72166666D01*
X52565714Y-72166666D01*
X52660952Y-72214285D01*
X52708571Y-72261904D01*
X52756190Y-72357142D01*
X52756190Y-72738095D01*
X52327619Y-71785714D02*
X52280000Y-71738095D01*
X52232380Y-71642857D01*
X52232380Y-71404761D01*
X52280000Y-71309523D01*
X52327619Y-71261904D01*
X52422857Y-71214285D01*
X52518095Y-71214285D01*
X52660952Y-71261904D01*
X53232380Y-71833333D01*
X53232380Y-71214285D01*
M02*
