G04 #@! TF.GenerationSoftware,KiCad,Pcbnew,(5.1.5-0)*
G04 #@! TF.CreationDate,2020-06-12T16:42:37+02:00*
G04 #@! TF.ProjectId,cible,6369626c-652e-46b6-9963-61645f706362,rev?*
G04 #@! TF.SameCoordinates,Original*
G04 #@! TF.FileFunction,Copper,L2,Bot*
G04 #@! TF.FilePolarity,Positive*
%FSLAX46Y46*%
G04 Gerber Fmt 4.6, Leading zero omitted, Abs format (unit mm)*
G04 Created by KiCad (PCBNEW (5.1.5-0)) date 2020-06-12 16:42:37*
%MOMM*%
%LPD*%
G04 APERTURE LIST*
%ADD10C,20.000000*%
%ADD11C,1.000000*%
%ADD12C,0.800000*%
%ADD13C,0.254000*%
G04 APERTURE END LIST*
D10*
X126000000Y-86000000D03*
D11*
X126000000Y-75000000D03*
X137000000Y-86000000D03*
X136000000Y-82000000D03*
X134000000Y-78500000D03*
X130500000Y-76000000D03*
X136000000Y-90000000D03*
X130500000Y-96000000D03*
X126000000Y-97000000D03*
X121500000Y-96000000D03*
X118000000Y-93500000D03*
X116000000Y-90000000D03*
X115000000Y-86000000D03*
X116000000Y-82000000D03*
X118000000Y-78500000D03*
X121500000Y-76000000D03*
X133950000Y-93500000D03*
D12*
X126000000Y-86000000D03*
D13*
G36*
X141373000Y-101373000D02*
G01*
X110627000Y-101373000D01*
X110627000Y-84982879D01*
X115673000Y-84982879D01*
X115673000Y-87017121D01*
X116069861Y-89012275D01*
X116848331Y-90891669D01*
X117978495Y-92583079D01*
X119416921Y-94021505D01*
X121108331Y-95151669D01*
X122987725Y-95930139D01*
X124982879Y-96327000D01*
X127017121Y-96327000D01*
X129012275Y-95930139D01*
X130891669Y-95151669D01*
X132583079Y-94021505D01*
X134021505Y-92583079D01*
X135151669Y-90891669D01*
X135930139Y-89012275D01*
X136327000Y-87017121D01*
X136327000Y-84982879D01*
X135930139Y-82987725D01*
X135151669Y-81108331D01*
X134021505Y-79416921D01*
X132583079Y-77978495D01*
X130891669Y-76848331D01*
X129012275Y-76069861D01*
X127017121Y-75673000D01*
X124982879Y-75673000D01*
X122987725Y-76069861D01*
X121108331Y-76848331D01*
X119416921Y-77978495D01*
X117978495Y-79416921D01*
X116848331Y-81108331D01*
X116069861Y-82987725D01*
X115673000Y-84982879D01*
X110627000Y-84982879D01*
X110627000Y-70627000D01*
X141373000Y-70627000D01*
X141373000Y-101373000D01*
G37*
X141373000Y-101373000D02*
X110627000Y-101373000D01*
X110627000Y-84982879D01*
X115673000Y-84982879D01*
X115673000Y-87017121D01*
X116069861Y-89012275D01*
X116848331Y-90891669D01*
X117978495Y-92583079D01*
X119416921Y-94021505D01*
X121108331Y-95151669D01*
X122987725Y-95930139D01*
X124982879Y-96327000D01*
X127017121Y-96327000D01*
X129012275Y-95930139D01*
X130891669Y-95151669D01*
X132583079Y-94021505D01*
X134021505Y-92583079D01*
X135151669Y-90891669D01*
X135930139Y-89012275D01*
X136327000Y-87017121D01*
X136327000Y-84982879D01*
X135930139Y-82987725D01*
X135151669Y-81108331D01*
X134021505Y-79416921D01*
X132583079Y-77978495D01*
X130891669Y-76848331D01*
X129012275Y-76069861D01*
X127017121Y-75673000D01*
X124982879Y-75673000D01*
X122987725Y-76069861D01*
X121108331Y-76848331D01*
X119416921Y-77978495D01*
X117978495Y-79416921D01*
X116848331Y-81108331D01*
X116069861Y-82987725D01*
X115673000Y-84982879D01*
X110627000Y-84982879D01*
X110627000Y-70627000D01*
X141373000Y-70627000D01*
X141373000Y-101373000D01*
M02*
