G04 #@! TF.GenerationSoftware,KiCad,Pcbnew,(5.1.5-0)*
G04 #@! TF.CreationDate,2020-06-12T16:42:37+02:00*
G04 #@! TF.ProjectId,cible,6369626c-652e-46b6-9963-61645f706362,rev?*
G04 #@! TF.SameCoordinates,Original*
G04 #@! TF.FileFunction,Legend,Top*
G04 #@! TF.FilePolarity,Positive*
%FSLAX46Y46*%
G04 Gerber Fmt 4.6, Leading zero omitted, Abs format (unit mm)*
G04 Created by KiCad (PCBNEW (5.1.5-0)) date 2020-06-12 16:42:37*
%MOMM*%
%LPD*%
G04 APERTURE LIST*
%ADD10C,0.120000*%
%ADD11C,0.010000*%
%ADD12C,0.150000*%
G04 APERTURE END LIST*
D10*
X129355000Y-85060000D02*
X129355000Y-86940000D01*
X122645000Y-85060000D02*
X122645000Y-86940000D01*
D11*
G36*
X116540582Y-92964113D02*
G01*
X116609257Y-93090421D01*
X116657010Y-93199232D01*
X116675701Y-93271291D01*
X116674801Y-93281613D01*
X116654164Y-93323388D01*
X116600283Y-93422503D01*
X116516260Y-93573483D01*
X116405199Y-93770856D01*
X116270203Y-94009148D01*
X116114375Y-94282885D01*
X115940819Y-94586594D01*
X115752636Y-94914802D01*
X115552931Y-95262035D01*
X115497139Y-95358857D01*
X115294279Y-95710783D01*
X115101424Y-96045394D01*
X114921750Y-96357179D01*
X114758432Y-96640622D01*
X114614649Y-96890210D01*
X114493574Y-97100430D01*
X114398386Y-97265768D01*
X114332259Y-97380711D01*
X114298371Y-97439743D01*
X114295215Y-97445286D01*
X114286627Y-97442191D01*
X114279180Y-97398099D01*
X114272811Y-97309529D01*
X114267457Y-97173000D01*
X114263054Y-96985032D01*
X114259541Y-96742144D01*
X114256854Y-96440855D01*
X114254931Y-96077686D01*
X114253708Y-95649154D01*
X114253123Y-95151779D01*
X114253104Y-95113929D01*
X114252000Y-92710000D01*
X116389616Y-92710000D01*
X116540582Y-92964113D01*
G37*
X116540582Y-92964113D02*
X116609257Y-93090421D01*
X116657010Y-93199232D01*
X116675701Y-93271291D01*
X116674801Y-93281613D01*
X116654164Y-93323388D01*
X116600283Y-93422503D01*
X116516260Y-93573483D01*
X116405199Y-93770856D01*
X116270203Y-94009148D01*
X116114375Y-94282885D01*
X115940819Y-94586594D01*
X115752636Y-94914802D01*
X115552931Y-95262035D01*
X115497139Y-95358857D01*
X115294279Y-95710783D01*
X115101424Y-96045394D01*
X114921750Y-96357179D01*
X114758432Y-96640622D01*
X114614649Y-96890210D01*
X114493574Y-97100430D01*
X114398386Y-97265768D01*
X114332259Y-97380711D01*
X114298371Y-97439743D01*
X114295215Y-97445286D01*
X114286627Y-97442191D01*
X114279180Y-97398099D01*
X114272811Y-97309529D01*
X114267457Y-97173000D01*
X114263054Y-96985032D01*
X114259541Y-96742144D01*
X114256854Y-96440855D01*
X114254931Y-96077686D01*
X114253708Y-95649154D01*
X114253123Y-95151779D01*
X114253104Y-95113929D01*
X114252000Y-92710000D01*
X116389616Y-92710000D01*
X116540582Y-92964113D01*
G36*
X120529429Y-95141143D02*
G01*
X120529297Y-95553830D01*
X120528917Y-95944422D01*
X120528310Y-96306987D01*
X120527499Y-96635596D01*
X120526506Y-96924317D01*
X120525352Y-97167220D01*
X120524061Y-97358375D01*
X120522654Y-97491851D01*
X120521153Y-97561717D01*
X120520357Y-97570945D01*
X120501274Y-97540068D01*
X120448837Y-97451091D01*
X120365843Y-97308846D01*
X120255086Y-97118161D01*
X120119359Y-96883865D01*
X119961459Y-96610790D01*
X119784180Y-96303764D01*
X119590316Y-95967616D01*
X119382662Y-95607177D01*
X119164013Y-95227277D01*
X119132429Y-95172370D01*
X118912166Y-94789281D01*
X118702459Y-94424263D01*
X118506117Y-94082224D01*
X118325951Y-93768075D01*
X118164772Y-93486724D01*
X118025389Y-93243082D01*
X117910613Y-93042056D01*
X117823255Y-92888558D01*
X117766125Y-92787496D01*
X117742034Y-92743780D01*
X117741476Y-92742568D01*
X117773688Y-92734805D01*
X117872097Y-92727830D01*
X118030332Y-92721792D01*
X118242023Y-92716840D01*
X118500797Y-92713125D01*
X118800283Y-92710795D01*
X119129405Y-92710000D01*
X120529429Y-92710000D01*
X120529429Y-95141143D01*
G37*
X120529429Y-95141143D02*
X120529297Y-95553830D01*
X120528917Y-95944422D01*
X120528310Y-96306987D01*
X120527499Y-96635596D01*
X120526506Y-96924317D01*
X120525352Y-97167220D01*
X120524061Y-97358375D01*
X120522654Y-97491851D01*
X120521153Y-97561717D01*
X120520357Y-97570945D01*
X120501274Y-97540068D01*
X120448837Y-97451091D01*
X120365843Y-97308846D01*
X120255086Y-97118161D01*
X120119359Y-96883865D01*
X119961459Y-96610790D01*
X119784180Y-96303764D01*
X119590316Y-95967616D01*
X119382662Y-95607177D01*
X119164013Y-95227277D01*
X119132429Y-95172370D01*
X118912166Y-94789281D01*
X118702459Y-94424263D01*
X118506117Y-94082224D01*
X118325951Y-93768075D01*
X118164772Y-93486724D01*
X118025389Y-93243082D01*
X117910613Y-93042056D01*
X117823255Y-92888558D01*
X117766125Y-92787496D01*
X117742034Y-92743780D01*
X117741476Y-92742568D01*
X117773688Y-92734805D01*
X117872097Y-92727830D01*
X118030332Y-92721792D01*
X118242023Y-92716840D01*
X118500797Y-92713125D01*
X118800283Y-92710795D01*
X119129405Y-92710000D01*
X120529429Y-92710000D01*
X120529429Y-95141143D01*
G36*
X117391800Y-93250287D02*
G01*
X117444487Y-93337957D01*
X117526358Y-93476610D01*
X117633958Y-93660260D01*
X117763832Y-93882919D01*
X117912525Y-94138599D01*
X118076582Y-94421313D01*
X118252548Y-94725074D01*
X118436969Y-95043893D01*
X118626388Y-95371783D01*
X118817352Y-95702758D01*
X119006405Y-96030828D01*
X119190092Y-96350007D01*
X119364959Y-96654307D01*
X119527550Y-96937741D01*
X119674411Y-97194321D01*
X119802086Y-97418059D01*
X119907121Y-97602968D01*
X119986060Y-97743060D01*
X120035450Y-97832349D01*
X120051667Y-97863970D01*
X120027559Y-97885688D01*
X119952629Y-97897889D01*
X119919182Y-97898857D01*
X119774601Y-97898857D01*
X118513731Y-95712643D01*
X118302996Y-95347233D01*
X118102822Y-95000102D01*
X117916170Y-94676388D01*
X117746004Y-94381231D01*
X117595285Y-94119771D01*
X117466977Y-93897146D01*
X117364041Y-93718496D01*
X117289441Y-93588961D01*
X117246138Y-93513680D01*
X117236095Y-93496126D01*
X117241501Y-93450650D01*
X117271622Y-93373509D01*
X117313130Y-93291866D01*
X117352701Y-93232886D01*
X117371752Y-93219590D01*
X117391800Y-93250287D01*
G37*
X117391800Y-93250287D02*
X117444487Y-93337957D01*
X117526358Y-93476610D01*
X117633958Y-93660260D01*
X117763832Y-93882919D01*
X117912525Y-94138599D01*
X118076582Y-94421313D01*
X118252548Y-94725074D01*
X118436969Y-95043893D01*
X118626388Y-95371783D01*
X118817352Y-95702758D01*
X119006405Y-96030828D01*
X119190092Y-96350007D01*
X119364959Y-96654307D01*
X119527550Y-96937741D01*
X119674411Y-97194321D01*
X119802086Y-97418059D01*
X119907121Y-97602968D01*
X119986060Y-97743060D01*
X120035450Y-97832349D01*
X120051667Y-97863970D01*
X120027559Y-97885688D01*
X119952629Y-97897889D01*
X119919182Y-97898857D01*
X119774601Y-97898857D01*
X118513731Y-95712643D01*
X118302996Y-95347233D01*
X118102822Y-95000102D01*
X117916170Y-94676388D01*
X117746004Y-94381231D01*
X117595285Y-94119771D01*
X117466977Y-93897146D01*
X117364041Y-93718496D01*
X117289441Y-93588961D01*
X117246138Y-93513680D01*
X117236095Y-93496126D01*
X117241501Y-93450650D01*
X117271622Y-93373509D01*
X117313130Y-93291866D01*
X117352701Y-93232886D01*
X117371752Y-93219590D01*
X117391800Y-93250287D01*
G36*
X117052070Y-93845420D02*
G01*
X117106630Y-93938492D01*
X117189529Y-94081122D01*
X117297081Y-94266894D01*
X117425603Y-94489397D01*
X117571409Y-94742215D01*
X117730815Y-95018937D01*
X117900136Y-95313147D01*
X118075689Y-95618432D01*
X118253787Y-95928380D01*
X118430748Y-96236575D01*
X118602885Y-96536605D01*
X118766515Y-96822056D01*
X118917953Y-97086514D01*
X119053514Y-97323566D01*
X119169513Y-97526798D01*
X119262267Y-97689797D01*
X119328090Y-97806149D01*
X119363298Y-97869440D01*
X119368286Y-97879276D01*
X119333008Y-97882662D01*
X119231208Y-97885863D01*
X119068935Y-97888828D01*
X118852237Y-97891506D01*
X118587162Y-97893847D01*
X118279761Y-97895800D01*
X117936082Y-97897314D01*
X117562173Y-97898339D01*
X117164084Y-97898824D01*
X117027857Y-97898857D01*
X116623089Y-97898499D01*
X116240497Y-97897466D01*
X115886130Y-97895819D01*
X115566036Y-97893620D01*
X115286264Y-97890930D01*
X115052863Y-97887810D01*
X114871883Y-97884323D01*
X114749371Y-97880528D01*
X114691377Y-97876488D01*
X114687429Y-97875106D01*
X114704903Y-97840674D01*
X114754878Y-97750246D01*
X114833685Y-97610194D01*
X114937652Y-97426892D01*
X115063110Y-97206712D01*
X115206387Y-96956028D01*
X115363815Y-96681212D01*
X115531722Y-96388638D01*
X115706439Y-96084678D01*
X115884294Y-95775706D01*
X116061618Y-95468095D01*
X116234741Y-95168217D01*
X116399992Y-94882446D01*
X116553700Y-94617154D01*
X116692197Y-94378715D01*
X116811810Y-94173502D01*
X116908870Y-94007888D01*
X116979707Y-93888245D01*
X117020651Y-93820948D01*
X117029533Y-93808318D01*
X117052070Y-93845420D01*
G37*
X117052070Y-93845420D02*
X117106630Y-93938492D01*
X117189529Y-94081122D01*
X117297081Y-94266894D01*
X117425603Y-94489397D01*
X117571409Y-94742215D01*
X117730815Y-95018937D01*
X117900136Y-95313147D01*
X118075689Y-95618432D01*
X118253787Y-95928380D01*
X118430748Y-96236575D01*
X118602885Y-96536605D01*
X118766515Y-96822056D01*
X118917953Y-97086514D01*
X119053514Y-97323566D01*
X119169513Y-97526798D01*
X119262267Y-97689797D01*
X119328090Y-97806149D01*
X119363298Y-97869440D01*
X119368286Y-97879276D01*
X119333008Y-97882662D01*
X119231208Y-97885863D01*
X119068935Y-97888828D01*
X118852237Y-97891506D01*
X118587162Y-97893847D01*
X118279761Y-97895800D01*
X117936082Y-97897314D01*
X117562173Y-97898339D01*
X117164084Y-97898824D01*
X117027857Y-97898857D01*
X116623089Y-97898499D01*
X116240497Y-97897466D01*
X115886130Y-97895819D01*
X115566036Y-97893620D01*
X115286264Y-97890930D01*
X115052863Y-97887810D01*
X114871883Y-97884323D01*
X114749371Y-97880528D01*
X114691377Y-97876488D01*
X114687429Y-97875106D01*
X114704903Y-97840674D01*
X114754878Y-97750246D01*
X114833685Y-97610194D01*
X114937652Y-97426892D01*
X115063110Y-97206712D01*
X115206387Y-96956028D01*
X115363815Y-96681212D01*
X115531722Y-96388638D01*
X115706439Y-96084678D01*
X115884294Y-95775706D01*
X116061618Y-95468095D01*
X116234741Y-95168217D01*
X116399992Y-94882446D01*
X116553700Y-94617154D01*
X116692197Y-94378715D01*
X116811810Y-94173502D01*
X116908870Y-94007888D01*
X116979707Y-93888245D01*
X117020651Y-93820948D01*
X117029533Y-93808318D01*
X117052070Y-93845420D01*
G36*
X121182572Y-98588286D02*
G01*
X113453715Y-98588286D01*
X113453715Y-92165714D01*
X113707714Y-92165714D01*
X113707714Y-98443143D01*
X121073714Y-98443143D01*
X121073714Y-92165714D01*
X117351833Y-92165714D01*
X117150077Y-92517637D01*
X117065900Y-92660075D01*
X116991947Y-92777166D01*
X116936964Y-92855553D01*
X116911609Y-92881797D01*
X116871753Y-92861765D01*
X116825834Y-92796482D01*
X116824028Y-92792946D01*
X116782619Y-92712560D01*
X116719337Y-92591835D01*
X116646580Y-92454400D01*
X116632941Y-92428786D01*
X116492725Y-92165714D01*
X113707714Y-92165714D01*
X113453715Y-92165714D01*
X113453715Y-91911715D01*
X121182572Y-91911715D01*
X121182572Y-98588286D01*
G37*
X121182572Y-98588286D02*
X113453715Y-98588286D01*
X113453715Y-92165714D01*
X113707714Y-92165714D01*
X113707714Y-98443143D01*
X121073714Y-98443143D01*
X121073714Y-92165714D01*
X117351833Y-92165714D01*
X117150077Y-92517637D01*
X117065900Y-92660075D01*
X116991947Y-92777166D01*
X116936964Y-92855553D01*
X116911609Y-92881797D01*
X116871753Y-92861765D01*
X116825834Y-92796482D01*
X116824028Y-92792946D01*
X116782619Y-92712560D01*
X116719337Y-92591835D01*
X116646580Y-92454400D01*
X116632941Y-92428786D01*
X116492725Y-92165714D01*
X113707714Y-92165714D01*
X113453715Y-92165714D01*
X113453715Y-91911715D01*
X121182572Y-91911715D01*
X121182572Y-98588286D01*
D12*
X125666666Y-80702380D02*
X125666666Y-81416666D01*
X125619047Y-81559523D01*
X125523809Y-81654761D01*
X125380952Y-81702380D01*
X125285714Y-81702380D01*
X126666666Y-81702380D02*
X126095238Y-81702380D01*
X126380952Y-81702380D02*
X126380952Y-80702380D01*
X126285714Y-80845238D01*
X126190476Y-80940476D01*
X126095238Y-80988095D01*
M02*
