G04 #@! TF.GenerationSoftware,KiCad,Pcbnew,(5.1.5-0)*
G04 #@! TF.CreationDate,2020-06-12T16:42:37+02:00*
G04 #@! TF.ProjectId,cible,6369626c-652e-46b6-9963-61645f706362,rev?*
G04 #@! TF.SameCoordinates,Original*
G04 #@! TF.FileFunction,Copper,L1,Top*
G04 #@! TF.FilePolarity,Positive*
%FSLAX46Y46*%
G04 Gerber Fmt 4.6, Leading zero omitted, Abs format (unit mm)*
G04 Created by KiCad (PCBNEW (5.1.5-0)) date 2020-06-12 16:42:37*
%MOMM*%
%LPD*%
G04 APERTURE LIST*
%ADD10C,0.100000*%
%ADD11C,1.730000*%
%ADD12C,1.000000*%
%ADD13C,0.800000*%
%ADD14C,0.250000*%
G04 APERTURE END LIST*
G04 #@! TA.AperFunction,SMDPad,CuDef*
D10*
G36*
X127500000Y-84620000D02*
G01*
X127360000Y-84480000D01*
X127205000Y-84355000D01*
X127035000Y-84245000D01*
X126860000Y-84150000D01*
X126675000Y-84075000D01*
X126480000Y-84020000D01*
X126280000Y-83980000D01*
X126085000Y-83965000D01*
X125915000Y-83965000D01*
X125720000Y-83980000D01*
X125520000Y-84020000D01*
X125325000Y-84075000D01*
X125140000Y-84150000D01*
X124965000Y-84245000D01*
X124795000Y-84355000D01*
X124640000Y-84480000D01*
X124500000Y-84620000D01*
X124355000Y-84795000D01*
X122445000Y-84795000D01*
X122445000Y-82445000D01*
X129555000Y-82445000D01*
X129555000Y-84795000D01*
X127645000Y-84795000D01*
X127500000Y-84620000D01*
G37*
G04 #@! TD.AperFunction*
G04 #@! TA.AperFunction,SMDPad,CuDef*
G36*
X124500000Y-87380000D02*
G01*
X124640000Y-87520000D01*
X124795000Y-87645000D01*
X124965000Y-87755000D01*
X125140000Y-87850000D01*
X125325000Y-87925000D01*
X125520000Y-87980000D01*
X125720000Y-88020000D01*
X125915000Y-88035000D01*
X126085000Y-88035000D01*
X126280000Y-88020000D01*
X126480000Y-87980000D01*
X126675000Y-87925000D01*
X126860000Y-87850000D01*
X127035000Y-87755000D01*
X127205000Y-87645000D01*
X127360000Y-87520000D01*
X127500000Y-87380000D01*
X127645000Y-87205000D01*
X129555000Y-87205000D01*
X129555000Y-89555000D01*
X122445000Y-89555000D01*
X122445000Y-87205000D01*
X124355000Y-87205000D01*
X124500000Y-87380000D01*
G37*
G04 #@! TD.AperFunction*
D11*
X126000000Y-86000000D03*
D12*
X126000000Y-75000000D03*
X137000000Y-86000000D03*
X136000000Y-82000000D03*
X134000000Y-78500000D03*
X130500000Y-76000000D03*
X136000000Y-90000000D03*
X130500000Y-96000000D03*
X126000000Y-97000000D03*
X121500000Y-96000000D03*
X118000000Y-93500000D03*
X116000000Y-90000000D03*
X115000000Y-86000000D03*
X116000000Y-82000000D03*
X118000000Y-78500000D03*
X121500000Y-76000000D03*
X133950000Y-93500000D03*
D13*
X126000000Y-86000000D03*
D14*
X130500000Y-93300000D02*
X126000000Y-88800000D01*
X130500000Y-96000000D02*
X130500000Y-93300000D01*
M02*
