G04 #@! TF.GenerationSoftware,KiCad,Pcbnew,(5.1.5-0)*
G04 #@! TF.CreationDate,2020-06-12T16:51:45+02:00*
G04 #@! TF.ProjectId,Divider2,44697669-6465-4723-922e-6b696361645f,rev?*
G04 #@! TF.SameCoordinates,Original*
G04 #@! TF.FileFunction,Soldermask,Top*
G04 #@! TF.FilePolarity,Negative*
%FSLAX46Y46*%
G04 Gerber Fmt 4.6, Leading zero omitted, Abs format (unit mm)*
G04 Created by KiCad (PCBNEW (5.1.5-0)) date 2020-06-12 16:51:45*
%MOMM*%
%LPD*%
G04 APERTURE LIST*
%ADD10C,0.100000*%
G04 APERTURE END LIST*
D10*
G36*
X107162857Y-104175782D02*
G01*
X107511776Y-104281626D01*
X107833332Y-104453500D01*
X107897620Y-104506260D01*
X108115188Y-104684812D01*
X108310244Y-104922490D01*
X108346500Y-104966668D01*
X108518374Y-105288223D01*
X108624218Y-105637142D01*
X108651000Y-105909065D01*
X108651000Y-112490935D01*
X108624218Y-112762858D01*
X108518374Y-113111777D01*
X108346500Y-113433332D01*
X108346498Y-113433335D01*
X108346497Y-113433336D01*
X108115188Y-113715188D01*
X107833336Y-113946497D01*
X107833332Y-113946500D01*
X107511777Y-114118374D01*
X107162858Y-114224218D01*
X106800000Y-114259956D01*
X106437143Y-114224218D01*
X106088224Y-114118374D01*
X105766669Y-113946500D01*
X105766665Y-113946497D01*
X105484813Y-113715188D01*
X105253504Y-113433336D01*
X105253503Y-113433335D01*
X105253501Y-113433332D01*
X105081627Y-113111777D01*
X104975783Y-112762858D01*
X104949001Y-112490935D01*
X104949000Y-105909066D01*
X104975782Y-105637143D01*
X105081626Y-105288224D01*
X105253500Y-104966668D01*
X105335568Y-104866668D01*
X105484812Y-104684812D01*
X105766664Y-104453503D01*
X105766665Y-104453502D01*
X105766668Y-104453500D01*
X106088223Y-104281626D01*
X106437142Y-104175782D01*
X106800000Y-104140044D01*
X107162857Y-104175782D01*
G37*
G36*
X114362857Y-104175782D02*
G01*
X114711776Y-104281626D01*
X115033332Y-104453500D01*
X115097620Y-104506260D01*
X115315188Y-104684812D01*
X115510244Y-104922490D01*
X115546500Y-104966668D01*
X115718374Y-105288223D01*
X115824218Y-105637142D01*
X115851000Y-105909065D01*
X115851000Y-112490935D01*
X115824218Y-112762858D01*
X115718374Y-113111777D01*
X115546500Y-113433332D01*
X115546498Y-113433335D01*
X115546497Y-113433336D01*
X115315188Y-113715188D01*
X115033336Y-113946497D01*
X115033332Y-113946500D01*
X114711777Y-114118374D01*
X114362858Y-114224218D01*
X114000000Y-114259956D01*
X113637143Y-114224218D01*
X113288224Y-114118374D01*
X112966669Y-113946500D01*
X112966665Y-113946497D01*
X112684813Y-113715188D01*
X112453504Y-113433336D01*
X112453503Y-113433335D01*
X112453501Y-113433332D01*
X112281627Y-113111777D01*
X112175783Y-112762858D01*
X112149001Y-112490935D01*
X112149000Y-105909066D01*
X112175782Y-105637143D01*
X112281626Y-105288224D01*
X112453500Y-104966668D01*
X112535568Y-104866668D01*
X112684812Y-104684812D01*
X112966664Y-104453503D01*
X112966665Y-104453502D01*
X112966668Y-104453500D01*
X113288223Y-104281626D01*
X113637142Y-104175782D01*
X114000000Y-104140044D01*
X114362857Y-104175782D01*
G37*
G36*
X121562857Y-104175782D02*
G01*
X121911776Y-104281626D01*
X122233332Y-104453500D01*
X122297620Y-104506260D01*
X122515188Y-104684812D01*
X122710244Y-104922490D01*
X122746500Y-104966668D01*
X122918374Y-105288223D01*
X123024218Y-105637142D01*
X123051000Y-105909065D01*
X123051000Y-112490935D01*
X123024218Y-112762858D01*
X122918374Y-113111777D01*
X122746500Y-113433332D01*
X122746498Y-113433335D01*
X122746497Y-113433336D01*
X122515188Y-113715188D01*
X122233336Y-113946497D01*
X122233332Y-113946500D01*
X121911777Y-114118374D01*
X121562858Y-114224218D01*
X121200000Y-114259956D01*
X120837143Y-114224218D01*
X120488224Y-114118374D01*
X120166669Y-113946500D01*
X120166665Y-113946497D01*
X119884813Y-113715188D01*
X119653504Y-113433336D01*
X119653503Y-113433335D01*
X119653501Y-113433332D01*
X119481627Y-113111777D01*
X119375783Y-112762858D01*
X119349001Y-112490935D01*
X119349000Y-105909066D01*
X119375782Y-105637143D01*
X119481626Y-105288224D01*
X119653500Y-104966668D01*
X119735568Y-104866668D01*
X119884812Y-104684812D01*
X120166664Y-104453503D01*
X120166665Y-104453502D01*
X120166668Y-104453500D01*
X120488223Y-104281626D01*
X120837142Y-104175782D01*
X121200000Y-104140044D01*
X121562857Y-104175782D01*
G37*
G36*
X128762857Y-104175782D02*
G01*
X129111776Y-104281626D01*
X129433332Y-104453500D01*
X129497620Y-104506260D01*
X129715188Y-104684812D01*
X129910244Y-104922490D01*
X129946500Y-104966668D01*
X130118374Y-105288223D01*
X130224218Y-105637142D01*
X130251000Y-105909065D01*
X130251000Y-112490935D01*
X130224218Y-112762858D01*
X130118374Y-113111777D01*
X129946500Y-113433332D01*
X129946498Y-113433335D01*
X129946497Y-113433336D01*
X129715188Y-113715188D01*
X129433336Y-113946497D01*
X129433332Y-113946500D01*
X129111777Y-114118374D01*
X128762858Y-114224218D01*
X128400000Y-114259956D01*
X128037143Y-114224218D01*
X127688224Y-114118374D01*
X127366669Y-113946500D01*
X127366665Y-113946497D01*
X127084813Y-113715188D01*
X126853504Y-113433336D01*
X126853503Y-113433335D01*
X126853501Y-113433332D01*
X126681627Y-113111777D01*
X126575783Y-112762858D01*
X126549001Y-112490935D01*
X126549000Y-105909066D01*
X126575782Y-105637143D01*
X126681626Y-105288224D01*
X126853500Y-104966668D01*
X126935568Y-104866668D01*
X127084812Y-104684812D01*
X127366664Y-104453503D01*
X127366665Y-104453502D01*
X127366668Y-104453500D01*
X127688223Y-104281626D01*
X128037142Y-104175782D01*
X128400000Y-104140044D01*
X128762857Y-104175782D01*
G37*
G36*
X135962857Y-104175782D02*
G01*
X136311776Y-104281626D01*
X136633332Y-104453500D01*
X136697620Y-104506260D01*
X136915188Y-104684812D01*
X137110244Y-104922490D01*
X137146500Y-104966668D01*
X137318374Y-105288223D01*
X137424218Y-105637142D01*
X137451000Y-105909065D01*
X137451000Y-112490935D01*
X137424218Y-112762858D01*
X137318374Y-113111777D01*
X137146500Y-113433332D01*
X137146498Y-113433335D01*
X137146497Y-113433336D01*
X136915188Y-113715188D01*
X136633336Y-113946497D01*
X136633332Y-113946500D01*
X136311777Y-114118374D01*
X135962858Y-114224218D01*
X135600000Y-114259956D01*
X135237143Y-114224218D01*
X134888224Y-114118374D01*
X134566669Y-113946500D01*
X134566665Y-113946497D01*
X134284813Y-113715188D01*
X134053504Y-113433336D01*
X134053503Y-113433335D01*
X134053501Y-113433332D01*
X133881627Y-113111777D01*
X133775783Y-112762858D01*
X133749001Y-112490935D01*
X133749000Y-105909066D01*
X133775782Y-105637143D01*
X133881626Y-105288224D01*
X134053500Y-104966668D01*
X134135568Y-104866668D01*
X134284812Y-104684812D01*
X134566664Y-104453503D01*
X134566665Y-104453502D01*
X134566668Y-104453500D01*
X134888223Y-104281626D01*
X135237142Y-104175782D01*
X135600000Y-104140044D01*
X135962857Y-104175782D01*
G37*
G36*
X143162857Y-104175782D02*
G01*
X143511776Y-104281626D01*
X143833332Y-104453500D01*
X143897620Y-104506260D01*
X144115188Y-104684812D01*
X144310244Y-104922490D01*
X144346500Y-104966668D01*
X144518374Y-105288223D01*
X144624218Y-105637142D01*
X144651000Y-105909065D01*
X144651000Y-112490935D01*
X144624218Y-112762858D01*
X144518374Y-113111777D01*
X144346500Y-113433332D01*
X144346498Y-113433335D01*
X144346497Y-113433336D01*
X144115188Y-113715188D01*
X143833336Y-113946497D01*
X143833332Y-113946500D01*
X143511777Y-114118374D01*
X143162858Y-114224218D01*
X142800000Y-114259956D01*
X142437143Y-114224218D01*
X142088224Y-114118374D01*
X141766669Y-113946500D01*
X141766665Y-113946497D01*
X141484813Y-113715188D01*
X141253504Y-113433336D01*
X141253503Y-113433335D01*
X141253501Y-113433332D01*
X141081627Y-113111777D01*
X140975783Y-112762858D01*
X140949001Y-112490935D01*
X140949000Y-105909066D01*
X140975782Y-105637143D01*
X141081626Y-105288224D01*
X141253500Y-104966668D01*
X141335568Y-104866668D01*
X141484812Y-104684812D01*
X141766664Y-104453503D01*
X141766665Y-104453502D01*
X141766668Y-104453500D01*
X142088223Y-104281626D01*
X142437142Y-104175782D01*
X142800000Y-104140044D01*
X143162857Y-104175782D01*
G37*
G36*
X150362857Y-104175782D02*
G01*
X150711776Y-104281626D01*
X151033332Y-104453500D01*
X151097620Y-104506260D01*
X151315188Y-104684812D01*
X151510244Y-104922490D01*
X151546500Y-104966668D01*
X151718374Y-105288223D01*
X151824218Y-105637142D01*
X151851000Y-105909065D01*
X151851000Y-112490935D01*
X151824218Y-112762858D01*
X151718374Y-113111777D01*
X151546500Y-113433332D01*
X151546498Y-113433335D01*
X151546497Y-113433336D01*
X151315188Y-113715188D01*
X151033336Y-113946497D01*
X151033332Y-113946500D01*
X150711777Y-114118374D01*
X150362858Y-114224218D01*
X150000000Y-114259956D01*
X149637143Y-114224218D01*
X149288224Y-114118374D01*
X148966669Y-113946500D01*
X148966665Y-113946497D01*
X148684813Y-113715188D01*
X148453504Y-113433336D01*
X148453503Y-113433335D01*
X148453501Y-113433332D01*
X148281627Y-113111777D01*
X148175783Y-112762858D01*
X148149001Y-112490935D01*
X148149000Y-105909066D01*
X148175782Y-105637143D01*
X148281626Y-105288224D01*
X148453500Y-104966668D01*
X148535568Y-104866668D01*
X148684812Y-104684812D01*
X148966664Y-104453503D01*
X148966665Y-104453502D01*
X148966668Y-104453500D01*
X149288223Y-104281626D01*
X149637142Y-104175782D01*
X150000000Y-104140044D01*
X150362857Y-104175782D01*
G37*
G36*
X157562857Y-104175782D02*
G01*
X157911776Y-104281626D01*
X158233332Y-104453500D01*
X158297620Y-104506260D01*
X158515188Y-104684812D01*
X158710244Y-104922490D01*
X158746500Y-104966668D01*
X158918374Y-105288223D01*
X159024218Y-105637142D01*
X159051000Y-105909065D01*
X159051000Y-112490935D01*
X159024218Y-112762858D01*
X158918374Y-113111777D01*
X158746500Y-113433332D01*
X158746498Y-113433335D01*
X158746497Y-113433336D01*
X158515188Y-113715188D01*
X158233336Y-113946497D01*
X158233332Y-113946500D01*
X157911777Y-114118374D01*
X157562858Y-114224218D01*
X157200000Y-114259956D01*
X156837143Y-114224218D01*
X156488224Y-114118374D01*
X156166669Y-113946500D01*
X156166665Y-113946497D01*
X155884813Y-113715188D01*
X155653504Y-113433336D01*
X155653503Y-113433335D01*
X155653501Y-113433332D01*
X155481627Y-113111777D01*
X155375783Y-112762858D01*
X155349001Y-112490935D01*
X155349000Y-105909066D01*
X155375782Y-105637143D01*
X155481626Y-105288224D01*
X155653500Y-104966668D01*
X155735568Y-104866668D01*
X155884812Y-104684812D01*
X156166664Y-104453503D01*
X156166665Y-104453502D01*
X156166668Y-104453500D01*
X156488223Y-104281626D01*
X156837142Y-104175782D01*
X157200000Y-104140044D01*
X157562857Y-104175782D01*
G37*
G36*
X164762857Y-104175782D02*
G01*
X165111776Y-104281626D01*
X165433332Y-104453500D01*
X165497620Y-104506260D01*
X165715188Y-104684812D01*
X165910244Y-104922490D01*
X165946500Y-104966668D01*
X166118374Y-105288223D01*
X166224218Y-105637142D01*
X166251000Y-105909065D01*
X166251000Y-112490935D01*
X166224218Y-112762858D01*
X166118374Y-113111777D01*
X165946500Y-113433332D01*
X165946498Y-113433335D01*
X165946497Y-113433336D01*
X165715188Y-113715188D01*
X165433336Y-113946497D01*
X165433332Y-113946500D01*
X165111777Y-114118374D01*
X164762858Y-114224218D01*
X164400000Y-114259956D01*
X164037143Y-114224218D01*
X163688224Y-114118374D01*
X163366669Y-113946500D01*
X163366665Y-113946497D01*
X163084813Y-113715188D01*
X162853504Y-113433336D01*
X162853503Y-113433335D01*
X162853501Y-113433332D01*
X162681627Y-113111777D01*
X162575783Y-112762858D01*
X162549001Y-112490935D01*
X162549000Y-105909066D01*
X162575782Y-105637143D01*
X162681626Y-105288224D01*
X162853500Y-104966668D01*
X162935568Y-104866668D01*
X163084812Y-104684812D01*
X163366664Y-104453503D01*
X163366665Y-104453502D01*
X163366668Y-104453500D01*
X163688223Y-104281626D01*
X164037142Y-104175782D01*
X164400000Y-104140044D01*
X164762857Y-104175782D01*
G37*
G36*
X171962857Y-104175782D02*
G01*
X172311776Y-104281626D01*
X172633332Y-104453500D01*
X172697620Y-104506260D01*
X172915188Y-104684812D01*
X173110244Y-104922490D01*
X173146500Y-104966668D01*
X173318374Y-105288223D01*
X173424218Y-105637142D01*
X173451000Y-105909065D01*
X173451000Y-112490935D01*
X173424218Y-112762858D01*
X173318374Y-113111777D01*
X173146500Y-113433332D01*
X173146498Y-113433335D01*
X173146497Y-113433336D01*
X172915188Y-113715188D01*
X172633336Y-113946497D01*
X172633332Y-113946500D01*
X172311777Y-114118374D01*
X171962858Y-114224218D01*
X171600000Y-114259956D01*
X171237143Y-114224218D01*
X170888224Y-114118374D01*
X170566669Y-113946500D01*
X170566665Y-113946497D01*
X170284813Y-113715188D01*
X170053504Y-113433336D01*
X170053503Y-113433335D01*
X170053501Y-113433332D01*
X169881627Y-113111777D01*
X169775783Y-112762858D01*
X169749001Y-112490935D01*
X169749000Y-105909066D01*
X169775782Y-105637143D01*
X169881626Y-105288224D01*
X170053500Y-104966668D01*
X170135568Y-104866668D01*
X170284812Y-104684812D01*
X170566664Y-104453503D01*
X170566665Y-104453502D01*
X170566668Y-104453500D01*
X170888223Y-104281626D01*
X171237142Y-104175782D01*
X171600000Y-104140044D01*
X171962857Y-104175782D01*
G37*
G36*
X179162857Y-104175782D02*
G01*
X179511776Y-104281626D01*
X179833332Y-104453500D01*
X179897620Y-104506260D01*
X180115188Y-104684812D01*
X180310244Y-104922490D01*
X180346500Y-104966668D01*
X180518374Y-105288223D01*
X180624218Y-105637142D01*
X180651000Y-105909065D01*
X180651000Y-112490935D01*
X180624218Y-112762858D01*
X180518374Y-113111777D01*
X180346500Y-113433332D01*
X180346498Y-113433335D01*
X180346497Y-113433336D01*
X180115188Y-113715188D01*
X179833336Y-113946497D01*
X179833332Y-113946500D01*
X179511777Y-114118374D01*
X179162858Y-114224218D01*
X178800000Y-114259956D01*
X178437143Y-114224218D01*
X178088224Y-114118374D01*
X177766669Y-113946500D01*
X177766665Y-113946497D01*
X177484813Y-113715188D01*
X177253504Y-113433336D01*
X177253503Y-113433335D01*
X177253501Y-113433332D01*
X177081627Y-113111777D01*
X176975783Y-112762858D01*
X176949001Y-112490935D01*
X176949000Y-105909066D01*
X176975782Y-105637143D01*
X177081626Y-105288224D01*
X177253500Y-104966668D01*
X177335568Y-104866668D01*
X177484812Y-104684812D01*
X177766664Y-104453503D01*
X177766665Y-104453502D01*
X177766668Y-104453500D01*
X178088223Y-104281626D01*
X178437142Y-104175782D01*
X178800000Y-104140044D01*
X179162857Y-104175782D01*
G37*
G36*
X186362857Y-104175782D02*
G01*
X186711776Y-104281626D01*
X187033332Y-104453500D01*
X187097620Y-104506260D01*
X187315188Y-104684812D01*
X187510244Y-104922490D01*
X187546500Y-104966668D01*
X187718374Y-105288223D01*
X187824218Y-105637142D01*
X187851000Y-105909065D01*
X187851000Y-112490935D01*
X187824218Y-112762858D01*
X187718374Y-113111777D01*
X187546500Y-113433332D01*
X187546498Y-113433335D01*
X187546497Y-113433336D01*
X187315188Y-113715188D01*
X187033336Y-113946497D01*
X187033332Y-113946500D01*
X186711777Y-114118374D01*
X186362858Y-114224218D01*
X186000000Y-114259956D01*
X185637143Y-114224218D01*
X185288224Y-114118374D01*
X184966669Y-113946500D01*
X184966665Y-113946497D01*
X184684813Y-113715188D01*
X184453504Y-113433336D01*
X184453503Y-113433335D01*
X184453501Y-113433332D01*
X184281627Y-113111777D01*
X184175783Y-112762858D01*
X184149001Y-112490935D01*
X184149000Y-105909066D01*
X184175782Y-105637143D01*
X184281626Y-105288224D01*
X184453500Y-104966668D01*
X184535568Y-104866668D01*
X184684812Y-104684812D01*
X184966664Y-104453503D01*
X184966665Y-104453502D01*
X184966668Y-104453500D01*
X185288223Y-104281626D01*
X185637142Y-104175782D01*
X186000000Y-104140044D01*
X186362857Y-104175782D01*
G37*
G36*
X99943253Y-104174335D02*
G01*
X100108287Y-104224398D01*
X100273320Y-104274460D01*
X100577509Y-104437052D01*
X100844135Y-104655865D01*
X101062948Y-104922490D01*
X101204985Y-105188223D01*
X101225539Y-105226677D01*
X101325665Y-105556746D01*
X101351000Y-105813979D01*
X101351000Y-112586021D01*
X101325665Y-112843254D01*
X101325664Y-112843256D01*
X101225540Y-113173321D01*
X101062948Y-113477510D01*
X100844135Y-113744135D01*
X100577510Y-113962948D01*
X100273321Y-114125540D01*
X100108289Y-114175602D01*
X99943254Y-114225665D01*
X99600000Y-114259472D01*
X99256747Y-114225665D01*
X99091712Y-114175602D01*
X98926680Y-114125540D01*
X98622491Y-113962948D01*
X98355866Y-113744135D01*
X98137053Y-113477510D01*
X97974461Y-113173321D01*
X97874337Y-112843256D01*
X97874336Y-112843254D01*
X97849001Y-112586021D01*
X97849000Y-105813980D01*
X97874335Y-105556747D01*
X97974461Y-105226678D01*
X98113441Y-104966665D01*
X98137052Y-104922491D01*
X98355865Y-104655865D01*
X98622490Y-104437052D01*
X98926679Y-104274460D01*
X99091712Y-104224398D01*
X99256746Y-104174335D01*
X99600000Y-104140528D01*
X99943253Y-104174335D01*
G37*
G36*
X193562857Y-104075782D02*
G01*
X193911776Y-104181626D01*
X194233332Y-104353500D01*
X194297620Y-104406260D01*
X194515188Y-104584812D01*
X194746497Y-104866664D01*
X194746500Y-104866668D01*
X194918374Y-105188223D01*
X195024218Y-105537142D01*
X195051000Y-105809065D01*
X195051000Y-112390935D01*
X195024218Y-112662858D01*
X194918374Y-113011777D01*
X194746500Y-113333332D01*
X194746498Y-113333335D01*
X194746497Y-113333336D01*
X194515188Y-113615188D01*
X194233336Y-113846497D01*
X194233332Y-113846500D01*
X193911777Y-114018374D01*
X193562858Y-114124218D01*
X193200000Y-114159956D01*
X192837143Y-114124218D01*
X192488224Y-114018374D01*
X192166669Y-113846500D01*
X192166665Y-113846497D01*
X191884813Y-113615188D01*
X191653504Y-113333336D01*
X191653503Y-113333335D01*
X191653501Y-113333332D01*
X191481627Y-113011777D01*
X191375783Y-112662858D01*
X191349001Y-112390935D01*
X191349000Y-105809066D01*
X191375782Y-105537143D01*
X191481626Y-105188224D01*
X191653500Y-104866668D01*
X191706260Y-104802380D01*
X191884812Y-104584812D01*
X192166664Y-104353503D01*
X192166665Y-104353502D01*
X192166668Y-104353500D01*
X192488223Y-104181626D01*
X192837142Y-104075782D01*
X193200000Y-104040044D01*
X193562857Y-104075782D01*
G37*
G36*
X99906564Y-99589389D02*
G01*
X100097833Y-99668615D01*
X100097835Y-99668616D01*
X100269973Y-99783635D01*
X100416365Y-99930027D01*
X100531385Y-100102167D01*
X100610611Y-100293436D01*
X100651000Y-100496484D01*
X100651000Y-100703516D01*
X100610611Y-100906564D01*
X100531385Y-101097833D01*
X100531384Y-101097835D01*
X100416365Y-101269973D01*
X100269973Y-101416365D01*
X100097835Y-101531384D01*
X100097834Y-101531385D01*
X100097833Y-101531385D01*
X99906564Y-101610611D01*
X99703516Y-101651000D01*
X99496484Y-101651000D01*
X99293436Y-101610611D01*
X99102167Y-101531385D01*
X99102166Y-101531385D01*
X99102165Y-101531384D01*
X98930027Y-101416365D01*
X98783635Y-101269973D01*
X98668616Y-101097835D01*
X98668615Y-101097833D01*
X98589389Y-100906564D01*
X98549000Y-100703516D01*
X98549000Y-100496484D01*
X98589389Y-100293436D01*
X98668615Y-100102167D01*
X98783635Y-99930027D01*
X98930027Y-99783635D01*
X99102165Y-99668616D01*
X99102167Y-99668615D01*
X99293436Y-99589389D01*
X99496484Y-99549000D01*
X99703516Y-99549000D01*
X99906564Y-99589389D01*
G37*
G36*
X179568604Y-96428347D02*
G01*
X179605144Y-96439432D01*
X179638821Y-96457433D01*
X179668341Y-96481659D01*
X179692567Y-96511179D01*
X179710568Y-96544856D01*
X179721653Y-96581396D01*
X179726000Y-96625538D01*
X179726000Y-97574462D01*
X179721653Y-97618604D01*
X179710568Y-97655144D01*
X179692567Y-97688821D01*
X179668341Y-97718341D01*
X179638821Y-97742567D01*
X179605144Y-97760568D01*
X179568604Y-97771653D01*
X179524462Y-97776000D01*
X178075538Y-97776000D01*
X178031396Y-97771653D01*
X177994856Y-97760568D01*
X177961179Y-97742567D01*
X177931659Y-97718341D01*
X177907433Y-97688821D01*
X177889432Y-97655144D01*
X177878347Y-97618604D01*
X177874000Y-97574462D01*
X177874000Y-96625538D01*
X177878347Y-96581396D01*
X177889432Y-96544856D01*
X177907433Y-96511179D01*
X177931659Y-96481659D01*
X177961179Y-96457433D01*
X177994856Y-96439432D01*
X178031396Y-96428347D01*
X178075538Y-96424000D01*
X179524462Y-96424000D01*
X179568604Y-96428347D01*
G37*
G36*
X107568604Y-96428347D02*
G01*
X107605144Y-96439432D01*
X107638821Y-96457433D01*
X107668341Y-96481659D01*
X107692567Y-96511179D01*
X107710568Y-96544856D01*
X107721653Y-96581396D01*
X107726000Y-96625538D01*
X107726000Y-97574462D01*
X107721653Y-97618604D01*
X107710568Y-97655144D01*
X107692567Y-97688821D01*
X107668341Y-97718341D01*
X107638821Y-97742567D01*
X107605144Y-97760568D01*
X107568604Y-97771653D01*
X107524462Y-97776000D01*
X106075538Y-97776000D01*
X106031396Y-97771653D01*
X105994856Y-97760568D01*
X105961179Y-97742567D01*
X105931659Y-97718341D01*
X105907433Y-97688821D01*
X105889432Y-97655144D01*
X105878347Y-97618604D01*
X105874000Y-97574462D01*
X105874000Y-96625538D01*
X105878347Y-96581396D01*
X105889432Y-96544856D01*
X105907433Y-96511179D01*
X105931659Y-96481659D01*
X105961179Y-96457433D01*
X105994856Y-96439432D01*
X106031396Y-96428347D01*
X106075538Y-96424000D01*
X107524462Y-96424000D01*
X107568604Y-96428347D01*
G37*
G36*
X100368604Y-96428347D02*
G01*
X100405144Y-96439432D01*
X100438821Y-96457433D01*
X100468341Y-96481659D01*
X100492567Y-96511179D01*
X100510568Y-96544856D01*
X100521653Y-96581396D01*
X100526000Y-96625538D01*
X100526000Y-97574462D01*
X100521653Y-97618604D01*
X100510568Y-97655144D01*
X100492567Y-97688821D01*
X100468341Y-97718341D01*
X100438821Y-97742567D01*
X100405144Y-97760568D01*
X100368604Y-97771653D01*
X100324462Y-97776000D01*
X98875538Y-97776000D01*
X98831396Y-97771653D01*
X98794856Y-97760568D01*
X98761179Y-97742567D01*
X98731659Y-97718341D01*
X98707433Y-97688821D01*
X98689432Y-97655144D01*
X98678347Y-97618604D01*
X98674000Y-97574462D01*
X98674000Y-96625538D01*
X98678347Y-96581396D01*
X98689432Y-96544856D01*
X98707433Y-96511179D01*
X98731659Y-96481659D01*
X98761179Y-96457433D01*
X98794856Y-96439432D01*
X98831396Y-96428347D01*
X98875538Y-96424000D01*
X100324462Y-96424000D01*
X100368604Y-96428347D01*
G37*
G36*
X114768604Y-96428347D02*
G01*
X114805144Y-96439432D01*
X114838821Y-96457433D01*
X114868341Y-96481659D01*
X114892567Y-96511179D01*
X114910568Y-96544856D01*
X114921653Y-96581396D01*
X114926000Y-96625538D01*
X114926000Y-97574462D01*
X114921653Y-97618604D01*
X114910568Y-97655144D01*
X114892567Y-97688821D01*
X114868341Y-97718341D01*
X114838821Y-97742567D01*
X114805144Y-97760568D01*
X114768604Y-97771653D01*
X114724462Y-97776000D01*
X113275538Y-97776000D01*
X113231396Y-97771653D01*
X113194856Y-97760568D01*
X113161179Y-97742567D01*
X113131659Y-97718341D01*
X113107433Y-97688821D01*
X113089432Y-97655144D01*
X113078347Y-97618604D01*
X113074000Y-97574462D01*
X113074000Y-96625538D01*
X113078347Y-96581396D01*
X113089432Y-96544856D01*
X113107433Y-96511179D01*
X113131659Y-96481659D01*
X113161179Y-96457433D01*
X113194856Y-96439432D01*
X113231396Y-96428347D01*
X113275538Y-96424000D01*
X114724462Y-96424000D01*
X114768604Y-96428347D01*
G37*
G36*
X121968604Y-96428347D02*
G01*
X122005144Y-96439432D01*
X122038821Y-96457433D01*
X122068341Y-96481659D01*
X122092567Y-96511179D01*
X122110568Y-96544856D01*
X122121653Y-96581396D01*
X122126000Y-96625538D01*
X122126000Y-97574462D01*
X122121653Y-97618604D01*
X122110568Y-97655144D01*
X122092567Y-97688821D01*
X122068341Y-97718341D01*
X122038821Y-97742567D01*
X122005144Y-97760568D01*
X121968604Y-97771653D01*
X121924462Y-97776000D01*
X120475538Y-97776000D01*
X120431396Y-97771653D01*
X120394856Y-97760568D01*
X120361179Y-97742567D01*
X120331659Y-97718341D01*
X120307433Y-97688821D01*
X120289432Y-97655144D01*
X120278347Y-97618604D01*
X120274000Y-97574462D01*
X120274000Y-96625538D01*
X120278347Y-96581396D01*
X120289432Y-96544856D01*
X120307433Y-96511179D01*
X120331659Y-96481659D01*
X120361179Y-96457433D01*
X120394856Y-96439432D01*
X120431396Y-96428347D01*
X120475538Y-96424000D01*
X121924462Y-96424000D01*
X121968604Y-96428347D01*
G37*
G36*
X129168604Y-96428347D02*
G01*
X129205144Y-96439432D01*
X129238821Y-96457433D01*
X129268341Y-96481659D01*
X129292567Y-96511179D01*
X129310568Y-96544856D01*
X129321653Y-96581396D01*
X129326000Y-96625538D01*
X129326000Y-97574462D01*
X129321653Y-97618604D01*
X129310568Y-97655144D01*
X129292567Y-97688821D01*
X129268341Y-97718341D01*
X129238821Y-97742567D01*
X129205144Y-97760568D01*
X129168604Y-97771653D01*
X129124462Y-97776000D01*
X127675538Y-97776000D01*
X127631396Y-97771653D01*
X127594856Y-97760568D01*
X127561179Y-97742567D01*
X127531659Y-97718341D01*
X127507433Y-97688821D01*
X127489432Y-97655144D01*
X127478347Y-97618604D01*
X127474000Y-97574462D01*
X127474000Y-96625538D01*
X127478347Y-96581396D01*
X127489432Y-96544856D01*
X127507433Y-96511179D01*
X127531659Y-96481659D01*
X127561179Y-96457433D01*
X127594856Y-96439432D01*
X127631396Y-96428347D01*
X127675538Y-96424000D01*
X129124462Y-96424000D01*
X129168604Y-96428347D01*
G37*
G36*
X136368604Y-96428347D02*
G01*
X136405144Y-96439432D01*
X136438821Y-96457433D01*
X136468341Y-96481659D01*
X136492567Y-96511179D01*
X136510568Y-96544856D01*
X136521653Y-96581396D01*
X136526000Y-96625538D01*
X136526000Y-97574462D01*
X136521653Y-97618604D01*
X136510568Y-97655144D01*
X136492567Y-97688821D01*
X136468341Y-97718341D01*
X136438821Y-97742567D01*
X136405144Y-97760568D01*
X136368604Y-97771653D01*
X136324462Y-97776000D01*
X134875538Y-97776000D01*
X134831396Y-97771653D01*
X134794856Y-97760568D01*
X134761179Y-97742567D01*
X134731659Y-97718341D01*
X134707433Y-97688821D01*
X134689432Y-97655144D01*
X134678347Y-97618604D01*
X134674000Y-97574462D01*
X134674000Y-96625538D01*
X134678347Y-96581396D01*
X134689432Y-96544856D01*
X134707433Y-96511179D01*
X134731659Y-96481659D01*
X134761179Y-96457433D01*
X134794856Y-96439432D01*
X134831396Y-96428347D01*
X134875538Y-96424000D01*
X136324462Y-96424000D01*
X136368604Y-96428347D01*
G37*
G36*
X143568604Y-96428347D02*
G01*
X143605144Y-96439432D01*
X143638821Y-96457433D01*
X143668341Y-96481659D01*
X143692567Y-96511179D01*
X143710568Y-96544856D01*
X143721653Y-96581396D01*
X143726000Y-96625538D01*
X143726000Y-97574462D01*
X143721653Y-97618604D01*
X143710568Y-97655144D01*
X143692567Y-97688821D01*
X143668341Y-97718341D01*
X143638821Y-97742567D01*
X143605144Y-97760568D01*
X143568604Y-97771653D01*
X143524462Y-97776000D01*
X142075538Y-97776000D01*
X142031396Y-97771653D01*
X141994856Y-97760568D01*
X141961179Y-97742567D01*
X141931659Y-97718341D01*
X141907433Y-97688821D01*
X141889432Y-97655144D01*
X141878347Y-97618604D01*
X141874000Y-97574462D01*
X141874000Y-96625538D01*
X141878347Y-96581396D01*
X141889432Y-96544856D01*
X141907433Y-96511179D01*
X141931659Y-96481659D01*
X141961179Y-96457433D01*
X141994856Y-96439432D01*
X142031396Y-96428347D01*
X142075538Y-96424000D01*
X143524462Y-96424000D01*
X143568604Y-96428347D01*
G37*
G36*
X150768604Y-96428347D02*
G01*
X150805144Y-96439432D01*
X150838821Y-96457433D01*
X150868341Y-96481659D01*
X150892567Y-96511179D01*
X150910568Y-96544856D01*
X150921653Y-96581396D01*
X150926000Y-96625538D01*
X150926000Y-97574462D01*
X150921653Y-97618604D01*
X150910568Y-97655144D01*
X150892567Y-97688821D01*
X150868341Y-97718341D01*
X150838821Y-97742567D01*
X150805144Y-97760568D01*
X150768604Y-97771653D01*
X150724462Y-97776000D01*
X149275538Y-97776000D01*
X149231396Y-97771653D01*
X149194856Y-97760568D01*
X149161179Y-97742567D01*
X149131659Y-97718341D01*
X149107433Y-97688821D01*
X149089432Y-97655144D01*
X149078347Y-97618604D01*
X149074000Y-97574462D01*
X149074000Y-96625538D01*
X149078347Y-96581396D01*
X149089432Y-96544856D01*
X149107433Y-96511179D01*
X149131659Y-96481659D01*
X149161179Y-96457433D01*
X149194856Y-96439432D01*
X149231396Y-96428347D01*
X149275538Y-96424000D01*
X150724462Y-96424000D01*
X150768604Y-96428347D01*
G37*
G36*
X157968604Y-96428347D02*
G01*
X158005144Y-96439432D01*
X158038821Y-96457433D01*
X158068341Y-96481659D01*
X158092567Y-96511179D01*
X158110568Y-96544856D01*
X158121653Y-96581396D01*
X158126000Y-96625538D01*
X158126000Y-97574462D01*
X158121653Y-97618604D01*
X158110568Y-97655144D01*
X158092567Y-97688821D01*
X158068341Y-97718341D01*
X158038821Y-97742567D01*
X158005144Y-97760568D01*
X157968604Y-97771653D01*
X157924462Y-97776000D01*
X156475538Y-97776000D01*
X156431396Y-97771653D01*
X156394856Y-97760568D01*
X156361179Y-97742567D01*
X156331659Y-97718341D01*
X156307433Y-97688821D01*
X156289432Y-97655144D01*
X156278347Y-97618604D01*
X156274000Y-97574462D01*
X156274000Y-96625538D01*
X156278347Y-96581396D01*
X156289432Y-96544856D01*
X156307433Y-96511179D01*
X156331659Y-96481659D01*
X156361179Y-96457433D01*
X156394856Y-96439432D01*
X156431396Y-96428347D01*
X156475538Y-96424000D01*
X157924462Y-96424000D01*
X157968604Y-96428347D01*
G37*
G36*
X165168604Y-96428347D02*
G01*
X165205144Y-96439432D01*
X165238821Y-96457433D01*
X165268341Y-96481659D01*
X165292567Y-96511179D01*
X165310568Y-96544856D01*
X165321653Y-96581396D01*
X165326000Y-96625538D01*
X165326000Y-97574462D01*
X165321653Y-97618604D01*
X165310568Y-97655144D01*
X165292567Y-97688821D01*
X165268341Y-97718341D01*
X165238821Y-97742567D01*
X165205144Y-97760568D01*
X165168604Y-97771653D01*
X165124462Y-97776000D01*
X163675538Y-97776000D01*
X163631396Y-97771653D01*
X163594856Y-97760568D01*
X163561179Y-97742567D01*
X163531659Y-97718341D01*
X163507433Y-97688821D01*
X163489432Y-97655144D01*
X163478347Y-97618604D01*
X163474000Y-97574462D01*
X163474000Y-96625538D01*
X163478347Y-96581396D01*
X163489432Y-96544856D01*
X163507433Y-96511179D01*
X163531659Y-96481659D01*
X163561179Y-96457433D01*
X163594856Y-96439432D01*
X163631396Y-96428347D01*
X163675538Y-96424000D01*
X165124462Y-96424000D01*
X165168604Y-96428347D01*
G37*
G36*
X172368604Y-96428347D02*
G01*
X172405144Y-96439432D01*
X172438821Y-96457433D01*
X172468341Y-96481659D01*
X172492567Y-96511179D01*
X172510568Y-96544856D01*
X172521653Y-96581396D01*
X172526000Y-96625538D01*
X172526000Y-97574462D01*
X172521653Y-97618604D01*
X172510568Y-97655144D01*
X172492567Y-97688821D01*
X172468341Y-97718341D01*
X172438821Y-97742567D01*
X172405144Y-97760568D01*
X172368604Y-97771653D01*
X172324462Y-97776000D01*
X170875538Y-97776000D01*
X170831396Y-97771653D01*
X170794856Y-97760568D01*
X170761179Y-97742567D01*
X170731659Y-97718341D01*
X170707433Y-97688821D01*
X170689432Y-97655144D01*
X170678347Y-97618604D01*
X170674000Y-97574462D01*
X170674000Y-96625538D01*
X170678347Y-96581396D01*
X170689432Y-96544856D01*
X170707433Y-96511179D01*
X170731659Y-96481659D01*
X170761179Y-96457433D01*
X170794856Y-96439432D01*
X170831396Y-96428347D01*
X170875538Y-96424000D01*
X172324462Y-96424000D01*
X172368604Y-96428347D01*
G37*
G36*
X186768604Y-96428347D02*
G01*
X186805144Y-96439432D01*
X186838821Y-96457433D01*
X186868341Y-96481659D01*
X186892567Y-96511179D01*
X186910568Y-96544856D01*
X186921653Y-96581396D01*
X186926000Y-96625538D01*
X186926000Y-97574462D01*
X186921653Y-97618604D01*
X186910568Y-97655144D01*
X186892567Y-97688821D01*
X186868341Y-97718341D01*
X186838821Y-97742567D01*
X186805144Y-97760568D01*
X186768604Y-97771653D01*
X186724462Y-97776000D01*
X185275538Y-97776000D01*
X185231396Y-97771653D01*
X185194856Y-97760568D01*
X185161179Y-97742567D01*
X185131659Y-97718341D01*
X185107433Y-97688821D01*
X185089432Y-97655144D01*
X185078347Y-97618604D01*
X185074000Y-97574462D01*
X185074000Y-96625538D01*
X185078347Y-96581396D01*
X185089432Y-96544856D01*
X185107433Y-96511179D01*
X185131659Y-96481659D01*
X185161179Y-96457433D01*
X185194856Y-96439432D01*
X185231396Y-96428347D01*
X185275538Y-96424000D01*
X186724462Y-96424000D01*
X186768604Y-96428347D01*
G37*
G36*
X193968604Y-96428347D02*
G01*
X194005144Y-96439432D01*
X194038821Y-96457433D01*
X194068341Y-96481659D01*
X194092567Y-96511179D01*
X194110568Y-96544856D01*
X194121653Y-96581396D01*
X194126000Y-96625538D01*
X194126000Y-97574462D01*
X194121653Y-97618604D01*
X194110568Y-97655144D01*
X194092567Y-97688821D01*
X194068341Y-97718341D01*
X194038821Y-97742567D01*
X194005144Y-97760568D01*
X193968604Y-97771653D01*
X193924462Y-97776000D01*
X192475538Y-97776000D01*
X192431396Y-97771653D01*
X192394856Y-97760568D01*
X192361179Y-97742567D01*
X192331659Y-97718341D01*
X192307433Y-97688821D01*
X192289432Y-97655144D01*
X192278347Y-97618604D01*
X192274000Y-97574462D01*
X192274000Y-96625538D01*
X192278347Y-96581396D01*
X192289432Y-96544856D01*
X192307433Y-96511179D01*
X192331659Y-96481659D01*
X192361179Y-96457433D01*
X192394856Y-96439432D01*
X192431396Y-96428347D01*
X192475538Y-96424000D01*
X193924462Y-96424000D01*
X193968604Y-96428347D01*
G37*
G36*
X179568604Y-93628347D02*
G01*
X179605144Y-93639432D01*
X179638821Y-93657433D01*
X179668341Y-93681659D01*
X179692567Y-93711179D01*
X179710568Y-93744856D01*
X179721653Y-93781396D01*
X179726000Y-93825538D01*
X179726000Y-94774462D01*
X179721653Y-94818604D01*
X179710568Y-94855144D01*
X179692567Y-94888821D01*
X179668341Y-94918341D01*
X179638821Y-94942567D01*
X179605144Y-94960568D01*
X179568604Y-94971653D01*
X179524462Y-94976000D01*
X178075538Y-94976000D01*
X178031396Y-94971653D01*
X177994856Y-94960568D01*
X177961179Y-94942567D01*
X177931659Y-94918341D01*
X177907433Y-94888821D01*
X177889432Y-94855144D01*
X177878347Y-94818604D01*
X177874000Y-94774462D01*
X177874000Y-93825538D01*
X177878347Y-93781396D01*
X177889432Y-93744856D01*
X177907433Y-93711179D01*
X177931659Y-93681659D01*
X177961179Y-93657433D01*
X177994856Y-93639432D01*
X178031396Y-93628347D01*
X178075538Y-93624000D01*
X179524462Y-93624000D01*
X179568604Y-93628347D01*
G37*
G36*
X100368604Y-93628347D02*
G01*
X100405144Y-93639432D01*
X100438821Y-93657433D01*
X100468341Y-93681659D01*
X100492567Y-93711179D01*
X100510568Y-93744856D01*
X100521653Y-93781396D01*
X100526000Y-93825538D01*
X100526000Y-94774462D01*
X100521653Y-94818604D01*
X100510568Y-94855144D01*
X100492567Y-94888821D01*
X100468341Y-94918341D01*
X100438821Y-94942567D01*
X100405144Y-94960568D01*
X100368604Y-94971653D01*
X100324462Y-94976000D01*
X98875538Y-94976000D01*
X98831396Y-94971653D01*
X98794856Y-94960568D01*
X98761179Y-94942567D01*
X98731659Y-94918341D01*
X98707433Y-94888821D01*
X98689432Y-94855144D01*
X98678347Y-94818604D01*
X98674000Y-94774462D01*
X98674000Y-93825538D01*
X98678347Y-93781396D01*
X98689432Y-93744856D01*
X98707433Y-93711179D01*
X98731659Y-93681659D01*
X98761179Y-93657433D01*
X98794856Y-93639432D01*
X98831396Y-93628347D01*
X98875538Y-93624000D01*
X100324462Y-93624000D01*
X100368604Y-93628347D01*
G37*
G36*
X172368604Y-93628347D02*
G01*
X172405144Y-93639432D01*
X172438821Y-93657433D01*
X172468341Y-93681659D01*
X172492567Y-93711179D01*
X172510568Y-93744856D01*
X172521653Y-93781396D01*
X172526000Y-93825538D01*
X172526000Y-94774462D01*
X172521653Y-94818604D01*
X172510568Y-94855144D01*
X172492567Y-94888821D01*
X172468341Y-94918341D01*
X172438821Y-94942567D01*
X172405144Y-94960568D01*
X172368604Y-94971653D01*
X172324462Y-94976000D01*
X170875538Y-94976000D01*
X170831396Y-94971653D01*
X170794856Y-94960568D01*
X170761179Y-94942567D01*
X170731659Y-94918341D01*
X170707433Y-94888821D01*
X170689432Y-94855144D01*
X170678347Y-94818604D01*
X170674000Y-94774462D01*
X170674000Y-93825538D01*
X170678347Y-93781396D01*
X170689432Y-93744856D01*
X170707433Y-93711179D01*
X170731659Y-93681659D01*
X170761179Y-93657433D01*
X170794856Y-93639432D01*
X170831396Y-93628347D01*
X170875538Y-93624000D01*
X172324462Y-93624000D01*
X172368604Y-93628347D01*
G37*
G36*
X107568604Y-93628347D02*
G01*
X107605144Y-93639432D01*
X107638821Y-93657433D01*
X107668341Y-93681659D01*
X107692567Y-93711179D01*
X107710568Y-93744856D01*
X107721653Y-93781396D01*
X107726000Y-93825538D01*
X107726000Y-94774462D01*
X107721653Y-94818604D01*
X107710568Y-94855144D01*
X107692567Y-94888821D01*
X107668341Y-94918341D01*
X107638821Y-94942567D01*
X107605144Y-94960568D01*
X107568604Y-94971653D01*
X107524462Y-94976000D01*
X106075538Y-94976000D01*
X106031396Y-94971653D01*
X105994856Y-94960568D01*
X105961179Y-94942567D01*
X105931659Y-94918341D01*
X105907433Y-94888821D01*
X105889432Y-94855144D01*
X105878347Y-94818604D01*
X105874000Y-94774462D01*
X105874000Y-93825538D01*
X105878347Y-93781396D01*
X105889432Y-93744856D01*
X105907433Y-93711179D01*
X105931659Y-93681659D01*
X105961179Y-93657433D01*
X105994856Y-93639432D01*
X106031396Y-93628347D01*
X106075538Y-93624000D01*
X107524462Y-93624000D01*
X107568604Y-93628347D01*
G37*
G36*
X165168604Y-93628347D02*
G01*
X165205144Y-93639432D01*
X165238821Y-93657433D01*
X165268341Y-93681659D01*
X165292567Y-93711179D01*
X165310568Y-93744856D01*
X165321653Y-93781396D01*
X165326000Y-93825538D01*
X165326000Y-94774462D01*
X165321653Y-94818604D01*
X165310568Y-94855144D01*
X165292567Y-94888821D01*
X165268341Y-94918341D01*
X165238821Y-94942567D01*
X165205144Y-94960568D01*
X165168604Y-94971653D01*
X165124462Y-94976000D01*
X163675538Y-94976000D01*
X163631396Y-94971653D01*
X163594856Y-94960568D01*
X163561179Y-94942567D01*
X163531659Y-94918341D01*
X163507433Y-94888821D01*
X163489432Y-94855144D01*
X163478347Y-94818604D01*
X163474000Y-94774462D01*
X163474000Y-93825538D01*
X163478347Y-93781396D01*
X163489432Y-93744856D01*
X163507433Y-93711179D01*
X163531659Y-93681659D01*
X163561179Y-93657433D01*
X163594856Y-93639432D01*
X163631396Y-93628347D01*
X163675538Y-93624000D01*
X165124462Y-93624000D01*
X165168604Y-93628347D01*
G37*
G36*
X114768604Y-93628347D02*
G01*
X114805144Y-93639432D01*
X114838821Y-93657433D01*
X114868341Y-93681659D01*
X114892567Y-93711179D01*
X114910568Y-93744856D01*
X114921653Y-93781396D01*
X114926000Y-93825538D01*
X114926000Y-94774462D01*
X114921653Y-94818604D01*
X114910568Y-94855144D01*
X114892567Y-94888821D01*
X114868341Y-94918341D01*
X114838821Y-94942567D01*
X114805144Y-94960568D01*
X114768604Y-94971653D01*
X114724462Y-94976000D01*
X113275538Y-94976000D01*
X113231396Y-94971653D01*
X113194856Y-94960568D01*
X113161179Y-94942567D01*
X113131659Y-94918341D01*
X113107433Y-94888821D01*
X113089432Y-94855144D01*
X113078347Y-94818604D01*
X113074000Y-94774462D01*
X113074000Y-93825538D01*
X113078347Y-93781396D01*
X113089432Y-93744856D01*
X113107433Y-93711179D01*
X113131659Y-93681659D01*
X113161179Y-93657433D01*
X113194856Y-93639432D01*
X113231396Y-93628347D01*
X113275538Y-93624000D01*
X114724462Y-93624000D01*
X114768604Y-93628347D01*
G37*
G36*
X157968604Y-93628347D02*
G01*
X158005144Y-93639432D01*
X158038821Y-93657433D01*
X158068341Y-93681659D01*
X158092567Y-93711179D01*
X158110568Y-93744856D01*
X158121653Y-93781396D01*
X158126000Y-93825538D01*
X158126000Y-94774462D01*
X158121653Y-94818604D01*
X158110568Y-94855144D01*
X158092567Y-94888821D01*
X158068341Y-94918341D01*
X158038821Y-94942567D01*
X158005144Y-94960568D01*
X157968604Y-94971653D01*
X157924462Y-94976000D01*
X156475538Y-94976000D01*
X156431396Y-94971653D01*
X156394856Y-94960568D01*
X156361179Y-94942567D01*
X156331659Y-94918341D01*
X156307433Y-94888821D01*
X156289432Y-94855144D01*
X156278347Y-94818604D01*
X156274000Y-94774462D01*
X156274000Y-93825538D01*
X156278347Y-93781396D01*
X156289432Y-93744856D01*
X156307433Y-93711179D01*
X156331659Y-93681659D01*
X156361179Y-93657433D01*
X156394856Y-93639432D01*
X156431396Y-93628347D01*
X156475538Y-93624000D01*
X157924462Y-93624000D01*
X157968604Y-93628347D01*
G37*
G36*
X121968604Y-93628347D02*
G01*
X122005144Y-93639432D01*
X122038821Y-93657433D01*
X122068341Y-93681659D01*
X122092567Y-93711179D01*
X122110568Y-93744856D01*
X122121653Y-93781396D01*
X122126000Y-93825538D01*
X122126000Y-94774462D01*
X122121653Y-94818604D01*
X122110568Y-94855144D01*
X122092567Y-94888821D01*
X122068341Y-94918341D01*
X122038821Y-94942567D01*
X122005144Y-94960568D01*
X121968604Y-94971653D01*
X121924462Y-94976000D01*
X120475538Y-94976000D01*
X120431396Y-94971653D01*
X120394856Y-94960568D01*
X120361179Y-94942567D01*
X120331659Y-94918341D01*
X120307433Y-94888821D01*
X120289432Y-94855144D01*
X120278347Y-94818604D01*
X120274000Y-94774462D01*
X120274000Y-93825538D01*
X120278347Y-93781396D01*
X120289432Y-93744856D01*
X120307433Y-93711179D01*
X120331659Y-93681659D01*
X120361179Y-93657433D01*
X120394856Y-93639432D01*
X120431396Y-93628347D01*
X120475538Y-93624000D01*
X121924462Y-93624000D01*
X121968604Y-93628347D01*
G37*
G36*
X150768604Y-93628347D02*
G01*
X150805144Y-93639432D01*
X150838821Y-93657433D01*
X150868341Y-93681659D01*
X150892567Y-93711179D01*
X150910568Y-93744856D01*
X150921653Y-93781396D01*
X150926000Y-93825538D01*
X150926000Y-94774462D01*
X150921653Y-94818604D01*
X150910568Y-94855144D01*
X150892567Y-94888821D01*
X150868341Y-94918341D01*
X150838821Y-94942567D01*
X150805144Y-94960568D01*
X150768604Y-94971653D01*
X150724462Y-94976000D01*
X149275538Y-94976000D01*
X149231396Y-94971653D01*
X149194856Y-94960568D01*
X149161179Y-94942567D01*
X149131659Y-94918341D01*
X149107433Y-94888821D01*
X149089432Y-94855144D01*
X149078347Y-94818604D01*
X149074000Y-94774462D01*
X149074000Y-93825538D01*
X149078347Y-93781396D01*
X149089432Y-93744856D01*
X149107433Y-93711179D01*
X149131659Y-93681659D01*
X149161179Y-93657433D01*
X149194856Y-93639432D01*
X149231396Y-93628347D01*
X149275538Y-93624000D01*
X150724462Y-93624000D01*
X150768604Y-93628347D01*
G37*
G36*
X129168604Y-93628347D02*
G01*
X129205144Y-93639432D01*
X129238821Y-93657433D01*
X129268341Y-93681659D01*
X129292567Y-93711179D01*
X129310568Y-93744856D01*
X129321653Y-93781396D01*
X129326000Y-93825538D01*
X129326000Y-94774462D01*
X129321653Y-94818604D01*
X129310568Y-94855144D01*
X129292567Y-94888821D01*
X129268341Y-94918341D01*
X129238821Y-94942567D01*
X129205144Y-94960568D01*
X129168604Y-94971653D01*
X129124462Y-94976000D01*
X127675538Y-94976000D01*
X127631396Y-94971653D01*
X127594856Y-94960568D01*
X127561179Y-94942567D01*
X127531659Y-94918341D01*
X127507433Y-94888821D01*
X127489432Y-94855144D01*
X127478347Y-94818604D01*
X127474000Y-94774462D01*
X127474000Y-93825538D01*
X127478347Y-93781396D01*
X127489432Y-93744856D01*
X127507433Y-93711179D01*
X127531659Y-93681659D01*
X127561179Y-93657433D01*
X127594856Y-93639432D01*
X127631396Y-93628347D01*
X127675538Y-93624000D01*
X129124462Y-93624000D01*
X129168604Y-93628347D01*
G37*
G36*
X143568604Y-93628347D02*
G01*
X143605144Y-93639432D01*
X143638821Y-93657433D01*
X143668341Y-93681659D01*
X143692567Y-93711179D01*
X143710568Y-93744856D01*
X143721653Y-93781396D01*
X143726000Y-93825538D01*
X143726000Y-94774462D01*
X143721653Y-94818604D01*
X143710568Y-94855144D01*
X143692567Y-94888821D01*
X143668341Y-94918341D01*
X143638821Y-94942567D01*
X143605144Y-94960568D01*
X143568604Y-94971653D01*
X143524462Y-94976000D01*
X142075538Y-94976000D01*
X142031396Y-94971653D01*
X141994856Y-94960568D01*
X141961179Y-94942567D01*
X141931659Y-94918341D01*
X141907433Y-94888821D01*
X141889432Y-94855144D01*
X141878347Y-94818604D01*
X141874000Y-94774462D01*
X141874000Y-93825538D01*
X141878347Y-93781396D01*
X141889432Y-93744856D01*
X141907433Y-93711179D01*
X141931659Y-93681659D01*
X141961179Y-93657433D01*
X141994856Y-93639432D01*
X142031396Y-93628347D01*
X142075538Y-93624000D01*
X143524462Y-93624000D01*
X143568604Y-93628347D01*
G37*
G36*
X136368604Y-93628347D02*
G01*
X136405144Y-93639432D01*
X136438821Y-93657433D01*
X136468341Y-93681659D01*
X136492567Y-93711179D01*
X136510568Y-93744856D01*
X136521653Y-93781396D01*
X136526000Y-93825538D01*
X136526000Y-94774462D01*
X136521653Y-94818604D01*
X136510568Y-94855144D01*
X136492567Y-94888821D01*
X136468341Y-94918341D01*
X136438821Y-94942567D01*
X136405144Y-94960568D01*
X136368604Y-94971653D01*
X136324462Y-94976000D01*
X134875538Y-94976000D01*
X134831396Y-94971653D01*
X134794856Y-94960568D01*
X134761179Y-94942567D01*
X134731659Y-94918341D01*
X134707433Y-94888821D01*
X134689432Y-94855144D01*
X134678347Y-94818604D01*
X134674000Y-94774462D01*
X134674000Y-93825538D01*
X134678347Y-93781396D01*
X134689432Y-93744856D01*
X134707433Y-93711179D01*
X134731659Y-93681659D01*
X134761179Y-93657433D01*
X134794856Y-93639432D01*
X134831396Y-93628347D01*
X134875538Y-93624000D01*
X136324462Y-93624000D01*
X136368604Y-93628347D01*
G37*
G36*
X186768604Y-93628347D02*
G01*
X186805144Y-93639432D01*
X186838821Y-93657433D01*
X186868341Y-93681659D01*
X186892567Y-93711179D01*
X186910568Y-93744856D01*
X186921653Y-93781396D01*
X186926000Y-93825538D01*
X186926000Y-94774462D01*
X186921653Y-94818604D01*
X186910568Y-94855144D01*
X186892567Y-94888821D01*
X186868341Y-94918341D01*
X186838821Y-94942567D01*
X186805144Y-94960568D01*
X186768604Y-94971653D01*
X186724462Y-94976000D01*
X185275538Y-94976000D01*
X185231396Y-94971653D01*
X185194856Y-94960568D01*
X185161179Y-94942567D01*
X185131659Y-94918341D01*
X185107433Y-94888821D01*
X185089432Y-94855144D01*
X185078347Y-94818604D01*
X185074000Y-94774462D01*
X185074000Y-93825538D01*
X185078347Y-93781396D01*
X185089432Y-93744856D01*
X185107433Y-93711179D01*
X185131659Y-93681659D01*
X185161179Y-93657433D01*
X185194856Y-93639432D01*
X185231396Y-93628347D01*
X185275538Y-93624000D01*
X186724462Y-93624000D01*
X186768604Y-93628347D01*
G37*
G36*
X193968604Y-93628347D02*
G01*
X194005144Y-93639432D01*
X194038821Y-93657433D01*
X194068341Y-93681659D01*
X194092567Y-93711179D01*
X194110568Y-93744856D01*
X194121653Y-93781396D01*
X194126000Y-93825538D01*
X194126000Y-94774462D01*
X194121653Y-94818604D01*
X194110568Y-94855144D01*
X194092567Y-94888821D01*
X194068341Y-94918341D01*
X194038821Y-94942567D01*
X194005144Y-94960568D01*
X193968604Y-94971653D01*
X193924462Y-94976000D01*
X192475538Y-94976000D01*
X192431396Y-94971653D01*
X192394856Y-94960568D01*
X192361179Y-94942567D01*
X192331659Y-94918341D01*
X192307433Y-94888821D01*
X192289432Y-94855144D01*
X192278347Y-94818604D01*
X192274000Y-94774462D01*
X192274000Y-93825538D01*
X192278347Y-93781396D01*
X192289432Y-93744856D01*
X192307433Y-93711179D01*
X192331659Y-93681659D01*
X192361179Y-93657433D01*
X192394856Y-93639432D01*
X192431396Y-93628347D01*
X192475538Y-93624000D01*
X193924462Y-93624000D01*
X193968604Y-93628347D01*
G37*
G36*
X103968604Y-88428347D02*
G01*
X104005144Y-88439432D01*
X104038821Y-88457433D01*
X104068341Y-88481659D01*
X104092567Y-88511179D01*
X104110568Y-88544856D01*
X104121653Y-88581396D01*
X104126000Y-88625538D01*
X104126000Y-89574462D01*
X104121653Y-89618604D01*
X104110568Y-89655144D01*
X104092567Y-89688821D01*
X104068341Y-89718341D01*
X104038821Y-89742567D01*
X104005144Y-89760568D01*
X103968604Y-89771653D01*
X103924462Y-89776000D01*
X102475538Y-89776000D01*
X102431396Y-89771653D01*
X102394856Y-89760568D01*
X102361179Y-89742567D01*
X102331659Y-89718341D01*
X102307433Y-89688821D01*
X102289432Y-89655144D01*
X102278347Y-89618604D01*
X102274000Y-89574462D01*
X102274000Y-88625538D01*
X102278347Y-88581396D01*
X102289432Y-88544856D01*
X102307433Y-88511179D01*
X102331659Y-88481659D01*
X102361179Y-88457433D01*
X102394856Y-88439432D01*
X102431396Y-88428347D01*
X102475538Y-88424000D01*
X103924462Y-88424000D01*
X103968604Y-88428347D01*
G37*
G36*
X183168604Y-88428347D02*
G01*
X183205144Y-88439432D01*
X183238821Y-88457433D01*
X183268341Y-88481659D01*
X183292567Y-88511179D01*
X183310568Y-88544856D01*
X183321653Y-88581396D01*
X183326000Y-88625538D01*
X183326000Y-89574462D01*
X183321653Y-89618604D01*
X183310568Y-89655144D01*
X183292567Y-89688821D01*
X183268341Y-89718341D01*
X183238821Y-89742567D01*
X183205144Y-89760568D01*
X183168604Y-89771653D01*
X183124462Y-89776000D01*
X181675538Y-89776000D01*
X181631396Y-89771653D01*
X181594856Y-89760568D01*
X181561179Y-89742567D01*
X181531659Y-89718341D01*
X181507433Y-89688821D01*
X181489432Y-89655144D01*
X181478347Y-89618604D01*
X181474000Y-89574462D01*
X181474000Y-88625538D01*
X181478347Y-88581396D01*
X181489432Y-88544856D01*
X181507433Y-88511179D01*
X181531659Y-88481659D01*
X181561179Y-88457433D01*
X181594856Y-88439432D01*
X181631396Y-88428347D01*
X181675538Y-88424000D01*
X183124462Y-88424000D01*
X183168604Y-88428347D01*
G37*
G36*
X111168604Y-88428347D02*
G01*
X111205144Y-88439432D01*
X111238821Y-88457433D01*
X111268341Y-88481659D01*
X111292567Y-88511179D01*
X111310568Y-88544856D01*
X111321653Y-88581396D01*
X111326000Y-88625538D01*
X111326000Y-89574462D01*
X111321653Y-89618604D01*
X111310568Y-89655144D01*
X111292567Y-89688821D01*
X111268341Y-89718341D01*
X111238821Y-89742567D01*
X111205144Y-89760568D01*
X111168604Y-89771653D01*
X111124462Y-89776000D01*
X109675538Y-89776000D01*
X109631396Y-89771653D01*
X109594856Y-89760568D01*
X109561179Y-89742567D01*
X109531659Y-89718341D01*
X109507433Y-89688821D01*
X109489432Y-89655144D01*
X109478347Y-89618604D01*
X109474000Y-89574462D01*
X109474000Y-88625538D01*
X109478347Y-88581396D01*
X109489432Y-88544856D01*
X109507433Y-88511179D01*
X109531659Y-88481659D01*
X109561179Y-88457433D01*
X109594856Y-88439432D01*
X109631396Y-88428347D01*
X109675538Y-88424000D01*
X111124462Y-88424000D01*
X111168604Y-88428347D01*
G37*
G36*
X118368604Y-88428347D02*
G01*
X118405144Y-88439432D01*
X118438821Y-88457433D01*
X118468341Y-88481659D01*
X118492567Y-88511179D01*
X118510568Y-88544856D01*
X118521653Y-88581396D01*
X118526000Y-88625538D01*
X118526000Y-89574462D01*
X118521653Y-89618604D01*
X118510568Y-89655144D01*
X118492567Y-89688821D01*
X118468341Y-89718341D01*
X118438821Y-89742567D01*
X118405144Y-89760568D01*
X118368604Y-89771653D01*
X118324462Y-89776000D01*
X116875538Y-89776000D01*
X116831396Y-89771653D01*
X116794856Y-89760568D01*
X116761179Y-89742567D01*
X116731659Y-89718341D01*
X116707433Y-89688821D01*
X116689432Y-89655144D01*
X116678347Y-89618604D01*
X116674000Y-89574462D01*
X116674000Y-88625538D01*
X116678347Y-88581396D01*
X116689432Y-88544856D01*
X116707433Y-88511179D01*
X116731659Y-88481659D01*
X116761179Y-88457433D01*
X116794856Y-88439432D01*
X116831396Y-88428347D01*
X116875538Y-88424000D01*
X118324462Y-88424000D01*
X118368604Y-88428347D01*
G37*
G36*
X125568604Y-88428347D02*
G01*
X125605144Y-88439432D01*
X125638821Y-88457433D01*
X125668341Y-88481659D01*
X125692567Y-88511179D01*
X125710568Y-88544856D01*
X125721653Y-88581396D01*
X125726000Y-88625538D01*
X125726000Y-89574462D01*
X125721653Y-89618604D01*
X125710568Y-89655144D01*
X125692567Y-89688821D01*
X125668341Y-89718341D01*
X125638821Y-89742567D01*
X125605144Y-89760568D01*
X125568604Y-89771653D01*
X125524462Y-89776000D01*
X124075538Y-89776000D01*
X124031396Y-89771653D01*
X123994856Y-89760568D01*
X123961179Y-89742567D01*
X123931659Y-89718341D01*
X123907433Y-89688821D01*
X123889432Y-89655144D01*
X123878347Y-89618604D01*
X123874000Y-89574462D01*
X123874000Y-88625538D01*
X123878347Y-88581396D01*
X123889432Y-88544856D01*
X123907433Y-88511179D01*
X123931659Y-88481659D01*
X123961179Y-88457433D01*
X123994856Y-88439432D01*
X124031396Y-88428347D01*
X124075538Y-88424000D01*
X125524462Y-88424000D01*
X125568604Y-88428347D01*
G37*
G36*
X132768604Y-88428347D02*
G01*
X132805144Y-88439432D01*
X132838821Y-88457433D01*
X132868341Y-88481659D01*
X132892567Y-88511179D01*
X132910568Y-88544856D01*
X132921653Y-88581396D01*
X132926000Y-88625538D01*
X132926000Y-89574462D01*
X132921653Y-89618604D01*
X132910568Y-89655144D01*
X132892567Y-89688821D01*
X132868341Y-89718341D01*
X132838821Y-89742567D01*
X132805144Y-89760568D01*
X132768604Y-89771653D01*
X132724462Y-89776000D01*
X131275538Y-89776000D01*
X131231396Y-89771653D01*
X131194856Y-89760568D01*
X131161179Y-89742567D01*
X131131659Y-89718341D01*
X131107433Y-89688821D01*
X131089432Y-89655144D01*
X131078347Y-89618604D01*
X131074000Y-89574462D01*
X131074000Y-88625538D01*
X131078347Y-88581396D01*
X131089432Y-88544856D01*
X131107433Y-88511179D01*
X131131659Y-88481659D01*
X131161179Y-88457433D01*
X131194856Y-88439432D01*
X131231396Y-88428347D01*
X131275538Y-88424000D01*
X132724462Y-88424000D01*
X132768604Y-88428347D01*
G37*
G36*
X139968604Y-88428347D02*
G01*
X140005144Y-88439432D01*
X140038821Y-88457433D01*
X140068341Y-88481659D01*
X140092567Y-88511179D01*
X140110568Y-88544856D01*
X140121653Y-88581396D01*
X140126000Y-88625538D01*
X140126000Y-89574462D01*
X140121653Y-89618604D01*
X140110568Y-89655144D01*
X140092567Y-89688821D01*
X140068341Y-89718341D01*
X140038821Y-89742567D01*
X140005144Y-89760568D01*
X139968604Y-89771653D01*
X139924462Y-89776000D01*
X138475538Y-89776000D01*
X138431396Y-89771653D01*
X138394856Y-89760568D01*
X138361179Y-89742567D01*
X138331659Y-89718341D01*
X138307433Y-89688821D01*
X138289432Y-89655144D01*
X138278347Y-89618604D01*
X138274000Y-89574462D01*
X138274000Y-88625538D01*
X138278347Y-88581396D01*
X138289432Y-88544856D01*
X138307433Y-88511179D01*
X138331659Y-88481659D01*
X138361179Y-88457433D01*
X138394856Y-88439432D01*
X138431396Y-88428347D01*
X138475538Y-88424000D01*
X139924462Y-88424000D01*
X139968604Y-88428347D01*
G37*
G36*
X147168604Y-88428347D02*
G01*
X147205144Y-88439432D01*
X147238821Y-88457433D01*
X147268341Y-88481659D01*
X147292567Y-88511179D01*
X147310568Y-88544856D01*
X147321653Y-88581396D01*
X147326000Y-88625538D01*
X147326000Y-89574462D01*
X147321653Y-89618604D01*
X147310568Y-89655144D01*
X147292567Y-89688821D01*
X147268341Y-89718341D01*
X147238821Y-89742567D01*
X147205144Y-89760568D01*
X147168604Y-89771653D01*
X147124462Y-89776000D01*
X145675538Y-89776000D01*
X145631396Y-89771653D01*
X145594856Y-89760568D01*
X145561179Y-89742567D01*
X145531659Y-89718341D01*
X145507433Y-89688821D01*
X145489432Y-89655144D01*
X145478347Y-89618604D01*
X145474000Y-89574462D01*
X145474000Y-88625538D01*
X145478347Y-88581396D01*
X145489432Y-88544856D01*
X145507433Y-88511179D01*
X145531659Y-88481659D01*
X145561179Y-88457433D01*
X145594856Y-88439432D01*
X145631396Y-88428347D01*
X145675538Y-88424000D01*
X147124462Y-88424000D01*
X147168604Y-88428347D01*
G37*
G36*
X190368604Y-88428347D02*
G01*
X190405144Y-88439432D01*
X190438821Y-88457433D01*
X190468341Y-88481659D01*
X190492567Y-88511179D01*
X190510568Y-88544856D01*
X190521653Y-88581396D01*
X190526000Y-88625538D01*
X190526000Y-89574462D01*
X190521653Y-89618604D01*
X190510568Y-89655144D01*
X190492567Y-89688821D01*
X190468341Y-89718341D01*
X190438821Y-89742567D01*
X190405144Y-89760568D01*
X190368604Y-89771653D01*
X190324462Y-89776000D01*
X188875538Y-89776000D01*
X188831396Y-89771653D01*
X188794856Y-89760568D01*
X188761179Y-89742567D01*
X188731659Y-89718341D01*
X188707433Y-89688821D01*
X188689432Y-89655144D01*
X188678347Y-89618604D01*
X188674000Y-89574462D01*
X188674000Y-88625538D01*
X188678347Y-88581396D01*
X188689432Y-88544856D01*
X188707433Y-88511179D01*
X188731659Y-88481659D01*
X188761179Y-88457433D01*
X188794856Y-88439432D01*
X188831396Y-88428347D01*
X188875538Y-88424000D01*
X190324462Y-88424000D01*
X190368604Y-88428347D01*
G37*
G36*
X154368604Y-88428347D02*
G01*
X154405144Y-88439432D01*
X154438821Y-88457433D01*
X154468341Y-88481659D01*
X154492567Y-88511179D01*
X154510568Y-88544856D01*
X154521653Y-88581396D01*
X154526000Y-88625538D01*
X154526000Y-89574462D01*
X154521653Y-89618604D01*
X154510568Y-89655144D01*
X154492567Y-89688821D01*
X154468341Y-89718341D01*
X154438821Y-89742567D01*
X154405144Y-89760568D01*
X154368604Y-89771653D01*
X154324462Y-89776000D01*
X152875538Y-89776000D01*
X152831396Y-89771653D01*
X152794856Y-89760568D01*
X152761179Y-89742567D01*
X152731659Y-89718341D01*
X152707433Y-89688821D01*
X152689432Y-89655144D01*
X152678347Y-89618604D01*
X152674000Y-89574462D01*
X152674000Y-88625538D01*
X152678347Y-88581396D01*
X152689432Y-88544856D01*
X152707433Y-88511179D01*
X152731659Y-88481659D01*
X152761179Y-88457433D01*
X152794856Y-88439432D01*
X152831396Y-88428347D01*
X152875538Y-88424000D01*
X154324462Y-88424000D01*
X154368604Y-88428347D01*
G37*
G36*
X161568604Y-88428347D02*
G01*
X161605144Y-88439432D01*
X161638821Y-88457433D01*
X161668341Y-88481659D01*
X161692567Y-88511179D01*
X161710568Y-88544856D01*
X161721653Y-88581396D01*
X161726000Y-88625538D01*
X161726000Y-89574462D01*
X161721653Y-89618604D01*
X161710568Y-89655144D01*
X161692567Y-89688821D01*
X161668341Y-89718341D01*
X161638821Y-89742567D01*
X161605144Y-89760568D01*
X161568604Y-89771653D01*
X161524462Y-89776000D01*
X160075538Y-89776000D01*
X160031396Y-89771653D01*
X159994856Y-89760568D01*
X159961179Y-89742567D01*
X159931659Y-89718341D01*
X159907433Y-89688821D01*
X159889432Y-89655144D01*
X159878347Y-89618604D01*
X159874000Y-89574462D01*
X159874000Y-88625538D01*
X159878347Y-88581396D01*
X159889432Y-88544856D01*
X159907433Y-88511179D01*
X159931659Y-88481659D01*
X159961179Y-88457433D01*
X159994856Y-88439432D01*
X160031396Y-88428347D01*
X160075538Y-88424000D01*
X161524462Y-88424000D01*
X161568604Y-88428347D01*
G37*
G36*
X168768604Y-88428347D02*
G01*
X168805144Y-88439432D01*
X168838821Y-88457433D01*
X168868341Y-88481659D01*
X168892567Y-88511179D01*
X168910568Y-88544856D01*
X168921653Y-88581396D01*
X168926000Y-88625538D01*
X168926000Y-89574462D01*
X168921653Y-89618604D01*
X168910568Y-89655144D01*
X168892567Y-89688821D01*
X168868341Y-89718341D01*
X168838821Y-89742567D01*
X168805144Y-89760568D01*
X168768604Y-89771653D01*
X168724462Y-89776000D01*
X167275538Y-89776000D01*
X167231396Y-89771653D01*
X167194856Y-89760568D01*
X167161179Y-89742567D01*
X167131659Y-89718341D01*
X167107433Y-89688821D01*
X167089432Y-89655144D01*
X167078347Y-89618604D01*
X167074000Y-89574462D01*
X167074000Y-88625538D01*
X167078347Y-88581396D01*
X167089432Y-88544856D01*
X167107433Y-88511179D01*
X167131659Y-88481659D01*
X167161179Y-88457433D01*
X167194856Y-88439432D01*
X167231396Y-88428347D01*
X167275538Y-88424000D01*
X168724462Y-88424000D01*
X168768604Y-88428347D01*
G37*
G36*
X175968604Y-88428347D02*
G01*
X176005144Y-88439432D01*
X176038821Y-88457433D01*
X176068341Y-88481659D01*
X176092567Y-88511179D01*
X176110568Y-88544856D01*
X176121653Y-88581396D01*
X176126000Y-88625538D01*
X176126000Y-89574462D01*
X176121653Y-89618604D01*
X176110568Y-89655144D01*
X176092567Y-89688821D01*
X176068341Y-89718341D01*
X176038821Y-89742567D01*
X176005144Y-89760568D01*
X175968604Y-89771653D01*
X175924462Y-89776000D01*
X174475538Y-89776000D01*
X174431396Y-89771653D01*
X174394856Y-89760568D01*
X174361179Y-89742567D01*
X174331659Y-89718341D01*
X174307433Y-89688821D01*
X174289432Y-89655144D01*
X174278347Y-89618604D01*
X174274000Y-89574462D01*
X174274000Y-88625538D01*
X174278347Y-88581396D01*
X174289432Y-88544856D01*
X174307433Y-88511179D01*
X174331659Y-88481659D01*
X174361179Y-88457433D01*
X174394856Y-88439432D01*
X174431396Y-88428347D01*
X174475538Y-88424000D01*
X175924462Y-88424000D01*
X175968604Y-88428347D01*
G37*
G36*
X168768604Y-85628347D02*
G01*
X168805144Y-85639432D01*
X168838821Y-85657433D01*
X168868341Y-85681659D01*
X168892567Y-85711179D01*
X168910568Y-85744856D01*
X168921653Y-85781396D01*
X168926000Y-85825538D01*
X168926000Y-86774462D01*
X168921653Y-86818604D01*
X168910568Y-86855144D01*
X168892567Y-86888821D01*
X168868341Y-86918341D01*
X168838821Y-86942567D01*
X168805144Y-86960568D01*
X168768604Y-86971653D01*
X168724462Y-86976000D01*
X167275538Y-86976000D01*
X167231396Y-86971653D01*
X167194856Y-86960568D01*
X167161179Y-86942567D01*
X167131659Y-86918341D01*
X167107433Y-86888821D01*
X167089432Y-86855144D01*
X167078347Y-86818604D01*
X167074000Y-86774462D01*
X167074000Y-85825538D01*
X167078347Y-85781396D01*
X167089432Y-85744856D01*
X167107433Y-85711179D01*
X167131659Y-85681659D01*
X167161179Y-85657433D01*
X167194856Y-85639432D01*
X167231396Y-85628347D01*
X167275538Y-85624000D01*
X168724462Y-85624000D01*
X168768604Y-85628347D01*
G37*
G36*
X103968604Y-85628347D02*
G01*
X104005144Y-85639432D01*
X104038821Y-85657433D01*
X104068341Y-85681659D01*
X104092567Y-85711179D01*
X104110568Y-85744856D01*
X104121653Y-85781396D01*
X104126000Y-85825538D01*
X104126000Y-86774462D01*
X104121653Y-86818604D01*
X104110568Y-86855144D01*
X104092567Y-86888821D01*
X104068341Y-86918341D01*
X104038821Y-86942567D01*
X104005144Y-86960568D01*
X103968604Y-86971653D01*
X103924462Y-86976000D01*
X102475538Y-86976000D01*
X102431396Y-86971653D01*
X102394856Y-86960568D01*
X102361179Y-86942567D01*
X102331659Y-86918341D01*
X102307433Y-86888821D01*
X102289432Y-86855144D01*
X102278347Y-86818604D01*
X102274000Y-86774462D01*
X102274000Y-85825538D01*
X102278347Y-85781396D01*
X102289432Y-85744856D01*
X102307433Y-85711179D01*
X102331659Y-85681659D01*
X102361179Y-85657433D01*
X102394856Y-85639432D01*
X102431396Y-85628347D01*
X102475538Y-85624000D01*
X103924462Y-85624000D01*
X103968604Y-85628347D01*
G37*
G36*
X161568604Y-85628347D02*
G01*
X161605144Y-85639432D01*
X161638821Y-85657433D01*
X161668341Y-85681659D01*
X161692567Y-85711179D01*
X161710568Y-85744856D01*
X161721653Y-85781396D01*
X161726000Y-85825538D01*
X161726000Y-86774462D01*
X161721653Y-86818604D01*
X161710568Y-86855144D01*
X161692567Y-86888821D01*
X161668341Y-86918341D01*
X161638821Y-86942567D01*
X161605144Y-86960568D01*
X161568604Y-86971653D01*
X161524462Y-86976000D01*
X160075538Y-86976000D01*
X160031396Y-86971653D01*
X159994856Y-86960568D01*
X159961179Y-86942567D01*
X159931659Y-86918341D01*
X159907433Y-86888821D01*
X159889432Y-86855144D01*
X159878347Y-86818604D01*
X159874000Y-86774462D01*
X159874000Y-85825538D01*
X159878347Y-85781396D01*
X159889432Y-85744856D01*
X159907433Y-85711179D01*
X159931659Y-85681659D01*
X159961179Y-85657433D01*
X159994856Y-85639432D01*
X160031396Y-85628347D01*
X160075538Y-85624000D01*
X161524462Y-85624000D01*
X161568604Y-85628347D01*
G37*
G36*
X190368604Y-85628347D02*
G01*
X190405144Y-85639432D01*
X190438821Y-85657433D01*
X190468341Y-85681659D01*
X190492567Y-85711179D01*
X190510568Y-85744856D01*
X190521653Y-85781396D01*
X190526000Y-85825538D01*
X190526000Y-86774462D01*
X190521653Y-86818604D01*
X190510568Y-86855144D01*
X190492567Y-86888821D01*
X190468341Y-86918341D01*
X190438821Y-86942567D01*
X190405144Y-86960568D01*
X190368604Y-86971653D01*
X190324462Y-86976000D01*
X188875538Y-86976000D01*
X188831396Y-86971653D01*
X188794856Y-86960568D01*
X188761179Y-86942567D01*
X188731659Y-86918341D01*
X188707433Y-86888821D01*
X188689432Y-86855144D01*
X188678347Y-86818604D01*
X188674000Y-86774462D01*
X188674000Y-85825538D01*
X188678347Y-85781396D01*
X188689432Y-85744856D01*
X188707433Y-85711179D01*
X188731659Y-85681659D01*
X188761179Y-85657433D01*
X188794856Y-85639432D01*
X188831396Y-85628347D01*
X188875538Y-85624000D01*
X190324462Y-85624000D01*
X190368604Y-85628347D01*
G37*
G36*
X154368604Y-85628347D02*
G01*
X154405144Y-85639432D01*
X154438821Y-85657433D01*
X154468341Y-85681659D01*
X154492567Y-85711179D01*
X154510568Y-85744856D01*
X154521653Y-85781396D01*
X154526000Y-85825538D01*
X154526000Y-86774462D01*
X154521653Y-86818604D01*
X154510568Y-86855144D01*
X154492567Y-86888821D01*
X154468341Y-86918341D01*
X154438821Y-86942567D01*
X154405144Y-86960568D01*
X154368604Y-86971653D01*
X154324462Y-86976000D01*
X152875538Y-86976000D01*
X152831396Y-86971653D01*
X152794856Y-86960568D01*
X152761179Y-86942567D01*
X152731659Y-86918341D01*
X152707433Y-86888821D01*
X152689432Y-86855144D01*
X152678347Y-86818604D01*
X152674000Y-86774462D01*
X152674000Y-85825538D01*
X152678347Y-85781396D01*
X152689432Y-85744856D01*
X152707433Y-85711179D01*
X152731659Y-85681659D01*
X152761179Y-85657433D01*
X152794856Y-85639432D01*
X152831396Y-85628347D01*
X152875538Y-85624000D01*
X154324462Y-85624000D01*
X154368604Y-85628347D01*
G37*
G36*
X183168604Y-85628347D02*
G01*
X183205144Y-85639432D01*
X183238821Y-85657433D01*
X183268341Y-85681659D01*
X183292567Y-85711179D01*
X183310568Y-85744856D01*
X183321653Y-85781396D01*
X183326000Y-85825538D01*
X183326000Y-86774462D01*
X183321653Y-86818604D01*
X183310568Y-86855144D01*
X183292567Y-86888821D01*
X183268341Y-86918341D01*
X183238821Y-86942567D01*
X183205144Y-86960568D01*
X183168604Y-86971653D01*
X183124462Y-86976000D01*
X181675538Y-86976000D01*
X181631396Y-86971653D01*
X181594856Y-86960568D01*
X181561179Y-86942567D01*
X181531659Y-86918341D01*
X181507433Y-86888821D01*
X181489432Y-86855144D01*
X181478347Y-86818604D01*
X181474000Y-86774462D01*
X181474000Y-85825538D01*
X181478347Y-85781396D01*
X181489432Y-85744856D01*
X181507433Y-85711179D01*
X181531659Y-85681659D01*
X181561179Y-85657433D01*
X181594856Y-85639432D01*
X181631396Y-85628347D01*
X181675538Y-85624000D01*
X183124462Y-85624000D01*
X183168604Y-85628347D01*
G37*
G36*
X147168604Y-85628347D02*
G01*
X147205144Y-85639432D01*
X147238821Y-85657433D01*
X147268341Y-85681659D01*
X147292567Y-85711179D01*
X147310568Y-85744856D01*
X147321653Y-85781396D01*
X147326000Y-85825538D01*
X147326000Y-86774462D01*
X147321653Y-86818604D01*
X147310568Y-86855144D01*
X147292567Y-86888821D01*
X147268341Y-86918341D01*
X147238821Y-86942567D01*
X147205144Y-86960568D01*
X147168604Y-86971653D01*
X147124462Y-86976000D01*
X145675538Y-86976000D01*
X145631396Y-86971653D01*
X145594856Y-86960568D01*
X145561179Y-86942567D01*
X145531659Y-86918341D01*
X145507433Y-86888821D01*
X145489432Y-86855144D01*
X145478347Y-86818604D01*
X145474000Y-86774462D01*
X145474000Y-85825538D01*
X145478347Y-85781396D01*
X145489432Y-85744856D01*
X145507433Y-85711179D01*
X145531659Y-85681659D01*
X145561179Y-85657433D01*
X145594856Y-85639432D01*
X145631396Y-85628347D01*
X145675538Y-85624000D01*
X147124462Y-85624000D01*
X147168604Y-85628347D01*
G37*
G36*
X175968604Y-85628347D02*
G01*
X176005144Y-85639432D01*
X176038821Y-85657433D01*
X176068341Y-85681659D01*
X176092567Y-85711179D01*
X176110568Y-85744856D01*
X176121653Y-85781396D01*
X176126000Y-85825538D01*
X176126000Y-86774462D01*
X176121653Y-86818604D01*
X176110568Y-86855144D01*
X176092567Y-86888821D01*
X176068341Y-86918341D01*
X176038821Y-86942567D01*
X176005144Y-86960568D01*
X175968604Y-86971653D01*
X175924462Y-86976000D01*
X174475538Y-86976000D01*
X174431396Y-86971653D01*
X174394856Y-86960568D01*
X174361179Y-86942567D01*
X174331659Y-86918341D01*
X174307433Y-86888821D01*
X174289432Y-86855144D01*
X174278347Y-86818604D01*
X174274000Y-86774462D01*
X174274000Y-85825538D01*
X174278347Y-85781396D01*
X174289432Y-85744856D01*
X174307433Y-85711179D01*
X174331659Y-85681659D01*
X174361179Y-85657433D01*
X174394856Y-85639432D01*
X174431396Y-85628347D01*
X174475538Y-85624000D01*
X175924462Y-85624000D01*
X175968604Y-85628347D01*
G37*
G36*
X139968604Y-85628347D02*
G01*
X140005144Y-85639432D01*
X140038821Y-85657433D01*
X140068341Y-85681659D01*
X140092567Y-85711179D01*
X140110568Y-85744856D01*
X140121653Y-85781396D01*
X140126000Y-85825538D01*
X140126000Y-86774462D01*
X140121653Y-86818604D01*
X140110568Y-86855144D01*
X140092567Y-86888821D01*
X140068341Y-86918341D01*
X140038821Y-86942567D01*
X140005144Y-86960568D01*
X139968604Y-86971653D01*
X139924462Y-86976000D01*
X138475538Y-86976000D01*
X138431396Y-86971653D01*
X138394856Y-86960568D01*
X138361179Y-86942567D01*
X138331659Y-86918341D01*
X138307433Y-86888821D01*
X138289432Y-86855144D01*
X138278347Y-86818604D01*
X138274000Y-86774462D01*
X138274000Y-85825538D01*
X138278347Y-85781396D01*
X138289432Y-85744856D01*
X138307433Y-85711179D01*
X138331659Y-85681659D01*
X138361179Y-85657433D01*
X138394856Y-85639432D01*
X138431396Y-85628347D01*
X138475538Y-85624000D01*
X139924462Y-85624000D01*
X139968604Y-85628347D01*
G37*
G36*
X132768604Y-85628347D02*
G01*
X132805144Y-85639432D01*
X132838821Y-85657433D01*
X132868341Y-85681659D01*
X132892567Y-85711179D01*
X132910568Y-85744856D01*
X132921653Y-85781396D01*
X132926000Y-85825538D01*
X132926000Y-86774462D01*
X132921653Y-86818604D01*
X132910568Y-86855144D01*
X132892567Y-86888821D01*
X132868341Y-86918341D01*
X132838821Y-86942567D01*
X132805144Y-86960568D01*
X132768604Y-86971653D01*
X132724462Y-86976000D01*
X131275538Y-86976000D01*
X131231396Y-86971653D01*
X131194856Y-86960568D01*
X131161179Y-86942567D01*
X131131659Y-86918341D01*
X131107433Y-86888821D01*
X131089432Y-86855144D01*
X131078347Y-86818604D01*
X131074000Y-86774462D01*
X131074000Y-85825538D01*
X131078347Y-85781396D01*
X131089432Y-85744856D01*
X131107433Y-85711179D01*
X131131659Y-85681659D01*
X131161179Y-85657433D01*
X131194856Y-85639432D01*
X131231396Y-85628347D01*
X131275538Y-85624000D01*
X132724462Y-85624000D01*
X132768604Y-85628347D01*
G37*
G36*
X125568604Y-85628347D02*
G01*
X125605144Y-85639432D01*
X125638821Y-85657433D01*
X125668341Y-85681659D01*
X125692567Y-85711179D01*
X125710568Y-85744856D01*
X125721653Y-85781396D01*
X125726000Y-85825538D01*
X125726000Y-86774462D01*
X125721653Y-86818604D01*
X125710568Y-86855144D01*
X125692567Y-86888821D01*
X125668341Y-86918341D01*
X125638821Y-86942567D01*
X125605144Y-86960568D01*
X125568604Y-86971653D01*
X125524462Y-86976000D01*
X124075538Y-86976000D01*
X124031396Y-86971653D01*
X123994856Y-86960568D01*
X123961179Y-86942567D01*
X123931659Y-86918341D01*
X123907433Y-86888821D01*
X123889432Y-86855144D01*
X123878347Y-86818604D01*
X123874000Y-86774462D01*
X123874000Y-85825538D01*
X123878347Y-85781396D01*
X123889432Y-85744856D01*
X123907433Y-85711179D01*
X123931659Y-85681659D01*
X123961179Y-85657433D01*
X123994856Y-85639432D01*
X124031396Y-85628347D01*
X124075538Y-85624000D01*
X125524462Y-85624000D01*
X125568604Y-85628347D01*
G37*
G36*
X118368604Y-85628347D02*
G01*
X118405144Y-85639432D01*
X118438821Y-85657433D01*
X118468341Y-85681659D01*
X118492567Y-85711179D01*
X118510568Y-85744856D01*
X118521653Y-85781396D01*
X118526000Y-85825538D01*
X118526000Y-86774462D01*
X118521653Y-86818604D01*
X118510568Y-86855144D01*
X118492567Y-86888821D01*
X118468341Y-86918341D01*
X118438821Y-86942567D01*
X118405144Y-86960568D01*
X118368604Y-86971653D01*
X118324462Y-86976000D01*
X116875538Y-86976000D01*
X116831396Y-86971653D01*
X116794856Y-86960568D01*
X116761179Y-86942567D01*
X116731659Y-86918341D01*
X116707433Y-86888821D01*
X116689432Y-86855144D01*
X116678347Y-86818604D01*
X116674000Y-86774462D01*
X116674000Y-85825538D01*
X116678347Y-85781396D01*
X116689432Y-85744856D01*
X116707433Y-85711179D01*
X116731659Y-85681659D01*
X116761179Y-85657433D01*
X116794856Y-85639432D01*
X116831396Y-85628347D01*
X116875538Y-85624000D01*
X118324462Y-85624000D01*
X118368604Y-85628347D01*
G37*
G36*
X111168604Y-85628347D02*
G01*
X111205144Y-85639432D01*
X111238821Y-85657433D01*
X111268341Y-85681659D01*
X111292567Y-85711179D01*
X111310568Y-85744856D01*
X111321653Y-85781396D01*
X111326000Y-85825538D01*
X111326000Y-86774462D01*
X111321653Y-86818604D01*
X111310568Y-86855144D01*
X111292567Y-86888821D01*
X111268341Y-86918341D01*
X111238821Y-86942567D01*
X111205144Y-86960568D01*
X111168604Y-86971653D01*
X111124462Y-86976000D01*
X109675538Y-86976000D01*
X109631396Y-86971653D01*
X109594856Y-86960568D01*
X109561179Y-86942567D01*
X109531659Y-86918341D01*
X109507433Y-86888821D01*
X109489432Y-86855144D01*
X109478347Y-86818604D01*
X109474000Y-86774462D01*
X109474000Y-85825538D01*
X109478347Y-85781396D01*
X109489432Y-85744856D01*
X109507433Y-85711179D01*
X109531659Y-85681659D01*
X109561179Y-85657433D01*
X109594856Y-85639432D01*
X109631396Y-85628347D01*
X109675538Y-85624000D01*
X111124462Y-85624000D01*
X111168604Y-85628347D01*
G37*
G36*
X193506564Y-80789389D02*
G01*
X193697833Y-80868615D01*
X193697835Y-80868616D01*
X193869973Y-80983635D01*
X194016365Y-81130027D01*
X194131385Y-81302167D01*
X194210611Y-81493436D01*
X194251000Y-81696484D01*
X194251000Y-81903516D01*
X194210611Y-82106564D01*
X194131385Y-82297833D01*
X194131384Y-82297835D01*
X194016365Y-82469973D01*
X193869973Y-82616365D01*
X193697835Y-82731384D01*
X193697834Y-82731385D01*
X193697833Y-82731385D01*
X193506564Y-82810611D01*
X193303516Y-82851000D01*
X193096484Y-82851000D01*
X192893436Y-82810611D01*
X192702167Y-82731385D01*
X192702166Y-82731385D01*
X192702165Y-82731384D01*
X192530027Y-82616365D01*
X192383635Y-82469973D01*
X192268616Y-82297835D01*
X192268615Y-82297833D01*
X192189389Y-82106564D01*
X192149000Y-81903516D01*
X192149000Y-81696484D01*
X192189389Y-81493436D01*
X192268615Y-81302167D01*
X192383635Y-81130027D01*
X192530027Y-80983635D01*
X192702165Y-80868616D01*
X192702167Y-80868615D01*
X192893436Y-80789389D01*
X193096484Y-80749000D01*
X193303516Y-80749000D01*
X193506564Y-80789389D01*
G37*
G36*
X175562857Y-69175782D02*
G01*
X175911776Y-69281626D01*
X176233332Y-69453500D01*
X176297620Y-69506260D01*
X176515188Y-69684812D01*
X176746497Y-69966664D01*
X176746500Y-69966668D01*
X176918374Y-70288223D01*
X177024218Y-70637142D01*
X177051000Y-70909065D01*
X177051000Y-77490935D01*
X177024218Y-77762858D01*
X176918374Y-78111777D01*
X176746500Y-78433332D01*
X176746498Y-78433335D01*
X176746497Y-78433336D01*
X176515188Y-78715188D01*
X176233336Y-78946497D01*
X176233332Y-78946500D01*
X175911777Y-79118374D01*
X175562858Y-79224218D01*
X175200000Y-79259956D01*
X174837143Y-79224218D01*
X174488224Y-79118374D01*
X174166669Y-78946500D01*
X174166665Y-78946497D01*
X173884813Y-78715188D01*
X173653504Y-78433336D01*
X173653503Y-78433335D01*
X173653501Y-78433332D01*
X173481627Y-78111777D01*
X173375783Y-77762858D01*
X173349001Y-77490935D01*
X173349000Y-70909066D01*
X173375782Y-70637143D01*
X173481626Y-70288224D01*
X173653500Y-69966668D01*
X173706260Y-69902380D01*
X173884812Y-69684812D01*
X174166664Y-69453503D01*
X174166665Y-69453502D01*
X174166668Y-69453500D01*
X174488223Y-69281626D01*
X174837142Y-69175782D01*
X175200000Y-69140044D01*
X175562857Y-69175782D01*
G37*
G36*
X189962857Y-69175782D02*
G01*
X190311776Y-69281626D01*
X190633332Y-69453500D01*
X190697620Y-69506260D01*
X190915188Y-69684812D01*
X191146497Y-69966664D01*
X191146500Y-69966668D01*
X191318374Y-70288223D01*
X191424218Y-70637142D01*
X191451000Y-70909065D01*
X191451000Y-77490935D01*
X191424218Y-77762858D01*
X191318374Y-78111777D01*
X191146500Y-78433332D01*
X191146498Y-78433335D01*
X191146497Y-78433336D01*
X190915188Y-78715188D01*
X190633336Y-78946497D01*
X190633332Y-78946500D01*
X190311777Y-79118374D01*
X189962858Y-79224218D01*
X189600000Y-79259956D01*
X189237143Y-79224218D01*
X188888224Y-79118374D01*
X188566669Y-78946500D01*
X188566665Y-78946497D01*
X188284813Y-78715188D01*
X188053504Y-78433336D01*
X188053503Y-78433335D01*
X188053501Y-78433332D01*
X187881627Y-78111777D01*
X187775783Y-77762858D01*
X187749001Y-77490935D01*
X187749000Y-70909066D01*
X187775782Y-70637143D01*
X187881626Y-70288224D01*
X188053500Y-69966668D01*
X188106260Y-69902380D01*
X188284812Y-69684812D01*
X188566664Y-69453503D01*
X188566665Y-69453502D01*
X188566668Y-69453500D01*
X188888223Y-69281626D01*
X189237142Y-69175782D01*
X189600000Y-69140044D01*
X189962857Y-69175782D01*
G37*
G36*
X182762857Y-69175782D02*
G01*
X183111776Y-69281626D01*
X183433332Y-69453500D01*
X183497620Y-69506260D01*
X183715188Y-69684812D01*
X183946497Y-69966664D01*
X183946500Y-69966668D01*
X184118374Y-70288223D01*
X184224218Y-70637142D01*
X184251000Y-70909065D01*
X184251000Y-77490935D01*
X184224218Y-77762858D01*
X184118374Y-78111777D01*
X183946500Y-78433332D01*
X183946498Y-78433335D01*
X183946497Y-78433336D01*
X183715188Y-78715188D01*
X183433336Y-78946497D01*
X183433332Y-78946500D01*
X183111777Y-79118374D01*
X182762858Y-79224218D01*
X182400000Y-79259956D01*
X182037143Y-79224218D01*
X181688224Y-79118374D01*
X181366669Y-78946500D01*
X181366665Y-78946497D01*
X181084813Y-78715188D01*
X180853504Y-78433336D01*
X180853503Y-78433335D01*
X180853501Y-78433332D01*
X180681627Y-78111777D01*
X180575783Y-77762858D01*
X180549001Y-77490935D01*
X180549000Y-70909066D01*
X180575782Y-70637143D01*
X180681626Y-70288224D01*
X180853500Y-69966668D01*
X180906260Y-69902380D01*
X181084812Y-69684812D01*
X181366664Y-69453503D01*
X181366665Y-69453502D01*
X181366668Y-69453500D01*
X181688223Y-69281626D01*
X182037142Y-69175782D01*
X182400000Y-69140044D01*
X182762857Y-69175782D01*
G37*
G36*
X168362857Y-69175782D02*
G01*
X168711776Y-69281626D01*
X169033332Y-69453500D01*
X169097620Y-69506260D01*
X169315188Y-69684812D01*
X169546497Y-69966664D01*
X169546500Y-69966668D01*
X169718374Y-70288223D01*
X169824218Y-70637142D01*
X169851000Y-70909065D01*
X169851000Y-77490935D01*
X169824218Y-77762858D01*
X169718374Y-78111777D01*
X169546500Y-78433332D01*
X169546498Y-78433335D01*
X169546497Y-78433336D01*
X169315188Y-78715188D01*
X169033336Y-78946497D01*
X169033332Y-78946500D01*
X168711777Y-79118374D01*
X168362858Y-79224218D01*
X168000000Y-79259956D01*
X167637143Y-79224218D01*
X167288224Y-79118374D01*
X166966669Y-78946500D01*
X166966665Y-78946497D01*
X166684813Y-78715188D01*
X166453504Y-78433336D01*
X166453503Y-78433335D01*
X166453501Y-78433332D01*
X166281627Y-78111777D01*
X166175783Y-77762858D01*
X166149001Y-77490935D01*
X166149000Y-70909066D01*
X166175782Y-70637143D01*
X166281626Y-70288224D01*
X166453500Y-69966668D01*
X166506260Y-69902380D01*
X166684812Y-69684812D01*
X166966664Y-69453503D01*
X166966665Y-69453502D01*
X166966668Y-69453500D01*
X167288223Y-69281626D01*
X167637142Y-69175782D01*
X168000000Y-69140044D01*
X168362857Y-69175782D01*
G37*
G36*
X161162857Y-69175782D02*
G01*
X161511776Y-69281626D01*
X161833332Y-69453500D01*
X161897620Y-69506260D01*
X162115188Y-69684812D01*
X162346497Y-69966664D01*
X162346500Y-69966668D01*
X162518374Y-70288223D01*
X162624218Y-70637142D01*
X162651000Y-70909065D01*
X162651000Y-77490935D01*
X162624218Y-77762858D01*
X162518374Y-78111777D01*
X162346500Y-78433332D01*
X162346498Y-78433335D01*
X162346497Y-78433336D01*
X162115188Y-78715188D01*
X161833336Y-78946497D01*
X161833332Y-78946500D01*
X161511777Y-79118374D01*
X161162858Y-79224218D01*
X160800000Y-79259956D01*
X160437143Y-79224218D01*
X160088224Y-79118374D01*
X159766669Y-78946500D01*
X159766665Y-78946497D01*
X159484813Y-78715188D01*
X159253504Y-78433336D01*
X159253503Y-78433335D01*
X159253501Y-78433332D01*
X159081627Y-78111777D01*
X158975783Y-77762858D01*
X158949001Y-77490935D01*
X158949000Y-70909066D01*
X158975782Y-70637143D01*
X159081626Y-70288224D01*
X159253500Y-69966668D01*
X159306260Y-69902380D01*
X159484812Y-69684812D01*
X159766664Y-69453503D01*
X159766665Y-69453502D01*
X159766668Y-69453500D01*
X160088223Y-69281626D01*
X160437142Y-69175782D01*
X160800000Y-69140044D01*
X161162857Y-69175782D01*
G37*
G36*
X153962857Y-69175782D02*
G01*
X154311776Y-69281626D01*
X154633332Y-69453500D01*
X154697620Y-69506260D01*
X154915188Y-69684812D01*
X155146497Y-69966664D01*
X155146500Y-69966668D01*
X155318374Y-70288223D01*
X155424218Y-70637142D01*
X155451000Y-70909065D01*
X155451000Y-77490935D01*
X155424218Y-77762858D01*
X155318374Y-78111777D01*
X155146500Y-78433332D01*
X155146498Y-78433335D01*
X155146497Y-78433336D01*
X154915188Y-78715188D01*
X154633336Y-78946497D01*
X154633332Y-78946500D01*
X154311777Y-79118374D01*
X153962858Y-79224218D01*
X153600000Y-79259956D01*
X153237143Y-79224218D01*
X152888224Y-79118374D01*
X152566669Y-78946500D01*
X152566665Y-78946497D01*
X152284813Y-78715188D01*
X152053504Y-78433336D01*
X152053503Y-78433335D01*
X152053501Y-78433332D01*
X151881627Y-78111777D01*
X151775783Y-77762858D01*
X151749001Y-77490935D01*
X151749000Y-70909066D01*
X151775782Y-70637143D01*
X151881626Y-70288224D01*
X152053500Y-69966668D01*
X152106260Y-69902380D01*
X152284812Y-69684812D01*
X152566664Y-69453503D01*
X152566665Y-69453502D01*
X152566668Y-69453500D01*
X152888223Y-69281626D01*
X153237142Y-69175782D01*
X153600000Y-69140044D01*
X153962857Y-69175782D01*
G37*
G36*
X146762857Y-69175782D02*
G01*
X147111776Y-69281626D01*
X147433332Y-69453500D01*
X147497620Y-69506260D01*
X147715188Y-69684812D01*
X147946497Y-69966664D01*
X147946500Y-69966668D01*
X148118374Y-70288223D01*
X148224218Y-70637142D01*
X148251000Y-70909065D01*
X148251000Y-77490935D01*
X148224218Y-77762858D01*
X148118374Y-78111777D01*
X147946500Y-78433332D01*
X147946498Y-78433335D01*
X147946497Y-78433336D01*
X147715188Y-78715188D01*
X147433336Y-78946497D01*
X147433332Y-78946500D01*
X147111777Y-79118374D01*
X146762858Y-79224218D01*
X146400000Y-79259956D01*
X146037143Y-79224218D01*
X145688224Y-79118374D01*
X145366669Y-78946500D01*
X145366665Y-78946497D01*
X145084813Y-78715188D01*
X144853504Y-78433336D01*
X144853503Y-78433335D01*
X144853501Y-78433332D01*
X144681627Y-78111777D01*
X144575783Y-77762858D01*
X144549001Y-77490935D01*
X144549000Y-70909066D01*
X144575782Y-70637143D01*
X144681626Y-70288224D01*
X144853500Y-69966668D01*
X144906260Y-69902380D01*
X145084812Y-69684812D01*
X145366664Y-69453503D01*
X145366665Y-69453502D01*
X145366668Y-69453500D01*
X145688223Y-69281626D01*
X146037142Y-69175782D01*
X146400000Y-69140044D01*
X146762857Y-69175782D01*
G37*
G36*
X139562857Y-69175782D02*
G01*
X139911776Y-69281626D01*
X140233332Y-69453500D01*
X140297620Y-69506260D01*
X140515188Y-69684812D01*
X140746497Y-69966664D01*
X140746500Y-69966668D01*
X140918374Y-70288223D01*
X141024218Y-70637142D01*
X141051000Y-70909065D01*
X141051000Y-77490935D01*
X141024218Y-77762858D01*
X140918374Y-78111777D01*
X140746500Y-78433332D01*
X140746498Y-78433335D01*
X140746497Y-78433336D01*
X140515188Y-78715188D01*
X140233336Y-78946497D01*
X140233332Y-78946500D01*
X139911777Y-79118374D01*
X139562858Y-79224218D01*
X139200000Y-79259956D01*
X138837143Y-79224218D01*
X138488224Y-79118374D01*
X138166669Y-78946500D01*
X138166665Y-78946497D01*
X137884813Y-78715188D01*
X137653504Y-78433336D01*
X137653503Y-78433335D01*
X137653501Y-78433332D01*
X137481627Y-78111777D01*
X137375783Y-77762858D01*
X137349001Y-77490935D01*
X137349000Y-70909066D01*
X137375782Y-70637143D01*
X137481626Y-70288224D01*
X137653500Y-69966668D01*
X137706260Y-69902380D01*
X137884812Y-69684812D01*
X138166664Y-69453503D01*
X138166665Y-69453502D01*
X138166668Y-69453500D01*
X138488223Y-69281626D01*
X138837142Y-69175782D01*
X139200000Y-69140044D01*
X139562857Y-69175782D01*
G37*
G36*
X132362857Y-69175782D02*
G01*
X132711776Y-69281626D01*
X133033332Y-69453500D01*
X133097620Y-69506260D01*
X133315188Y-69684812D01*
X133546497Y-69966664D01*
X133546500Y-69966668D01*
X133718374Y-70288223D01*
X133824218Y-70637142D01*
X133851000Y-70909065D01*
X133851000Y-77490935D01*
X133824218Y-77762858D01*
X133718374Y-78111777D01*
X133546500Y-78433332D01*
X133546498Y-78433335D01*
X133546497Y-78433336D01*
X133315188Y-78715188D01*
X133033336Y-78946497D01*
X133033332Y-78946500D01*
X132711777Y-79118374D01*
X132362858Y-79224218D01*
X132000000Y-79259956D01*
X131637143Y-79224218D01*
X131288224Y-79118374D01*
X130966669Y-78946500D01*
X130966665Y-78946497D01*
X130684813Y-78715188D01*
X130453504Y-78433336D01*
X130453503Y-78433335D01*
X130453501Y-78433332D01*
X130281627Y-78111777D01*
X130175783Y-77762858D01*
X130149001Y-77490935D01*
X130149000Y-70909066D01*
X130175782Y-70637143D01*
X130281626Y-70288224D01*
X130453500Y-69966668D01*
X130506260Y-69902380D01*
X130684812Y-69684812D01*
X130966664Y-69453503D01*
X130966665Y-69453502D01*
X130966668Y-69453500D01*
X131288223Y-69281626D01*
X131637142Y-69175782D01*
X132000000Y-69140044D01*
X132362857Y-69175782D01*
G37*
G36*
X125162857Y-69175782D02*
G01*
X125511776Y-69281626D01*
X125833332Y-69453500D01*
X125897620Y-69506260D01*
X126115188Y-69684812D01*
X126346497Y-69966664D01*
X126346500Y-69966668D01*
X126518374Y-70288223D01*
X126624218Y-70637142D01*
X126651000Y-70909065D01*
X126651000Y-77490935D01*
X126624218Y-77762858D01*
X126518374Y-78111777D01*
X126346500Y-78433332D01*
X126346498Y-78433335D01*
X126346497Y-78433336D01*
X126115188Y-78715188D01*
X125833336Y-78946497D01*
X125833332Y-78946500D01*
X125511777Y-79118374D01*
X125162858Y-79224218D01*
X124800000Y-79259956D01*
X124437143Y-79224218D01*
X124088224Y-79118374D01*
X123766669Y-78946500D01*
X123766665Y-78946497D01*
X123484813Y-78715188D01*
X123253504Y-78433336D01*
X123253503Y-78433335D01*
X123253501Y-78433332D01*
X123081627Y-78111777D01*
X122975783Y-77762858D01*
X122949001Y-77490935D01*
X122949000Y-70909066D01*
X122975782Y-70637143D01*
X123081626Y-70288224D01*
X123253500Y-69966668D01*
X123306260Y-69902380D01*
X123484812Y-69684812D01*
X123766664Y-69453503D01*
X123766665Y-69453502D01*
X123766668Y-69453500D01*
X124088223Y-69281626D01*
X124437142Y-69175782D01*
X124800000Y-69140044D01*
X125162857Y-69175782D01*
G37*
G36*
X117962857Y-69175782D02*
G01*
X118311776Y-69281626D01*
X118633332Y-69453500D01*
X118697620Y-69506260D01*
X118915188Y-69684812D01*
X119146497Y-69966664D01*
X119146500Y-69966668D01*
X119318374Y-70288223D01*
X119424218Y-70637142D01*
X119451000Y-70909065D01*
X119451000Y-77490935D01*
X119424218Y-77762858D01*
X119318374Y-78111777D01*
X119146500Y-78433332D01*
X119146498Y-78433335D01*
X119146497Y-78433336D01*
X118915188Y-78715188D01*
X118633336Y-78946497D01*
X118633332Y-78946500D01*
X118311777Y-79118374D01*
X117962858Y-79224218D01*
X117600000Y-79259956D01*
X117237143Y-79224218D01*
X116888224Y-79118374D01*
X116566669Y-78946500D01*
X116566665Y-78946497D01*
X116284813Y-78715188D01*
X116053504Y-78433336D01*
X116053503Y-78433335D01*
X116053501Y-78433332D01*
X115881627Y-78111777D01*
X115775783Y-77762858D01*
X115749001Y-77490935D01*
X115749000Y-70909066D01*
X115775782Y-70637143D01*
X115881626Y-70288224D01*
X116053500Y-69966668D01*
X116106260Y-69902380D01*
X116284812Y-69684812D01*
X116566664Y-69453503D01*
X116566665Y-69453502D01*
X116566668Y-69453500D01*
X116888223Y-69281626D01*
X117237142Y-69175782D01*
X117600000Y-69140044D01*
X117962857Y-69175782D01*
G37*
G36*
X110762857Y-69175782D02*
G01*
X111111776Y-69281626D01*
X111433332Y-69453500D01*
X111497620Y-69506260D01*
X111715188Y-69684812D01*
X111946497Y-69966664D01*
X111946500Y-69966668D01*
X112118374Y-70288223D01*
X112224218Y-70637142D01*
X112251000Y-70909065D01*
X112251000Y-77490935D01*
X112224218Y-77762858D01*
X112118374Y-78111777D01*
X111946500Y-78433332D01*
X111946498Y-78433335D01*
X111946497Y-78433336D01*
X111715188Y-78715188D01*
X111433336Y-78946497D01*
X111433332Y-78946500D01*
X111111777Y-79118374D01*
X110762858Y-79224218D01*
X110400000Y-79259956D01*
X110037143Y-79224218D01*
X109688224Y-79118374D01*
X109366669Y-78946500D01*
X109366665Y-78946497D01*
X109084813Y-78715188D01*
X108853504Y-78433336D01*
X108853503Y-78433335D01*
X108853501Y-78433332D01*
X108681627Y-78111777D01*
X108575783Y-77762858D01*
X108549001Y-77490935D01*
X108549000Y-70909066D01*
X108575782Y-70637143D01*
X108681626Y-70288224D01*
X108853500Y-69966668D01*
X108906260Y-69902380D01*
X109084812Y-69684812D01*
X109366664Y-69453503D01*
X109366665Y-69453502D01*
X109366668Y-69453500D01*
X109688223Y-69281626D01*
X110037142Y-69175782D01*
X110400000Y-69140044D01*
X110762857Y-69175782D01*
G37*
G36*
X103562857Y-69175782D02*
G01*
X103911776Y-69281626D01*
X104233332Y-69453500D01*
X104297620Y-69506260D01*
X104515188Y-69684812D01*
X104746497Y-69966664D01*
X104746500Y-69966668D01*
X104918374Y-70288223D01*
X105024218Y-70637142D01*
X105051000Y-70909065D01*
X105051000Y-77490935D01*
X105024218Y-77762858D01*
X104918374Y-78111777D01*
X104746500Y-78433332D01*
X104746498Y-78433335D01*
X104746497Y-78433336D01*
X104515188Y-78715188D01*
X104233336Y-78946497D01*
X104233332Y-78946500D01*
X103911777Y-79118374D01*
X103562858Y-79224218D01*
X103200000Y-79259956D01*
X102837143Y-79224218D01*
X102488224Y-79118374D01*
X102166669Y-78946500D01*
X102166665Y-78946497D01*
X101884813Y-78715188D01*
X101653504Y-78433336D01*
X101653503Y-78433335D01*
X101653501Y-78433332D01*
X101481627Y-78111777D01*
X101375783Y-77762858D01*
X101349001Y-77490935D01*
X101349000Y-70909066D01*
X101375782Y-70637143D01*
X101481626Y-70288224D01*
X101653500Y-69966668D01*
X101706260Y-69902380D01*
X101884812Y-69684812D01*
X102166664Y-69453503D01*
X102166665Y-69453502D01*
X102166668Y-69453500D01*
X102488223Y-69281626D01*
X102837142Y-69175782D01*
X103200000Y-69140044D01*
X103562857Y-69175782D01*
G37*
M02*
