G04 #@! TF.GenerationSoftware,KiCad,Pcbnew,(5.1.5-0)*
G04 #@! TF.CreationDate,2020-06-12T16:51:45+02:00*
G04 #@! TF.ProjectId,Divider2,44697669-6465-4723-922e-6b696361645f,rev?*
G04 #@! TF.SameCoordinates,Original*
G04 #@! TF.FileFunction,Legend,Top*
G04 #@! TF.FilePolarity,Positive*
%FSLAX46Y46*%
G04 Gerber Fmt 4.6, Leading zero omitted, Abs format (unit mm)*
G04 Created by KiCad (PCBNEW (5.1.5-0)) date 2020-06-12 16:51:45*
%MOMM*%
%LPD*%
G04 APERTURE LIST*
%ADD10C,0.150000*%
%ADD11C,0.120000*%
G04 APERTURE END LIST*
D10*
X193466666Y-79366666D02*
X193466666Y-78890476D01*
X193752380Y-79461904D02*
X192752380Y-79128571D01*
X193752380Y-78795238D01*
X193752380Y-78461904D02*
X192752380Y-78461904D01*
X192752380Y-78080952D01*
X192800000Y-77985714D01*
X192847619Y-77938095D01*
X192942857Y-77890476D01*
X193085714Y-77890476D01*
X193180952Y-77938095D01*
X193228571Y-77985714D01*
X193276190Y-78080952D01*
X193276190Y-78461904D01*
X193228571Y-77461904D02*
X193228571Y-77128571D01*
X193752380Y-76985714D02*
X193752380Y-77461904D01*
X192752380Y-77461904D01*
X192752380Y-76985714D01*
X193752380Y-75985714D02*
X193276190Y-76319047D01*
X193752380Y-76557142D02*
X192752380Y-76557142D01*
X192752380Y-76176190D01*
X192800000Y-76080952D01*
X192847619Y-76033333D01*
X192942857Y-75985714D01*
X193085714Y-75985714D01*
X193180952Y-76033333D01*
X193228571Y-76080952D01*
X193276190Y-76176190D01*
X193276190Y-76557142D01*
X192752380Y-75700000D02*
X192752380Y-75128571D01*
X193752380Y-75414285D02*
X192752380Y-75414285D01*
X192752380Y-74795238D02*
X193561904Y-74795238D01*
X193657142Y-74747619D01*
X193704761Y-74700000D01*
X193752380Y-74604761D01*
X193752380Y-74414285D01*
X193704761Y-74319047D01*
X193657142Y-74271428D01*
X193561904Y-74223809D01*
X192752380Y-74223809D01*
X193752380Y-73176190D02*
X193276190Y-73509523D01*
X193752380Y-73747619D02*
X192752380Y-73747619D01*
X192752380Y-73366666D01*
X192800000Y-73271428D01*
X192847619Y-73223809D01*
X192942857Y-73176190D01*
X193085714Y-73176190D01*
X193180952Y-73223809D01*
X193228571Y-73271428D01*
X193276190Y-73366666D01*
X193276190Y-73747619D01*
X193228571Y-72747619D02*
X193228571Y-72414285D01*
X193752380Y-72271428D02*
X193752380Y-72747619D01*
X192752380Y-72747619D01*
X192752380Y-72271428D01*
X192800000Y-70557142D02*
X192752380Y-70652380D01*
X192752380Y-70795238D01*
X192800000Y-70938095D01*
X192895238Y-71033333D01*
X192990476Y-71080952D01*
X193180952Y-71128571D01*
X193323809Y-71128571D01*
X193514285Y-71080952D01*
X193609523Y-71033333D01*
X193704761Y-70938095D01*
X193752380Y-70795238D01*
X193752380Y-70700000D01*
X193704761Y-70557142D01*
X193657142Y-70509523D01*
X193323809Y-70509523D01*
X193323809Y-70700000D01*
X193752380Y-69509523D02*
X193276190Y-69842857D01*
X193752380Y-70080952D02*
X192752380Y-70080952D01*
X192752380Y-69700000D01*
X192800000Y-69604761D01*
X192847619Y-69557142D01*
X192942857Y-69509523D01*
X193085714Y-69509523D01*
X193180952Y-69557142D01*
X193228571Y-69604761D01*
X193276190Y-69700000D01*
X193276190Y-70080952D01*
X193752380Y-69080952D02*
X192752380Y-69080952D01*
X193752380Y-68604761D02*
X192752380Y-68604761D01*
X192752380Y-68366666D01*
X192800000Y-68223809D01*
X192895238Y-68128571D01*
X192990476Y-68080952D01*
X193180952Y-68033333D01*
X193323809Y-68033333D01*
X193514285Y-68080952D01*
X193609523Y-68128571D01*
X193704761Y-68223809D01*
X193752380Y-68366666D01*
X193752380Y-68604761D01*
X98100000Y-79595238D02*
X98052380Y-79690476D01*
X98052380Y-79833333D01*
X98100000Y-79976190D01*
X98195238Y-80071428D01*
X98290476Y-80119047D01*
X98480952Y-80166666D01*
X98623809Y-80166666D01*
X98814285Y-80119047D01*
X98909523Y-80071428D01*
X99004761Y-79976190D01*
X99052380Y-79833333D01*
X99052380Y-79738095D01*
X99004761Y-79595238D01*
X98957142Y-79547619D01*
X98623809Y-79547619D01*
X98623809Y-79738095D01*
X99052380Y-78547619D02*
X98576190Y-78880952D01*
X99052380Y-79119047D02*
X98052380Y-79119047D01*
X98052380Y-78738095D01*
X98100000Y-78642857D01*
X98147619Y-78595238D01*
X98242857Y-78547619D01*
X98385714Y-78547619D01*
X98480952Y-78595238D01*
X98528571Y-78642857D01*
X98576190Y-78738095D01*
X98576190Y-79119047D01*
X99052380Y-78119047D02*
X98052380Y-78119047D01*
X99052380Y-77642857D02*
X98052380Y-77642857D01*
X98052380Y-77404761D01*
X98100000Y-77261904D01*
X98195238Y-77166666D01*
X98290476Y-77119047D01*
X98480952Y-77071428D01*
X98623809Y-77071428D01*
X98814285Y-77119047D01*
X98909523Y-77166666D01*
X99004761Y-77261904D01*
X99052380Y-77404761D01*
X99052380Y-77642857D01*
X99004761Y-75928571D02*
X99052380Y-75785714D01*
X99052380Y-75547619D01*
X99004761Y-75452380D01*
X98957142Y-75404761D01*
X98861904Y-75357142D01*
X98766666Y-75357142D01*
X98671428Y-75404761D01*
X98623809Y-75452380D01*
X98576190Y-75547619D01*
X98528571Y-75738095D01*
X98480952Y-75833333D01*
X98433333Y-75880952D01*
X98338095Y-75928571D01*
X98242857Y-75928571D01*
X98147619Y-75880952D01*
X98100000Y-75833333D01*
X98052380Y-75738095D01*
X98052380Y-75500000D01*
X98100000Y-75357142D01*
X99052380Y-74928571D02*
X98052380Y-74928571D01*
X98528571Y-74928571D02*
X98528571Y-74357142D01*
X99052380Y-74357142D02*
X98052380Y-74357142D01*
X98052380Y-73880952D02*
X98861904Y-73880952D01*
X98957142Y-73833333D01*
X99004761Y-73785714D01*
X99052380Y-73690476D01*
X99052380Y-73500000D01*
X99004761Y-73404761D01*
X98957142Y-73357142D01*
X98861904Y-73309523D01*
X98052380Y-73309523D01*
X98052380Y-72976190D02*
X98052380Y-72404761D01*
X99052380Y-72690476D02*
X98052380Y-72690476D01*
X98052380Y-72214285D02*
X98052380Y-71642857D01*
X99052380Y-71928571D02*
X98052380Y-71928571D01*
X98528571Y-71309523D02*
X98528571Y-70976190D01*
X99052380Y-70833333D02*
X99052380Y-71309523D01*
X98052380Y-71309523D01*
X98052380Y-70833333D01*
X99052380Y-69833333D02*
X98576190Y-70166666D01*
X99052380Y-70404761D02*
X98052380Y-70404761D01*
X98052380Y-70023809D01*
X98100000Y-69928571D01*
X98147619Y-69880952D01*
X98242857Y-69833333D01*
X98385714Y-69833333D01*
X98480952Y-69880952D01*
X98528571Y-69928571D01*
X98576190Y-70023809D01*
X98576190Y-70404761D01*
D11*
X100400000Y-110300000D02*
G75*
G02X98800000Y-110300000I-800000J0D01*
G01*
X98800000Y-108300000D02*
G75*
G02X100400000Y-108300000I800000J0D01*
G01*
X100400000Y-108300000D02*
X100400000Y-110300000D01*
X98800000Y-110300000D02*
X98800000Y-108300000D01*
X100851000Y-100600000D02*
G75*
G03X100851000Y-100600000I-1251000J0D01*
G01*
X194451000Y-81800000D02*
G75*
G03X194451000Y-81800000I-1251000J0D01*
G01*
X192290000Y-95097936D02*
X192290000Y-96302064D01*
X194110000Y-95097936D02*
X194110000Y-96302064D01*
X194000000Y-110200000D02*
G75*
G02X192400000Y-110200000I-800000J0D01*
G01*
X192400000Y-108200000D02*
G75*
G02X194000000Y-108200000I800000J0D01*
G01*
X194000000Y-108200000D02*
X194000000Y-110200000D01*
X192400000Y-110200000D02*
X192400000Y-108200000D01*
X186800000Y-110300000D02*
G75*
G02X185200000Y-110300000I-800000J0D01*
G01*
X185200000Y-108300000D02*
G75*
G02X186800000Y-108300000I800000J0D01*
G01*
X186800000Y-108300000D02*
X186800000Y-110300000D01*
X185200000Y-110300000D02*
X185200000Y-108300000D01*
X179600000Y-110300000D02*
G75*
G02X178000000Y-110300000I-800000J0D01*
G01*
X178000000Y-108300000D02*
G75*
G02X179600000Y-108300000I800000J0D01*
G01*
X179600000Y-108300000D02*
X179600000Y-110300000D01*
X178000000Y-110300000D02*
X178000000Y-108300000D01*
X172400000Y-110300000D02*
G75*
G02X170800000Y-110300000I-800000J0D01*
G01*
X170800000Y-108300000D02*
G75*
G02X172400000Y-108300000I800000J0D01*
G01*
X172400000Y-108300000D02*
X172400000Y-110300000D01*
X170800000Y-110300000D02*
X170800000Y-108300000D01*
X165200000Y-110300000D02*
G75*
G02X163600000Y-110300000I-800000J0D01*
G01*
X163600000Y-108300000D02*
G75*
G02X165200000Y-108300000I800000J0D01*
G01*
X165200000Y-108300000D02*
X165200000Y-110300000D01*
X163600000Y-110300000D02*
X163600000Y-108300000D01*
X158000000Y-110300000D02*
G75*
G02X156400000Y-110300000I-800000J0D01*
G01*
X156400000Y-108300000D02*
G75*
G02X158000000Y-108300000I800000J0D01*
G01*
X158000000Y-108300000D02*
X158000000Y-110300000D01*
X156400000Y-110300000D02*
X156400000Y-108300000D01*
X150800000Y-110300000D02*
G75*
G02X149200000Y-110300000I-800000J0D01*
G01*
X149200000Y-108300000D02*
G75*
G02X150800000Y-108300000I800000J0D01*
G01*
X150800000Y-108300000D02*
X150800000Y-110300000D01*
X149200000Y-110300000D02*
X149200000Y-108300000D01*
X143600000Y-110300000D02*
G75*
G02X142000000Y-110300000I-800000J0D01*
G01*
X142000000Y-108300000D02*
G75*
G02X143600000Y-108300000I800000J0D01*
G01*
X143600000Y-108300000D02*
X143600000Y-110300000D01*
X142000000Y-110300000D02*
X142000000Y-108300000D01*
X136400000Y-110300000D02*
G75*
G02X134800000Y-110300000I-800000J0D01*
G01*
X134800000Y-108300000D02*
G75*
G02X136400000Y-108300000I800000J0D01*
G01*
X136400000Y-108300000D02*
X136400000Y-110300000D01*
X134800000Y-110300000D02*
X134800000Y-108300000D01*
X129200000Y-110300000D02*
G75*
G02X127600000Y-110300000I-800000J0D01*
G01*
X127600000Y-108300000D02*
G75*
G02X129200000Y-108300000I800000J0D01*
G01*
X129200000Y-108300000D02*
X129200000Y-110300000D01*
X127600000Y-110300000D02*
X127600000Y-108300000D01*
X122000000Y-110300000D02*
G75*
G02X120400000Y-110300000I-800000J0D01*
G01*
X120400000Y-108300000D02*
G75*
G02X122000000Y-108300000I800000J0D01*
G01*
X122000000Y-108300000D02*
X122000000Y-110300000D01*
X120400000Y-110300000D02*
X120400000Y-108300000D01*
X114800000Y-110300000D02*
G75*
G02X113200000Y-110300000I-800000J0D01*
G01*
X113200000Y-108300000D02*
G75*
G02X114800000Y-108300000I800000J0D01*
G01*
X114800000Y-108300000D02*
X114800000Y-110300000D01*
X113200000Y-110300000D02*
X113200000Y-108300000D01*
X107600000Y-110300000D02*
G75*
G02X106000000Y-110300000I-800000J0D01*
G01*
X106000000Y-108300000D02*
G75*
G02X107600000Y-108300000I800000J0D01*
G01*
X107600000Y-108300000D02*
X107600000Y-110300000D01*
X106000000Y-110300000D02*
X106000000Y-108300000D01*
X190400000Y-75300000D02*
G75*
G02X188800000Y-75300000I-800000J0D01*
G01*
X188800000Y-73300000D02*
G75*
G02X190400000Y-73300000I800000J0D01*
G01*
X190400000Y-73300000D02*
X190400000Y-75300000D01*
X188800000Y-75300000D02*
X188800000Y-73300000D01*
X183200000Y-75300000D02*
G75*
G02X181600000Y-75300000I-800000J0D01*
G01*
X181600000Y-73300000D02*
G75*
G02X183200000Y-73300000I800000J0D01*
G01*
X183200000Y-73300000D02*
X183200000Y-75300000D01*
X181600000Y-75300000D02*
X181600000Y-73300000D01*
X168800000Y-75300000D02*
G75*
G02X167200000Y-75300000I-800000J0D01*
G01*
X167200000Y-73300000D02*
G75*
G02X168800000Y-73300000I800000J0D01*
G01*
X168800000Y-73300000D02*
X168800000Y-75300000D01*
X167200000Y-75300000D02*
X167200000Y-73300000D01*
X161600000Y-75300000D02*
G75*
G02X160000000Y-75300000I-800000J0D01*
G01*
X160000000Y-73300000D02*
G75*
G02X161600000Y-73300000I800000J0D01*
G01*
X161600000Y-73300000D02*
X161600000Y-75300000D01*
X160000000Y-75300000D02*
X160000000Y-73300000D01*
X154400000Y-75300000D02*
G75*
G02X152800000Y-75300000I-800000J0D01*
G01*
X152800000Y-73300000D02*
G75*
G02X154400000Y-73300000I800000J0D01*
G01*
X154400000Y-73300000D02*
X154400000Y-75300000D01*
X152800000Y-75300000D02*
X152800000Y-73300000D01*
X147200000Y-75300000D02*
G75*
G02X145600000Y-75300000I-800000J0D01*
G01*
X145600000Y-73300000D02*
G75*
G02X147200000Y-73300000I800000J0D01*
G01*
X147200000Y-73300000D02*
X147200000Y-75300000D01*
X145600000Y-75300000D02*
X145600000Y-73300000D01*
X140000000Y-75300000D02*
G75*
G02X138400000Y-75300000I-800000J0D01*
G01*
X138400000Y-73300000D02*
G75*
G02X140000000Y-73300000I800000J0D01*
G01*
X140000000Y-73300000D02*
X140000000Y-75300000D01*
X138400000Y-75300000D02*
X138400000Y-73300000D01*
X132800000Y-75300000D02*
G75*
G02X131200000Y-75300000I-800000J0D01*
G01*
X131200000Y-73300000D02*
G75*
G02X132800000Y-73300000I800000J0D01*
G01*
X132800000Y-73300000D02*
X132800000Y-75300000D01*
X131200000Y-75300000D02*
X131200000Y-73300000D01*
X125600000Y-75300000D02*
G75*
G02X124000000Y-75300000I-800000J0D01*
G01*
X124000000Y-73300000D02*
G75*
G02X125600000Y-73300000I800000J0D01*
G01*
X125600000Y-73300000D02*
X125600000Y-75300000D01*
X124000000Y-75300000D02*
X124000000Y-73300000D01*
X118400000Y-75300000D02*
G75*
G02X116800000Y-75300000I-800000J0D01*
G01*
X116800000Y-73300000D02*
G75*
G02X118400000Y-73300000I800000J0D01*
G01*
X118400000Y-73300000D02*
X118400000Y-75300000D01*
X116800000Y-75300000D02*
X116800000Y-73300000D01*
X111200000Y-75300000D02*
G75*
G02X109600000Y-75300000I-800000J0D01*
G01*
X109600000Y-73300000D02*
G75*
G02X111200000Y-73300000I800000J0D01*
G01*
X111200000Y-73300000D02*
X111200000Y-75300000D01*
X109600000Y-75300000D02*
X109600000Y-73300000D01*
X104000000Y-75300000D02*
G75*
G02X102400000Y-75300000I-800000J0D01*
G01*
X102400000Y-73300000D02*
G75*
G02X104000000Y-73300000I800000J0D01*
G01*
X104000000Y-73300000D02*
X104000000Y-75300000D01*
X102400000Y-75300000D02*
X102400000Y-73300000D01*
X176000000Y-75300000D02*
G75*
G02X174400000Y-75300000I-800000J0D01*
G01*
X174400000Y-73300000D02*
G75*
G02X176000000Y-73300000I800000J0D01*
G01*
X176000000Y-73300000D02*
X176000000Y-75300000D01*
X174400000Y-75300000D02*
X174400000Y-73300000D01*
X188690000Y-87097936D02*
X188690000Y-88302064D01*
X190510000Y-87097936D02*
X190510000Y-88302064D01*
X181490000Y-87097936D02*
X181490000Y-88302064D01*
X183310000Y-87097936D02*
X183310000Y-88302064D01*
X174290000Y-87097936D02*
X174290000Y-88302064D01*
X176110000Y-87097936D02*
X176110000Y-88302064D01*
X167090000Y-87097936D02*
X167090000Y-88302064D01*
X168910000Y-87097936D02*
X168910000Y-88302064D01*
X159890000Y-87097936D02*
X159890000Y-88302064D01*
X161710000Y-87097936D02*
X161710000Y-88302064D01*
X152690000Y-87097936D02*
X152690000Y-88302064D01*
X154510000Y-87097936D02*
X154510000Y-88302064D01*
X145490000Y-87097936D02*
X145490000Y-88302064D01*
X147310000Y-87097936D02*
X147310000Y-88302064D01*
X138290000Y-87097936D02*
X138290000Y-88302064D01*
X140110000Y-87097936D02*
X140110000Y-88302064D01*
X131090000Y-87097936D02*
X131090000Y-88302064D01*
X132910000Y-87097936D02*
X132910000Y-88302064D01*
X123890000Y-87097936D02*
X123890000Y-88302064D01*
X125710000Y-87097936D02*
X125710000Y-88302064D01*
X116690000Y-87097936D02*
X116690000Y-88302064D01*
X118510000Y-87097936D02*
X118510000Y-88302064D01*
X109490000Y-87097936D02*
X109490000Y-88302064D01*
X111310000Y-87097936D02*
X111310000Y-88302064D01*
X102290000Y-87097936D02*
X102290000Y-88302064D01*
X104110000Y-87097936D02*
X104110000Y-88302064D01*
X186910000Y-95097936D02*
X186910000Y-96302064D01*
X185090000Y-95097936D02*
X185090000Y-96302064D01*
X177890000Y-95097936D02*
X177890000Y-96302064D01*
X179710000Y-95097936D02*
X179710000Y-96302064D01*
X170690000Y-95097936D02*
X170690000Y-96302064D01*
X172510000Y-95097936D02*
X172510000Y-96302064D01*
X163490000Y-95097936D02*
X163490000Y-96302064D01*
X165310000Y-95097936D02*
X165310000Y-96302064D01*
X156290000Y-95097936D02*
X156290000Y-96302064D01*
X158110000Y-95097936D02*
X158110000Y-96302064D01*
X149090000Y-95097936D02*
X149090000Y-96302064D01*
X150910000Y-95097936D02*
X150910000Y-96302064D01*
X141890000Y-95097936D02*
X141890000Y-96302064D01*
X143710000Y-95097936D02*
X143710000Y-96302064D01*
X134690000Y-95097936D02*
X134690000Y-96302064D01*
X136510000Y-95097936D02*
X136510000Y-96302064D01*
X127490000Y-95097936D02*
X127490000Y-96302064D01*
X129310000Y-95097936D02*
X129310000Y-96302064D01*
X120290000Y-95097936D02*
X120290000Y-96302064D01*
X122110000Y-95097936D02*
X122110000Y-96302064D01*
X113090000Y-95097936D02*
X113090000Y-96302064D01*
X114910000Y-95097936D02*
X114910000Y-96302064D01*
X105890000Y-95097936D02*
X105890000Y-96302064D01*
X107710000Y-95097936D02*
X107710000Y-96302064D01*
X98690000Y-95097936D02*
X98690000Y-96302064D01*
X100510000Y-95097936D02*
X100510000Y-96302064D01*
D10*
X99266666Y-102302380D02*
X99266666Y-103016666D01*
X99219047Y-103159523D01*
X99123809Y-103254761D01*
X98980952Y-103302380D01*
X98885714Y-103302380D01*
X100266666Y-103302380D02*
X99695238Y-103302380D01*
X99980952Y-103302380D02*
X99980952Y-102302380D01*
X99885714Y-102445238D01*
X99790476Y-102540476D01*
X99695238Y-102588095D01*
X192866666Y-83502380D02*
X192866666Y-84216666D01*
X192819047Y-84359523D01*
X192723809Y-84454761D01*
X192580952Y-84502380D01*
X192485714Y-84502380D01*
X193295238Y-83597619D02*
X193342857Y-83550000D01*
X193438095Y-83502380D01*
X193676190Y-83502380D01*
X193771428Y-83550000D01*
X193819047Y-83597619D01*
X193866666Y-83692857D01*
X193866666Y-83788095D01*
X193819047Y-83930952D01*
X193247619Y-84502380D01*
X193866666Y-84502380D01*
X195472380Y-96342857D02*
X194996190Y-96676190D01*
X195472380Y-96914285D02*
X194472380Y-96914285D01*
X194472380Y-96533333D01*
X194520000Y-96438095D01*
X194567619Y-96390476D01*
X194662857Y-96342857D01*
X194805714Y-96342857D01*
X194900952Y-96390476D01*
X194948571Y-96438095D01*
X194996190Y-96533333D01*
X194996190Y-96914285D01*
X194567619Y-95961904D02*
X194520000Y-95914285D01*
X194472380Y-95819047D01*
X194472380Y-95580952D01*
X194520000Y-95485714D01*
X194567619Y-95438095D01*
X194662857Y-95390476D01*
X194758095Y-95390476D01*
X194900952Y-95438095D01*
X195472380Y-96009523D01*
X195472380Y-95390476D01*
X194472380Y-95057142D02*
X194472380Y-94390476D01*
X195472380Y-94819047D01*
X191872380Y-88342857D02*
X191396190Y-88676190D01*
X191872380Y-88914285D02*
X190872380Y-88914285D01*
X190872380Y-88533333D01*
X190920000Y-88438095D01*
X190967619Y-88390476D01*
X191062857Y-88342857D01*
X191205714Y-88342857D01*
X191300952Y-88390476D01*
X191348571Y-88438095D01*
X191396190Y-88533333D01*
X191396190Y-88914285D01*
X190967619Y-87961904D02*
X190920000Y-87914285D01*
X190872380Y-87819047D01*
X190872380Y-87580952D01*
X190920000Y-87485714D01*
X190967619Y-87438095D01*
X191062857Y-87390476D01*
X191158095Y-87390476D01*
X191300952Y-87438095D01*
X191872380Y-88009523D01*
X191872380Y-87390476D01*
X190872380Y-86533333D02*
X190872380Y-86723809D01*
X190920000Y-86819047D01*
X190967619Y-86866666D01*
X191110476Y-86961904D01*
X191300952Y-87009523D01*
X191681904Y-87009523D01*
X191777142Y-86961904D01*
X191824761Y-86914285D01*
X191872380Y-86819047D01*
X191872380Y-86628571D01*
X191824761Y-86533333D01*
X191777142Y-86485714D01*
X191681904Y-86438095D01*
X191443809Y-86438095D01*
X191348571Y-86485714D01*
X191300952Y-86533333D01*
X191253333Y-86628571D01*
X191253333Y-86819047D01*
X191300952Y-86914285D01*
X191348571Y-86961904D01*
X191443809Y-87009523D01*
X184672380Y-88342857D02*
X184196190Y-88676190D01*
X184672380Y-88914285D02*
X183672380Y-88914285D01*
X183672380Y-88533333D01*
X183720000Y-88438095D01*
X183767619Y-88390476D01*
X183862857Y-88342857D01*
X184005714Y-88342857D01*
X184100952Y-88390476D01*
X184148571Y-88438095D01*
X184196190Y-88533333D01*
X184196190Y-88914285D01*
X183767619Y-87961904D02*
X183720000Y-87914285D01*
X183672380Y-87819047D01*
X183672380Y-87580952D01*
X183720000Y-87485714D01*
X183767619Y-87438095D01*
X183862857Y-87390476D01*
X183958095Y-87390476D01*
X184100952Y-87438095D01*
X184672380Y-88009523D01*
X184672380Y-87390476D01*
X184005714Y-86533333D02*
X184672380Y-86533333D01*
X183624761Y-86771428D02*
X184339047Y-87009523D01*
X184339047Y-86390476D01*
X177472380Y-88342857D02*
X176996190Y-88676190D01*
X177472380Y-88914285D02*
X176472380Y-88914285D01*
X176472380Y-88533333D01*
X176520000Y-88438095D01*
X176567619Y-88390476D01*
X176662857Y-88342857D01*
X176805714Y-88342857D01*
X176900952Y-88390476D01*
X176948571Y-88438095D01*
X176996190Y-88533333D01*
X176996190Y-88914285D01*
X176567619Y-87961904D02*
X176520000Y-87914285D01*
X176472380Y-87819047D01*
X176472380Y-87580952D01*
X176520000Y-87485714D01*
X176567619Y-87438095D01*
X176662857Y-87390476D01*
X176758095Y-87390476D01*
X176900952Y-87438095D01*
X177472380Y-88009523D01*
X177472380Y-87390476D01*
X176567619Y-87009523D02*
X176520000Y-86961904D01*
X176472380Y-86866666D01*
X176472380Y-86628571D01*
X176520000Y-86533333D01*
X176567619Y-86485714D01*
X176662857Y-86438095D01*
X176758095Y-86438095D01*
X176900952Y-86485714D01*
X177472380Y-87057142D01*
X177472380Y-86438095D01*
X170272380Y-88342857D02*
X169796190Y-88676190D01*
X170272380Y-88914285D02*
X169272380Y-88914285D01*
X169272380Y-88533333D01*
X169320000Y-88438095D01*
X169367619Y-88390476D01*
X169462857Y-88342857D01*
X169605714Y-88342857D01*
X169700952Y-88390476D01*
X169748571Y-88438095D01*
X169796190Y-88533333D01*
X169796190Y-88914285D01*
X169367619Y-87961904D02*
X169320000Y-87914285D01*
X169272380Y-87819047D01*
X169272380Y-87580952D01*
X169320000Y-87485714D01*
X169367619Y-87438095D01*
X169462857Y-87390476D01*
X169558095Y-87390476D01*
X169700952Y-87438095D01*
X170272380Y-88009523D01*
X170272380Y-87390476D01*
X169272380Y-86771428D02*
X169272380Y-86676190D01*
X169320000Y-86580952D01*
X169367619Y-86533333D01*
X169462857Y-86485714D01*
X169653333Y-86438095D01*
X169891428Y-86438095D01*
X170081904Y-86485714D01*
X170177142Y-86533333D01*
X170224761Y-86580952D01*
X170272380Y-86676190D01*
X170272380Y-86771428D01*
X170224761Y-86866666D01*
X170177142Y-86914285D01*
X170081904Y-86961904D01*
X169891428Y-87009523D01*
X169653333Y-87009523D01*
X169462857Y-86961904D01*
X169367619Y-86914285D01*
X169320000Y-86866666D01*
X169272380Y-86771428D01*
X163072380Y-88342857D02*
X162596190Y-88676190D01*
X163072380Y-88914285D02*
X162072380Y-88914285D01*
X162072380Y-88533333D01*
X162120000Y-88438095D01*
X162167619Y-88390476D01*
X162262857Y-88342857D01*
X162405714Y-88342857D01*
X162500952Y-88390476D01*
X162548571Y-88438095D01*
X162596190Y-88533333D01*
X162596190Y-88914285D01*
X163072380Y-87390476D02*
X163072380Y-87961904D01*
X163072380Y-87676190D02*
X162072380Y-87676190D01*
X162215238Y-87771428D01*
X162310476Y-87866666D01*
X162358095Y-87961904D01*
X162500952Y-86819047D02*
X162453333Y-86914285D01*
X162405714Y-86961904D01*
X162310476Y-87009523D01*
X162262857Y-87009523D01*
X162167619Y-86961904D01*
X162120000Y-86914285D01*
X162072380Y-86819047D01*
X162072380Y-86628571D01*
X162120000Y-86533333D01*
X162167619Y-86485714D01*
X162262857Y-86438095D01*
X162310476Y-86438095D01*
X162405714Y-86485714D01*
X162453333Y-86533333D01*
X162500952Y-86628571D01*
X162500952Y-86819047D01*
X162548571Y-86914285D01*
X162596190Y-86961904D01*
X162691428Y-87009523D01*
X162881904Y-87009523D01*
X162977142Y-86961904D01*
X163024761Y-86914285D01*
X163072380Y-86819047D01*
X163072380Y-86628571D01*
X163024761Y-86533333D01*
X162977142Y-86485714D01*
X162881904Y-86438095D01*
X162691428Y-86438095D01*
X162596190Y-86485714D01*
X162548571Y-86533333D01*
X162500952Y-86628571D01*
X155872380Y-88342857D02*
X155396190Y-88676190D01*
X155872380Y-88914285D02*
X154872380Y-88914285D01*
X154872380Y-88533333D01*
X154920000Y-88438095D01*
X154967619Y-88390476D01*
X155062857Y-88342857D01*
X155205714Y-88342857D01*
X155300952Y-88390476D01*
X155348571Y-88438095D01*
X155396190Y-88533333D01*
X155396190Y-88914285D01*
X155872380Y-87390476D02*
X155872380Y-87961904D01*
X155872380Y-87676190D02*
X154872380Y-87676190D01*
X155015238Y-87771428D01*
X155110476Y-87866666D01*
X155158095Y-87961904D01*
X154872380Y-86533333D02*
X154872380Y-86723809D01*
X154920000Y-86819047D01*
X154967619Y-86866666D01*
X155110476Y-86961904D01*
X155300952Y-87009523D01*
X155681904Y-87009523D01*
X155777142Y-86961904D01*
X155824761Y-86914285D01*
X155872380Y-86819047D01*
X155872380Y-86628571D01*
X155824761Y-86533333D01*
X155777142Y-86485714D01*
X155681904Y-86438095D01*
X155443809Y-86438095D01*
X155348571Y-86485714D01*
X155300952Y-86533333D01*
X155253333Y-86628571D01*
X155253333Y-86819047D01*
X155300952Y-86914285D01*
X155348571Y-86961904D01*
X155443809Y-87009523D01*
X148672380Y-88342857D02*
X148196190Y-88676190D01*
X148672380Y-88914285D02*
X147672380Y-88914285D01*
X147672380Y-88533333D01*
X147720000Y-88438095D01*
X147767619Y-88390476D01*
X147862857Y-88342857D01*
X148005714Y-88342857D01*
X148100952Y-88390476D01*
X148148571Y-88438095D01*
X148196190Y-88533333D01*
X148196190Y-88914285D01*
X148672380Y-87390476D02*
X148672380Y-87961904D01*
X148672380Y-87676190D02*
X147672380Y-87676190D01*
X147815238Y-87771428D01*
X147910476Y-87866666D01*
X147958095Y-87961904D01*
X148005714Y-86533333D02*
X148672380Y-86533333D01*
X147624761Y-86771428D02*
X148339047Y-87009523D01*
X148339047Y-86390476D01*
X141472380Y-88342857D02*
X140996190Y-88676190D01*
X141472380Y-88914285D02*
X140472380Y-88914285D01*
X140472380Y-88533333D01*
X140520000Y-88438095D01*
X140567619Y-88390476D01*
X140662857Y-88342857D01*
X140805714Y-88342857D01*
X140900952Y-88390476D01*
X140948571Y-88438095D01*
X140996190Y-88533333D01*
X140996190Y-88914285D01*
X141472380Y-87390476D02*
X141472380Y-87961904D01*
X141472380Y-87676190D02*
X140472380Y-87676190D01*
X140615238Y-87771428D01*
X140710476Y-87866666D01*
X140758095Y-87961904D01*
X140567619Y-87009523D02*
X140520000Y-86961904D01*
X140472380Y-86866666D01*
X140472380Y-86628571D01*
X140520000Y-86533333D01*
X140567619Y-86485714D01*
X140662857Y-86438095D01*
X140758095Y-86438095D01*
X140900952Y-86485714D01*
X141472380Y-87057142D01*
X141472380Y-86438095D01*
X134272380Y-88342857D02*
X133796190Y-88676190D01*
X134272380Y-88914285D02*
X133272380Y-88914285D01*
X133272380Y-88533333D01*
X133320000Y-88438095D01*
X133367619Y-88390476D01*
X133462857Y-88342857D01*
X133605714Y-88342857D01*
X133700952Y-88390476D01*
X133748571Y-88438095D01*
X133796190Y-88533333D01*
X133796190Y-88914285D01*
X134272380Y-87390476D02*
X134272380Y-87961904D01*
X134272380Y-87676190D02*
X133272380Y-87676190D01*
X133415238Y-87771428D01*
X133510476Y-87866666D01*
X133558095Y-87961904D01*
X133272380Y-86771428D02*
X133272380Y-86676190D01*
X133320000Y-86580952D01*
X133367619Y-86533333D01*
X133462857Y-86485714D01*
X133653333Y-86438095D01*
X133891428Y-86438095D01*
X134081904Y-86485714D01*
X134177142Y-86533333D01*
X134224761Y-86580952D01*
X134272380Y-86676190D01*
X134272380Y-86771428D01*
X134224761Y-86866666D01*
X134177142Y-86914285D01*
X134081904Y-86961904D01*
X133891428Y-87009523D01*
X133653333Y-87009523D01*
X133462857Y-86961904D01*
X133367619Y-86914285D01*
X133320000Y-86866666D01*
X133272380Y-86771428D01*
X127072380Y-87866666D02*
X126596190Y-88200000D01*
X127072380Y-88438095D02*
X126072380Y-88438095D01*
X126072380Y-88057142D01*
X126120000Y-87961904D01*
X126167619Y-87914285D01*
X126262857Y-87866666D01*
X126405714Y-87866666D01*
X126500952Y-87914285D01*
X126548571Y-87961904D01*
X126596190Y-88057142D01*
X126596190Y-88438095D01*
X126500952Y-87295238D02*
X126453333Y-87390476D01*
X126405714Y-87438095D01*
X126310476Y-87485714D01*
X126262857Y-87485714D01*
X126167619Y-87438095D01*
X126120000Y-87390476D01*
X126072380Y-87295238D01*
X126072380Y-87104761D01*
X126120000Y-87009523D01*
X126167619Y-86961904D01*
X126262857Y-86914285D01*
X126310476Y-86914285D01*
X126405714Y-86961904D01*
X126453333Y-87009523D01*
X126500952Y-87104761D01*
X126500952Y-87295238D01*
X126548571Y-87390476D01*
X126596190Y-87438095D01*
X126691428Y-87485714D01*
X126881904Y-87485714D01*
X126977142Y-87438095D01*
X127024761Y-87390476D01*
X127072380Y-87295238D01*
X127072380Y-87104761D01*
X127024761Y-87009523D01*
X126977142Y-86961904D01*
X126881904Y-86914285D01*
X126691428Y-86914285D01*
X126596190Y-86961904D01*
X126548571Y-87009523D01*
X126500952Y-87104761D01*
X119872380Y-87866666D02*
X119396190Y-88200000D01*
X119872380Y-88438095D02*
X118872380Y-88438095D01*
X118872380Y-88057142D01*
X118920000Y-87961904D01*
X118967619Y-87914285D01*
X119062857Y-87866666D01*
X119205714Y-87866666D01*
X119300952Y-87914285D01*
X119348571Y-87961904D01*
X119396190Y-88057142D01*
X119396190Y-88438095D01*
X118872380Y-87009523D02*
X118872380Y-87200000D01*
X118920000Y-87295238D01*
X118967619Y-87342857D01*
X119110476Y-87438095D01*
X119300952Y-87485714D01*
X119681904Y-87485714D01*
X119777142Y-87438095D01*
X119824761Y-87390476D01*
X119872380Y-87295238D01*
X119872380Y-87104761D01*
X119824761Y-87009523D01*
X119777142Y-86961904D01*
X119681904Y-86914285D01*
X119443809Y-86914285D01*
X119348571Y-86961904D01*
X119300952Y-87009523D01*
X119253333Y-87104761D01*
X119253333Y-87295238D01*
X119300952Y-87390476D01*
X119348571Y-87438095D01*
X119443809Y-87485714D01*
X112672380Y-87866666D02*
X112196190Y-88200000D01*
X112672380Y-88438095D02*
X111672380Y-88438095D01*
X111672380Y-88057142D01*
X111720000Y-87961904D01*
X111767619Y-87914285D01*
X111862857Y-87866666D01*
X112005714Y-87866666D01*
X112100952Y-87914285D01*
X112148571Y-87961904D01*
X112196190Y-88057142D01*
X112196190Y-88438095D01*
X112005714Y-87009523D02*
X112672380Y-87009523D01*
X111624761Y-87247619D02*
X112339047Y-87485714D01*
X112339047Y-86866666D01*
X105472380Y-87866666D02*
X104996190Y-88200000D01*
X105472380Y-88438095D02*
X104472380Y-88438095D01*
X104472380Y-88057142D01*
X104520000Y-87961904D01*
X104567619Y-87914285D01*
X104662857Y-87866666D01*
X104805714Y-87866666D01*
X104900952Y-87914285D01*
X104948571Y-87961904D01*
X104996190Y-88057142D01*
X104996190Y-88438095D01*
X104567619Y-87485714D02*
X104520000Y-87438095D01*
X104472380Y-87342857D01*
X104472380Y-87104761D01*
X104520000Y-87009523D01*
X104567619Y-86961904D01*
X104662857Y-86914285D01*
X104758095Y-86914285D01*
X104900952Y-86961904D01*
X105472380Y-87533333D01*
X105472380Y-86914285D01*
X188272380Y-96342857D02*
X187796190Y-96676190D01*
X188272380Y-96914285D02*
X187272380Y-96914285D01*
X187272380Y-96533333D01*
X187320000Y-96438095D01*
X187367619Y-96390476D01*
X187462857Y-96342857D01*
X187605714Y-96342857D01*
X187700952Y-96390476D01*
X187748571Y-96438095D01*
X187796190Y-96533333D01*
X187796190Y-96914285D01*
X187367619Y-95961904D02*
X187320000Y-95914285D01*
X187272380Y-95819047D01*
X187272380Y-95580952D01*
X187320000Y-95485714D01*
X187367619Y-95438095D01*
X187462857Y-95390476D01*
X187558095Y-95390476D01*
X187700952Y-95438095D01*
X188272380Y-96009523D01*
X188272380Y-95390476D01*
X187272380Y-94485714D02*
X187272380Y-94961904D01*
X187748571Y-95009523D01*
X187700952Y-94961904D01*
X187653333Y-94866666D01*
X187653333Y-94628571D01*
X187700952Y-94533333D01*
X187748571Y-94485714D01*
X187843809Y-94438095D01*
X188081904Y-94438095D01*
X188177142Y-94485714D01*
X188224761Y-94533333D01*
X188272380Y-94628571D01*
X188272380Y-94866666D01*
X188224761Y-94961904D01*
X188177142Y-95009523D01*
X181072380Y-96342857D02*
X180596190Y-96676190D01*
X181072380Y-96914285D02*
X180072380Y-96914285D01*
X180072380Y-96533333D01*
X180120000Y-96438095D01*
X180167619Y-96390476D01*
X180262857Y-96342857D01*
X180405714Y-96342857D01*
X180500952Y-96390476D01*
X180548571Y-96438095D01*
X180596190Y-96533333D01*
X180596190Y-96914285D01*
X180167619Y-95961904D02*
X180120000Y-95914285D01*
X180072380Y-95819047D01*
X180072380Y-95580952D01*
X180120000Y-95485714D01*
X180167619Y-95438095D01*
X180262857Y-95390476D01*
X180358095Y-95390476D01*
X180500952Y-95438095D01*
X181072380Y-96009523D01*
X181072380Y-95390476D01*
X180072380Y-95057142D02*
X180072380Y-94438095D01*
X180453333Y-94771428D01*
X180453333Y-94628571D01*
X180500952Y-94533333D01*
X180548571Y-94485714D01*
X180643809Y-94438095D01*
X180881904Y-94438095D01*
X180977142Y-94485714D01*
X181024761Y-94533333D01*
X181072380Y-94628571D01*
X181072380Y-94914285D01*
X181024761Y-95009523D01*
X180977142Y-95057142D01*
X173872380Y-96342857D02*
X173396190Y-96676190D01*
X173872380Y-96914285D02*
X172872380Y-96914285D01*
X172872380Y-96533333D01*
X172920000Y-96438095D01*
X172967619Y-96390476D01*
X173062857Y-96342857D01*
X173205714Y-96342857D01*
X173300952Y-96390476D01*
X173348571Y-96438095D01*
X173396190Y-96533333D01*
X173396190Y-96914285D01*
X172967619Y-95961904D02*
X172920000Y-95914285D01*
X172872380Y-95819047D01*
X172872380Y-95580952D01*
X172920000Y-95485714D01*
X172967619Y-95438095D01*
X173062857Y-95390476D01*
X173158095Y-95390476D01*
X173300952Y-95438095D01*
X173872380Y-96009523D01*
X173872380Y-95390476D01*
X173872380Y-94438095D02*
X173872380Y-95009523D01*
X173872380Y-94723809D02*
X172872380Y-94723809D01*
X173015238Y-94819047D01*
X173110476Y-94914285D01*
X173158095Y-95009523D01*
X166672380Y-96342857D02*
X166196190Y-96676190D01*
X166672380Y-96914285D02*
X165672380Y-96914285D01*
X165672380Y-96533333D01*
X165720000Y-96438095D01*
X165767619Y-96390476D01*
X165862857Y-96342857D01*
X166005714Y-96342857D01*
X166100952Y-96390476D01*
X166148571Y-96438095D01*
X166196190Y-96533333D01*
X166196190Y-96914285D01*
X166672380Y-95390476D02*
X166672380Y-95961904D01*
X166672380Y-95676190D02*
X165672380Y-95676190D01*
X165815238Y-95771428D01*
X165910476Y-95866666D01*
X165958095Y-95961904D01*
X166672380Y-94914285D02*
X166672380Y-94723809D01*
X166624761Y-94628571D01*
X166577142Y-94580952D01*
X166434285Y-94485714D01*
X166243809Y-94438095D01*
X165862857Y-94438095D01*
X165767619Y-94485714D01*
X165720000Y-94533333D01*
X165672380Y-94628571D01*
X165672380Y-94819047D01*
X165720000Y-94914285D01*
X165767619Y-94961904D01*
X165862857Y-95009523D01*
X166100952Y-95009523D01*
X166196190Y-94961904D01*
X166243809Y-94914285D01*
X166291428Y-94819047D01*
X166291428Y-94628571D01*
X166243809Y-94533333D01*
X166196190Y-94485714D01*
X166100952Y-94438095D01*
X159472380Y-96342857D02*
X158996190Y-96676190D01*
X159472380Y-96914285D02*
X158472380Y-96914285D01*
X158472380Y-96533333D01*
X158520000Y-96438095D01*
X158567619Y-96390476D01*
X158662857Y-96342857D01*
X158805714Y-96342857D01*
X158900952Y-96390476D01*
X158948571Y-96438095D01*
X158996190Y-96533333D01*
X158996190Y-96914285D01*
X159472380Y-95390476D02*
X159472380Y-95961904D01*
X159472380Y-95676190D02*
X158472380Y-95676190D01*
X158615238Y-95771428D01*
X158710476Y-95866666D01*
X158758095Y-95961904D01*
X158472380Y-95057142D02*
X158472380Y-94390476D01*
X159472380Y-94819047D01*
X152272380Y-96342857D02*
X151796190Y-96676190D01*
X152272380Y-96914285D02*
X151272380Y-96914285D01*
X151272380Y-96533333D01*
X151320000Y-96438095D01*
X151367619Y-96390476D01*
X151462857Y-96342857D01*
X151605714Y-96342857D01*
X151700952Y-96390476D01*
X151748571Y-96438095D01*
X151796190Y-96533333D01*
X151796190Y-96914285D01*
X152272380Y-95390476D02*
X152272380Y-95961904D01*
X152272380Y-95676190D02*
X151272380Y-95676190D01*
X151415238Y-95771428D01*
X151510476Y-95866666D01*
X151558095Y-95961904D01*
X151272380Y-94485714D02*
X151272380Y-94961904D01*
X151748571Y-95009523D01*
X151700952Y-94961904D01*
X151653333Y-94866666D01*
X151653333Y-94628571D01*
X151700952Y-94533333D01*
X151748571Y-94485714D01*
X151843809Y-94438095D01*
X152081904Y-94438095D01*
X152177142Y-94485714D01*
X152224761Y-94533333D01*
X152272380Y-94628571D01*
X152272380Y-94866666D01*
X152224761Y-94961904D01*
X152177142Y-95009523D01*
X145072380Y-96342857D02*
X144596190Y-96676190D01*
X145072380Y-96914285D02*
X144072380Y-96914285D01*
X144072380Y-96533333D01*
X144120000Y-96438095D01*
X144167619Y-96390476D01*
X144262857Y-96342857D01*
X144405714Y-96342857D01*
X144500952Y-96390476D01*
X144548571Y-96438095D01*
X144596190Y-96533333D01*
X144596190Y-96914285D01*
X145072380Y-95390476D02*
X145072380Y-95961904D01*
X145072380Y-95676190D02*
X144072380Y-95676190D01*
X144215238Y-95771428D01*
X144310476Y-95866666D01*
X144358095Y-95961904D01*
X144072380Y-95057142D02*
X144072380Y-94438095D01*
X144453333Y-94771428D01*
X144453333Y-94628571D01*
X144500952Y-94533333D01*
X144548571Y-94485714D01*
X144643809Y-94438095D01*
X144881904Y-94438095D01*
X144977142Y-94485714D01*
X145024761Y-94533333D01*
X145072380Y-94628571D01*
X145072380Y-94914285D01*
X145024761Y-95009523D01*
X144977142Y-95057142D01*
X137872380Y-96342857D02*
X137396190Y-96676190D01*
X137872380Y-96914285D02*
X136872380Y-96914285D01*
X136872380Y-96533333D01*
X136920000Y-96438095D01*
X136967619Y-96390476D01*
X137062857Y-96342857D01*
X137205714Y-96342857D01*
X137300952Y-96390476D01*
X137348571Y-96438095D01*
X137396190Y-96533333D01*
X137396190Y-96914285D01*
X137872380Y-95390476D02*
X137872380Y-95961904D01*
X137872380Y-95676190D02*
X136872380Y-95676190D01*
X137015238Y-95771428D01*
X137110476Y-95866666D01*
X137158095Y-95961904D01*
X137872380Y-94438095D02*
X137872380Y-95009523D01*
X137872380Y-94723809D02*
X136872380Y-94723809D01*
X137015238Y-94819047D01*
X137110476Y-94914285D01*
X137158095Y-95009523D01*
X130672380Y-95866666D02*
X130196190Y-96200000D01*
X130672380Y-96438095D02*
X129672380Y-96438095D01*
X129672380Y-96057142D01*
X129720000Y-95961904D01*
X129767619Y-95914285D01*
X129862857Y-95866666D01*
X130005714Y-95866666D01*
X130100952Y-95914285D01*
X130148571Y-95961904D01*
X130196190Y-96057142D01*
X130196190Y-96438095D01*
X130672380Y-95390476D02*
X130672380Y-95200000D01*
X130624761Y-95104761D01*
X130577142Y-95057142D01*
X130434285Y-94961904D01*
X130243809Y-94914285D01*
X129862857Y-94914285D01*
X129767619Y-94961904D01*
X129720000Y-95009523D01*
X129672380Y-95104761D01*
X129672380Y-95295238D01*
X129720000Y-95390476D01*
X129767619Y-95438095D01*
X129862857Y-95485714D01*
X130100952Y-95485714D01*
X130196190Y-95438095D01*
X130243809Y-95390476D01*
X130291428Y-95295238D01*
X130291428Y-95104761D01*
X130243809Y-95009523D01*
X130196190Y-94961904D01*
X130100952Y-94914285D01*
X123472380Y-95866666D02*
X122996190Y-96200000D01*
X123472380Y-96438095D02*
X122472380Y-96438095D01*
X122472380Y-96057142D01*
X122520000Y-95961904D01*
X122567619Y-95914285D01*
X122662857Y-95866666D01*
X122805714Y-95866666D01*
X122900952Y-95914285D01*
X122948571Y-95961904D01*
X122996190Y-96057142D01*
X122996190Y-96438095D01*
X122472380Y-95533333D02*
X122472380Y-94866666D01*
X123472380Y-95295238D01*
X116272380Y-95866666D02*
X115796190Y-96200000D01*
X116272380Y-96438095D02*
X115272380Y-96438095D01*
X115272380Y-96057142D01*
X115320000Y-95961904D01*
X115367619Y-95914285D01*
X115462857Y-95866666D01*
X115605714Y-95866666D01*
X115700952Y-95914285D01*
X115748571Y-95961904D01*
X115796190Y-96057142D01*
X115796190Y-96438095D01*
X115272380Y-94961904D02*
X115272380Y-95438095D01*
X115748571Y-95485714D01*
X115700952Y-95438095D01*
X115653333Y-95342857D01*
X115653333Y-95104761D01*
X115700952Y-95009523D01*
X115748571Y-94961904D01*
X115843809Y-94914285D01*
X116081904Y-94914285D01*
X116177142Y-94961904D01*
X116224761Y-95009523D01*
X116272380Y-95104761D01*
X116272380Y-95342857D01*
X116224761Y-95438095D01*
X116177142Y-95485714D01*
X109072380Y-95866666D02*
X108596190Y-96200000D01*
X109072380Y-96438095D02*
X108072380Y-96438095D01*
X108072380Y-96057142D01*
X108120000Y-95961904D01*
X108167619Y-95914285D01*
X108262857Y-95866666D01*
X108405714Y-95866666D01*
X108500952Y-95914285D01*
X108548571Y-95961904D01*
X108596190Y-96057142D01*
X108596190Y-96438095D01*
X108072380Y-95533333D02*
X108072380Y-94914285D01*
X108453333Y-95247619D01*
X108453333Y-95104761D01*
X108500952Y-95009523D01*
X108548571Y-94961904D01*
X108643809Y-94914285D01*
X108881904Y-94914285D01*
X108977142Y-94961904D01*
X109024761Y-95009523D01*
X109072380Y-95104761D01*
X109072380Y-95390476D01*
X109024761Y-95485714D01*
X108977142Y-95533333D01*
X101872380Y-95866666D02*
X101396190Y-96200000D01*
X101872380Y-96438095D02*
X100872380Y-96438095D01*
X100872380Y-96057142D01*
X100920000Y-95961904D01*
X100967619Y-95914285D01*
X101062857Y-95866666D01*
X101205714Y-95866666D01*
X101300952Y-95914285D01*
X101348571Y-95961904D01*
X101396190Y-96057142D01*
X101396190Y-96438095D01*
X101872380Y-94914285D02*
X101872380Y-95485714D01*
X101872380Y-95200000D02*
X100872380Y-95200000D01*
X101015238Y-95295238D01*
X101110476Y-95390476D01*
X101158095Y-95485714D01*
M02*
