G04 #@! TF.GenerationSoftware,KiCad,Pcbnew,(5.1.5-0)*
G04 #@! TF.CreationDate,2020-06-12T16:12:48+02:00*
G04 #@! TF.ProjectId,Ampli_IMS,416d706c-695f-4494-9d53-2e6b69636164,rev?*
G04 #@! TF.SameCoordinates,Original*
G04 #@! TF.FileFunction,Legend,Top*
G04 #@! TF.FilePolarity,Positive*
%FSLAX46Y46*%
G04 Gerber Fmt 4.6, Leading zero omitted, Abs format (unit mm)*
G04 Created by KiCad (PCBNEW (5.1.5-0)) date 2020-06-12 16:12:48*
%MOMM*%
%LPD*%
G04 APERTURE LIST*
%ADD10C,0.120000*%
%ADD11C,0.150000*%
G04 APERTURE END LIST*
D10*
X56922500Y-28565000D02*
X52837500Y-28565000D01*
X56922500Y-30435000D02*
X56922500Y-28565000D01*
X52837500Y-30435000D02*
X56922500Y-30435000D01*
X55885000Y-26590000D02*
X53000000Y-26590000D01*
X55885000Y-28410000D02*
X55885000Y-26590000D01*
X53000000Y-28410000D02*
X55885000Y-28410000D01*
X58615000Y-28410000D02*
X61500000Y-28410000D01*
X58615000Y-26590000D02*
X58615000Y-28410000D01*
X61500000Y-26590000D02*
X58615000Y-26590000D01*
X58452500Y-30435000D02*
X62537500Y-30435000D01*
X58452500Y-28565000D02*
X58452500Y-30435000D01*
X62537500Y-28565000D02*
X58452500Y-28565000D01*
X38135000Y-34775000D02*
X38135000Y-36725000D01*
X38135000Y-34775000D02*
X38135000Y-32825000D01*
X43255000Y-34775000D02*
X43255000Y-36725000D01*
X43255000Y-34775000D02*
X43255000Y-31325000D01*
X44878922Y-31490000D02*
X45396078Y-31490000D01*
X44878922Y-32910000D02*
X45396078Y-32910000D01*
X39358578Y-40260000D02*
X38841422Y-40260000D01*
X39358578Y-38840000D02*
X38841422Y-38840000D01*
X35310000Y-35158578D02*
X35310000Y-34641422D01*
X33890000Y-35158578D02*
X33890000Y-34641422D01*
X24850000Y-38150000D02*
X33150000Y-38150000D01*
X24850000Y-29850000D02*
X33150000Y-29850000D01*
X33150000Y-38150000D02*
X33150000Y-29850000D01*
X24850000Y-38150000D02*
X24850000Y-29850000D01*
X38121078Y-30760000D02*
X37603922Y-30760000D01*
X38121078Y-29340000D02*
X37603922Y-29340000D01*
X45041422Y-36640000D02*
X45558578Y-36640000D01*
X45041422Y-38060000D02*
X45558578Y-38060000D01*
X37510000Y-35158578D02*
X37510000Y-34641422D01*
X36090000Y-35158578D02*
X36090000Y-34641422D01*
X36420000Y-61470000D02*
X31180000Y-61470000D01*
X36420000Y-54470000D02*
X31180000Y-54470000D01*
X31180000Y-54470000D02*
X31180000Y-61470000D01*
X36420000Y-54470000D02*
X36420000Y-61470000D01*
X37420000Y-54470000D02*
X30180000Y-54470000D01*
X37420000Y-49470000D02*
X30180000Y-49470000D01*
X30180000Y-49470000D02*
X30180000Y-54470000D01*
X37420000Y-49470000D02*
X37420000Y-54470000D01*
X38670000Y-49470000D02*
X28930000Y-49470000D01*
X38670000Y-43829000D02*
X28930000Y-43829000D01*
X28930000Y-43829000D02*
X28930000Y-49470000D01*
X38670000Y-43829000D02*
X38670000Y-49470000D01*
X63910000Y-21890000D02*
X61410000Y-21890000D01*
X63910000Y-24390000D02*
X63910000Y-21890000D01*
X54390000Y-23690000D02*
X54390000Y-22190000D01*
X53390000Y-23690000D02*
X54390000Y-23690000D01*
X62610000Y-23690000D02*
X62610000Y-22190000D01*
X63610000Y-23690000D02*
X62610000Y-23690000D01*
X53890000Y-24500000D02*
X53390000Y-24500000D01*
X53890000Y-25710000D02*
X53890000Y-24500000D01*
X63110000Y-25710000D02*
X53890000Y-25710000D01*
X63110000Y-24500000D02*
X63110000Y-25710000D01*
X63610000Y-24500000D02*
X63110000Y-24500000D01*
X53390000Y-26210000D02*
X63610000Y-26210000D01*
X53390000Y-22190000D02*
X53390000Y-26210000D01*
X63610000Y-22190000D02*
X53390000Y-22190000D01*
X63610000Y-26210000D02*
X63610000Y-22190000D01*
X56300000Y-49600000D02*
X55300000Y-48600000D01*
X56300000Y-49600000D02*
X57300000Y-48600000D01*
X63800000Y-34800000D02*
X63800000Y-49800000D01*
X48800000Y-34800000D02*
X63800000Y-34800000D01*
X48800000Y-49800000D02*
X48800000Y-34800000D01*
X63800000Y-49800000D02*
X48800000Y-49800000D01*
D11*
X50770833Y-29857142D02*
X50723214Y-29904761D01*
X50580357Y-29952380D01*
X50485119Y-29952380D01*
X50342261Y-29904761D01*
X50247023Y-29809523D01*
X50199404Y-29714285D01*
X50151785Y-29523809D01*
X50151785Y-29380952D01*
X50199404Y-29190476D01*
X50247023Y-29095238D01*
X50342261Y-29000000D01*
X50485119Y-28952380D01*
X50580357Y-28952380D01*
X50723214Y-29000000D01*
X50770833Y-29047619D01*
X51627976Y-29285714D02*
X51627976Y-29952380D01*
X51389880Y-28904761D02*
X51151785Y-29619047D01*
X51770833Y-29619047D01*
X50261904Y-27952380D02*
X50261904Y-26952380D01*
X50500000Y-26952380D01*
X50642857Y-27000000D01*
X50738095Y-27095238D01*
X50785714Y-27190476D01*
X50833333Y-27380952D01*
X50833333Y-27523809D01*
X50785714Y-27714285D01*
X50738095Y-27809523D01*
X50642857Y-27904761D01*
X50500000Y-27952380D01*
X50261904Y-27952380D01*
X51214285Y-27047619D02*
X51261904Y-27000000D01*
X51357142Y-26952380D01*
X51595238Y-26952380D01*
X51690476Y-27000000D01*
X51738095Y-27047619D01*
X51785714Y-27142857D01*
X51785714Y-27238095D01*
X51738095Y-27380952D01*
X51166666Y-27952380D01*
X51785714Y-27952380D01*
X62761904Y-27952380D02*
X62761904Y-26952380D01*
X63000000Y-26952380D01*
X63142857Y-27000000D01*
X63238095Y-27095238D01*
X63285714Y-27190476D01*
X63333333Y-27380952D01*
X63333333Y-27523809D01*
X63285714Y-27714285D01*
X63238095Y-27809523D01*
X63142857Y-27904761D01*
X63000000Y-27952380D01*
X62761904Y-27952380D01*
X64285714Y-27952380D02*
X63714285Y-27952380D01*
X64000000Y-27952380D02*
X64000000Y-26952380D01*
X63904761Y-27095238D01*
X63809523Y-27190476D01*
X63714285Y-27238095D01*
X64270833Y-29857142D02*
X64223214Y-29904761D01*
X64080357Y-29952380D01*
X63985119Y-29952380D01*
X63842261Y-29904761D01*
X63747023Y-29809523D01*
X63699404Y-29714285D01*
X63651785Y-29523809D01*
X63651785Y-29380952D01*
X63699404Y-29190476D01*
X63747023Y-29095238D01*
X63842261Y-29000000D01*
X63985119Y-28952380D01*
X64080357Y-28952380D01*
X64223214Y-29000000D01*
X64270833Y-29047619D01*
X64604166Y-28952380D02*
X65223214Y-28952380D01*
X64889880Y-29333333D01*
X65032738Y-29333333D01*
X65127976Y-29380952D01*
X65175595Y-29428571D01*
X65223214Y-29523809D01*
X65223214Y-29761904D01*
X65175595Y-29857142D01*
X65127976Y-29904761D01*
X65032738Y-29952380D01*
X64747023Y-29952380D01*
X64651785Y-29904761D01*
X64604166Y-29857142D01*
X43547380Y-35536904D02*
X44356904Y-35536904D01*
X44452142Y-35489285D01*
X44499761Y-35441666D01*
X44547380Y-35346428D01*
X44547380Y-35155952D01*
X44499761Y-35060714D01*
X44452142Y-35013095D01*
X44356904Y-34965476D01*
X43547380Y-34965476D01*
X44547380Y-33965476D02*
X44547380Y-34536904D01*
X44547380Y-34251190D02*
X43547380Y-34251190D01*
X43690238Y-34346428D01*
X43785476Y-34441666D01*
X43833095Y-34536904D01*
X44970833Y-31002380D02*
X44637500Y-30526190D01*
X44399404Y-31002380D02*
X44399404Y-30002380D01*
X44780357Y-30002380D01*
X44875595Y-30050000D01*
X44923214Y-30097619D01*
X44970833Y-30192857D01*
X44970833Y-30335714D01*
X44923214Y-30430952D01*
X44875595Y-30478571D01*
X44780357Y-30526190D01*
X44399404Y-30526190D01*
X45304166Y-30002380D02*
X45923214Y-30002380D01*
X45589880Y-30383333D01*
X45732738Y-30383333D01*
X45827976Y-30430952D01*
X45875595Y-30478571D01*
X45923214Y-30573809D01*
X45923214Y-30811904D01*
X45875595Y-30907142D01*
X45827976Y-30954761D01*
X45732738Y-31002380D01*
X45447023Y-31002380D01*
X45351785Y-30954761D01*
X45304166Y-30907142D01*
X38933333Y-41652380D02*
X38600000Y-41176190D01*
X38361904Y-41652380D02*
X38361904Y-40652380D01*
X38742857Y-40652380D01*
X38838095Y-40700000D01*
X38885714Y-40747619D01*
X38933333Y-40842857D01*
X38933333Y-40985714D01*
X38885714Y-41080952D01*
X38838095Y-41128571D01*
X38742857Y-41176190D01*
X38361904Y-41176190D01*
X39314285Y-40747619D02*
X39361904Y-40700000D01*
X39457142Y-40652380D01*
X39695238Y-40652380D01*
X39790476Y-40700000D01*
X39838095Y-40747619D01*
X39885714Y-40842857D01*
X39885714Y-40938095D01*
X39838095Y-41080952D01*
X39266666Y-41652380D01*
X39885714Y-41652380D01*
X34433333Y-33052380D02*
X34100000Y-32576190D01*
X33861904Y-33052380D02*
X33861904Y-32052380D01*
X34242857Y-32052380D01*
X34338095Y-32100000D01*
X34385714Y-32147619D01*
X34433333Y-32242857D01*
X34433333Y-32385714D01*
X34385714Y-32480952D01*
X34338095Y-32528571D01*
X34242857Y-32576190D01*
X33861904Y-32576190D01*
X35385714Y-33052380D02*
X34814285Y-33052380D01*
X35100000Y-33052380D02*
X35100000Y-32052380D01*
X35004761Y-32195238D01*
X34909523Y-32290476D01*
X34814285Y-32338095D01*
X28666666Y-38652380D02*
X28666666Y-39366666D01*
X28619047Y-39509523D01*
X28523809Y-39604761D01*
X28380952Y-39652380D01*
X28285714Y-39652380D01*
X29666666Y-39652380D02*
X29095238Y-39652380D01*
X29380952Y-39652380D02*
X29380952Y-38652380D01*
X29285714Y-38795238D01*
X29190476Y-38890476D01*
X29095238Y-38938095D01*
X37695833Y-28857142D02*
X37648214Y-28904761D01*
X37505357Y-28952380D01*
X37410119Y-28952380D01*
X37267261Y-28904761D01*
X37172023Y-28809523D01*
X37124404Y-28714285D01*
X37076785Y-28523809D01*
X37076785Y-28380952D01*
X37124404Y-28190476D01*
X37172023Y-28095238D01*
X37267261Y-28000000D01*
X37410119Y-27952380D01*
X37505357Y-27952380D01*
X37648214Y-28000000D01*
X37695833Y-28047619D01*
X38600595Y-27952380D02*
X38124404Y-27952380D01*
X38076785Y-28428571D01*
X38124404Y-28380952D01*
X38219642Y-28333333D01*
X38457738Y-28333333D01*
X38552976Y-28380952D01*
X38600595Y-28428571D01*
X38648214Y-28523809D01*
X38648214Y-28761904D01*
X38600595Y-28857142D01*
X38552976Y-28904761D01*
X38457738Y-28952380D01*
X38219642Y-28952380D01*
X38124404Y-28904761D01*
X38076785Y-28857142D01*
X45270833Y-39307142D02*
X45223214Y-39354761D01*
X45080357Y-39402380D01*
X44985119Y-39402380D01*
X44842261Y-39354761D01*
X44747023Y-39259523D01*
X44699404Y-39164285D01*
X44651785Y-38973809D01*
X44651785Y-38830952D01*
X44699404Y-38640476D01*
X44747023Y-38545238D01*
X44842261Y-38450000D01*
X44985119Y-38402380D01*
X45080357Y-38402380D01*
X45223214Y-38450000D01*
X45270833Y-38497619D01*
X45651785Y-38497619D02*
X45699404Y-38450000D01*
X45794642Y-38402380D01*
X46032738Y-38402380D01*
X46127976Y-38450000D01*
X46175595Y-38497619D01*
X46223214Y-38592857D01*
X46223214Y-38688095D01*
X46175595Y-38830952D01*
X45604166Y-39402380D01*
X46223214Y-39402380D01*
X36633333Y-32957142D02*
X36585714Y-33004761D01*
X36442857Y-33052380D01*
X36347619Y-33052380D01*
X36204761Y-33004761D01*
X36109523Y-32909523D01*
X36061904Y-32814285D01*
X36014285Y-32623809D01*
X36014285Y-32480952D01*
X36061904Y-32290476D01*
X36109523Y-32195238D01*
X36204761Y-32100000D01*
X36347619Y-32052380D01*
X36442857Y-32052380D01*
X36585714Y-32100000D01*
X36633333Y-32147619D01*
X37585714Y-33052380D02*
X37014285Y-33052380D01*
X37300000Y-33052380D02*
X37300000Y-32052380D01*
X37204761Y-32195238D01*
X37109523Y-32290476D01*
X37014285Y-32338095D01*
X39061904Y-46352380D02*
X39061904Y-45352380D01*
X39442857Y-45352380D01*
X39538095Y-45400000D01*
X39585714Y-45447619D01*
X39633333Y-45542857D01*
X39633333Y-45685714D01*
X39585714Y-45780952D01*
X39538095Y-45828571D01*
X39442857Y-45876190D01*
X39061904Y-45876190D01*
X40585714Y-46352380D02*
X40014285Y-46352380D01*
X40300000Y-46352380D02*
X40300000Y-45352380D01*
X40204761Y-45495238D01*
X40109523Y-45590476D01*
X40014285Y-45638095D01*
X51666666Y-23952380D02*
X51666666Y-24666666D01*
X51619047Y-24809523D01*
X51523809Y-24904761D01*
X51380952Y-24952380D01*
X51285714Y-24952380D01*
X52047619Y-23952380D02*
X52666666Y-23952380D01*
X52333333Y-24333333D01*
X52476190Y-24333333D01*
X52571428Y-24380952D01*
X52619047Y-24428571D01*
X52666666Y-24523809D01*
X52666666Y-24761904D01*
X52619047Y-24857142D01*
X52571428Y-24904761D01*
X52476190Y-24952380D01*
X52190476Y-24952380D01*
X52095238Y-24904761D01*
X52047619Y-24857142D01*
X64832380Y-42513333D02*
X65546666Y-42513333D01*
X65689523Y-42560952D01*
X65784761Y-42656190D01*
X65832380Y-42799047D01*
X65832380Y-42894285D01*
X64927619Y-42084761D02*
X64880000Y-42037142D01*
X64832380Y-41941904D01*
X64832380Y-41703809D01*
X64880000Y-41608571D01*
X64927619Y-41560952D01*
X65022857Y-41513333D01*
X65118095Y-41513333D01*
X65260952Y-41560952D01*
X65832380Y-42132380D01*
X65832380Y-41513333D01*
M02*
