G04 #@! TF.GenerationSoftware,KiCad,Pcbnew,(5.1.5-0)*
G04 #@! TF.CreationDate,2020-06-12T16:12:48+02:00*
G04 #@! TF.ProjectId,Ampli_IMS,416d706c-695f-4494-9d53-2e6b69636164,rev?*
G04 #@! TF.SameCoordinates,Original*
G04 #@! TF.FileFunction,Copper,L1,Top*
G04 #@! TF.FilePolarity,Positive*
%FSLAX46Y46*%
G04 Gerber Fmt 4.6, Leading zero omitted, Abs format (unit mm)*
G04 Created by KiCad (PCBNEW (5.1.5-0)) date 2020-06-12 16:12:48*
%MOMM*%
%LPD*%
G04 APERTURE LIST*
%ADD10C,0.100000*%
%ADD11C,2.250000*%
%ADD12C,1.800000*%
%ADD13O,1.700000X1.950000*%
%ADD14O,1.600000X2.500000*%
%ADD15O,3.500000X7.000000*%
%ADD16C,0.500000*%
%ADD17C,0.800000*%
%ADD18C,0.700000*%
%ADD19C,0.600000*%
%ADD20C,0.254000*%
%ADD21C,0.050000*%
G04 APERTURE END LIST*
G04 #@! TA.AperFunction,SMDPad,CuDef*
D10*
G36*
X53562005Y-28826204D02*
G01*
X53586273Y-28829804D01*
X53610072Y-28835765D01*
X53633171Y-28844030D01*
X53655350Y-28854520D01*
X53676393Y-28867132D01*
X53696099Y-28881747D01*
X53714277Y-28898223D01*
X53730753Y-28916401D01*
X53745368Y-28936107D01*
X53757980Y-28957150D01*
X53768470Y-28979329D01*
X53776735Y-29002428D01*
X53782696Y-29026227D01*
X53786296Y-29050495D01*
X53787500Y-29074999D01*
X53787500Y-29925001D01*
X53786296Y-29949505D01*
X53782696Y-29973773D01*
X53776735Y-29997572D01*
X53768470Y-30020671D01*
X53757980Y-30042850D01*
X53745368Y-30063893D01*
X53730753Y-30083599D01*
X53714277Y-30101777D01*
X53696099Y-30118253D01*
X53676393Y-30132868D01*
X53655350Y-30145480D01*
X53633171Y-30155970D01*
X53610072Y-30164235D01*
X53586273Y-30170196D01*
X53562005Y-30173796D01*
X53537501Y-30175000D01*
X52462499Y-30175000D01*
X52437995Y-30173796D01*
X52413727Y-30170196D01*
X52389928Y-30164235D01*
X52366829Y-30155970D01*
X52344650Y-30145480D01*
X52323607Y-30132868D01*
X52303901Y-30118253D01*
X52285723Y-30101777D01*
X52269247Y-30083599D01*
X52254632Y-30063893D01*
X52242020Y-30042850D01*
X52231530Y-30020671D01*
X52223265Y-29997572D01*
X52217304Y-29973773D01*
X52213704Y-29949505D01*
X52212500Y-29925001D01*
X52212500Y-29074999D01*
X52213704Y-29050495D01*
X52217304Y-29026227D01*
X52223265Y-29002428D01*
X52231530Y-28979329D01*
X52242020Y-28957150D01*
X52254632Y-28936107D01*
X52269247Y-28916401D01*
X52285723Y-28898223D01*
X52303901Y-28881747D01*
X52323607Y-28867132D01*
X52344650Y-28854520D01*
X52366829Y-28844030D01*
X52389928Y-28835765D01*
X52413727Y-28829804D01*
X52437995Y-28826204D01*
X52462499Y-28825000D01*
X53537501Y-28825000D01*
X53562005Y-28826204D01*
G37*
G04 #@! TD.AperFunction*
G04 #@! TA.AperFunction,SMDPad,CuDef*
G36*
X56437005Y-28826204D02*
G01*
X56461273Y-28829804D01*
X56485072Y-28835765D01*
X56508171Y-28844030D01*
X56530350Y-28854520D01*
X56551393Y-28867132D01*
X56571099Y-28881747D01*
X56589277Y-28898223D01*
X56605753Y-28916401D01*
X56620368Y-28936107D01*
X56632980Y-28957150D01*
X56643470Y-28979329D01*
X56651735Y-29002428D01*
X56657696Y-29026227D01*
X56661296Y-29050495D01*
X56662500Y-29074999D01*
X56662500Y-29925001D01*
X56661296Y-29949505D01*
X56657696Y-29973773D01*
X56651735Y-29997572D01*
X56643470Y-30020671D01*
X56632980Y-30042850D01*
X56620368Y-30063893D01*
X56605753Y-30083599D01*
X56589277Y-30101777D01*
X56571099Y-30118253D01*
X56551393Y-30132868D01*
X56530350Y-30145480D01*
X56508171Y-30155970D01*
X56485072Y-30164235D01*
X56461273Y-30170196D01*
X56437005Y-30173796D01*
X56412501Y-30175000D01*
X55337499Y-30175000D01*
X55312995Y-30173796D01*
X55288727Y-30170196D01*
X55264928Y-30164235D01*
X55241829Y-30155970D01*
X55219650Y-30145480D01*
X55198607Y-30132868D01*
X55178901Y-30118253D01*
X55160723Y-30101777D01*
X55144247Y-30083599D01*
X55129632Y-30063893D01*
X55117020Y-30042850D01*
X55106530Y-30020671D01*
X55098265Y-29997572D01*
X55092304Y-29973773D01*
X55088704Y-29949505D01*
X55087500Y-29925001D01*
X55087500Y-29074999D01*
X55088704Y-29050495D01*
X55092304Y-29026227D01*
X55098265Y-29002428D01*
X55106530Y-28979329D01*
X55117020Y-28957150D01*
X55129632Y-28936107D01*
X55144247Y-28916401D01*
X55160723Y-28898223D01*
X55178901Y-28881747D01*
X55198607Y-28867132D01*
X55219650Y-28854520D01*
X55241829Y-28844030D01*
X55264928Y-28835765D01*
X55288727Y-28829804D01*
X55312995Y-28826204D01*
X55337499Y-28825000D01*
X56412501Y-28825000D01*
X56437005Y-28826204D01*
G37*
G04 #@! TD.AperFunction*
G04 #@! TA.AperFunction,SMDPad,CuDef*
G36*
X53474504Y-26851204D02*
G01*
X53498773Y-26854804D01*
X53522571Y-26860765D01*
X53545671Y-26869030D01*
X53567849Y-26879520D01*
X53588893Y-26892133D01*
X53608598Y-26906747D01*
X53626777Y-26923223D01*
X53643253Y-26941402D01*
X53657867Y-26961107D01*
X53670480Y-26982151D01*
X53680970Y-27004329D01*
X53689235Y-27027429D01*
X53695196Y-27051227D01*
X53698796Y-27075496D01*
X53700000Y-27100000D01*
X53700000Y-27900000D01*
X53698796Y-27924504D01*
X53695196Y-27948773D01*
X53689235Y-27972571D01*
X53680970Y-27995671D01*
X53670480Y-28017849D01*
X53657867Y-28038893D01*
X53643253Y-28058598D01*
X53626777Y-28076777D01*
X53608598Y-28093253D01*
X53588893Y-28107867D01*
X53567849Y-28120480D01*
X53545671Y-28130970D01*
X53522571Y-28139235D01*
X53498773Y-28145196D01*
X53474504Y-28148796D01*
X53450000Y-28150000D01*
X52625000Y-28150000D01*
X52600496Y-28148796D01*
X52576227Y-28145196D01*
X52552429Y-28139235D01*
X52529329Y-28130970D01*
X52507151Y-28120480D01*
X52486107Y-28107867D01*
X52466402Y-28093253D01*
X52448223Y-28076777D01*
X52431747Y-28058598D01*
X52417133Y-28038893D01*
X52404520Y-28017849D01*
X52394030Y-27995671D01*
X52385765Y-27972571D01*
X52379804Y-27948773D01*
X52376204Y-27924504D01*
X52375000Y-27900000D01*
X52375000Y-27100000D01*
X52376204Y-27075496D01*
X52379804Y-27051227D01*
X52385765Y-27027429D01*
X52394030Y-27004329D01*
X52404520Y-26982151D01*
X52417133Y-26961107D01*
X52431747Y-26941402D01*
X52448223Y-26923223D01*
X52466402Y-26906747D01*
X52486107Y-26892133D01*
X52507151Y-26879520D01*
X52529329Y-26869030D01*
X52552429Y-26860765D01*
X52576227Y-26854804D01*
X52600496Y-26851204D01*
X52625000Y-26850000D01*
X53450000Y-26850000D01*
X53474504Y-26851204D01*
G37*
G04 #@! TD.AperFunction*
G04 #@! TA.AperFunction,SMDPad,CuDef*
G36*
X55399504Y-26851204D02*
G01*
X55423773Y-26854804D01*
X55447571Y-26860765D01*
X55470671Y-26869030D01*
X55492849Y-26879520D01*
X55513893Y-26892133D01*
X55533598Y-26906747D01*
X55551777Y-26923223D01*
X55568253Y-26941402D01*
X55582867Y-26961107D01*
X55595480Y-26982151D01*
X55605970Y-27004329D01*
X55614235Y-27027429D01*
X55620196Y-27051227D01*
X55623796Y-27075496D01*
X55625000Y-27100000D01*
X55625000Y-27900000D01*
X55623796Y-27924504D01*
X55620196Y-27948773D01*
X55614235Y-27972571D01*
X55605970Y-27995671D01*
X55595480Y-28017849D01*
X55582867Y-28038893D01*
X55568253Y-28058598D01*
X55551777Y-28076777D01*
X55533598Y-28093253D01*
X55513893Y-28107867D01*
X55492849Y-28120480D01*
X55470671Y-28130970D01*
X55447571Y-28139235D01*
X55423773Y-28145196D01*
X55399504Y-28148796D01*
X55375000Y-28150000D01*
X54550000Y-28150000D01*
X54525496Y-28148796D01*
X54501227Y-28145196D01*
X54477429Y-28139235D01*
X54454329Y-28130970D01*
X54432151Y-28120480D01*
X54411107Y-28107867D01*
X54391402Y-28093253D01*
X54373223Y-28076777D01*
X54356747Y-28058598D01*
X54342133Y-28038893D01*
X54329520Y-28017849D01*
X54319030Y-27995671D01*
X54310765Y-27972571D01*
X54304804Y-27948773D01*
X54301204Y-27924504D01*
X54300000Y-27900000D01*
X54300000Y-27100000D01*
X54301204Y-27075496D01*
X54304804Y-27051227D01*
X54310765Y-27027429D01*
X54319030Y-27004329D01*
X54329520Y-26982151D01*
X54342133Y-26961107D01*
X54356747Y-26941402D01*
X54373223Y-26923223D01*
X54391402Y-26906747D01*
X54411107Y-26892133D01*
X54432151Y-26879520D01*
X54454329Y-26869030D01*
X54477429Y-26860765D01*
X54501227Y-26854804D01*
X54525496Y-26851204D01*
X54550000Y-26850000D01*
X55375000Y-26850000D01*
X55399504Y-26851204D01*
G37*
G04 #@! TD.AperFunction*
G04 #@! TA.AperFunction,SMDPad,CuDef*
G36*
X61899504Y-26851204D02*
G01*
X61923773Y-26854804D01*
X61947571Y-26860765D01*
X61970671Y-26869030D01*
X61992849Y-26879520D01*
X62013893Y-26892133D01*
X62033598Y-26906747D01*
X62051777Y-26923223D01*
X62068253Y-26941402D01*
X62082867Y-26961107D01*
X62095480Y-26982151D01*
X62105970Y-27004329D01*
X62114235Y-27027429D01*
X62120196Y-27051227D01*
X62123796Y-27075496D01*
X62125000Y-27100000D01*
X62125000Y-27900000D01*
X62123796Y-27924504D01*
X62120196Y-27948773D01*
X62114235Y-27972571D01*
X62105970Y-27995671D01*
X62095480Y-28017849D01*
X62082867Y-28038893D01*
X62068253Y-28058598D01*
X62051777Y-28076777D01*
X62033598Y-28093253D01*
X62013893Y-28107867D01*
X61992849Y-28120480D01*
X61970671Y-28130970D01*
X61947571Y-28139235D01*
X61923773Y-28145196D01*
X61899504Y-28148796D01*
X61875000Y-28150000D01*
X61050000Y-28150000D01*
X61025496Y-28148796D01*
X61001227Y-28145196D01*
X60977429Y-28139235D01*
X60954329Y-28130970D01*
X60932151Y-28120480D01*
X60911107Y-28107867D01*
X60891402Y-28093253D01*
X60873223Y-28076777D01*
X60856747Y-28058598D01*
X60842133Y-28038893D01*
X60829520Y-28017849D01*
X60819030Y-27995671D01*
X60810765Y-27972571D01*
X60804804Y-27948773D01*
X60801204Y-27924504D01*
X60800000Y-27900000D01*
X60800000Y-27100000D01*
X60801204Y-27075496D01*
X60804804Y-27051227D01*
X60810765Y-27027429D01*
X60819030Y-27004329D01*
X60829520Y-26982151D01*
X60842133Y-26961107D01*
X60856747Y-26941402D01*
X60873223Y-26923223D01*
X60891402Y-26906747D01*
X60911107Y-26892133D01*
X60932151Y-26879520D01*
X60954329Y-26869030D01*
X60977429Y-26860765D01*
X61001227Y-26854804D01*
X61025496Y-26851204D01*
X61050000Y-26850000D01*
X61875000Y-26850000D01*
X61899504Y-26851204D01*
G37*
G04 #@! TD.AperFunction*
G04 #@! TA.AperFunction,SMDPad,CuDef*
G36*
X59974504Y-26851204D02*
G01*
X59998773Y-26854804D01*
X60022571Y-26860765D01*
X60045671Y-26869030D01*
X60067849Y-26879520D01*
X60088893Y-26892133D01*
X60108598Y-26906747D01*
X60126777Y-26923223D01*
X60143253Y-26941402D01*
X60157867Y-26961107D01*
X60170480Y-26982151D01*
X60180970Y-27004329D01*
X60189235Y-27027429D01*
X60195196Y-27051227D01*
X60198796Y-27075496D01*
X60200000Y-27100000D01*
X60200000Y-27900000D01*
X60198796Y-27924504D01*
X60195196Y-27948773D01*
X60189235Y-27972571D01*
X60180970Y-27995671D01*
X60170480Y-28017849D01*
X60157867Y-28038893D01*
X60143253Y-28058598D01*
X60126777Y-28076777D01*
X60108598Y-28093253D01*
X60088893Y-28107867D01*
X60067849Y-28120480D01*
X60045671Y-28130970D01*
X60022571Y-28139235D01*
X59998773Y-28145196D01*
X59974504Y-28148796D01*
X59950000Y-28150000D01*
X59125000Y-28150000D01*
X59100496Y-28148796D01*
X59076227Y-28145196D01*
X59052429Y-28139235D01*
X59029329Y-28130970D01*
X59007151Y-28120480D01*
X58986107Y-28107867D01*
X58966402Y-28093253D01*
X58948223Y-28076777D01*
X58931747Y-28058598D01*
X58917133Y-28038893D01*
X58904520Y-28017849D01*
X58894030Y-27995671D01*
X58885765Y-27972571D01*
X58879804Y-27948773D01*
X58876204Y-27924504D01*
X58875000Y-27900000D01*
X58875000Y-27100000D01*
X58876204Y-27075496D01*
X58879804Y-27051227D01*
X58885765Y-27027429D01*
X58894030Y-27004329D01*
X58904520Y-26982151D01*
X58917133Y-26961107D01*
X58931747Y-26941402D01*
X58948223Y-26923223D01*
X58966402Y-26906747D01*
X58986107Y-26892133D01*
X59007151Y-26879520D01*
X59029329Y-26869030D01*
X59052429Y-26860765D01*
X59076227Y-26854804D01*
X59100496Y-26851204D01*
X59125000Y-26850000D01*
X59950000Y-26850000D01*
X59974504Y-26851204D01*
G37*
G04 #@! TD.AperFunction*
G04 #@! TA.AperFunction,SMDPad,CuDef*
G36*
X62937005Y-28826204D02*
G01*
X62961273Y-28829804D01*
X62985072Y-28835765D01*
X63008171Y-28844030D01*
X63030350Y-28854520D01*
X63051393Y-28867132D01*
X63071099Y-28881747D01*
X63089277Y-28898223D01*
X63105753Y-28916401D01*
X63120368Y-28936107D01*
X63132980Y-28957150D01*
X63143470Y-28979329D01*
X63151735Y-29002428D01*
X63157696Y-29026227D01*
X63161296Y-29050495D01*
X63162500Y-29074999D01*
X63162500Y-29925001D01*
X63161296Y-29949505D01*
X63157696Y-29973773D01*
X63151735Y-29997572D01*
X63143470Y-30020671D01*
X63132980Y-30042850D01*
X63120368Y-30063893D01*
X63105753Y-30083599D01*
X63089277Y-30101777D01*
X63071099Y-30118253D01*
X63051393Y-30132868D01*
X63030350Y-30145480D01*
X63008171Y-30155970D01*
X62985072Y-30164235D01*
X62961273Y-30170196D01*
X62937005Y-30173796D01*
X62912501Y-30175000D01*
X61837499Y-30175000D01*
X61812995Y-30173796D01*
X61788727Y-30170196D01*
X61764928Y-30164235D01*
X61741829Y-30155970D01*
X61719650Y-30145480D01*
X61698607Y-30132868D01*
X61678901Y-30118253D01*
X61660723Y-30101777D01*
X61644247Y-30083599D01*
X61629632Y-30063893D01*
X61617020Y-30042850D01*
X61606530Y-30020671D01*
X61598265Y-29997572D01*
X61592304Y-29973773D01*
X61588704Y-29949505D01*
X61587500Y-29925001D01*
X61587500Y-29074999D01*
X61588704Y-29050495D01*
X61592304Y-29026227D01*
X61598265Y-29002428D01*
X61606530Y-28979329D01*
X61617020Y-28957150D01*
X61629632Y-28936107D01*
X61644247Y-28916401D01*
X61660723Y-28898223D01*
X61678901Y-28881747D01*
X61698607Y-28867132D01*
X61719650Y-28854520D01*
X61741829Y-28844030D01*
X61764928Y-28835765D01*
X61788727Y-28829804D01*
X61812995Y-28826204D01*
X61837499Y-28825000D01*
X62912501Y-28825000D01*
X62937005Y-28826204D01*
G37*
G04 #@! TD.AperFunction*
G04 #@! TA.AperFunction,SMDPad,CuDef*
G36*
X60062005Y-28826204D02*
G01*
X60086273Y-28829804D01*
X60110072Y-28835765D01*
X60133171Y-28844030D01*
X60155350Y-28854520D01*
X60176393Y-28867132D01*
X60196099Y-28881747D01*
X60214277Y-28898223D01*
X60230753Y-28916401D01*
X60245368Y-28936107D01*
X60257980Y-28957150D01*
X60268470Y-28979329D01*
X60276735Y-29002428D01*
X60282696Y-29026227D01*
X60286296Y-29050495D01*
X60287500Y-29074999D01*
X60287500Y-29925001D01*
X60286296Y-29949505D01*
X60282696Y-29973773D01*
X60276735Y-29997572D01*
X60268470Y-30020671D01*
X60257980Y-30042850D01*
X60245368Y-30063893D01*
X60230753Y-30083599D01*
X60214277Y-30101777D01*
X60196099Y-30118253D01*
X60176393Y-30132868D01*
X60155350Y-30145480D01*
X60133171Y-30155970D01*
X60110072Y-30164235D01*
X60086273Y-30170196D01*
X60062005Y-30173796D01*
X60037501Y-30175000D01*
X58962499Y-30175000D01*
X58937995Y-30173796D01*
X58913727Y-30170196D01*
X58889928Y-30164235D01*
X58866829Y-30155970D01*
X58844650Y-30145480D01*
X58823607Y-30132868D01*
X58803901Y-30118253D01*
X58785723Y-30101777D01*
X58769247Y-30083599D01*
X58754632Y-30063893D01*
X58742020Y-30042850D01*
X58731530Y-30020671D01*
X58723265Y-29997572D01*
X58717304Y-29973773D01*
X58713704Y-29949505D01*
X58712500Y-29925001D01*
X58712500Y-29074999D01*
X58713704Y-29050495D01*
X58717304Y-29026227D01*
X58723265Y-29002428D01*
X58731530Y-28979329D01*
X58742020Y-28957150D01*
X58754632Y-28936107D01*
X58769247Y-28916401D01*
X58785723Y-28898223D01*
X58803901Y-28881747D01*
X58823607Y-28867132D01*
X58844650Y-28854520D01*
X58866829Y-28844030D01*
X58889928Y-28835765D01*
X58913727Y-28829804D01*
X58937995Y-28826204D01*
X58962499Y-28825000D01*
X60037501Y-28825000D01*
X60062005Y-28826204D01*
G37*
G04 #@! TD.AperFunction*
G04 #@! TA.AperFunction,SMDPad,CuDef*
G36*
X42764703Y-31325722D02*
G01*
X42779264Y-31327882D01*
X42793543Y-31331459D01*
X42807403Y-31336418D01*
X42820710Y-31342712D01*
X42833336Y-31350280D01*
X42845159Y-31359048D01*
X42856066Y-31368934D01*
X42865952Y-31379841D01*
X42874720Y-31391664D01*
X42882288Y-31404290D01*
X42888582Y-31417597D01*
X42893541Y-31431457D01*
X42897118Y-31445736D01*
X42899278Y-31460297D01*
X42900000Y-31475000D01*
X42900000Y-32925000D01*
X42899278Y-32939703D01*
X42897118Y-32954264D01*
X42893541Y-32968543D01*
X42888582Y-32982403D01*
X42882288Y-32995710D01*
X42874720Y-33008336D01*
X42865952Y-33020159D01*
X42856066Y-33031066D01*
X42845159Y-33040952D01*
X42833336Y-33049720D01*
X42820710Y-33057288D01*
X42807403Y-33063582D01*
X42793543Y-33068541D01*
X42779264Y-33072118D01*
X42764703Y-33074278D01*
X42750000Y-33075000D01*
X42450000Y-33075000D01*
X42435297Y-33074278D01*
X42420736Y-33072118D01*
X42406457Y-33068541D01*
X42392597Y-33063582D01*
X42379290Y-33057288D01*
X42366664Y-33049720D01*
X42354841Y-33040952D01*
X42343934Y-33031066D01*
X42334048Y-33020159D01*
X42325280Y-33008336D01*
X42317712Y-32995710D01*
X42311418Y-32982403D01*
X42306459Y-32968543D01*
X42302882Y-32954264D01*
X42300722Y-32939703D01*
X42300000Y-32925000D01*
X42300000Y-31475000D01*
X42300722Y-31460297D01*
X42302882Y-31445736D01*
X42306459Y-31431457D01*
X42311418Y-31417597D01*
X42317712Y-31404290D01*
X42325280Y-31391664D01*
X42334048Y-31379841D01*
X42343934Y-31368934D01*
X42354841Y-31359048D01*
X42366664Y-31350280D01*
X42379290Y-31342712D01*
X42392597Y-31336418D01*
X42406457Y-31331459D01*
X42420736Y-31327882D01*
X42435297Y-31325722D01*
X42450000Y-31325000D01*
X42750000Y-31325000D01*
X42764703Y-31325722D01*
G37*
G04 #@! TD.AperFunction*
G04 #@! TA.AperFunction,SMDPad,CuDef*
G36*
X41494703Y-31325722D02*
G01*
X41509264Y-31327882D01*
X41523543Y-31331459D01*
X41537403Y-31336418D01*
X41550710Y-31342712D01*
X41563336Y-31350280D01*
X41575159Y-31359048D01*
X41586066Y-31368934D01*
X41595952Y-31379841D01*
X41604720Y-31391664D01*
X41612288Y-31404290D01*
X41618582Y-31417597D01*
X41623541Y-31431457D01*
X41627118Y-31445736D01*
X41629278Y-31460297D01*
X41630000Y-31475000D01*
X41630000Y-32925000D01*
X41629278Y-32939703D01*
X41627118Y-32954264D01*
X41623541Y-32968543D01*
X41618582Y-32982403D01*
X41612288Y-32995710D01*
X41604720Y-33008336D01*
X41595952Y-33020159D01*
X41586066Y-33031066D01*
X41575159Y-33040952D01*
X41563336Y-33049720D01*
X41550710Y-33057288D01*
X41537403Y-33063582D01*
X41523543Y-33068541D01*
X41509264Y-33072118D01*
X41494703Y-33074278D01*
X41480000Y-33075000D01*
X41180000Y-33075000D01*
X41165297Y-33074278D01*
X41150736Y-33072118D01*
X41136457Y-33068541D01*
X41122597Y-33063582D01*
X41109290Y-33057288D01*
X41096664Y-33049720D01*
X41084841Y-33040952D01*
X41073934Y-33031066D01*
X41064048Y-33020159D01*
X41055280Y-33008336D01*
X41047712Y-32995710D01*
X41041418Y-32982403D01*
X41036459Y-32968543D01*
X41032882Y-32954264D01*
X41030722Y-32939703D01*
X41030000Y-32925000D01*
X41030000Y-31475000D01*
X41030722Y-31460297D01*
X41032882Y-31445736D01*
X41036459Y-31431457D01*
X41041418Y-31417597D01*
X41047712Y-31404290D01*
X41055280Y-31391664D01*
X41064048Y-31379841D01*
X41073934Y-31368934D01*
X41084841Y-31359048D01*
X41096664Y-31350280D01*
X41109290Y-31342712D01*
X41122597Y-31336418D01*
X41136457Y-31331459D01*
X41150736Y-31327882D01*
X41165297Y-31325722D01*
X41180000Y-31325000D01*
X41480000Y-31325000D01*
X41494703Y-31325722D01*
G37*
G04 #@! TD.AperFunction*
G04 #@! TA.AperFunction,SMDPad,CuDef*
G36*
X40224703Y-31325722D02*
G01*
X40239264Y-31327882D01*
X40253543Y-31331459D01*
X40267403Y-31336418D01*
X40280710Y-31342712D01*
X40293336Y-31350280D01*
X40305159Y-31359048D01*
X40316066Y-31368934D01*
X40325952Y-31379841D01*
X40334720Y-31391664D01*
X40342288Y-31404290D01*
X40348582Y-31417597D01*
X40353541Y-31431457D01*
X40357118Y-31445736D01*
X40359278Y-31460297D01*
X40360000Y-31475000D01*
X40360000Y-32925000D01*
X40359278Y-32939703D01*
X40357118Y-32954264D01*
X40353541Y-32968543D01*
X40348582Y-32982403D01*
X40342288Y-32995710D01*
X40334720Y-33008336D01*
X40325952Y-33020159D01*
X40316066Y-33031066D01*
X40305159Y-33040952D01*
X40293336Y-33049720D01*
X40280710Y-33057288D01*
X40267403Y-33063582D01*
X40253543Y-33068541D01*
X40239264Y-33072118D01*
X40224703Y-33074278D01*
X40210000Y-33075000D01*
X39910000Y-33075000D01*
X39895297Y-33074278D01*
X39880736Y-33072118D01*
X39866457Y-33068541D01*
X39852597Y-33063582D01*
X39839290Y-33057288D01*
X39826664Y-33049720D01*
X39814841Y-33040952D01*
X39803934Y-33031066D01*
X39794048Y-33020159D01*
X39785280Y-33008336D01*
X39777712Y-32995710D01*
X39771418Y-32982403D01*
X39766459Y-32968543D01*
X39762882Y-32954264D01*
X39760722Y-32939703D01*
X39760000Y-32925000D01*
X39760000Y-31475000D01*
X39760722Y-31460297D01*
X39762882Y-31445736D01*
X39766459Y-31431457D01*
X39771418Y-31417597D01*
X39777712Y-31404290D01*
X39785280Y-31391664D01*
X39794048Y-31379841D01*
X39803934Y-31368934D01*
X39814841Y-31359048D01*
X39826664Y-31350280D01*
X39839290Y-31342712D01*
X39852597Y-31336418D01*
X39866457Y-31331459D01*
X39880736Y-31327882D01*
X39895297Y-31325722D01*
X39910000Y-31325000D01*
X40210000Y-31325000D01*
X40224703Y-31325722D01*
G37*
G04 #@! TD.AperFunction*
G04 #@! TA.AperFunction,SMDPad,CuDef*
G36*
X38954703Y-31325722D02*
G01*
X38969264Y-31327882D01*
X38983543Y-31331459D01*
X38997403Y-31336418D01*
X39010710Y-31342712D01*
X39023336Y-31350280D01*
X39035159Y-31359048D01*
X39046066Y-31368934D01*
X39055952Y-31379841D01*
X39064720Y-31391664D01*
X39072288Y-31404290D01*
X39078582Y-31417597D01*
X39083541Y-31431457D01*
X39087118Y-31445736D01*
X39089278Y-31460297D01*
X39090000Y-31475000D01*
X39090000Y-32925000D01*
X39089278Y-32939703D01*
X39087118Y-32954264D01*
X39083541Y-32968543D01*
X39078582Y-32982403D01*
X39072288Y-32995710D01*
X39064720Y-33008336D01*
X39055952Y-33020159D01*
X39046066Y-33031066D01*
X39035159Y-33040952D01*
X39023336Y-33049720D01*
X39010710Y-33057288D01*
X38997403Y-33063582D01*
X38983543Y-33068541D01*
X38969264Y-33072118D01*
X38954703Y-33074278D01*
X38940000Y-33075000D01*
X38640000Y-33075000D01*
X38625297Y-33074278D01*
X38610736Y-33072118D01*
X38596457Y-33068541D01*
X38582597Y-33063582D01*
X38569290Y-33057288D01*
X38556664Y-33049720D01*
X38544841Y-33040952D01*
X38533934Y-33031066D01*
X38524048Y-33020159D01*
X38515280Y-33008336D01*
X38507712Y-32995710D01*
X38501418Y-32982403D01*
X38496459Y-32968543D01*
X38492882Y-32954264D01*
X38490722Y-32939703D01*
X38490000Y-32925000D01*
X38490000Y-31475000D01*
X38490722Y-31460297D01*
X38492882Y-31445736D01*
X38496459Y-31431457D01*
X38501418Y-31417597D01*
X38507712Y-31404290D01*
X38515280Y-31391664D01*
X38524048Y-31379841D01*
X38533934Y-31368934D01*
X38544841Y-31359048D01*
X38556664Y-31350280D01*
X38569290Y-31342712D01*
X38582597Y-31336418D01*
X38596457Y-31331459D01*
X38610736Y-31327882D01*
X38625297Y-31325722D01*
X38640000Y-31325000D01*
X38940000Y-31325000D01*
X38954703Y-31325722D01*
G37*
G04 #@! TD.AperFunction*
G04 #@! TA.AperFunction,SMDPad,CuDef*
G36*
X38954703Y-36475722D02*
G01*
X38969264Y-36477882D01*
X38983543Y-36481459D01*
X38997403Y-36486418D01*
X39010710Y-36492712D01*
X39023336Y-36500280D01*
X39035159Y-36509048D01*
X39046066Y-36518934D01*
X39055952Y-36529841D01*
X39064720Y-36541664D01*
X39072288Y-36554290D01*
X39078582Y-36567597D01*
X39083541Y-36581457D01*
X39087118Y-36595736D01*
X39089278Y-36610297D01*
X39090000Y-36625000D01*
X39090000Y-38075000D01*
X39089278Y-38089703D01*
X39087118Y-38104264D01*
X39083541Y-38118543D01*
X39078582Y-38132403D01*
X39072288Y-38145710D01*
X39064720Y-38158336D01*
X39055952Y-38170159D01*
X39046066Y-38181066D01*
X39035159Y-38190952D01*
X39023336Y-38199720D01*
X39010710Y-38207288D01*
X38997403Y-38213582D01*
X38983543Y-38218541D01*
X38969264Y-38222118D01*
X38954703Y-38224278D01*
X38940000Y-38225000D01*
X38640000Y-38225000D01*
X38625297Y-38224278D01*
X38610736Y-38222118D01*
X38596457Y-38218541D01*
X38582597Y-38213582D01*
X38569290Y-38207288D01*
X38556664Y-38199720D01*
X38544841Y-38190952D01*
X38533934Y-38181066D01*
X38524048Y-38170159D01*
X38515280Y-38158336D01*
X38507712Y-38145710D01*
X38501418Y-38132403D01*
X38496459Y-38118543D01*
X38492882Y-38104264D01*
X38490722Y-38089703D01*
X38490000Y-38075000D01*
X38490000Y-36625000D01*
X38490722Y-36610297D01*
X38492882Y-36595736D01*
X38496459Y-36581457D01*
X38501418Y-36567597D01*
X38507712Y-36554290D01*
X38515280Y-36541664D01*
X38524048Y-36529841D01*
X38533934Y-36518934D01*
X38544841Y-36509048D01*
X38556664Y-36500280D01*
X38569290Y-36492712D01*
X38582597Y-36486418D01*
X38596457Y-36481459D01*
X38610736Y-36477882D01*
X38625297Y-36475722D01*
X38640000Y-36475000D01*
X38940000Y-36475000D01*
X38954703Y-36475722D01*
G37*
G04 #@! TD.AperFunction*
G04 #@! TA.AperFunction,SMDPad,CuDef*
G36*
X40224703Y-36475722D02*
G01*
X40239264Y-36477882D01*
X40253543Y-36481459D01*
X40267403Y-36486418D01*
X40280710Y-36492712D01*
X40293336Y-36500280D01*
X40305159Y-36509048D01*
X40316066Y-36518934D01*
X40325952Y-36529841D01*
X40334720Y-36541664D01*
X40342288Y-36554290D01*
X40348582Y-36567597D01*
X40353541Y-36581457D01*
X40357118Y-36595736D01*
X40359278Y-36610297D01*
X40360000Y-36625000D01*
X40360000Y-38075000D01*
X40359278Y-38089703D01*
X40357118Y-38104264D01*
X40353541Y-38118543D01*
X40348582Y-38132403D01*
X40342288Y-38145710D01*
X40334720Y-38158336D01*
X40325952Y-38170159D01*
X40316066Y-38181066D01*
X40305159Y-38190952D01*
X40293336Y-38199720D01*
X40280710Y-38207288D01*
X40267403Y-38213582D01*
X40253543Y-38218541D01*
X40239264Y-38222118D01*
X40224703Y-38224278D01*
X40210000Y-38225000D01*
X39910000Y-38225000D01*
X39895297Y-38224278D01*
X39880736Y-38222118D01*
X39866457Y-38218541D01*
X39852597Y-38213582D01*
X39839290Y-38207288D01*
X39826664Y-38199720D01*
X39814841Y-38190952D01*
X39803934Y-38181066D01*
X39794048Y-38170159D01*
X39785280Y-38158336D01*
X39777712Y-38145710D01*
X39771418Y-38132403D01*
X39766459Y-38118543D01*
X39762882Y-38104264D01*
X39760722Y-38089703D01*
X39760000Y-38075000D01*
X39760000Y-36625000D01*
X39760722Y-36610297D01*
X39762882Y-36595736D01*
X39766459Y-36581457D01*
X39771418Y-36567597D01*
X39777712Y-36554290D01*
X39785280Y-36541664D01*
X39794048Y-36529841D01*
X39803934Y-36518934D01*
X39814841Y-36509048D01*
X39826664Y-36500280D01*
X39839290Y-36492712D01*
X39852597Y-36486418D01*
X39866457Y-36481459D01*
X39880736Y-36477882D01*
X39895297Y-36475722D01*
X39910000Y-36475000D01*
X40210000Y-36475000D01*
X40224703Y-36475722D01*
G37*
G04 #@! TD.AperFunction*
G04 #@! TA.AperFunction,SMDPad,CuDef*
G36*
X41494703Y-36475722D02*
G01*
X41509264Y-36477882D01*
X41523543Y-36481459D01*
X41537403Y-36486418D01*
X41550710Y-36492712D01*
X41563336Y-36500280D01*
X41575159Y-36509048D01*
X41586066Y-36518934D01*
X41595952Y-36529841D01*
X41604720Y-36541664D01*
X41612288Y-36554290D01*
X41618582Y-36567597D01*
X41623541Y-36581457D01*
X41627118Y-36595736D01*
X41629278Y-36610297D01*
X41630000Y-36625000D01*
X41630000Y-38075000D01*
X41629278Y-38089703D01*
X41627118Y-38104264D01*
X41623541Y-38118543D01*
X41618582Y-38132403D01*
X41612288Y-38145710D01*
X41604720Y-38158336D01*
X41595952Y-38170159D01*
X41586066Y-38181066D01*
X41575159Y-38190952D01*
X41563336Y-38199720D01*
X41550710Y-38207288D01*
X41537403Y-38213582D01*
X41523543Y-38218541D01*
X41509264Y-38222118D01*
X41494703Y-38224278D01*
X41480000Y-38225000D01*
X41180000Y-38225000D01*
X41165297Y-38224278D01*
X41150736Y-38222118D01*
X41136457Y-38218541D01*
X41122597Y-38213582D01*
X41109290Y-38207288D01*
X41096664Y-38199720D01*
X41084841Y-38190952D01*
X41073934Y-38181066D01*
X41064048Y-38170159D01*
X41055280Y-38158336D01*
X41047712Y-38145710D01*
X41041418Y-38132403D01*
X41036459Y-38118543D01*
X41032882Y-38104264D01*
X41030722Y-38089703D01*
X41030000Y-38075000D01*
X41030000Y-36625000D01*
X41030722Y-36610297D01*
X41032882Y-36595736D01*
X41036459Y-36581457D01*
X41041418Y-36567597D01*
X41047712Y-36554290D01*
X41055280Y-36541664D01*
X41064048Y-36529841D01*
X41073934Y-36518934D01*
X41084841Y-36509048D01*
X41096664Y-36500280D01*
X41109290Y-36492712D01*
X41122597Y-36486418D01*
X41136457Y-36481459D01*
X41150736Y-36477882D01*
X41165297Y-36475722D01*
X41180000Y-36475000D01*
X41480000Y-36475000D01*
X41494703Y-36475722D01*
G37*
G04 #@! TD.AperFunction*
G04 #@! TA.AperFunction,SMDPad,CuDef*
G36*
X42764703Y-36475722D02*
G01*
X42779264Y-36477882D01*
X42793543Y-36481459D01*
X42807403Y-36486418D01*
X42820710Y-36492712D01*
X42833336Y-36500280D01*
X42845159Y-36509048D01*
X42856066Y-36518934D01*
X42865952Y-36529841D01*
X42874720Y-36541664D01*
X42882288Y-36554290D01*
X42888582Y-36567597D01*
X42893541Y-36581457D01*
X42897118Y-36595736D01*
X42899278Y-36610297D01*
X42900000Y-36625000D01*
X42900000Y-38075000D01*
X42899278Y-38089703D01*
X42897118Y-38104264D01*
X42893541Y-38118543D01*
X42888582Y-38132403D01*
X42882288Y-38145710D01*
X42874720Y-38158336D01*
X42865952Y-38170159D01*
X42856066Y-38181066D01*
X42845159Y-38190952D01*
X42833336Y-38199720D01*
X42820710Y-38207288D01*
X42807403Y-38213582D01*
X42793543Y-38218541D01*
X42779264Y-38222118D01*
X42764703Y-38224278D01*
X42750000Y-38225000D01*
X42450000Y-38225000D01*
X42435297Y-38224278D01*
X42420736Y-38222118D01*
X42406457Y-38218541D01*
X42392597Y-38213582D01*
X42379290Y-38207288D01*
X42366664Y-38199720D01*
X42354841Y-38190952D01*
X42343934Y-38181066D01*
X42334048Y-38170159D01*
X42325280Y-38158336D01*
X42317712Y-38145710D01*
X42311418Y-38132403D01*
X42306459Y-38118543D01*
X42302882Y-38104264D01*
X42300722Y-38089703D01*
X42300000Y-38075000D01*
X42300000Y-36625000D01*
X42300722Y-36610297D01*
X42302882Y-36595736D01*
X42306459Y-36581457D01*
X42311418Y-36567597D01*
X42317712Y-36554290D01*
X42325280Y-36541664D01*
X42334048Y-36529841D01*
X42343934Y-36518934D01*
X42354841Y-36509048D01*
X42366664Y-36500280D01*
X42379290Y-36492712D01*
X42392597Y-36486418D01*
X42406457Y-36481459D01*
X42420736Y-36477882D01*
X42435297Y-36475722D01*
X42450000Y-36475000D01*
X42750000Y-36475000D01*
X42764703Y-36475722D01*
G37*
G04 #@! TD.AperFunction*
G04 #@! TA.AperFunction,SMDPad,CuDef*
G36*
X44467642Y-31501174D02*
G01*
X44491303Y-31504684D01*
X44514507Y-31510496D01*
X44537029Y-31518554D01*
X44558653Y-31528782D01*
X44579170Y-31541079D01*
X44598383Y-31555329D01*
X44616107Y-31571393D01*
X44632171Y-31589117D01*
X44646421Y-31608330D01*
X44658718Y-31628847D01*
X44668946Y-31650471D01*
X44677004Y-31672993D01*
X44682816Y-31696197D01*
X44686326Y-31719858D01*
X44687500Y-31743750D01*
X44687500Y-32656250D01*
X44686326Y-32680142D01*
X44682816Y-32703803D01*
X44677004Y-32727007D01*
X44668946Y-32749529D01*
X44658718Y-32771153D01*
X44646421Y-32791670D01*
X44632171Y-32810883D01*
X44616107Y-32828607D01*
X44598383Y-32844671D01*
X44579170Y-32858921D01*
X44558653Y-32871218D01*
X44537029Y-32881446D01*
X44514507Y-32889504D01*
X44491303Y-32895316D01*
X44467642Y-32898826D01*
X44443750Y-32900000D01*
X43956250Y-32900000D01*
X43932358Y-32898826D01*
X43908697Y-32895316D01*
X43885493Y-32889504D01*
X43862971Y-32881446D01*
X43841347Y-32871218D01*
X43820830Y-32858921D01*
X43801617Y-32844671D01*
X43783893Y-32828607D01*
X43767829Y-32810883D01*
X43753579Y-32791670D01*
X43741282Y-32771153D01*
X43731054Y-32749529D01*
X43722996Y-32727007D01*
X43717184Y-32703803D01*
X43713674Y-32680142D01*
X43712500Y-32656250D01*
X43712500Y-31743750D01*
X43713674Y-31719858D01*
X43717184Y-31696197D01*
X43722996Y-31672993D01*
X43731054Y-31650471D01*
X43741282Y-31628847D01*
X43753579Y-31608330D01*
X43767829Y-31589117D01*
X43783893Y-31571393D01*
X43801617Y-31555329D01*
X43820830Y-31541079D01*
X43841347Y-31528782D01*
X43862971Y-31518554D01*
X43885493Y-31510496D01*
X43908697Y-31504684D01*
X43932358Y-31501174D01*
X43956250Y-31500000D01*
X44443750Y-31500000D01*
X44467642Y-31501174D01*
G37*
G04 #@! TD.AperFunction*
G04 #@! TA.AperFunction,SMDPad,CuDef*
G36*
X46342642Y-31501174D02*
G01*
X46366303Y-31504684D01*
X46389507Y-31510496D01*
X46412029Y-31518554D01*
X46433653Y-31528782D01*
X46454170Y-31541079D01*
X46473383Y-31555329D01*
X46491107Y-31571393D01*
X46507171Y-31589117D01*
X46521421Y-31608330D01*
X46533718Y-31628847D01*
X46543946Y-31650471D01*
X46552004Y-31672993D01*
X46557816Y-31696197D01*
X46561326Y-31719858D01*
X46562500Y-31743750D01*
X46562500Y-32656250D01*
X46561326Y-32680142D01*
X46557816Y-32703803D01*
X46552004Y-32727007D01*
X46543946Y-32749529D01*
X46533718Y-32771153D01*
X46521421Y-32791670D01*
X46507171Y-32810883D01*
X46491107Y-32828607D01*
X46473383Y-32844671D01*
X46454170Y-32858921D01*
X46433653Y-32871218D01*
X46412029Y-32881446D01*
X46389507Y-32889504D01*
X46366303Y-32895316D01*
X46342642Y-32898826D01*
X46318750Y-32900000D01*
X45831250Y-32900000D01*
X45807358Y-32898826D01*
X45783697Y-32895316D01*
X45760493Y-32889504D01*
X45737971Y-32881446D01*
X45716347Y-32871218D01*
X45695830Y-32858921D01*
X45676617Y-32844671D01*
X45658893Y-32828607D01*
X45642829Y-32810883D01*
X45628579Y-32791670D01*
X45616282Y-32771153D01*
X45606054Y-32749529D01*
X45597996Y-32727007D01*
X45592184Y-32703803D01*
X45588674Y-32680142D01*
X45587500Y-32656250D01*
X45587500Y-31743750D01*
X45588674Y-31719858D01*
X45592184Y-31696197D01*
X45597996Y-31672993D01*
X45606054Y-31650471D01*
X45616282Y-31628847D01*
X45628579Y-31608330D01*
X45642829Y-31589117D01*
X45658893Y-31571393D01*
X45676617Y-31555329D01*
X45695830Y-31541079D01*
X45716347Y-31528782D01*
X45737971Y-31518554D01*
X45760493Y-31510496D01*
X45783697Y-31504684D01*
X45807358Y-31501174D01*
X45831250Y-31500000D01*
X46318750Y-31500000D01*
X46342642Y-31501174D01*
G37*
G04 #@! TD.AperFunction*
G04 #@! TA.AperFunction,SMDPad,CuDef*
G36*
X40305142Y-38851174D02*
G01*
X40328803Y-38854684D01*
X40352007Y-38860496D01*
X40374529Y-38868554D01*
X40396153Y-38878782D01*
X40416670Y-38891079D01*
X40435883Y-38905329D01*
X40453607Y-38921393D01*
X40469671Y-38939117D01*
X40483921Y-38958330D01*
X40496218Y-38978847D01*
X40506446Y-39000471D01*
X40514504Y-39022993D01*
X40520316Y-39046197D01*
X40523826Y-39069858D01*
X40525000Y-39093750D01*
X40525000Y-40006250D01*
X40523826Y-40030142D01*
X40520316Y-40053803D01*
X40514504Y-40077007D01*
X40506446Y-40099529D01*
X40496218Y-40121153D01*
X40483921Y-40141670D01*
X40469671Y-40160883D01*
X40453607Y-40178607D01*
X40435883Y-40194671D01*
X40416670Y-40208921D01*
X40396153Y-40221218D01*
X40374529Y-40231446D01*
X40352007Y-40239504D01*
X40328803Y-40245316D01*
X40305142Y-40248826D01*
X40281250Y-40250000D01*
X39793750Y-40250000D01*
X39769858Y-40248826D01*
X39746197Y-40245316D01*
X39722993Y-40239504D01*
X39700471Y-40231446D01*
X39678847Y-40221218D01*
X39658330Y-40208921D01*
X39639117Y-40194671D01*
X39621393Y-40178607D01*
X39605329Y-40160883D01*
X39591079Y-40141670D01*
X39578782Y-40121153D01*
X39568554Y-40099529D01*
X39560496Y-40077007D01*
X39554684Y-40053803D01*
X39551174Y-40030142D01*
X39550000Y-40006250D01*
X39550000Y-39093750D01*
X39551174Y-39069858D01*
X39554684Y-39046197D01*
X39560496Y-39022993D01*
X39568554Y-39000471D01*
X39578782Y-38978847D01*
X39591079Y-38958330D01*
X39605329Y-38939117D01*
X39621393Y-38921393D01*
X39639117Y-38905329D01*
X39658330Y-38891079D01*
X39678847Y-38878782D01*
X39700471Y-38868554D01*
X39722993Y-38860496D01*
X39746197Y-38854684D01*
X39769858Y-38851174D01*
X39793750Y-38850000D01*
X40281250Y-38850000D01*
X40305142Y-38851174D01*
G37*
G04 #@! TD.AperFunction*
G04 #@! TA.AperFunction,SMDPad,CuDef*
G36*
X38430142Y-38851174D02*
G01*
X38453803Y-38854684D01*
X38477007Y-38860496D01*
X38499529Y-38868554D01*
X38521153Y-38878782D01*
X38541670Y-38891079D01*
X38560883Y-38905329D01*
X38578607Y-38921393D01*
X38594671Y-38939117D01*
X38608921Y-38958330D01*
X38621218Y-38978847D01*
X38631446Y-39000471D01*
X38639504Y-39022993D01*
X38645316Y-39046197D01*
X38648826Y-39069858D01*
X38650000Y-39093750D01*
X38650000Y-40006250D01*
X38648826Y-40030142D01*
X38645316Y-40053803D01*
X38639504Y-40077007D01*
X38631446Y-40099529D01*
X38621218Y-40121153D01*
X38608921Y-40141670D01*
X38594671Y-40160883D01*
X38578607Y-40178607D01*
X38560883Y-40194671D01*
X38541670Y-40208921D01*
X38521153Y-40221218D01*
X38499529Y-40231446D01*
X38477007Y-40239504D01*
X38453803Y-40245316D01*
X38430142Y-40248826D01*
X38406250Y-40250000D01*
X37918750Y-40250000D01*
X37894858Y-40248826D01*
X37871197Y-40245316D01*
X37847993Y-40239504D01*
X37825471Y-40231446D01*
X37803847Y-40221218D01*
X37783330Y-40208921D01*
X37764117Y-40194671D01*
X37746393Y-40178607D01*
X37730329Y-40160883D01*
X37716079Y-40141670D01*
X37703782Y-40121153D01*
X37693554Y-40099529D01*
X37685496Y-40077007D01*
X37679684Y-40053803D01*
X37676174Y-40030142D01*
X37675000Y-40006250D01*
X37675000Y-39093750D01*
X37676174Y-39069858D01*
X37679684Y-39046197D01*
X37685496Y-39022993D01*
X37693554Y-39000471D01*
X37703782Y-38978847D01*
X37716079Y-38958330D01*
X37730329Y-38939117D01*
X37746393Y-38921393D01*
X37764117Y-38905329D01*
X37783330Y-38891079D01*
X37803847Y-38878782D01*
X37825471Y-38868554D01*
X37847993Y-38860496D01*
X37871197Y-38854684D01*
X37894858Y-38851174D01*
X37918750Y-38850000D01*
X38406250Y-38850000D01*
X38430142Y-38851174D01*
G37*
G04 #@! TD.AperFunction*
G04 #@! TA.AperFunction,SMDPad,CuDef*
G36*
X35080142Y-33476174D02*
G01*
X35103803Y-33479684D01*
X35127007Y-33485496D01*
X35149529Y-33493554D01*
X35171153Y-33503782D01*
X35191670Y-33516079D01*
X35210883Y-33530329D01*
X35228607Y-33546393D01*
X35244671Y-33564117D01*
X35258921Y-33583330D01*
X35271218Y-33603847D01*
X35281446Y-33625471D01*
X35289504Y-33647993D01*
X35295316Y-33671197D01*
X35298826Y-33694858D01*
X35300000Y-33718750D01*
X35300000Y-34206250D01*
X35298826Y-34230142D01*
X35295316Y-34253803D01*
X35289504Y-34277007D01*
X35281446Y-34299529D01*
X35271218Y-34321153D01*
X35258921Y-34341670D01*
X35244671Y-34360883D01*
X35228607Y-34378607D01*
X35210883Y-34394671D01*
X35191670Y-34408921D01*
X35171153Y-34421218D01*
X35149529Y-34431446D01*
X35127007Y-34439504D01*
X35103803Y-34445316D01*
X35080142Y-34448826D01*
X35056250Y-34450000D01*
X34143750Y-34450000D01*
X34119858Y-34448826D01*
X34096197Y-34445316D01*
X34072993Y-34439504D01*
X34050471Y-34431446D01*
X34028847Y-34421218D01*
X34008330Y-34408921D01*
X33989117Y-34394671D01*
X33971393Y-34378607D01*
X33955329Y-34360883D01*
X33941079Y-34341670D01*
X33928782Y-34321153D01*
X33918554Y-34299529D01*
X33910496Y-34277007D01*
X33904684Y-34253803D01*
X33901174Y-34230142D01*
X33900000Y-34206250D01*
X33900000Y-33718750D01*
X33901174Y-33694858D01*
X33904684Y-33671197D01*
X33910496Y-33647993D01*
X33918554Y-33625471D01*
X33928782Y-33603847D01*
X33941079Y-33583330D01*
X33955329Y-33564117D01*
X33971393Y-33546393D01*
X33989117Y-33530329D01*
X34008330Y-33516079D01*
X34028847Y-33503782D01*
X34050471Y-33493554D01*
X34072993Y-33485496D01*
X34096197Y-33479684D01*
X34119858Y-33476174D01*
X34143750Y-33475000D01*
X35056250Y-33475000D01*
X35080142Y-33476174D01*
G37*
G04 #@! TD.AperFunction*
G04 #@! TA.AperFunction,SMDPad,CuDef*
G36*
X35080142Y-35351174D02*
G01*
X35103803Y-35354684D01*
X35127007Y-35360496D01*
X35149529Y-35368554D01*
X35171153Y-35378782D01*
X35191670Y-35391079D01*
X35210883Y-35405329D01*
X35228607Y-35421393D01*
X35244671Y-35439117D01*
X35258921Y-35458330D01*
X35271218Y-35478847D01*
X35281446Y-35500471D01*
X35289504Y-35522993D01*
X35295316Y-35546197D01*
X35298826Y-35569858D01*
X35300000Y-35593750D01*
X35300000Y-36081250D01*
X35298826Y-36105142D01*
X35295316Y-36128803D01*
X35289504Y-36152007D01*
X35281446Y-36174529D01*
X35271218Y-36196153D01*
X35258921Y-36216670D01*
X35244671Y-36235883D01*
X35228607Y-36253607D01*
X35210883Y-36269671D01*
X35191670Y-36283921D01*
X35171153Y-36296218D01*
X35149529Y-36306446D01*
X35127007Y-36314504D01*
X35103803Y-36320316D01*
X35080142Y-36323826D01*
X35056250Y-36325000D01*
X34143750Y-36325000D01*
X34119858Y-36323826D01*
X34096197Y-36320316D01*
X34072993Y-36314504D01*
X34050471Y-36306446D01*
X34028847Y-36296218D01*
X34008330Y-36283921D01*
X33989117Y-36269671D01*
X33971393Y-36253607D01*
X33955329Y-36235883D01*
X33941079Y-36216670D01*
X33928782Y-36196153D01*
X33918554Y-36174529D01*
X33910496Y-36152007D01*
X33904684Y-36128803D01*
X33901174Y-36105142D01*
X33900000Y-36081250D01*
X33900000Y-35593750D01*
X33901174Y-35569858D01*
X33904684Y-35546197D01*
X33910496Y-35522993D01*
X33918554Y-35500471D01*
X33928782Y-35478847D01*
X33941079Y-35458330D01*
X33955329Y-35439117D01*
X33971393Y-35421393D01*
X33989117Y-35405329D01*
X34008330Y-35391079D01*
X34028847Y-35378782D01*
X34050471Y-35368554D01*
X34072993Y-35360496D01*
X34096197Y-35354684D01*
X34119858Y-35351174D01*
X34143750Y-35350000D01*
X35056250Y-35350000D01*
X35080142Y-35351174D01*
G37*
G04 #@! TD.AperFunction*
D11*
X29000000Y-34000000D03*
X31540000Y-31460000D03*
X26460000Y-31460000D03*
X26460000Y-36540000D03*
X31540000Y-36540000D03*
G04 #@! TA.AperFunction,SMDPad,CuDef*
D10*
G36*
X39067642Y-29351174D02*
G01*
X39091303Y-29354684D01*
X39114507Y-29360496D01*
X39137029Y-29368554D01*
X39158653Y-29378782D01*
X39179170Y-29391079D01*
X39198383Y-29405329D01*
X39216107Y-29421393D01*
X39232171Y-29439117D01*
X39246421Y-29458330D01*
X39258718Y-29478847D01*
X39268946Y-29500471D01*
X39277004Y-29522993D01*
X39282816Y-29546197D01*
X39286326Y-29569858D01*
X39287500Y-29593750D01*
X39287500Y-30506250D01*
X39286326Y-30530142D01*
X39282816Y-30553803D01*
X39277004Y-30577007D01*
X39268946Y-30599529D01*
X39258718Y-30621153D01*
X39246421Y-30641670D01*
X39232171Y-30660883D01*
X39216107Y-30678607D01*
X39198383Y-30694671D01*
X39179170Y-30708921D01*
X39158653Y-30721218D01*
X39137029Y-30731446D01*
X39114507Y-30739504D01*
X39091303Y-30745316D01*
X39067642Y-30748826D01*
X39043750Y-30750000D01*
X38556250Y-30750000D01*
X38532358Y-30748826D01*
X38508697Y-30745316D01*
X38485493Y-30739504D01*
X38462971Y-30731446D01*
X38441347Y-30721218D01*
X38420830Y-30708921D01*
X38401617Y-30694671D01*
X38383893Y-30678607D01*
X38367829Y-30660883D01*
X38353579Y-30641670D01*
X38341282Y-30621153D01*
X38331054Y-30599529D01*
X38322996Y-30577007D01*
X38317184Y-30553803D01*
X38313674Y-30530142D01*
X38312500Y-30506250D01*
X38312500Y-29593750D01*
X38313674Y-29569858D01*
X38317184Y-29546197D01*
X38322996Y-29522993D01*
X38331054Y-29500471D01*
X38341282Y-29478847D01*
X38353579Y-29458330D01*
X38367829Y-29439117D01*
X38383893Y-29421393D01*
X38401617Y-29405329D01*
X38420830Y-29391079D01*
X38441347Y-29378782D01*
X38462971Y-29368554D01*
X38485493Y-29360496D01*
X38508697Y-29354684D01*
X38532358Y-29351174D01*
X38556250Y-29350000D01*
X39043750Y-29350000D01*
X39067642Y-29351174D01*
G37*
G04 #@! TD.AperFunction*
G04 #@! TA.AperFunction,SMDPad,CuDef*
G36*
X37192642Y-29351174D02*
G01*
X37216303Y-29354684D01*
X37239507Y-29360496D01*
X37262029Y-29368554D01*
X37283653Y-29378782D01*
X37304170Y-29391079D01*
X37323383Y-29405329D01*
X37341107Y-29421393D01*
X37357171Y-29439117D01*
X37371421Y-29458330D01*
X37383718Y-29478847D01*
X37393946Y-29500471D01*
X37402004Y-29522993D01*
X37407816Y-29546197D01*
X37411326Y-29569858D01*
X37412500Y-29593750D01*
X37412500Y-30506250D01*
X37411326Y-30530142D01*
X37407816Y-30553803D01*
X37402004Y-30577007D01*
X37393946Y-30599529D01*
X37383718Y-30621153D01*
X37371421Y-30641670D01*
X37357171Y-30660883D01*
X37341107Y-30678607D01*
X37323383Y-30694671D01*
X37304170Y-30708921D01*
X37283653Y-30721218D01*
X37262029Y-30731446D01*
X37239507Y-30739504D01*
X37216303Y-30745316D01*
X37192642Y-30748826D01*
X37168750Y-30750000D01*
X36681250Y-30750000D01*
X36657358Y-30748826D01*
X36633697Y-30745316D01*
X36610493Y-30739504D01*
X36587971Y-30731446D01*
X36566347Y-30721218D01*
X36545830Y-30708921D01*
X36526617Y-30694671D01*
X36508893Y-30678607D01*
X36492829Y-30660883D01*
X36478579Y-30641670D01*
X36466282Y-30621153D01*
X36456054Y-30599529D01*
X36447996Y-30577007D01*
X36442184Y-30553803D01*
X36438674Y-30530142D01*
X36437500Y-30506250D01*
X36437500Y-29593750D01*
X36438674Y-29569858D01*
X36442184Y-29546197D01*
X36447996Y-29522993D01*
X36456054Y-29500471D01*
X36466282Y-29478847D01*
X36478579Y-29458330D01*
X36492829Y-29439117D01*
X36508893Y-29421393D01*
X36526617Y-29405329D01*
X36545830Y-29391079D01*
X36566347Y-29378782D01*
X36587971Y-29368554D01*
X36610493Y-29360496D01*
X36633697Y-29354684D01*
X36657358Y-29351174D01*
X36681250Y-29350000D01*
X37168750Y-29350000D01*
X37192642Y-29351174D01*
G37*
G04 #@! TD.AperFunction*
G04 #@! TA.AperFunction,SMDPad,CuDef*
G36*
X44630142Y-36651174D02*
G01*
X44653803Y-36654684D01*
X44677007Y-36660496D01*
X44699529Y-36668554D01*
X44721153Y-36678782D01*
X44741670Y-36691079D01*
X44760883Y-36705329D01*
X44778607Y-36721393D01*
X44794671Y-36739117D01*
X44808921Y-36758330D01*
X44821218Y-36778847D01*
X44831446Y-36800471D01*
X44839504Y-36822993D01*
X44845316Y-36846197D01*
X44848826Y-36869858D01*
X44850000Y-36893750D01*
X44850000Y-37806250D01*
X44848826Y-37830142D01*
X44845316Y-37853803D01*
X44839504Y-37877007D01*
X44831446Y-37899529D01*
X44821218Y-37921153D01*
X44808921Y-37941670D01*
X44794671Y-37960883D01*
X44778607Y-37978607D01*
X44760883Y-37994671D01*
X44741670Y-38008921D01*
X44721153Y-38021218D01*
X44699529Y-38031446D01*
X44677007Y-38039504D01*
X44653803Y-38045316D01*
X44630142Y-38048826D01*
X44606250Y-38050000D01*
X44118750Y-38050000D01*
X44094858Y-38048826D01*
X44071197Y-38045316D01*
X44047993Y-38039504D01*
X44025471Y-38031446D01*
X44003847Y-38021218D01*
X43983330Y-38008921D01*
X43964117Y-37994671D01*
X43946393Y-37978607D01*
X43930329Y-37960883D01*
X43916079Y-37941670D01*
X43903782Y-37921153D01*
X43893554Y-37899529D01*
X43885496Y-37877007D01*
X43879684Y-37853803D01*
X43876174Y-37830142D01*
X43875000Y-37806250D01*
X43875000Y-36893750D01*
X43876174Y-36869858D01*
X43879684Y-36846197D01*
X43885496Y-36822993D01*
X43893554Y-36800471D01*
X43903782Y-36778847D01*
X43916079Y-36758330D01*
X43930329Y-36739117D01*
X43946393Y-36721393D01*
X43964117Y-36705329D01*
X43983330Y-36691079D01*
X44003847Y-36678782D01*
X44025471Y-36668554D01*
X44047993Y-36660496D01*
X44071197Y-36654684D01*
X44094858Y-36651174D01*
X44118750Y-36650000D01*
X44606250Y-36650000D01*
X44630142Y-36651174D01*
G37*
G04 #@! TD.AperFunction*
G04 #@! TA.AperFunction,SMDPad,CuDef*
G36*
X46505142Y-36651174D02*
G01*
X46528803Y-36654684D01*
X46552007Y-36660496D01*
X46574529Y-36668554D01*
X46596153Y-36678782D01*
X46616670Y-36691079D01*
X46635883Y-36705329D01*
X46653607Y-36721393D01*
X46669671Y-36739117D01*
X46683921Y-36758330D01*
X46696218Y-36778847D01*
X46706446Y-36800471D01*
X46714504Y-36822993D01*
X46720316Y-36846197D01*
X46723826Y-36869858D01*
X46725000Y-36893750D01*
X46725000Y-37806250D01*
X46723826Y-37830142D01*
X46720316Y-37853803D01*
X46714504Y-37877007D01*
X46706446Y-37899529D01*
X46696218Y-37921153D01*
X46683921Y-37941670D01*
X46669671Y-37960883D01*
X46653607Y-37978607D01*
X46635883Y-37994671D01*
X46616670Y-38008921D01*
X46596153Y-38021218D01*
X46574529Y-38031446D01*
X46552007Y-38039504D01*
X46528803Y-38045316D01*
X46505142Y-38048826D01*
X46481250Y-38050000D01*
X45993750Y-38050000D01*
X45969858Y-38048826D01*
X45946197Y-38045316D01*
X45922993Y-38039504D01*
X45900471Y-38031446D01*
X45878847Y-38021218D01*
X45858330Y-38008921D01*
X45839117Y-37994671D01*
X45821393Y-37978607D01*
X45805329Y-37960883D01*
X45791079Y-37941670D01*
X45778782Y-37921153D01*
X45768554Y-37899529D01*
X45760496Y-37877007D01*
X45754684Y-37853803D01*
X45751174Y-37830142D01*
X45750000Y-37806250D01*
X45750000Y-36893750D01*
X45751174Y-36869858D01*
X45754684Y-36846197D01*
X45760496Y-36822993D01*
X45768554Y-36800471D01*
X45778782Y-36778847D01*
X45791079Y-36758330D01*
X45805329Y-36739117D01*
X45821393Y-36721393D01*
X45839117Y-36705329D01*
X45858330Y-36691079D01*
X45878847Y-36678782D01*
X45900471Y-36668554D01*
X45922993Y-36660496D01*
X45946197Y-36654684D01*
X45969858Y-36651174D01*
X45993750Y-36650000D01*
X46481250Y-36650000D01*
X46505142Y-36651174D01*
G37*
G04 #@! TD.AperFunction*
G04 #@! TA.AperFunction,SMDPad,CuDef*
G36*
X37280142Y-33476174D02*
G01*
X37303803Y-33479684D01*
X37327007Y-33485496D01*
X37349529Y-33493554D01*
X37371153Y-33503782D01*
X37391670Y-33516079D01*
X37410883Y-33530329D01*
X37428607Y-33546393D01*
X37444671Y-33564117D01*
X37458921Y-33583330D01*
X37471218Y-33603847D01*
X37481446Y-33625471D01*
X37489504Y-33647993D01*
X37495316Y-33671197D01*
X37498826Y-33694858D01*
X37500000Y-33718750D01*
X37500000Y-34206250D01*
X37498826Y-34230142D01*
X37495316Y-34253803D01*
X37489504Y-34277007D01*
X37481446Y-34299529D01*
X37471218Y-34321153D01*
X37458921Y-34341670D01*
X37444671Y-34360883D01*
X37428607Y-34378607D01*
X37410883Y-34394671D01*
X37391670Y-34408921D01*
X37371153Y-34421218D01*
X37349529Y-34431446D01*
X37327007Y-34439504D01*
X37303803Y-34445316D01*
X37280142Y-34448826D01*
X37256250Y-34450000D01*
X36343750Y-34450000D01*
X36319858Y-34448826D01*
X36296197Y-34445316D01*
X36272993Y-34439504D01*
X36250471Y-34431446D01*
X36228847Y-34421218D01*
X36208330Y-34408921D01*
X36189117Y-34394671D01*
X36171393Y-34378607D01*
X36155329Y-34360883D01*
X36141079Y-34341670D01*
X36128782Y-34321153D01*
X36118554Y-34299529D01*
X36110496Y-34277007D01*
X36104684Y-34253803D01*
X36101174Y-34230142D01*
X36100000Y-34206250D01*
X36100000Y-33718750D01*
X36101174Y-33694858D01*
X36104684Y-33671197D01*
X36110496Y-33647993D01*
X36118554Y-33625471D01*
X36128782Y-33603847D01*
X36141079Y-33583330D01*
X36155329Y-33564117D01*
X36171393Y-33546393D01*
X36189117Y-33530329D01*
X36208330Y-33516079D01*
X36228847Y-33503782D01*
X36250471Y-33493554D01*
X36272993Y-33485496D01*
X36296197Y-33479684D01*
X36319858Y-33476174D01*
X36343750Y-33475000D01*
X37256250Y-33475000D01*
X37280142Y-33476174D01*
G37*
G04 #@! TD.AperFunction*
G04 #@! TA.AperFunction,SMDPad,CuDef*
G36*
X37280142Y-35351174D02*
G01*
X37303803Y-35354684D01*
X37327007Y-35360496D01*
X37349529Y-35368554D01*
X37371153Y-35378782D01*
X37391670Y-35391079D01*
X37410883Y-35405329D01*
X37428607Y-35421393D01*
X37444671Y-35439117D01*
X37458921Y-35458330D01*
X37471218Y-35478847D01*
X37481446Y-35500471D01*
X37489504Y-35522993D01*
X37495316Y-35546197D01*
X37498826Y-35569858D01*
X37500000Y-35593750D01*
X37500000Y-36081250D01*
X37498826Y-36105142D01*
X37495316Y-36128803D01*
X37489504Y-36152007D01*
X37481446Y-36174529D01*
X37471218Y-36196153D01*
X37458921Y-36216670D01*
X37444671Y-36235883D01*
X37428607Y-36253607D01*
X37410883Y-36269671D01*
X37391670Y-36283921D01*
X37371153Y-36296218D01*
X37349529Y-36306446D01*
X37327007Y-36314504D01*
X37303803Y-36320316D01*
X37280142Y-36323826D01*
X37256250Y-36325000D01*
X36343750Y-36325000D01*
X36319858Y-36323826D01*
X36296197Y-36320316D01*
X36272993Y-36314504D01*
X36250471Y-36306446D01*
X36228847Y-36296218D01*
X36208330Y-36283921D01*
X36189117Y-36269671D01*
X36171393Y-36253607D01*
X36155329Y-36235883D01*
X36141079Y-36216670D01*
X36128782Y-36196153D01*
X36118554Y-36174529D01*
X36110496Y-36152007D01*
X36104684Y-36128803D01*
X36101174Y-36105142D01*
X36100000Y-36081250D01*
X36100000Y-35593750D01*
X36101174Y-35569858D01*
X36104684Y-35546197D01*
X36110496Y-35522993D01*
X36118554Y-35500471D01*
X36128782Y-35478847D01*
X36141079Y-35458330D01*
X36155329Y-35439117D01*
X36171393Y-35421393D01*
X36189117Y-35405329D01*
X36208330Y-35391079D01*
X36228847Y-35378782D01*
X36250471Y-35368554D01*
X36272993Y-35360496D01*
X36296197Y-35354684D01*
X36319858Y-35351174D01*
X36343750Y-35350000D01*
X37256250Y-35350000D01*
X37280142Y-35351174D01*
G37*
G04 #@! TD.AperFunction*
D12*
X31300000Y-45900000D03*
X33800000Y-45900000D03*
X36300000Y-45900000D03*
D13*
X56000000Y-24500000D03*
X58500000Y-24500000D03*
G04 #@! TA.AperFunction,ComponentPad*
D10*
G36*
X61624504Y-23526204D02*
G01*
X61648773Y-23529804D01*
X61672571Y-23535765D01*
X61695671Y-23544030D01*
X61717849Y-23554520D01*
X61738893Y-23567133D01*
X61758598Y-23581747D01*
X61776777Y-23598223D01*
X61793253Y-23616402D01*
X61807867Y-23636107D01*
X61820480Y-23657151D01*
X61830970Y-23679329D01*
X61839235Y-23702429D01*
X61845196Y-23726227D01*
X61848796Y-23750496D01*
X61850000Y-23775000D01*
X61850000Y-25225000D01*
X61848796Y-25249504D01*
X61845196Y-25273773D01*
X61839235Y-25297571D01*
X61830970Y-25320671D01*
X61820480Y-25342849D01*
X61807867Y-25363893D01*
X61793253Y-25383598D01*
X61776777Y-25401777D01*
X61758598Y-25418253D01*
X61738893Y-25432867D01*
X61717849Y-25445480D01*
X61695671Y-25455970D01*
X61672571Y-25464235D01*
X61648773Y-25470196D01*
X61624504Y-25473796D01*
X61600000Y-25475000D01*
X60400000Y-25475000D01*
X60375496Y-25473796D01*
X60351227Y-25470196D01*
X60327429Y-25464235D01*
X60304329Y-25455970D01*
X60282151Y-25445480D01*
X60261107Y-25432867D01*
X60241402Y-25418253D01*
X60223223Y-25401777D01*
X60206747Y-25383598D01*
X60192133Y-25363893D01*
X60179520Y-25342849D01*
X60169030Y-25320671D01*
X60160765Y-25297571D01*
X60154804Y-25273773D01*
X60151204Y-25249504D01*
X60150000Y-25225000D01*
X60150000Y-23775000D01*
X60151204Y-23750496D01*
X60154804Y-23726227D01*
X60160765Y-23702429D01*
X60169030Y-23679329D01*
X60179520Y-23657151D01*
X60192133Y-23636107D01*
X60206747Y-23616402D01*
X60223223Y-23598223D01*
X60241402Y-23581747D01*
X60261107Y-23567133D01*
X60282151Y-23554520D01*
X60304329Y-23544030D01*
X60327429Y-23535765D01*
X60351227Y-23529804D01*
X60375496Y-23526204D01*
X60400000Y-23525000D01*
X61600000Y-23525000D01*
X61624504Y-23526204D01*
G37*
G04 #@! TD.AperFunction*
D14*
X58840000Y-37100000D03*
X56300000Y-37100000D03*
D15*
X51220000Y-42180000D03*
X61380000Y-42180000D03*
D16*
X32400000Y-34900000D03*
X33000000Y-34900000D03*
X38500000Y-35000000D03*
X39700000Y-35000000D03*
X40900000Y-34900000D03*
X41800000Y-34100000D03*
D17*
X42000000Y-47000000D03*
X44000000Y-47000000D03*
X40000000Y-47000000D03*
X43000000Y-49000000D03*
X45000000Y-49000000D03*
X41000000Y-49000000D03*
X41000000Y-45000000D03*
X43000000Y-45000000D03*
X39000000Y-45000000D03*
X42000000Y-43000000D03*
X58000000Y-47000000D03*
X60000000Y-47000000D03*
X56000000Y-47000000D03*
X59000000Y-49000000D03*
X61000000Y-49000000D03*
X57000000Y-49000000D03*
X57000000Y-45000000D03*
X59000000Y-45000000D03*
X55000000Y-45000000D03*
X56000000Y-43000000D03*
X58000000Y-43000000D03*
X54000000Y-43000000D03*
X57000000Y-41000000D03*
X55000000Y-41000000D03*
X64000000Y-47000000D03*
X66000000Y-47000000D03*
X62000000Y-47000000D03*
X65000000Y-49000000D03*
X67000000Y-49000000D03*
X63000000Y-49000000D03*
X65000000Y-45000000D03*
X67000000Y-45000000D03*
X66000000Y-43000000D03*
X68000000Y-43000000D03*
X67000000Y-41000000D03*
X65000000Y-41000000D03*
X66000000Y-39000000D03*
X68000000Y-39000000D03*
X58000000Y-39000000D03*
X54000000Y-39000000D03*
X65000000Y-37000000D03*
X67000000Y-37000000D03*
X63000000Y-37000000D03*
X66000000Y-35000000D03*
X68000000Y-35000000D03*
X64000000Y-35000000D03*
X64000000Y-39000000D03*
X61000000Y-37000000D03*
X64000000Y-43000000D03*
X60000000Y-35000000D03*
X62000000Y-35000000D03*
X58000000Y-35000000D03*
X54000000Y-35500000D03*
X47500000Y-37000000D03*
X48500000Y-36000000D03*
X38000000Y-27000000D03*
X34000000Y-27000000D03*
X30000000Y-27000000D03*
X40000000Y-27000000D03*
X36000000Y-27000000D03*
X32000000Y-27000000D03*
X52000000Y-35500000D03*
X50000000Y-35500000D03*
X27000000Y-29000000D03*
X42000000Y-27000000D03*
X46000000Y-27000000D03*
X44000000Y-27000000D03*
X48000000Y-27000000D03*
X47500000Y-32500000D03*
D16*
X31800000Y-34900000D03*
X31800000Y-33000000D03*
X40500000Y-30700000D03*
X35400000Y-33000000D03*
X36000000Y-33000000D03*
X41400000Y-34500000D03*
X39100000Y-35000000D03*
X33600000Y-34900000D03*
X31200000Y-34900000D03*
X30500000Y-35400000D03*
X29000000Y-36150000D03*
X27600000Y-35400000D03*
X26900000Y-34000000D03*
X27500000Y-32600000D03*
X29000000Y-31850000D03*
X30500000Y-32600000D03*
X31200000Y-33000000D03*
X32400000Y-33000000D03*
X36600000Y-33000000D03*
X33000000Y-33000000D03*
X35700000Y-34900000D03*
X37850000Y-35000000D03*
X40300000Y-35000000D03*
X39900000Y-30700000D03*
X41100000Y-30700000D03*
X39700000Y-31300000D03*
X41700000Y-30700000D03*
X39550000Y-33050000D03*
D17*
X45600000Y-34200000D03*
X31000000Y-29000000D03*
X35000000Y-29000000D03*
X43000000Y-41000000D03*
X45000000Y-41000000D03*
X47000000Y-41000000D03*
X44000000Y-43000000D03*
X46000000Y-43000000D03*
X48000000Y-43000000D03*
X45000000Y-45000000D03*
X47000000Y-45000000D03*
X46000000Y-47000000D03*
X48000000Y-47000000D03*
X50000000Y-47000000D03*
X52000000Y-47000000D03*
X54000000Y-47000000D03*
X47000000Y-49000000D03*
X49000000Y-49000000D03*
X51000000Y-49000000D03*
X53000000Y-49000000D03*
X55000000Y-49000000D03*
X28000000Y-27000000D03*
X26000000Y-27000000D03*
X29000000Y-29000000D03*
X33000000Y-29000000D03*
X36000000Y-31000000D03*
X34000000Y-31000000D03*
X44000000Y-35000000D03*
X49000000Y-31500000D03*
X55000000Y-31000000D03*
X50000000Y-32500000D03*
X52000000Y-32500000D03*
X54000000Y-32500000D03*
X57000000Y-27800000D03*
X58000000Y-27000000D03*
X60700000Y-31000000D03*
X62000000Y-31000000D03*
X64000000Y-31000000D03*
X66000000Y-31000000D03*
X67000000Y-33000000D03*
X65000000Y-33000000D03*
X63000000Y-33000000D03*
X61000000Y-33000000D03*
X59000000Y-33000000D03*
X65000000Y-29000000D03*
X67000000Y-29000000D03*
X66000000Y-27000000D03*
X64000000Y-27000000D03*
X65000000Y-25000000D03*
X67000000Y-25000000D03*
X63000000Y-25000000D03*
X64000000Y-23000000D03*
X66000000Y-23000000D03*
X68000000Y-27000000D03*
X68000000Y-31000000D03*
X27000000Y-25000000D03*
X29000000Y-25000000D03*
X31000000Y-25000000D03*
X33000000Y-25000000D03*
X35000000Y-25000000D03*
X37000000Y-25000000D03*
X39000000Y-25000000D03*
X41000000Y-25000000D03*
X43000000Y-25000000D03*
X45000000Y-25000000D03*
X47000000Y-25000000D03*
X49000000Y-25000000D03*
X28000000Y-23000000D03*
X30000000Y-23000000D03*
X32000000Y-23000000D03*
X34000000Y-23000000D03*
X36000000Y-23000000D03*
X38000000Y-23000000D03*
X40000000Y-23000000D03*
X42000000Y-23000000D03*
X44000000Y-23000000D03*
X46000000Y-23000000D03*
X48000000Y-23000000D03*
X50000000Y-23000000D03*
X52000000Y-23000000D03*
X50000000Y-27000000D03*
X51000000Y-25000000D03*
X37000000Y-40500000D03*
X36000000Y-39000000D03*
X35000000Y-41000000D03*
X34000000Y-39000000D03*
X35000000Y-37500000D03*
X37000000Y-37500000D03*
X33000000Y-41000000D03*
X30000000Y-39000000D03*
X34000000Y-43000000D03*
X30000000Y-43000000D03*
X32000000Y-43000000D03*
X32000000Y-39000000D03*
X28000000Y-39000000D03*
X26000000Y-39000000D03*
X27000000Y-41000000D03*
X29000000Y-41000000D03*
X28000000Y-43000000D03*
X26000000Y-43000000D03*
X31000000Y-41000000D03*
X27000000Y-45000000D03*
X29000000Y-45000000D03*
X28000000Y-47000000D03*
X26000000Y-47000000D03*
X27000000Y-49000000D03*
X29000000Y-49000000D03*
X31000000Y-49000000D03*
X33000000Y-49000000D03*
X35000000Y-49000000D03*
X37000000Y-49000000D03*
X39000000Y-49000000D03*
X38000000Y-47000000D03*
D16*
X33600000Y-33000000D03*
X34200000Y-33000000D03*
X34800000Y-33000000D03*
X37200000Y-33000000D03*
X37800000Y-33000000D03*
X40200000Y-30200000D03*
X40800000Y-30200000D03*
X41400000Y-30200000D03*
D17*
X29600000Y-30700000D03*
X28200000Y-30700000D03*
X25600000Y-33400000D03*
X25600000Y-35000000D03*
X28200000Y-37300000D03*
X29600000Y-37300000D03*
X59500000Y-22700000D03*
X57200000Y-22700000D03*
X54100000Y-23000000D03*
X53100000Y-25000000D03*
X43000000Y-30000000D03*
X44500000Y-30000000D03*
X46000000Y-30000000D03*
X47500000Y-30000000D03*
X49000000Y-30000000D03*
X50500000Y-30000000D03*
D18*
X61462500Y-24962500D02*
X61000000Y-24500000D01*
X61462500Y-27500000D02*
X61462500Y-24962500D01*
X56000000Y-26462500D02*
X54962500Y-27500000D01*
X56000000Y-24500000D02*
X56000000Y-26462500D01*
X59537500Y-29462500D02*
X59500000Y-29500000D01*
X59537500Y-27500000D02*
X59537500Y-29462500D01*
D19*
X42600000Y-37350000D02*
X44362500Y-37350000D01*
D18*
X47662501Y-34049999D02*
X55356003Y-34049999D01*
X59500000Y-29906002D02*
X59500000Y-29500000D01*
X55356003Y-34049999D02*
X59500000Y-29906002D01*
X44362500Y-37350000D02*
X47662501Y-34049999D01*
X53037500Y-29462500D02*
X53000000Y-29500000D01*
D19*
X38790000Y-30060000D02*
X38800000Y-30050000D01*
X38790000Y-32200000D02*
X38790000Y-30060000D01*
X38800000Y-29350000D02*
X39550000Y-28600000D01*
X38800000Y-30050000D02*
X38800000Y-29350000D01*
X39550000Y-28600000D02*
X53000000Y-28600000D01*
D18*
X53000000Y-28600000D02*
X53037500Y-29462500D01*
X53037500Y-27500000D02*
X53000000Y-28600000D01*
D19*
X34562500Y-34000000D02*
X34600000Y-33962500D01*
X29000000Y-34000000D02*
X34562500Y-34000000D01*
X34600000Y-33962500D02*
X36800000Y-33962500D01*
X40330110Y-33909899D02*
X36800000Y-33962500D01*
X40330110Y-33909899D02*
X40487198Y-33895294D01*
X40487198Y-33895294D02*
X40640126Y-33856525D01*
X40640126Y-33856525D02*
X40785199Y-33794525D01*
X40785199Y-33794525D02*
X40918912Y-33710794D01*
X40918912Y-33710794D02*
X41038035Y-33607354D01*
X41038035Y-33607354D02*
X41139689Y-33486703D01*
X41139689Y-33486703D02*
X41221419Y-33351758D01*
X41221419Y-33351758D02*
X41281250Y-33205777D01*
X41281250Y-33205777D02*
X41317737Y-33052288D01*
X41317737Y-33052288D02*
X41330000Y-32895000D01*
X41330000Y-32895000D02*
X41330000Y-32200000D01*
X34600000Y-35837500D02*
X36800000Y-35837500D01*
X37277500Y-35837500D02*
X38790000Y-37350000D01*
X36800000Y-35837500D02*
X37277500Y-35837500D01*
X42600000Y-32200000D02*
X44200000Y-32200000D01*
X42600000Y-32950000D02*
X42600000Y-32200000D01*
X42600000Y-32200000D02*
X42600000Y-34650000D01*
X42600000Y-34650000D02*
X41275010Y-35974990D01*
X39290010Y-35974990D02*
X38790000Y-36475000D01*
X38790000Y-36475000D02*
X38790000Y-37350000D01*
X41275010Y-35974990D02*
X39290010Y-35974990D01*
D18*
X33800000Y-45900000D02*
X36300000Y-45900000D01*
D19*
X41330000Y-40870000D02*
X41330000Y-37350000D01*
X36300000Y-45900000D02*
X41330000Y-40870000D01*
X49900000Y-37100000D02*
X56300000Y-37100000D01*
X41330000Y-37350000D02*
X41330000Y-38225000D01*
X41830010Y-38725010D02*
X47274990Y-38725010D01*
X41330000Y-38225000D02*
X41830010Y-38725010D01*
X48900000Y-37100000D02*
X49900000Y-37100000D01*
X47274990Y-38725010D02*
X48900000Y-37100000D01*
X39551973Y-40035527D02*
X40037500Y-39550000D01*
X35087501Y-44499999D02*
X39551973Y-40035527D01*
X32700001Y-44499999D02*
X35087501Y-44499999D01*
X31300000Y-45900000D02*
X32700001Y-44499999D01*
X40037500Y-37372500D02*
X40060000Y-37350000D01*
X40037500Y-39550000D02*
X40037500Y-37372500D01*
D20*
G36*
X65855961Y-22185244D02*
G01*
X66373214Y-22218610D01*
X66809237Y-22334553D01*
X67214426Y-22532973D01*
X67573363Y-22806318D01*
X67872369Y-23144175D01*
X68100060Y-23533679D01*
X68247756Y-23959979D01*
X68313518Y-24433344D01*
X68315000Y-24506906D01*
X68315001Y-46966485D01*
X68267688Y-47449016D01*
X68137287Y-47880927D01*
X67925480Y-48279280D01*
X67640325Y-48628914D01*
X67292697Y-48916497D01*
X66895825Y-49131085D01*
X66464834Y-49264500D01*
X65984346Y-49315000D01*
X27633504Y-49315000D01*
X27150984Y-49267688D01*
X26719073Y-49137287D01*
X26320720Y-48925480D01*
X25971086Y-48640325D01*
X25683503Y-48292697D01*
X25468915Y-47895825D01*
X25335500Y-47464834D01*
X25284998Y-46984330D01*
X25284024Y-33826655D01*
X27240000Y-33826655D01*
X27240000Y-34173345D01*
X27307636Y-34513373D01*
X27440308Y-34833673D01*
X27632919Y-35121935D01*
X27878065Y-35367081D01*
X28166327Y-35559692D01*
X28486627Y-35692364D01*
X28826655Y-35760000D01*
X29173345Y-35760000D01*
X29513373Y-35692364D01*
X29833673Y-35559692D01*
X30121935Y-35367081D01*
X30367081Y-35121935D01*
X30491987Y-34935000D01*
X33563109Y-34935000D01*
X33520208Y-34970208D01*
X33410542Y-35103836D01*
X33329053Y-35256291D01*
X33278872Y-35421715D01*
X33261928Y-35593750D01*
X33261928Y-36081250D01*
X33278872Y-36253285D01*
X33329053Y-36418709D01*
X33410542Y-36571164D01*
X33520208Y-36704792D01*
X33653836Y-36814458D01*
X33806291Y-36895947D01*
X33971715Y-36946128D01*
X34143750Y-36963072D01*
X35056250Y-36963072D01*
X35228285Y-36946128D01*
X35393709Y-36895947D01*
X35546164Y-36814458D01*
X35597290Y-36772500D01*
X35802710Y-36772500D01*
X35853836Y-36814458D01*
X36006291Y-36895947D01*
X36171715Y-36946128D01*
X36343750Y-36963072D01*
X37080783Y-36963072D01*
X37851928Y-37734218D01*
X37851928Y-38075000D01*
X37867071Y-38228745D01*
X37911916Y-38376582D01*
X37984742Y-38512829D01*
X38082749Y-38632251D01*
X38202171Y-38730258D01*
X38338418Y-38803084D01*
X38486255Y-38847929D01*
X38640000Y-38863072D01*
X38940000Y-38863072D01*
X38946866Y-38862396D01*
X38928872Y-38921715D01*
X38911928Y-39093750D01*
X38911928Y-39353283D01*
X34700212Y-43564999D01*
X32745932Y-43564999D01*
X32700000Y-43560475D01*
X32516708Y-43578528D01*
X32463244Y-43594746D01*
X32340461Y-43631992D01*
X32178029Y-43718813D01*
X32035657Y-43835655D01*
X32006377Y-43871333D01*
X31502503Y-44375208D01*
X31451184Y-44365000D01*
X31148816Y-44365000D01*
X30852257Y-44423989D01*
X30572905Y-44539701D01*
X30321495Y-44707688D01*
X30107688Y-44921495D01*
X29939701Y-45172905D01*
X29823989Y-45452257D01*
X29765000Y-45748816D01*
X29765000Y-46051184D01*
X29823989Y-46347743D01*
X29939701Y-46627095D01*
X30107688Y-46878505D01*
X30321495Y-47092312D01*
X30572905Y-47260299D01*
X30852257Y-47376011D01*
X31148816Y-47435000D01*
X31451184Y-47435000D01*
X31747743Y-47376011D01*
X32027095Y-47260299D01*
X32278505Y-47092312D01*
X32492312Y-46878505D01*
X32550000Y-46792169D01*
X32607688Y-46878505D01*
X32821495Y-47092312D01*
X33072905Y-47260299D01*
X33352257Y-47376011D01*
X33648816Y-47435000D01*
X33951184Y-47435000D01*
X34247743Y-47376011D01*
X34527095Y-47260299D01*
X34778505Y-47092312D01*
X34985817Y-46885000D01*
X35114183Y-46885000D01*
X35321495Y-47092312D01*
X35572905Y-47260299D01*
X35852257Y-47376011D01*
X36148816Y-47435000D01*
X36451184Y-47435000D01*
X36747743Y-47376011D01*
X37027095Y-47260299D01*
X37278505Y-47092312D01*
X37492312Y-46878505D01*
X37660299Y-46627095D01*
X37776011Y-46347743D01*
X37835000Y-46051184D01*
X37835000Y-45748816D01*
X37824792Y-45697497D01*
X41219289Y-42303000D01*
X48843000Y-42303000D01*
X48843000Y-44053000D01*
X48912669Y-44514366D01*
X49071008Y-44953276D01*
X49311932Y-45352862D01*
X49626182Y-45697768D01*
X50001681Y-45974739D01*
X50423999Y-46173132D01*
X50727168Y-46255348D01*
X51097000Y-46146840D01*
X51097000Y-42303000D01*
X51343000Y-42303000D01*
X51343000Y-46146840D01*
X51712832Y-46255348D01*
X52016001Y-46173132D01*
X52438319Y-45974739D01*
X52813818Y-45697768D01*
X53128068Y-45352862D01*
X53368992Y-44953276D01*
X53527331Y-44514366D01*
X53597000Y-44053000D01*
X53597000Y-42303000D01*
X59003000Y-42303000D01*
X59003000Y-44053000D01*
X59072669Y-44514366D01*
X59231008Y-44953276D01*
X59471932Y-45352862D01*
X59786182Y-45697768D01*
X60161681Y-45974739D01*
X60583999Y-46173132D01*
X60887168Y-46255348D01*
X61257000Y-46146840D01*
X61257000Y-42303000D01*
X61503000Y-42303000D01*
X61503000Y-46146840D01*
X61872832Y-46255348D01*
X62176001Y-46173132D01*
X62598319Y-45974739D01*
X62973818Y-45697768D01*
X63288068Y-45352862D01*
X63528992Y-44953276D01*
X63687331Y-44514366D01*
X63757000Y-44053000D01*
X63757000Y-42303000D01*
X61503000Y-42303000D01*
X61257000Y-42303000D01*
X59003000Y-42303000D01*
X53597000Y-42303000D01*
X51343000Y-42303000D01*
X51097000Y-42303000D01*
X48843000Y-42303000D01*
X41219289Y-42303000D01*
X41958666Y-41563624D01*
X41994344Y-41534344D01*
X42111186Y-41391972D01*
X42198007Y-41229540D01*
X42251471Y-41053292D01*
X42265000Y-40915932D01*
X42265000Y-40915931D01*
X42269524Y-40870001D01*
X42265000Y-40824069D01*
X42265000Y-40307000D01*
X48843000Y-40307000D01*
X48843000Y-42057000D01*
X51097000Y-42057000D01*
X51097000Y-38213160D01*
X51343000Y-38213160D01*
X51343000Y-42057000D01*
X53597000Y-42057000D01*
X53597000Y-40307000D01*
X59003000Y-40307000D01*
X59003000Y-42057000D01*
X61257000Y-42057000D01*
X61257000Y-38213160D01*
X61503000Y-38213160D01*
X61503000Y-42057000D01*
X63757000Y-42057000D01*
X63757000Y-40307000D01*
X63687331Y-39845634D01*
X63528992Y-39406724D01*
X63288068Y-39007138D01*
X62973818Y-38662232D01*
X62598319Y-38385261D01*
X62176001Y-38186868D01*
X61872832Y-38104652D01*
X61503000Y-38213160D01*
X61257000Y-38213160D01*
X60887168Y-38104652D01*
X60583999Y-38186868D01*
X60161681Y-38385261D01*
X59786182Y-38662232D01*
X59471932Y-39007138D01*
X59231008Y-39406724D01*
X59072669Y-39845634D01*
X59003000Y-40307000D01*
X53597000Y-40307000D01*
X53527331Y-39845634D01*
X53368992Y-39406724D01*
X53128068Y-39007138D01*
X52813818Y-38662232D01*
X52438319Y-38385261D01*
X52016001Y-38186868D01*
X51712832Y-38104652D01*
X51343000Y-38213160D01*
X51097000Y-38213160D01*
X50727168Y-38104652D01*
X50423999Y-38186868D01*
X50001681Y-38385261D01*
X49626182Y-38662232D01*
X49311932Y-39007138D01*
X49071008Y-39406724D01*
X48912669Y-39845634D01*
X48843000Y-40307000D01*
X42265000Y-40307000D01*
X42265000Y-39660010D01*
X47229058Y-39660010D01*
X47274990Y-39664534D01*
X47320922Y-39660010D01*
X47458282Y-39646481D01*
X47634530Y-39593017D01*
X47796962Y-39506196D01*
X47939334Y-39389354D01*
X47968620Y-39353669D01*
X49287290Y-38035000D01*
X54947553Y-38035000D01*
X54967818Y-38101807D01*
X55101068Y-38351100D01*
X55280392Y-38569607D01*
X55498899Y-38748932D01*
X55748192Y-38882182D01*
X56018691Y-38964236D01*
X56300000Y-38991943D01*
X56581308Y-38964236D01*
X56851807Y-38882182D01*
X57101100Y-38748932D01*
X57319607Y-38569608D01*
X57498932Y-38351101D01*
X57567265Y-38223259D01*
X57717399Y-38452839D01*
X57915105Y-38654500D01*
X58148354Y-38813715D01*
X58408182Y-38924367D01*
X58490961Y-38941904D01*
X58713000Y-38819915D01*
X58713000Y-37227000D01*
X58967000Y-37227000D01*
X58967000Y-38819915D01*
X59189039Y-38941904D01*
X59271818Y-38924367D01*
X59531646Y-38813715D01*
X59764895Y-38654500D01*
X59962601Y-38452839D01*
X60117166Y-38216483D01*
X60222650Y-37954514D01*
X60275000Y-37677000D01*
X60275000Y-37227000D01*
X58967000Y-37227000D01*
X58713000Y-37227000D01*
X58693000Y-37227000D01*
X58693000Y-36973000D01*
X58713000Y-36973000D01*
X58713000Y-35380085D01*
X58967000Y-35380085D01*
X58967000Y-36973000D01*
X60275000Y-36973000D01*
X60275000Y-36523000D01*
X60222650Y-36245486D01*
X60117166Y-35983517D01*
X59962601Y-35747161D01*
X59764895Y-35545500D01*
X59531646Y-35386285D01*
X59271818Y-35275633D01*
X59189039Y-35258096D01*
X58967000Y-35380085D01*
X58713000Y-35380085D01*
X58490961Y-35258096D01*
X58408182Y-35275633D01*
X58148354Y-35386285D01*
X57915105Y-35545500D01*
X57717399Y-35747161D01*
X57567265Y-35976741D01*
X57498932Y-35848899D01*
X57319608Y-35630392D01*
X57101101Y-35451068D01*
X56851808Y-35317818D01*
X56581309Y-35235764D01*
X56300000Y-35208057D01*
X56018692Y-35235764D01*
X55748193Y-35317818D01*
X55498900Y-35451068D01*
X55280393Y-35630392D01*
X55101068Y-35848899D01*
X54967818Y-36098192D01*
X54947552Y-36165000D01*
X48945931Y-36165000D01*
X48899999Y-36160476D01*
X48716707Y-36178529D01*
X48688219Y-36187171D01*
X48540460Y-36231993D01*
X48378028Y-36318814D01*
X48235656Y-36435656D01*
X48206374Y-36471336D01*
X46887701Y-37790010D01*
X45488072Y-37790010D01*
X45488072Y-37617428D01*
X48070501Y-35034999D01*
X55307623Y-35034999D01*
X55356003Y-35039764D01*
X55404383Y-35034999D01*
X55549097Y-35020746D01*
X55734770Y-34964423D01*
X55905887Y-34872959D01*
X56055873Y-34749869D01*
X56086719Y-34712283D01*
X59985931Y-30813072D01*
X60037501Y-30813072D01*
X60210755Y-30796008D01*
X60377351Y-30745472D01*
X60530887Y-30663405D01*
X60665462Y-30552962D01*
X60775905Y-30418387D01*
X60857972Y-30264851D01*
X60908508Y-30098255D01*
X60925572Y-29925001D01*
X60925572Y-29074999D01*
X60908508Y-28901745D01*
X60868049Y-28768370D01*
X60876746Y-28771008D01*
X61050000Y-28788072D01*
X61875000Y-28788072D01*
X62048254Y-28771008D01*
X62214850Y-28720472D01*
X62368386Y-28638405D01*
X62502962Y-28527962D01*
X62613405Y-28393386D01*
X62695472Y-28239850D01*
X62746008Y-28073254D01*
X62763072Y-27900000D01*
X62763072Y-27100000D01*
X62746008Y-26926746D01*
X62695472Y-26760150D01*
X62613405Y-26606614D01*
X62502962Y-26472038D01*
X62447500Y-26426522D01*
X62447500Y-25475750D01*
X62471008Y-25398254D01*
X62488072Y-25225000D01*
X62488072Y-23775000D01*
X62471008Y-23601746D01*
X62420472Y-23435150D01*
X62338405Y-23281614D01*
X62227962Y-23147038D01*
X62093386Y-23036595D01*
X61939850Y-22954528D01*
X61773254Y-22903992D01*
X61600000Y-22886928D01*
X60400000Y-22886928D01*
X60226746Y-22903992D01*
X60060150Y-22954528D01*
X59906614Y-23036595D01*
X59772038Y-23147038D01*
X59661595Y-23281614D01*
X59605286Y-23386961D01*
X59589049Y-23365571D01*
X59371193Y-23172504D01*
X59119858Y-23025648D01*
X58856890Y-22933524D01*
X58627000Y-23054845D01*
X58627000Y-24373000D01*
X58647000Y-24373000D01*
X58647000Y-24627000D01*
X58627000Y-24627000D01*
X58627000Y-25945155D01*
X58856890Y-26066476D01*
X59119858Y-25974352D01*
X59371193Y-25827496D01*
X59589049Y-25634429D01*
X59605286Y-25613039D01*
X59661595Y-25718386D01*
X59772038Y-25852962D01*
X59906614Y-25963405D01*
X60060150Y-26045472D01*
X60226746Y-26096008D01*
X60400000Y-26113072D01*
X60477501Y-26113072D01*
X60477500Y-26389592D01*
X60443386Y-26361595D01*
X60289850Y-26279528D01*
X60123254Y-26228992D01*
X59950000Y-26211928D01*
X59125000Y-26211928D01*
X58951746Y-26228992D01*
X58785150Y-26279528D01*
X58631614Y-26361595D01*
X58497038Y-26472038D01*
X58386595Y-26606614D01*
X58304528Y-26760150D01*
X58253992Y-26926746D01*
X58236928Y-27100000D01*
X58236928Y-27900000D01*
X58253992Y-28073254D01*
X58304528Y-28239850D01*
X58386595Y-28393386D01*
X58391955Y-28399917D01*
X58334538Y-28447038D01*
X58224095Y-28581613D01*
X58142028Y-28735149D01*
X58091492Y-28901745D01*
X58074428Y-29074999D01*
X58074428Y-29925001D01*
X58075645Y-29937356D01*
X54948003Y-33064999D01*
X47710880Y-33064999D01*
X47662500Y-33060234D01*
X47469406Y-33079252D01*
X47295542Y-33131993D01*
X47283734Y-33135575D01*
X47112617Y-33227039D01*
X46962631Y-33350129D01*
X46931785Y-33387715D01*
X44307572Y-36011928D01*
X44118750Y-36011928D01*
X43946715Y-36028872D01*
X43781291Y-36079053D01*
X43628836Y-36160542D01*
X43495208Y-36270208D01*
X43467614Y-36303831D01*
X43405258Y-36187171D01*
X43307251Y-36067749D01*
X43187829Y-35969742D01*
X43051582Y-35896916D01*
X42903745Y-35852071D01*
X42750000Y-35836928D01*
X42735361Y-35836928D01*
X43228659Y-35343630D01*
X43264344Y-35314344D01*
X43381186Y-35171972D01*
X43468007Y-35009540D01*
X43521471Y-34833292D01*
X43532010Y-34726289D01*
X43539524Y-34650000D01*
X43535000Y-34604068D01*
X43535000Y-33426160D01*
X43618791Y-33470947D01*
X43784215Y-33521128D01*
X43956250Y-33538072D01*
X44443750Y-33538072D01*
X44615785Y-33521128D01*
X44781209Y-33470947D01*
X44933664Y-33389458D01*
X45067292Y-33279792D01*
X45176958Y-33146164D01*
X45258447Y-32993709D01*
X45308628Y-32828285D01*
X45325572Y-32656250D01*
X45325572Y-31743750D01*
X45308628Y-31571715D01*
X45258447Y-31406291D01*
X45176958Y-31253836D01*
X45067292Y-31120208D01*
X44933664Y-31010542D01*
X44781209Y-30929053D01*
X44615785Y-30878872D01*
X44443750Y-30861928D01*
X43956250Y-30861928D01*
X43784215Y-30878872D01*
X43618791Y-30929053D01*
X43466336Y-31010542D01*
X43413988Y-31053503D01*
X43405258Y-31037171D01*
X43307251Y-30917749D01*
X43187829Y-30819742D01*
X43051582Y-30746916D01*
X42903745Y-30702071D01*
X42750000Y-30686928D01*
X42450000Y-30686928D01*
X42296255Y-30702071D01*
X42148418Y-30746916D01*
X42012171Y-30819742D01*
X41965000Y-30858454D01*
X41917829Y-30819742D01*
X41781582Y-30746916D01*
X41633745Y-30702071D01*
X41480000Y-30686928D01*
X41180000Y-30686928D01*
X41026255Y-30702071D01*
X40878418Y-30746916D01*
X40742171Y-30819742D01*
X40622749Y-30917749D01*
X40524742Y-31037171D01*
X40451916Y-31173418D01*
X40407071Y-31321255D01*
X40391928Y-31475000D01*
X40391928Y-32898018D01*
X40391232Y-32906949D01*
X40388454Y-32918633D01*
X40383907Y-32929728D01*
X40377693Y-32939987D01*
X40369963Y-32949162D01*
X40360907Y-32957026D01*
X40350740Y-32963393D01*
X40339707Y-32968108D01*
X40328074Y-32971057D01*
X40279794Y-32975546D01*
X39722275Y-32983853D01*
X39728072Y-32925000D01*
X39728072Y-31475000D01*
X39725000Y-31443810D01*
X39725000Y-31059475D01*
X39776958Y-30996164D01*
X39858447Y-30843709D01*
X39908628Y-30678285D01*
X39925572Y-30506250D01*
X39925572Y-29593750D01*
X39921355Y-29550935D01*
X39937290Y-29535000D01*
X51574428Y-29535000D01*
X51574428Y-29925001D01*
X51591492Y-30098255D01*
X51642028Y-30264851D01*
X51724095Y-30418387D01*
X51834538Y-30552962D01*
X51969113Y-30663405D01*
X52122649Y-30745472D01*
X52289245Y-30796008D01*
X52462499Y-30813072D01*
X53537501Y-30813072D01*
X53710755Y-30796008D01*
X53877351Y-30745472D01*
X54030887Y-30663405D01*
X54165462Y-30552962D01*
X54275905Y-30418387D01*
X54357972Y-30264851D01*
X54408508Y-30098255D01*
X54425572Y-29925001D01*
X54425572Y-29074999D01*
X54408508Y-28901745D01*
X54368049Y-28768370D01*
X54376746Y-28771008D01*
X54550000Y-28788072D01*
X55375000Y-28788072D01*
X55548254Y-28771008D01*
X55714850Y-28720472D01*
X55868386Y-28638405D01*
X56002962Y-28527962D01*
X56113405Y-28393386D01*
X56195472Y-28239850D01*
X56246008Y-28073254D01*
X56263072Y-27900000D01*
X56263072Y-27592429D01*
X56662290Y-27193211D01*
X56699870Y-27162370D01*
X56822960Y-27012384D01*
X56914424Y-26841267D01*
X56970747Y-26655594D01*
X56985000Y-26510880D01*
X56989765Y-26462500D01*
X56985000Y-26414120D01*
X56985000Y-25737691D01*
X57055134Y-25680134D01*
X57240706Y-25454014D01*
X57254462Y-25428278D01*
X57410951Y-25634429D01*
X57628807Y-25827496D01*
X57880142Y-25974352D01*
X58143110Y-26066476D01*
X58373000Y-25945155D01*
X58373000Y-24627000D01*
X58353000Y-24627000D01*
X58353000Y-24373000D01*
X58373000Y-24373000D01*
X58373000Y-23054845D01*
X58143110Y-22933524D01*
X57880142Y-23025648D01*
X57628807Y-23172504D01*
X57410951Y-23365571D01*
X57254462Y-23571722D01*
X57240706Y-23545986D01*
X57055134Y-23319866D01*
X56829014Y-23134294D01*
X56571034Y-22996401D01*
X56291111Y-22911487D01*
X56000000Y-22882815D01*
X55708890Y-22911487D01*
X55428967Y-22996401D01*
X55170987Y-23134294D01*
X54944866Y-23319866D01*
X54759294Y-23545986D01*
X54621401Y-23803966D01*
X54536487Y-24083889D01*
X54515000Y-24302050D01*
X54515000Y-24697949D01*
X54536487Y-24916110D01*
X54621401Y-25196033D01*
X54759294Y-25454013D01*
X54944866Y-25680134D01*
X55015001Y-25737692D01*
X55015001Y-26054499D01*
X54857571Y-26211928D01*
X54550000Y-26211928D01*
X54376746Y-26228992D01*
X54210150Y-26279528D01*
X54056614Y-26361595D01*
X54000000Y-26408057D01*
X53943386Y-26361595D01*
X53789850Y-26279528D01*
X53623254Y-26228992D01*
X53450000Y-26211928D01*
X52625000Y-26211928D01*
X52451746Y-26228992D01*
X52285150Y-26279528D01*
X52131614Y-26361595D01*
X51997038Y-26472038D01*
X51886595Y-26606614D01*
X51804528Y-26760150D01*
X51753992Y-26926746D01*
X51736928Y-27100000D01*
X51736928Y-27665000D01*
X39595931Y-27665000D01*
X39549999Y-27660476D01*
X39366707Y-27678529D01*
X39318697Y-27693093D01*
X39190460Y-27731993D01*
X39028028Y-27818814D01*
X38885656Y-27935656D01*
X38856374Y-27971336D01*
X38171336Y-28656375D01*
X38135657Y-28685656D01*
X38018815Y-28828028D01*
X37950720Y-28955426D01*
X37932708Y-28970208D01*
X37823042Y-29103836D01*
X37741553Y-29256291D01*
X37691372Y-29421715D01*
X37674428Y-29593750D01*
X37674428Y-30506250D01*
X37691372Y-30678285D01*
X37741553Y-30843709D01*
X37823042Y-30996164D01*
X37855001Y-31035105D01*
X37855000Y-31443807D01*
X37851928Y-31475000D01*
X37851928Y-32925000D01*
X37860457Y-33011595D01*
X37779382Y-33012804D01*
X37746164Y-32985542D01*
X37593709Y-32904053D01*
X37428285Y-32853872D01*
X37256250Y-32836928D01*
X36343750Y-32836928D01*
X36171715Y-32853872D01*
X36006291Y-32904053D01*
X35853836Y-32985542D01*
X35802710Y-33027500D01*
X35597290Y-33027500D01*
X35546164Y-32985542D01*
X35393709Y-32904053D01*
X35228285Y-32853872D01*
X35056250Y-32836928D01*
X34143750Y-32836928D01*
X33971715Y-32853872D01*
X33806291Y-32904053D01*
X33653836Y-32985542D01*
X33557016Y-33065000D01*
X30491987Y-33065000D01*
X30367081Y-32878065D01*
X30121935Y-32632919D01*
X29833673Y-32440308D01*
X29513373Y-32307636D01*
X29173345Y-32240000D01*
X28826655Y-32240000D01*
X28486627Y-32307636D01*
X28166327Y-32440308D01*
X27878065Y-32632919D01*
X27632919Y-32878065D01*
X27440308Y-33166327D01*
X27307636Y-33486627D01*
X27240000Y-33826655D01*
X25284024Y-33826655D01*
X25283336Y-24533484D01*
X25330677Y-24050663D01*
X25461172Y-23618440D01*
X25673136Y-23219794D01*
X25958492Y-22869912D01*
X26306376Y-22582119D01*
X26703532Y-22367378D01*
X27139179Y-22232522D01*
X27540421Y-22185000D01*
X65852548Y-22185000D01*
X65855961Y-22185244D01*
G37*
X65855961Y-22185244D02*
X66373214Y-22218610D01*
X66809237Y-22334553D01*
X67214426Y-22532973D01*
X67573363Y-22806318D01*
X67872369Y-23144175D01*
X68100060Y-23533679D01*
X68247756Y-23959979D01*
X68313518Y-24433344D01*
X68315000Y-24506906D01*
X68315001Y-46966485D01*
X68267688Y-47449016D01*
X68137287Y-47880927D01*
X67925480Y-48279280D01*
X67640325Y-48628914D01*
X67292697Y-48916497D01*
X66895825Y-49131085D01*
X66464834Y-49264500D01*
X65984346Y-49315000D01*
X27633504Y-49315000D01*
X27150984Y-49267688D01*
X26719073Y-49137287D01*
X26320720Y-48925480D01*
X25971086Y-48640325D01*
X25683503Y-48292697D01*
X25468915Y-47895825D01*
X25335500Y-47464834D01*
X25284998Y-46984330D01*
X25284024Y-33826655D01*
X27240000Y-33826655D01*
X27240000Y-34173345D01*
X27307636Y-34513373D01*
X27440308Y-34833673D01*
X27632919Y-35121935D01*
X27878065Y-35367081D01*
X28166327Y-35559692D01*
X28486627Y-35692364D01*
X28826655Y-35760000D01*
X29173345Y-35760000D01*
X29513373Y-35692364D01*
X29833673Y-35559692D01*
X30121935Y-35367081D01*
X30367081Y-35121935D01*
X30491987Y-34935000D01*
X33563109Y-34935000D01*
X33520208Y-34970208D01*
X33410542Y-35103836D01*
X33329053Y-35256291D01*
X33278872Y-35421715D01*
X33261928Y-35593750D01*
X33261928Y-36081250D01*
X33278872Y-36253285D01*
X33329053Y-36418709D01*
X33410542Y-36571164D01*
X33520208Y-36704792D01*
X33653836Y-36814458D01*
X33806291Y-36895947D01*
X33971715Y-36946128D01*
X34143750Y-36963072D01*
X35056250Y-36963072D01*
X35228285Y-36946128D01*
X35393709Y-36895947D01*
X35546164Y-36814458D01*
X35597290Y-36772500D01*
X35802710Y-36772500D01*
X35853836Y-36814458D01*
X36006291Y-36895947D01*
X36171715Y-36946128D01*
X36343750Y-36963072D01*
X37080783Y-36963072D01*
X37851928Y-37734218D01*
X37851928Y-38075000D01*
X37867071Y-38228745D01*
X37911916Y-38376582D01*
X37984742Y-38512829D01*
X38082749Y-38632251D01*
X38202171Y-38730258D01*
X38338418Y-38803084D01*
X38486255Y-38847929D01*
X38640000Y-38863072D01*
X38940000Y-38863072D01*
X38946866Y-38862396D01*
X38928872Y-38921715D01*
X38911928Y-39093750D01*
X38911928Y-39353283D01*
X34700212Y-43564999D01*
X32745932Y-43564999D01*
X32700000Y-43560475D01*
X32516708Y-43578528D01*
X32463244Y-43594746D01*
X32340461Y-43631992D01*
X32178029Y-43718813D01*
X32035657Y-43835655D01*
X32006377Y-43871333D01*
X31502503Y-44375208D01*
X31451184Y-44365000D01*
X31148816Y-44365000D01*
X30852257Y-44423989D01*
X30572905Y-44539701D01*
X30321495Y-44707688D01*
X30107688Y-44921495D01*
X29939701Y-45172905D01*
X29823989Y-45452257D01*
X29765000Y-45748816D01*
X29765000Y-46051184D01*
X29823989Y-46347743D01*
X29939701Y-46627095D01*
X30107688Y-46878505D01*
X30321495Y-47092312D01*
X30572905Y-47260299D01*
X30852257Y-47376011D01*
X31148816Y-47435000D01*
X31451184Y-47435000D01*
X31747743Y-47376011D01*
X32027095Y-47260299D01*
X32278505Y-47092312D01*
X32492312Y-46878505D01*
X32550000Y-46792169D01*
X32607688Y-46878505D01*
X32821495Y-47092312D01*
X33072905Y-47260299D01*
X33352257Y-47376011D01*
X33648816Y-47435000D01*
X33951184Y-47435000D01*
X34247743Y-47376011D01*
X34527095Y-47260299D01*
X34778505Y-47092312D01*
X34985817Y-46885000D01*
X35114183Y-46885000D01*
X35321495Y-47092312D01*
X35572905Y-47260299D01*
X35852257Y-47376011D01*
X36148816Y-47435000D01*
X36451184Y-47435000D01*
X36747743Y-47376011D01*
X37027095Y-47260299D01*
X37278505Y-47092312D01*
X37492312Y-46878505D01*
X37660299Y-46627095D01*
X37776011Y-46347743D01*
X37835000Y-46051184D01*
X37835000Y-45748816D01*
X37824792Y-45697497D01*
X41219289Y-42303000D01*
X48843000Y-42303000D01*
X48843000Y-44053000D01*
X48912669Y-44514366D01*
X49071008Y-44953276D01*
X49311932Y-45352862D01*
X49626182Y-45697768D01*
X50001681Y-45974739D01*
X50423999Y-46173132D01*
X50727168Y-46255348D01*
X51097000Y-46146840D01*
X51097000Y-42303000D01*
X51343000Y-42303000D01*
X51343000Y-46146840D01*
X51712832Y-46255348D01*
X52016001Y-46173132D01*
X52438319Y-45974739D01*
X52813818Y-45697768D01*
X53128068Y-45352862D01*
X53368992Y-44953276D01*
X53527331Y-44514366D01*
X53597000Y-44053000D01*
X53597000Y-42303000D01*
X59003000Y-42303000D01*
X59003000Y-44053000D01*
X59072669Y-44514366D01*
X59231008Y-44953276D01*
X59471932Y-45352862D01*
X59786182Y-45697768D01*
X60161681Y-45974739D01*
X60583999Y-46173132D01*
X60887168Y-46255348D01*
X61257000Y-46146840D01*
X61257000Y-42303000D01*
X61503000Y-42303000D01*
X61503000Y-46146840D01*
X61872832Y-46255348D01*
X62176001Y-46173132D01*
X62598319Y-45974739D01*
X62973818Y-45697768D01*
X63288068Y-45352862D01*
X63528992Y-44953276D01*
X63687331Y-44514366D01*
X63757000Y-44053000D01*
X63757000Y-42303000D01*
X61503000Y-42303000D01*
X61257000Y-42303000D01*
X59003000Y-42303000D01*
X53597000Y-42303000D01*
X51343000Y-42303000D01*
X51097000Y-42303000D01*
X48843000Y-42303000D01*
X41219289Y-42303000D01*
X41958666Y-41563624D01*
X41994344Y-41534344D01*
X42111186Y-41391972D01*
X42198007Y-41229540D01*
X42251471Y-41053292D01*
X42265000Y-40915932D01*
X42265000Y-40915931D01*
X42269524Y-40870001D01*
X42265000Y-40824069D01*
X42265000Y-40307000D01*
X48843000Y-40307000D01*
X48843000Y-42057000D01*
X51097000Y-42057000D01*
X51097000Y-38213160D01*
X51343000Y-38213160D01*
X51343000Y-42057000D01*
X53597000Y-42057000D01*
X53597000Y-40307000D01*
X59003000Y-40307000D01*
X59003000Y-42057000D01*
X61257000Y-42057000D01*
X61257000Y-38213160D01*
X61503000Y-38213160D01*
X61503000Y-42057000D01*
X63757000Y-42057000D01*
X63757000Y-40307000D01*
X63687331Y-39845634D01*
X63528992Y-39406724D01*
X63288068Y-39007138D01*
X62973818Y-38662232D01*
X62598319Y-38385261D01*
X62176001Y-38186868D01*
X61872832Y-38104652D01*
X61503000Y-38213160D01*
X61257000Y-38213160D01*
X60887168Y-38104652D01*
X60583999Y-38186868D01*
X60161681Y-38385261D01*
X59786182Y-38662232D01*
X59471932Y-39007138D01*
X59231008Y-39406724D01*
X59072669Y-39845634D01*
X59003000Y-40307000D01*
X53597000Y-40307000D01*
X53527331Y-39845634D01*
X53368992Y-39406724D01*
X53128068Y-39007138D01*
X52813818Y-38662232D01*
X52438319Y-38385261D01*
X52016001Y-38186868D01*
X51712832Y-38104652D01*
X51343000Y-38213160D01*
X51097000Y-38213160D01*
X50727168Y-38104652D01*
X50423999Y-38186868D01*
X50001681Y-38385261D01*
X49626182Y-38662232D01*
X49311932Y-39007138D01*
X49071008Y-39406724D01*
X48912669Y-39845634D01*
X48843000Y-40307000D01*
X42265000Y-40307000D01*
X42265000Y-39660010D01*
X47229058Y-39660010D01*
X47274990Y-39664534D01*
X47320922Y-39660010D01*
X47458282Y-39646481D01*
X47634530Y-39593017D01*
X47796962Y-39506196D01*
X47939334Y-39389354D01*
X47968620Y-39353669D01*
X49287290Y-38035000D01*
X54947553Y-38035000D01*
X54967818Y-38101807D01*
X55101068Y-38351100D01*
X55280392Y-38569607D01*
X55498899Y-38748932D01*
X55748192Y-38882182D01*
X56018691Y-38964236D01*
X56300000Y-38991943D01*
X56581308Y-38964236D01*
X56851807Y-38882182D01*
X57101100Y-38748932D01*
X57319607Y-38569608D01*
X57498932Y-38351101D01*
X57567265Y-38223259D01*
X57717399Y-38452839D01*
X57915105Y-38654500D01*
X58148354Y-38813715D01*
X58408182Y-38924367D01*
X58490961Y-38941904D01*
X58713000Y-38819915D01*
X58713000Y-37227000D01*
X58967000Y-37227000D01*
X58967000Y-38819915D01*
X59189039Y-38941904D01*
X59271818Y-38924367D01*
X59531646Y-38813715D01*
X59764895Y-38654500D01*
X59962601Y-38452839D01*
X60117166Y-38216483D01*
X60222650Y-37954514D01*
X60275000Y-37677000D01*
X60275000Y-37227000D01*
X58967000Y-37227000D01*
X58713000Y-37227000D01*
X58693000Y-37227000D01*
X58693000Y-36973000D01*
X58713000Y-36973000D01*
X58713000Y-35380085D01*
X58967000Y-35380085D01*
X58967000Y-36973000D01*
X60275000Y-36973000D01*
X60275000Y-36523000D01*
X60222650Y-36245486D01*
X60117166Y-35983517D01*
X59962601Y-35747161D01*
X59764895Y-35545500D01*
X59531646Y-35386285D01*
X59271818Y-35275633D01*
X59189039Y-35258096D01*
X58967000Y-35380085D01*
X58713000Y-35380085D01*
X58490961Y-35258096D01*
X58408182Y-35275633D01*
X58148354Y-35386285D01*
X57915105Y-35545500D01*
X57717399Y-35747161D01*
X57567265Y-35976741D01*
X57498932Y-35848899D01*
X57319608Y-35630392D01*
X57101101Y-35451068D01*
X56851808Y-35317818D01*
X56581309Y-35235764D01*
X56300000Y-35208057D01*
X56018692Y-35235764D01*
X55748193Y-35317818D01*
X55498900Y-35451068D01*
X55280393Y-35630392D01*
X55101068Y-35848899D01*
X54967818Y-36098192D01*
X54947552Y-36165000D01*
X48945931Y-36165000D01*
X48899999Y-36160476D01*
X48716707Y-36178529D01*
X48688219Y-36187171D01*
X48540460Y-36231993D01*
X48378028Y-36318814D01*
X48235656Y-36435656D01*
X48206374Y-36471336D01*
X46887701Y-37790010D01*
X45488072Y-37790010D01*
X45488072Y-37617428D01*
X48070501Y-35034999D01*
X55307623Y-35034999D01*
X55356003Y-35039764D01*
X55404383Y-35034999D01*
X55549097Y-35020746D01*
X55734770Y-34964423D01*
X55905887Y-34872959D01*
X56055873Y-34749869D01*
X56086719Y-34712283D01*
X59985931Y-30813072D01*
X60037501Y-30813072D01*
X60210755Y-30796008D01*
X60377351Y-30745472D01*
X60530887Y-30663405D01*
X60665462Y-30552962D01*
X60775905Y-30418387D01*
X60857972Y-30264851D01*
X60908508Y-30098255D01*
X60925572Y-29925001D01*
X60925572Y-29074999D01*
X60908508Y-28901745D01*
X60868049Y-28768370D01*
X60876746Y-28771008D01*
X61050000Y-28788072D01*
X61875000Y-28788072D01*
X62048254Y-28771008D01*
X62214850Y-28720472D01*
X62368386Y-28638405D01*
X62502962Y-28527962D01*
X62613405Y-28393386D01*
X62695472Y-28239850D01*
X62746008Y-28073254D01*
X62763072Y-27900000D01*
X62763072Y-27100000D01*
X62746008Y-26926746D01*
X62695472Y-26760150D01*
X62613405Y-26606614D01*
X62502962Y-26472038D01*
X62447500Y-26426522D01*
X62447500Y-25475750D01*
X62471008Y-25398254D01*
X62488072Y-25225000D01*
X62488072Y-23775000D01*
X62471008Y-23601746D01*
X62420472Y-23435150D01*
X62338405Y-23281614D01*
X62227962Y-23147038D01*
X62093386Y-23036595D01*
X61939850Y-22954528D01*
X61773254Y-22903992D01*
X61600000Y-22886928D01*
X60400000Y-22886928D01*
X60226746Y-22903992D01*
X60060150Y-22954528D01*
X59906614Y-23036595D01*
X59772038Y-23147038D01*
X59661595Y-23281614D01*
X59605286Y-23386961D01*
X59589049Y-23365571D01*
X59371193Y-23172504D01*
X59119858Y-23025648D01*
X58856890Y-22933524D01*
X58627000Y-23054845D01*
X58627000Y-24373000D01*
X58647000Y-24373000D01*
X58647000Y-24627000D01*
X58627000Y-24627000D01*
X58627000Y-25945155D01*
X58856890Y-26066476D01*
X59119858Y-25974352D01*
X59371193Y-25827496D01*
X59589049Y-25634429D01*
X59605286Y-25613039D01*
X59661595Y-25718386D01*
X59772038Y-25852962D01*
X59906614Y-25963405D01*
X60060150Y-26045472D01*
X60226746Y-26096008D01*
X60400000Y-26113072D01*
X60477501Y-26113072D01*
X60477500Y-26389592D01*
X60443386Y-26361595D01*
X60289850Y-26279528D01*
X60123254Y-26228992D01*
X59950000Y-26211928D01*
X59125000Y-26211928D01*
X58951746Y-26228992D01*
X58785150Y-26279528D01*
X58631614Y-26361595D01*
X58497038Y-26472038D01*
X58386595Y-26606614D01*
X58304528Y-26760150D01*
X58253992Y-26926746D01*
X58236928Y-27100000D01*
X58236928Y-27900000D01*
X58253992Y-28073254D01*
X58304528Y-28239850D01*
X58386595Y-28393386D01*
X58391955Y-28399917D01*
X58334538Y-28447038D01*
X58224095Y-28581613D01*
X58142028Y-28735149D01*
X58091492Y-28901745D01*
X58074428Y-29074999D01*
X58074428Y-29925001D01*
X58075645Y-29937356D01*
X54948003Y-33064999D01*
X47710880Y-33064999D01*
X47662500Y-33060234D01*
X47469406Y-33079252D01*
X47295542Y-33131993D01*
X47283734Y-33135575D01*
X47112617Y-33227039D01*
X46962631Y-33350129D01*
X46931785Y-33387715D01*
X44307572Y-36011928D01*
X44118750Y-36011928D01*
X43946715Y-36028872D01*
X43781291Y-36079053D01*
X43628836Y-36160542D01*
X43495208Y-36270208D01*
X43467614Y-36303831D01*
X43405258Y-36187171D01*
X43307251Y-36067749D01*
X43187829Y-35969742D01*
X43051582Y-35896916D01*
X42903745Y-35852071D01*
X42750000Y-35836928D01*
X42735361Y-35836928D01*
X43228659Y-35343630D01*
X43264344Y-35314344D01*
X43381186Y-35171972D01*
X43468007Y-35009540D01*
X43521471Y-34833292D01*
X43532010Y-34726289D01*
X43539524Y-34650000D01*
X43535000Y-34604068D01*
X43535000Y-33426160D01*
X43618791Y-33470947D01*
X43784215Y-33521128D01*
X43956250Y-33538072D01*
X44443750Y-33538072D01*
X44615785Y-33521128D01*
X44781209Y-33470947D01*
X44933664Y-33389458D01*
X45067292Y-33279792D01*
X45176958Y-33146164D01*
X45258447Y-32993709D01*
X45308628Y-32828285D01*
X45325572Y-32656250D01*
X45325572Y-31743750D01*
X45308628Y-31571715D01*
X45258447Y-31406291D01*
X45176958Y-31253836D01*
X45067292Y-31120208D01*
X44933664Y-31010542D01*
X44781209Y-30929053D01*
X44615785Y-30878872D01*
X44443750Y-30861928D01*
X43956250Y-30861928D01*
X43784215Y-30878872D01*
X43618791Y-30929053D01*
X43466336Y-31010542D01*
X43413988Y-31053503D01*
X43405258Y-31037171D01*
X43307251Y-30917749D01*
X43187829Y-30819742D01*
X43051582Y-30746916D01*
X42903745Y-30702071D01*
X42750000Y-30686928D01*
X42450000Y-30686928D01*
X42296255Y-30702071D01*
X42148418Y-30746916D01*
X42012171Y-30819742D01*
X41965000Y-30858454D01*
X41917829Y-30819742D01*
X41781582Y-30746916D01*
X41633745Y-30702071D01*
X41480000Y-30686928D01*
X41180000Y-30686928D01*
X41026255Y-30702071D01*
X40878418Y-30746916D01*
X40742171Y-30819742D01*
X40622749Y-30917749D01*
X40524742Y-31037171D01*
X40451916Y-31173418D01*
X40407071Y-31321255D01*
X40391928Y-31475000D01*
X40391928Y-32898018D01*
X40391232Y-32906949D01*
X40388454Y-32918633D01*
X40383907Y-32929728D01*
X40377693Y-32939987D01*
X40369963Y-32949162D01*
X40360907Y-32957026D01*
X40350740Y-32963393D01*
X40339707Y-32968108D01*
X40328074Y-32971057D01*
X40279794Y-32975546D01*
X39722275Y-32983853D01*
X39728072Y-32925000D01*
X39728072Y-31475000D01*
X39725000Y-31443810D01*
X39725000Y-31059475D01*
X39776958Y-30996164D01*
X39858447Y-30843709D01*
X39908628Y-30678285D01*
X39925572Y-30506250D01*
X39925572Y-29593750D01*
X39921355Y-29550935D01*
X39937290Y-29535000D01*
X51574428Y-29535000D01*
X51574428Y-29925001D01*
X51591492Y-30098255D01*
X51642028Y-30264851D01*
X51724095Y-30418387D01*
X51834538Y-30552962D01*
X51969113Y-30663405D01*
X52122649Y-30745472D01*
X52289245Y-30796008D01*
X52462499Y-30813072D01*
X53537501Y-30813072D01*
X53710755Y-30796008D01*
X53877351Y-30745472D01*
X54030887Y-30663405D01*
X54165462Y-30552962D01*
X54275905Y-30418387D01*
X54357972Y-30264851D01*
X54408508Y-30098255D01*
X54425572Y-29925001D01*
X54425572Y-29074999D01*
X54408508Y-28901745D01*
X54368049Y-28768370D01*
X54376746Y-28771008D01*
X54550000Y-28788072D01*
X55375000Y-28788072D01*
X55548254Y-28771008D01*
X55714850Y-28720472D01*
X55868386Y-28638405D01*
X56002962Y-28527962D01*
X56113405Y-28393386D01*
X56195472Y-28239850D01*
X56246008Y-28073254D01*
X56263072Y-27900000D01*
X56263072Y-27592429D01*
X56662290Y-27193211D01*
X56699870Y-27162370D01*
X56822960Y-27012384D01*
X56914424Y-26841267D01*
X56970747Y-26655594D01*
X56985000Y-26510880D01*
X56989765Y-26462500D01*
X56985000Y-26414120D01*
X56985000Y-25737691D01*
X57055134Y-25680134D01*
X57240706Y-25454014D01*
X57254462Y-25428278D01*
X57410951Y-25634429D01*
X57628807Y-25827496D01*
X57880142Y-25974352D01*
X58143110Y-26066476D01*
X58373000Y-25945155D01*
X58373000Y-24627000D01*
X58353000Y-24627000D01*
X58353000Y-24373000D01*
X58373000Y-24373000D01*
X58373000Y-23054845D01*
X58143110Y-22933524D01*
X57880142Y-23025648D01*
X57628807Y-23172504D01*
X57410951Y-23365571D01*
X57254462Y-23571722D01*
X57240706Y-23545986D01*
X57055134Y-23319866D01*
X56829014Y-23134294D01*
X56571034Y-22996401D01*
X56291111Y-22911487D01*
X56000000Y-22882815D01*
X55708890Y-22911487D01*
X55428967Y-22996401D01*
X55170987Y-23134294D01*
X54944866Y-23319866D01*
X54759294Y-23545986D01*
X54621401Y-23803966D01*
X54536487Y-24083889D01*
X54515000Y-24302050D01*
X54515000Y-24697949D01*
X54536487Y-24916110D01*
X54621401Y-25196033D01*
X54759294Y-25454013D01*
X54944866Y-25680134D01*
X55015001Y-25737692D01*
X55015001Y-26054499D01*
X54857571Y-26211928D01*
X54550000Y-26211928D01*
X54376746Y-26228992D01*
X54210150Y-26279528D01*
X54056614Y-26361595D01*
X54000000Y-26408057D01*
X53943386Y-26361595D01*
X53789850Y-26279528D01*
X53623254Y-26228992D01*
X53450000Y-26211928D01*
X52625000Y-26211928D01*
X52451746Y-26228992D01*
X52285150Y-26279528D01*
X52131614Y-26361595D01*
X51997038Y-26472038D01*
X51886595Y-26606614D01*
X51804528Y-26760150D01*
X51753992Y-26926746D01*
X51736928Y-27100000D01*
X51736928Y-27665000D01*
X39595931Y-27665000D01*
X39549999Y-27660476D01*
X39366707Y-27678529D01*
X39318697Y-27693093D01*
X39190460Y-27731993D01*
X39028028Y-27818814D01*
X38885656Y-27935656D01*
X38856374Y-27971336D01*
X38171336Y-28656375D01*
X38135657Y-28685656D01*
X38018815Y-28828028D01*
X37950720Y-28955426D01*
X37932708Y-28970208D01*
X37823042Y-29103836D01*
X37741553Y-29256291D01*
X37691372Y-29421715D01*
X37674428Y-29593750D01*
X37674428Y-30506250D01*
X37691372Y-30678285D01*
X37741553Y-30843709D01*
X37823042Y-30996164D01*
X37855001Y-31035105D01*
X37855000Y-31443807D01*
X37851928Y-31475000D01*
X37851928Y-32925000D01*
X37860457Y-33011595D01*
X37779382Y-33012804D01*
X37746164Y-32985542D01*
X37593709Y-32904053D01*
X37428285Y-32853872D01*
X37256250Y-32836928D01*
X36343750Y-32836928D01*
X36171715Y-32853872D01*
X36006291Y-32904053D01*
X35853836Y-32985542D01*
X35802710Y-33027500D01*
X35597290Y-33027500D01*
X35546164Y-32985542D01*
X35393709Y-32904053D01*
X35228285Y-32853872D01*
X35056250Y-32836928D01*
X34143750Y-32836928D01*
X33971715Y-32853872D01*
X33806291Y-32904053D01*
X33653836Y-32985542D01*
X33557016Y-33065000D01*
X30491987Y-33065000D01*
X30367081Y-32878065D01*
X30121935Y-32632919D01*
X29833673Y-32440308D01*
X29513373Y-32307636D01*
X29173345Y-32240000D01*
X28826655Y-32240000D01*
X28486627Y-32307636D01*
X28166327Y-32440308D01*
X27878065Y-32632919D01*
X27632919Y-32878065D01*
X27440308Y-33166327D01*
X27307636Y-33486627D01*
X27240000Y-33826655D01*
X25284024Y-33826655D01*
X25283336Y-24533484D01*
X25330677Y-24050663D01*
X25461172Y-23618440D01*
X25673136Y-23219794D01*
X25958492Y-22869912D01*
X26306376Y-22582119D01*
X26703532Y-22367378D01*
X27139179Y-22232522D01*
X27540421Y-22185000D01*
X65852548Y-22185000D01*
X65855961Y-22185244D01*
G36*
X40887721Y-35039990D02*
G01*
X39335942Y-35039990D01*
X39290010Y-35035466D01*
X39244078Y-35039990D01*
X39106718Y-35053519D01*
X38930470Y-35106983D01*
X38768038Y-35193804D01*
X38625666Y-35310646D01*
X38596376Y-35346336D01*
X38352500Y-35590211D01*
X38093749Y-35331460D01*
X38070947Y-35256291D01*
X37989458Y-35103836D01*
X37879792Y-34970208D01*
X37794244Y-34900000D01*
X37815604Y-34882470D01*
X40334490Y-34844937D01*
X40370932Y-34845136D01*
X40380440Y-34844252D01*
X40389967Y-34844110D01*
X40426103Y-34840006D01*
X40508970Y-34832302D01*
X40535966Y-34833551D01*
X40600482Y-34823793D01*
X40619489Y-34822026D01*
X40645864Y-34816929D01*
X40672439Y-34812910D01*
X40690954Y-34808216D01*
X40755006Y-34795839D01*
X40780024Y-34785636D01*
X40806835Y-34778839D01*
X40833706Y-34775889D01*
X40895908Y-34756258D01*
X40914414Y-34751567D01*
X40939706Y-34742436D01*
X40965331Y-34734349D01*
X40982875Y-34726851D01*
X41044238Y-34704698D01*
X41067387Y-34690733D01*
X41092816Y-34679866D01*
X41118903Y-34672788D01*
X41177326Y-34643749D01*
X41194877Y-34636248D01*
X41218432Y-34623317D01*
X41242502Y-34611353D01*
X41258683Y-34601220D01*
X41315869Y-34569827D01*
X41336569Y-34552448D01*
X41360007Y-34537771D01*
X41384681Y-34526737D01*
X41437894Y-34488998D01*
X41440084Y-34487627D01*
X40887721Y-35039990D01*
G37*
X40887721Y-35039990D02*
X39335942Y-35039990D01*
X39290010Y-35035466D01*
X39244078Y-35039990D01*
X39106718Y-35053519D01*
X38930470Y-35106983D01*
X38768038Y-35193804D01*
X38625666Y-35310646D01*
X38596376Y-35346336D01*
X38352500Y-35590211D01*
X38093749Y-35331460D01*
X38070947Y-35256291D01*
X37989458Y-35103836D01*
X37879792Y-34970208D01*
X37794244Y-34900000D01*
X37815604Y-34882470D01*
X40334490Y-34844937D01*
X40370932Y-34845136D01*
X40380440Y-34844252D01*
X40389967Y-34844110D01*
X40426103Y-34840006D01*
X40508970Y-34832302D01*
X40535966Y-34833551D01*
X40600482Y-34823793D01*
X40619489Y-34822026D01*
X40645864Y-34816929D01*
X40672439Y-34812910D01*
X40690954Y-34808216D01*
X40755006Y-34795839D01*
X40780024Y-34785636D01*
X40806835Y-34778839D01*
X40833706Y-34775889D01*
X40895908Y-34756258D01*
X40914414Y-34751567D01*
X40939706Y-34742436D01*
X40965331Y-34734349D01*
X40982875Y-34726851D01*
X41044238Y-34704698D01*
X41067387Y-34690733D01*
X41092816Y-34679866D01*
X41118903Y-34672788D01*
X41177326Y-34643749D01*
X41194877Y-34636248D01*
X41218432Y-34623317D01*
X41242502Y-34611353D01*
X41258683Y-34601220D01*
X41315869Y-34569827D01*
X41336569Y-34552448D01*
X41360007Y-34537771D01*
X41384681Y-34526737D01*
X41437894Y-34488998D01*
X41440084Y-34487627D01*
X40887721Y-35039990D01*
G36*
X35805756Y-34900000D02*
G01*
X35802710Y-34902500D01*
X35597290Y-34902500D01*
X35594244Y-34900000D01*
X35597290Y-34897500D01*
X35802710Y-34897500D01*
X35805756Y-34900000D01*
G37*
X35805756Y-34900000D02*
X35802710Y-34902500D01*
X35597290Y-34902500D01*
X35594244Y-34900000D01*
X35597290Y-34897500D01*
X35802710Y-34897500D01*
X35805756Y-34900000D01*
D21*
G36*
X42125000Y-31289057D02*
G01*
X42102540Y-31331077D01*
X42081138Y-31401629D01*
X42073912Y-31475000D01*
X42073912Y-32185258D01*
X42072460Y-32200000D01*
X42073912Y-32214742D01*
X42073912Y-32925000D01*
X42075000Y-32936050D01*
X42075001Y-34339643D01*
X41089644Y-35325000D01*
X37640569Y-35325000D01*
X37588476Y-35261524D01*
X37517278Y-35203094D01*
X37436049Y-35159676D01*
X37347911Y-35132940D01*
X37256250Y-35123912D01*
X36343750Y-35123912D01*
X36252089Y-35132940D01*
X36163951Y-35159676D01*
X36082722Y-35203094D01*
X36011524Y-35261524D01*
X35969690Y-35312500D01*
X35430310Y-35312500D01*
X35388476Y-35261524D01*
X35317278Y-35203094D01*
X35236049Y-35159676D01*
X35147911Y-35132940D01*
X35056250Y-35123912D01*
X34143750Y-35123912D01*
X34052089Y-35132940D01*
X33963951Y-35159676D01*
X33882722Y-35203094D01*
X33811524Y-35261524D01*
X33759431Y-35325000D01*
X30007330Y-35325000D01*
X30618320Y-34667011D01*
X30621287Y-34663110D01*
X30623435Y-34658706D01*
X30624683Y-34653966D01*
X30625000Y-34650000D01*
X30625000Y-34525000D01*
X33800465Y-34525000D01*
X33811524Y-34538476D01*
X33882722Y-34596906D01*
X33963951Y-34640324D01*
X34052089Y-34667060D01*
X34143750Y-34676088D01*
X35056250Y-34676088D01*
X35147911Y-34667060D01*
X35236049Y-34640324D01*
X35317278Y-34596906D01*
X35388476Y-34538476D01*
X35430310Y-34487500D01*
X35969690Y-34487500D01*
X36011524Y-34538476D01*
X36082722Y-34596906D01*
X36163951Y-34640324D01*
X36252089Y-34667060D01*
X36343750Y-34676088D01*
X37256250Y-34676088D01*
X37347911Y-34667060D01*
X37436049Y-34640324D01*
X37517278Y-34596906D01*
X37588476Y-34538476D01*
X37640542Y-34475033D01*
X40332622Y-34434919D01*
X40353034Y-34435031D01*
X40358360Y-34434536D01*
X40363717Y-34434456D01*
X40384029Y-34432149D01*
X40499428Y-34421421D01*
X40514581Y-34422122D01*
X40550793Y-34416645D01*
X40561476Y-34415652D01*
X40576297Y-34412788D01*
X40591213Y-34410532D01*
X40601609Y-34407896D01*
X40637571Y-34400947D01*
X40651616Y-34395219D01*
X40733734Y-34374401D01*
X40748820Y-34372745D01*
X40783748Y-34361722D01*
X40794135Y-34359089D01*
X40808326Y-34353966D01*
X40822730Y-34349420D01*
X40832595Y-34345204D01*
X40867033Y-34332771D01*
X40880026Y-34324933D01*
X40957932Y-34291638D01*
X40972572Y-34287666D01*
X41005365Y-34271367D01*
X41015229Y-34267151D01*
X41028460Y-34259888D01*
X41041975Y-34253170D01*
X41051065Y-34247478D01*
X41083168Y-34229854D01*
X41094787Y-34220099D01*
X41166587Y-34175138D01*
X41180440Y-34168943D01*
X41210320Y-34147752D01*
X41219401Y-34142066D01*
X41231335Y-34132849D01*
X41243659Y-34124109D01*
X41251764Y-34117071D01*
X41280740Y-34094692D01*
X41290706Y-34083256D01*
X41354682Y-34027702D01*
X41367402Y-34019439D01*
X41393623Y-33993889D01*
X41401725Y-33986853D01*
X41412100Y-33975884D01*
X41422910Y-33965350D01*
X41429821Y-33957147D01*
X41454981Y-33930546D01*
X41463056Y-33917702D01*
X41517645Y-33852910D01*
X41528934Y-33842773D01*
X41550886Y-33813457D01*
X41557796Y-33805256D01*
X41566343Y-33792816D01*
X41575389Y-33780735D01*
X41580945Y-33771561D01*
X41601683Y-33741376D01*
X41607669Y-33727437D01*
X41651556Y-33654975D01*
X41661141Y-33643206D01*
X41678288Y-33610837D01*
X41683837Y-33601675D01*
X41690348Y-33588071D01*
X41697421Y-33574719D01*
X41701490Y-33564790D01*
X41717296Y-33531766D01*
X41721050Y-33517066D01*
X41753180Y-33438673D01*
X41760823Y-33425565D01*
X41772745Y-33390937D01*
X41776811Y-33381015D01*
X41781139Y-33366554D01*
X41786052Y-33352283D01*
X41788531Y-33341853D01*
X41799032Y-33306767D01*
X41800463Y-33291661D01*
X41820055Y-33209243D01*
X41825574Y-33195112D01*
X41831987Y-33159051D01*
X41834467Y-33148618D01*
X41836500Y-33133671D01*
X41839144Y-33118805D01*
X41839978Y-33108105D01*
X41844914Y-33071822D01*
X41843987Y-33056683D01*
X41848420Y-32999827D01*
X41848862Y-32998371D01*
X41856088Y-32925000D01*
X41856088Y-31475000D01*
X41848862Y-31401629D01*
X41827460Y-31331077D01*
X41792706Y-31266057D01*
X41745934Y-31209066D01*
X41688943Y-31162294D01*
X41623923Y-31127540D01*
X41553371Y-31106138D01*
X41480000Y-31098912D01*
X41180000Y-31098912D01*
X41106629Y-31106138D01*
X41036077Y-31127540D01*
X40971057Y-31162294D01*
X40914066Y-31209066D01*
X40867294Y-31266057D01*
X40832540Y-31331077D01*
X40811138Y-31401629D01*
X40803912Y-31475000D01*
X40803912Y-32888522D01*
X40797506Y-32970687D01*
X40779949Y-33044543D01*
X40751159Y-33114788D01*
X40711829Y-33179726D01*
X40662917Y-33237779D01*
X40605590Y-33287558D01*
X40541250Y-33327848D01*
X40471442Y-33357681D01*
X40397852Y-33376337D01*
X40301849Y-33385263D01*
X37620233Y-33425220D01*
X37588476Y-33386524D01*
X37517278Y-33328094D01*
X37436049Y-33284676D01*
X37347911Y-33257940D01*
X37256250Y-33248912D01*
X36343750Y-33248912D01*
X36252089Y-33257940D01*
X36163951Y-33284676D01*
X36082722Y-33328094D01*
X36011524Y-33386524D01*
X35969690Y-33437500D01*
X35430310Y-33437500D01*
X35388476Y-33386524D01*
X35317278Y-33328094D01*
X35236049Y-33284676D01*
X35147911Y-33257940D01*
X35056250Y-33248912D01*
X34143750Y-33248912D01*
X34052089Y-33257940D01*
X33963951Y-33284676D01*
X33882722Y-33328094D01*
X33811524Y-33386524D01*
X33753094Y-33457722D01*
X33743859Y-33475000D01*
X30625000Y-33475000D01*
X30625000Y-33450000D01*
X30624520Y-33445123D01*
X30623097Y-33440433D01*
X30621291Y-33436898D01*
X30221291Y-32786898D01*
X30218326Y-32782996D01*
X30216203Y-32780962D01*
X29680448Y-32325000D01*
X38263912Y-32325000D01*
X38263912Y-32925000D01*
X38271138Y-32998371D01*
X38292540Y-33068923D01*
X38327294Y-33133943D01*
X38374066Y-33190934D01*
X38431057Y-33237706D01*
X38496077Y-33272460D01*
X38566629Y-33293862D01*
X38640000Y-33301088D01*
X38940000Y-33301088D01*
X39013371Y-33293862D01*
X39083923Y-33272460D01*
X39148943Y-33237706D01*
X39205934Y-33190934D01*
X39252706Y-33133943D01*
X39287460Y-33068923D01*
X39308862Y-32998371D01*
X39316088Y-32925000D01*
X39316088Y-32325000D01*
X39500000Y-32325000D01*
X39504877Y-32324520D01*
X39509567Y-32323097D01*
X39513889Y-32320787D01*
X39517678Y-32317678D01*
X39520787Y-32313889D01*
X39523097Y-32309567D01*
X39524520Y-32304877D01*
X39525000Y-32300000D01*
X39525000Y-29825000D01*
X42125000Y-29825000D01*
X42125000Y-31289057D01*
G37*
X42125000Y-31289057D02*
X42102540Y-31331077D01*
X42081138Y-31401629D01*
X42073912Y-31475000D01*
X42073912Y-32185258D01*
X42072460Y-32200000D01*
X42073912Y-32214742D01*
X42073912Y-32925000D01*
X42075000Y-32936050D01*
X42075001Y-34339643D01*
X41089644Y-35325000D01*
X37640569Y-35325000D01*
X37588476Y-35261524D01*
X37517278Y-35203094D01*
X37436049Y-35159676D01*
X37347911Y-35132940D01*
X37256250Y-35123912D01*
X36343750Y-35123912D01*
X36252089Y-35132940D01*
X36163951Y-35159676D01*
X36082722Y-35203094D01*
X36011524Y-35261524D01*
X35969690Y-35312500D01*
X35430310Y-35312500D01*
X35388476Y-35261524D01*
X35317278Y-35203094D01*
X35236049Y-35159676D01*
X35147911Y-35132940D01*
X35056250Y-35123912D01*
X34143750Y-35123912D01*
X34052089Y-35132940D01*
X33963951Y-35159676D01*
X33882722Y-35203094D01*
X33811524Y-35261524D01*
X33759431Y-35325000D01*
X30007330Y-35325000D01*
X30618320Y-34667011D01*
X30621287Y-34663110D01*
X30623435Y-34658706D01*
X30624683Y-34653966D01*
X30625000Y-34650000D01*
X30625000Y-34525000D01*
X33800465Y-34525000D01*
X33811524Y-34538476D01*
X33882722Y-34596906D01*
X33963951Y-34640324D01*
X34052089Y-34667060D01*
X34143750Y-34676088D01*
X35056250Y-34676088D01*
X35147911Y-34667060D01*
X35236049Y-34640324D01*
X35317278Y-34596906D01*
X35388476Y-34538476D01*
X35430310Y-34487500D01*
X35969690Y-34487500D01*
X36011524Y-34538476D01*
X36082722Y-34596906D01*
X36163951Y-34640324D01*
X36252089Y-34667060D01*
X36343750Y-34676088D01*
X37256250Y-34676088D01*
X37347911Y-34667060D01*
X37436049Y-34640324D01*
X37517278Y-34596906D01*
X37588476Y-34538476D01*
X37640542Y-34475033D01*
X40332622Y-34434919D01*
X40353034Y-34435031D01*
X40358360Y-34434536D01*
X40363717Y-34434456D01*
X40384029Y-34432149D01*
X40499428Y-34421421D01*
X40514581Y-34422122D01*
X40550793Y-34416645D01*
X40561476Y-34415652D01*
X40576297Y-34412788D01*
X40591213Y-34410532D01*
X40601609Y-34407896D01*
X40637571Y-34400947D01*
X40651616Y-34395219D01*
X40733734Y-34374401D01*
X40748820Y-34372745D01*
X40783748Y-34361722D01*
X40794135Y-34359089D01*
X40808326Y-34353966D01*
X40822730Y-34349420D01*
X40832595Y-34345204D01*
X40867033Y-34332771D01*
X40880026Y-34324933D01*
X40957932Y-34291638D01*
X40972572Y-34287666D01*
X41005365Y-34271367D01*
X41015229Y-34267151D01*
X41028460Y-34259888D01*
X41041975Y-34253170D01*
X41051065Y-34247478D01*
X41083168Y-34229854D01*
X41094787Y-34220099D01*
X41166587Y-34175138D01*
X41180440Y-34168943D01*
X41210320Y-34147752D01*
X41219401Y-34142066D01*
X41231335Y-34132849D01*
X41243659Y-34124109D01*
X41251764Y-34117071D01*
X41280740Y-34094692D01*
X41290706Y-34083256D01*
X41354682Y-34027702D01*
X41367402Y-34019439D01*
X41393623Y-33993889D01*
X41401725Y-33986853D01*
X41412100Y-33975884D01*
X41422910Y-33965350D01*
X41429821Y-33957147D01*
X41454981Y-33930546D01*
X41463056Y-33917702D01*
X41517645Y-33852910D01*
X41528934Y-33842773D01*
X41550886Y-33813457D01*
X41557796Y-33805256D01*
X41566343Y-33792816D01*
X41575389Y-33780735D01*
X41580945Y-33771561D01*
X41601683Y-33741376D01*
X41607669Y-33727437D01*
X41651556Y-33654975D01*
X41661141Y-33643206D01*
X41678288Y-33610837D01*
X41683837Y-33601675D01*
X41690348Y-33588071D01*
X41697421Y-33574719D01*
X41701490Y-33564790D01*
X41717296Y-33531766D01*
X41721050Y-33517066D01*
X41753180Y-33438673D01*
X41760823Y-33425565D01*
X41772745Y-33390937D01*
X41776811Y-33381015D01*
X41781139Y-33366554D01*
X41786052Y-33352283D01*
X41788531Y-33341853D01*
X41799032Y-33306767D01*
X41800463Y-33291661D01*
X41820055Y-33209243D01*
X41825574Y-33195112D01*
X41831987Y-33159051D01*
X41834467Y-33148618D01*
X41836500Y-33133671D01*
X41839144Y-33118805D01*
X41839978Y-33108105D01*
X41844914Y-33071822D01*
X41843987Y-33056683D01*
X41848420Y-32999827D01*
X41848862Y-32998371D01*
X41856088Y-32925000D01*
X41856088Y-31475000D01*
X41848862Y-31401629D01*
X41827460Y-31331077D01*
X41792706Y-31266057D01*
X41745934Y-31209066D01*
X41688943Y-31162294D01*
X41623923Y-31127540D01*
X41553371Y-31106138D01*
X41480000Y-31098912D01*
X41180000Y-31098912D01*
X41106629Y-31106138D01*
X41036077Y-31127540D01*
X40971057Y-31162294D01*
X40914066Y-31209066D01*
X40867294Y-31266057D01*
X40832540Y-31331077D01*
X40811138Y-31401629D01*
X40803912Y-31475000D01*
X40803912Y-32888522D01*
X40797506Y-32970687D01*
X40779949Y-33044543D01*
X40751159Y-33114788D01*
X40711829Y-33179726D01*
X40662917Y-33237779D01*
X40605590Y-33287558D01*
X40541250Y-33327848D01*
X40471442Y-33357681D01*
X40397852Y-33376337D01*
X40301849Y-33385263D01*
X37620233Y-33425220D01*
X37588476Y-33386524D01*
X37517278Y-33328094D01*
X37436049Y-33284676D01*
X37347911Y-33257940D01*
X37256250Y-33248912D01*
X36343750Y-33248912D01*
X36252089Y-33257940D01*
X36163951Y-33284676D01*
X36082722Y-33328094D01*
X36011524Y-33386524D01*
X35969690Y-33437500D01*
X35430310Y-33437500D01*
X35388476Y-33386524D01*
X35317278Y-33328094D01*
X35236049Y-33284676D01*
X35147911Y-33257940D01*
X35056250Y-33248912D01*
X34143750Y-33248912D01*
X34052089Y-33257940D01*
X33963951Y-33284676D01*
X33882722Y-33328094D01*
X33811524Y-33386524D01*
X33753094Y-33457722D01*
X33743859Y-33475000D01*
X30625000Y-33475000D01*
X30625000Y-33450000D01*
X30624520Y-33445123D01*
X30623097Y-33440433D01*
X30621291Y-33436898D01*
X30221291Y-32786898D01*
X30218326Y-32782996D01*
X30216203Y-32780962D01*
X29680448Y-32325000D01*
X38263912Y-32325000D01*
X38263912Y-32925000D01*
X38271138Y-32998371D01*
X38292540Y-33068923D01*
X38327294Y-33133943D01*
X38374066Y-33190934D01*
X38431057Y-33237706D01*
X38496077Y-33272460D01*
X38566629Y-33293862D01*
X38640000Y-33301088D01*
X38940000Y-33301088D01*
X39013371Y-33293862D01*
X39083923Y-33272460D01*
X39148943Y-33237706D01*
X39205934Y-33190934D01*
X39252706Y-33133943D01*
X39287460Y-33068923D01*
X39308862Y-32998371D01*
X39316088Y-32925000D01*
X39316088Y-32325000D01*
X39500000Y-32325000D01*
X39504877Y-32324520D01*
X39509567Y-32323097D01*
X39513889Y-32320787D01*
X39517678Y-32317678D01*
X39520787Y-32313889D01*
X39523097Y-32309567D01*
X39524520Y-32304877D01*
X39525000Y-32300000D01*
X39525000Y-29825000D01*
X42125000Y-29825000D01*
X42125000Y-31289057D01*
M02*
