G04 #@! TF.GenerationSoftware,KiCad,Pcbnew,(5.1.5-0)*
G04 #@! TF.CreationDate,2020-06-12T16:12:48+02:00*
G04 #@! TF.ProjectId,Ampli_IMS,416d706c-695f-4494-9d53-2e6b69636164,rev?*
G04 #@! TF.SameCoordinates,Original*
G04 #@! TF.FileFunction,Soldermask,Top*
G04 #@! TF.FilePolarity,Negative*
%FSLAX46Y46*%
G04 Gerber Fmt 4.6, Leading zero omitted, Abs format (unit mm)*
G04 Created by KiCad (PCBNEW (5.1.5-0)) date 2020-06-12 16:12:48*
%MOMM*%
%LPD*%
G04 APERTURE LIST*
%ADD10C,1.000000*%
%ADD11C,0.100000*%
%ADD12C,2.250000*%
%ADD13C,1.800000*%
%ADD14O,1.700000X1.950000*%
%ADD15O,1.600000X2.500000*%
%ADD16O,3.500000X7.000000*%
%ADD17C,0.050000*%
%ADD18C,0.254000*%
G04 APERTURE END LIST*
D10*
X30938291Y-34993995D02*
G75*
G02X30850000Y-32850000I-1938291J993995D01*
G01*
D11*
G36*
X53562005Y-28826204D02*
G01*
X53586273Y-28829804D01*
X53610072Y-28835765D01*
X53633171Y-28844030D01*
X53655350Y-28854520D01*
X53676393Y-28867132D01*
X53696099Y-28881747D01*
X53714277Y-28898223D01*
X53730753Y-28916401D01*
X53745368Y-28936107D01*
X53757980Y-28957150D01*
X53768470Y-28979329D01*
X53776735Y-29002428D01*
X53782696Y-29026227D01*
X53786296Y-29050495D01*
X53787500Y-29074999D01*
X53787500Y-29925001D01*
X53786296Y-29949505D01*
X53782696Y-29973773D01*
X53776735Y-29997572D01*
X53768470Y-30020671D01*
X53757980Y-30042850D01*
X53745368Y-30063893D01*
X53730753Y-30083599D01*
X53714277Y-30101777D01*
X53696099Y-30118253D01*
X53676393Y-30132868D01*
X53655350Y-30145480D01*
X53633171Y-30155970D01*
X53610072Y-30164235D01*
X53586273Y-30170196D01*
X53562005Y-30173796D01*
X53537501Y-30175000D01*
X52462499Y-30175000D01*
X52437995Y-30173796D01*
X52413727Y-30170196D01*
X52389928Y-30164235D01*
X52366829Y-30155970D01*
X52344650Y-30145480D01*
X52323607Y-30132868D01*
X52303901Y-30118253D01*
X52285723Y-30101777D01*
X52269247Y-30083599D01*
X52254632Y-30063893D01*
X52242020Y-30042850D01*
X52231530Y-30020671D01*
X52223265Y-29997572D01*
X52217304Y-29973773D01*
X52213704Y-29949505D01*
X52212500Y-29925001D01*
X52212500Y-29074999D01*
X52213704Y-29050495D01*
X52217304Y-29026227D01*
X52223265Y-29002428D01*
X52231530Y-28979329D01*
X52242020Y-28957150D01*
X52254632Y-28936107D01*
X52269247Y-28916401D01*
X52285723Y-28898223D01*
X52303901Y-28881747D01*
X52323607Y-28867132D01*
X52344650Y-28854520D01*
X52366829Y-28844030D01*
X52389928Y-28835765D01*
X52413727Y-28829804D01*
X52437995Y-28826204D01*
X52462499Y-28825000D01*
X53537501Y-28825000D01*
X53562005Y-28826204D01*
G37*
G36*
X56437005Y-28826204D02*
G01*
X56461273Y-28829804D01*
X56485072Y-28835765D01*
X56508171Y-28844030D01*
X56530350Y-28854520D01*
X56551393Y-28867132D01*
X56571099Y-28881747D01*
X56589277Y-28898223D01*
X56605753Y-28916401D01*
X56620368Y-28936107D01*
X56632980Y-28957150D01*
X56643470Y-28979329D01*
X56651735Y-29002428D01*
X56657696Y-29026227D01*
X56661296Y-29050495D01*
X56662500Y-29074999D01*
X56662500Y-29925001D01*
X56661296Y-29949505D01*
X56657696Y-29973773D01*
X56651735Y-29997572D01*
X56643470Y-30020671D01*
X56632980Y-30042850D01*
X56620368Y-30063893D01*
X56605753Y-30083599D01*
X56589277Y-30101777D01*
X56571099Y-30118253D01*
X56551393Y-30132868D01*
X56530350Y-30145480D01*
X56508171Y-30155970D01*
X56485072Y-30164235D01*
X56461273Y-30170196D01*
X56437005Y-30173796D01*
X56412501Y-30175000D01*
X55337499Y-30175000D01*
X55312995Y-30173796D01*
X55288727Y-30170196D01*
X55264928Y-30164235D01*
X55241829Y-30155970D01*
X55219650Y-30145480D01*
X55198607Y-30132868D01*
X55178901Y-30118253D01*
X55160723Y-30101777D01*
X55144247Y-30083599D01*
X55129632Y-30063893D01*
X55117020Y-30042850D01*
X55106530Y-30020671D01*
X55098265Y-29997572D01*
X55092304Y-29973773D01*
X55088704Y-29949505D01*
X55087500Y-29925001D01*
X55087500Y-29074999D01*
X55088704Y-29050495D01*
X55092304Y-29026227D01*
X55098265Y-29002428D01*
X55106530Y-28979329D01*
X55117020Y-28957150D01*
X55129632Y-28936107D01*
X55144247Y-28916401D01*
X55160723Y-28898223D01*
X55178901Y-28881747D01*
X55198607Y-28867132D01*
X55219650Y-28854520D01*
X55241829Y-28844030D01*
X55264928Y-28835765D01*
X55288727Y-28829804D01*
X55312995Y-28826204D01*
X55337499Y-28825000D01*
X56412501Y-28825000D01*
X56437005Y-28826204D01*
G37*
G36*
X53474504Y-26851204D02*
G01*
X53498773Y-26854804D01*
X53522571Y-26860765D01*
X53545671Y-26869030D01*
X53567849Y-26879520D01*
X53588893Y-26892133D01*
X53608598Y-26906747D01*
X53626777Y-26923223D01*
X53643253Y-26941402D01*
X53657867Y-26961107D01*
X53670480Y-26982151D01*
X53680970Y-27004329D01*
X53689235Y-27027429D01*
X53695196Y-27051227D01*
X53698796Y-27075496D01*
X53700000Y-27100000D01*
X53700000Y-27900000D01*
X53698796Y-27924504D01*
X53695196Y-27948773D01*
X53689235Y-27972571D01*
X53680970Y-27995671D01*
X53670480Y-28017849D01*
X53657867Y-28038893D01*
X53643253Y-28058598D01*
X53626777Y-28076777D01*
X53608598Y-28093253D01*
X53588893Y-28107867D01*
X53567849Y-28120480D01*
X53545671Y-28130970D01*
X53522571Y-28139235D01*
X53498773Y-28145196D01*
X53474504Y-28148796D01*
X53450000Y-28150000D01*
X52625000Y-28150000D01*
X52600496Y-28148796D01*
X52576227Y-28145196D01*
X52552429Y-28139235D01*
X52529329Y-28130970D01*
X52507151Y-28120480D01*
X52486107Y-28107867D01*
X52466402Y-28093253D01*
X52448223Y-28076777D01*
X52431747Y-28058598D01*
X52417133Y-28038893D01*
X52404520Y-28017849D01*
X52394030Y-27995671D01*
X52385765Y-27972571D01*
X52379804Y-27948773D01*
X52376204Y-27924504D01*
X52375000Y-27900000D01*
X52375000Y-27100000D01*
X52376204Y-27075496D01*
X52379804Y-27051227D01*
X52385765Y-27027429D01*
X52394030Y-27004329D01*
X52404520Y-26982151D01*
X52417133Y-26961107D01*
X52431747Y-26941402D01*
X52448223Y-26923223D01*
X52466402Y-26906747D01*
X52486107Y-26892133D01*
X52507151Y-26879520D01*
X52529329Y-26869030D01*
X52552429Y-26860765D01*
X52576227Y-26854804D01*
X52600496Y-26851204D01*
X52625000Y-26850000D01*
X53450000Y-26850000D01*
X53474504Y-26851204D01*
G37*
G36*
X55399504Y-26851204D02*
G01*
X55423773Y-26854804D01*
X55447571Y-26860765D01*
X55470671Y-26869030D01*
X55492849Y-26879520D01*
X55513893Y-26892133D01*
X55533598Y-26906747D01*
X55551777Y-26923223D01*
X55568253Y-26941402D01*
X55582867Y-26961107D01*
X55595480Y-26982151D01*
X55605970Y-27004329D01*
X55614235Y-27027429D01*
X55620196Y-27051227D01*
X55623796Y-27075496D01*
X55625000Y-27100000D01*
X55625000Y-27900000D01*
X55623796Y-27924504D01*
X55620196Y-27948773D01*
X55614235Y-27972571D01*
X55605970Y-27995671D01*
X55595480Y-28017849D01*
X55582867Y-28038893D01*
X55568253Y-28058598D01*
X55551777Y-28076777D01*
X55533598Y-28093253D01*
X55513893Y-28107867D01*
X55492849Y-28120480D01*
X55470671Y-28130970D01*
X55447571Y-28139235D01*
X55423773Y-28145196D01*
X55399504Y-28148796D01*
X55375000Y-28150000D01*
X54550000Y-28150000D01*
X54525496Y-28148796D01*
X54501227Y-28145196D01*
X54477429Y-28139235D01*
X54454329Y-28130970D01*
X54432151Y-28120480D01*
X54411107Y-28107867D01*
X54391402Y-28093253D01*
X54373223Y-28076777D01*
X54356747Y-28058598D01*
X54342133Y-28038893D01*
X54329520Y-28017849D01*
X54319030Y-27995671D01*
X54310765Y-27972571D01*
X54304804Y-27948773D01*
X54301204Y-27924504D01*
X54300000Y-27900000D01*
X54300000Y-27100000D01*
X54301204Y-27075496D01*
X54304804Y-27051227D01*
X54310765Y-27027429D01*
X54319030Y-27004329D01*
X54329520Y-26982151D01*
X54342133Y-26961107D01*
X54356747Y-26941402D01*
X54373223Y-26923223D01*
X54391402Y-26906747D01*
X54411107Y-26892133D01*
X54432151Y-26879520D01*
X54454329Y-26869030D01*
X54477429Y-26860765D01*
X54501227Y-26854804D01*
X54525496Y-26851204D01*
X54550000Y-26850000D01*
X55375000Y-26850000D01*
X55399504Y-26851204D01*
G37*
G36*
X61899504Y-26851204D02*
G01*
X61923773Y-26854804D01*
X61947571Y-26860765D01*
X61970671Y-26869030D01*
X61992849Y-26879520D01*
X62013893Y-26892133D01*
X62033598Y-26906747D01*
X62051777Y-26923223D01*
X62068253Y-26941402D01*
X62082867Y-26961107D01*
X62095480Y-26982151D01*
X62105970Y-27004329D01*
X62114235Y-27027429D01*
X62120196Y-27051227D01*
X62123796Y-27075496D01*
X62125000Y-27100000D01*
X62125000Y-27900000D01*
X62123796Y-27924504D01*
X62120196Y-27948773D01*
X62114235Y-27972571D01*
X62105970Y-27995671D01*
X62095480Y-28017849D01*
X62082867Y-28038893D01*
X62068253Y-28058598D01*
X62051777Y-28076777D01*
X62033598Y-28093253D01*
X62013893Y-28107867D01*
X61992849Y-28120480D01*
X61970671Y-28130970D01*
X61947571Y-28139235D01*
X61923773Y-28145196D01*
X61899504Y-28148796D01*
X61875000Y-28150000D01*
X61050000Y-28150000D01*
X61025496Y-28148796D01*
X61001227Y-28145196D01*
X60977429Y-28139235D01*
X60954329Y-28130970D01*
X60932151Y-28120480D01*
X60911107Y-28107867D01*
X60891402Y-28093253D01*
X60873223Y-28076777D01*
X60856747Y-28058598D01*
X60842133Y-28038893D01*
X60829520Y-28017849D01*
X60819030Y-27995671D01*
X60810765Y-27972571D01*
X60804804Y-27948773D01*
X60801204Y-27924504D01*
X60800000Y-27900000D01*
X60800000Y-27100000D01*
X60801204Y-27075496D01*
X60804804Y-27051227D01*
X60810765Y-27027429D01*
X60819030Y-27004329D01*
X60829520Y-26982151D01*
X60842133Y-26961107D01*
X60856747Y-26941402D01*
X60873223Y-26923223D01*
X60891402Y-26906747D01*
X60911107Y-26892133D01*
X60932151Y-26879520D01*
X60954329Y-26869030D01*
X60977429Y-26860765D01*
X61001227Y-26854804D01*
X61025496Y-26851204D01*
X61050000Y-26850000D01*
X61875000Y-26850000D01*
X61899504Y-26851204D01*
G37*
G36*
X59974504Y-26851204D02*
G01*
X59998773Y-26854804D01*
X60022571Y-26860765D01*
X60045671Y-26869030D01*
X60067849Y-26879520D01*
X60088893Y-26892133D01*
X60108598Y-26906747D01*
X60126777Y-26923223D01*
X60143253Y-26941402D01*
X60157867Y-26961107D01*
X60170480Y-26982151D01*
X60180970Y-27004329D01*
X60189235Y-27027429D01*
X60195196Y-27051227D01*
X60198796Y-27075496D01*
X60200000Y-27100000D01*
X60200000Y-27900000D01*
X60198796Y-27924504D01*
X60195196Y-27948773D01*
X60189235Y-27972571D01*
X60180970Y-27995671D01*
X60170480Y-28017849D01*
X60157867Y-28038893D01*
X60143253Y-28058598D01*
X60126777Y-28076777D01*
X60108598Y-28093253D01*
X60088893Y-28107867D01*
X60067849Y-28120480D01*
X60045671Y-28130970D01*
X60022571Y-28139235D01*
X59998773Y-28145196D01*
X59974504Y-28148796D01*
X59950000Y-28150000D01*
X59125000Y-28150000D01*
X59100496Y-28148796D01*
X59076227Y-28145196D01*
X59052429Y-28139235D01*
X59029329Y-28130970D01*
X59007151Y-28120480D01*
X58986107Y-28107867D01*
X58966402Y-28093253D01*
X58948223Y-28076777D01*
X58931747Y-28058598D01*
X58917133Y-28038893D01*
X58904520Y-28017849D01*
X58894030Y-27995671D01*
X58885765Y-27972571D01*
X58879804Y-27948773D01*
X58876204Y-27924504D01*
X58875000Y-27900000D01*
X58875000Y-27100000D01*
X58876204Y-27075496D01*
X58879804Y-27051227D01*
X58885765Y-27027429D01*
X58894030Y-27004329D01*
X58904520Y-26982151D01*
X58917133Y-26961107D01*
X58931747Y-26941402D01*
X58948223Y-26923223D01*
X58966402Y-26906747D01*
X58986107Y-26892133D01*
X59007151Y-26879520D01*
X59029329Y-26869030D01*
X59052429Y-26860765D01*
X59076227Y-26854804D01*
X59100496Y-26851204D01*
X59125000Y-26850000D01*
X59950000Y-26850000D01*
X59974504Y-26851204D01*
G37*
G36*
X62937005Y-28826204D02*
G01*
X62961273Y-28829804D01*
X62985072Y-28835765D01*
X63008171Y-28844030D01*
X63030350Y-28854520D01*
X63051393Y-28867132D01*
X63071099Y-28881747D01*
X63089277Y-28898223D01*
X63105753Y-28916401D01*
X63120368Y-28936107D01*
X63132980Y-28957150D01*
X63143470Y-28979329D01*
X63151735Y-29002428D01*
X63157696Y-29026227D01*
X63161296Y-29050495D01*
X63162500Y-29074999D01*
X63162500Y-29925001D01*
X63161296Y-29949505D01*
X63157696Y-29973773D01*
X63151735Y-29997572D01*
X63143470Y-30020671D01*
X63132980Y-30042850D01*
X63120368Y-30063893D01*
X63105753Y-30083599D01*
X63089277Y-30101777D01*
X63071099Y-30118253D01*
X63051393Y-30132868D01*
X63030350Y-30145480D01*
X63008171Y-30155970D01*
X62985072Y-30164235D01*
X62961273Y-30170196D01*
X62937005Y-30173796D01*
X62912501Y-30175000D01*
X61837499Y-30175000D01*
X61812995Y-30173796D01*
X61788727Y-30170196D01*
X61764928Y-30164235D01*
X61741829Y-30155970D01*
X61719650Y-30145480D01*
X61698607Y-30132868D01*
X61678901Y-30118253D01*
X61660723Y-30101777D01*
X61644247Y-30083599D01*
X61629632Y-30063893D01*
X61617020Y-30042850D01*
X61606530Y-30020671D01*
X61598265Y-29997572D01*
X61592304Y-29973773D01*
X61588704Y-29949505D01*
X61587500Y-29925001D01*
X61587500Y-29074999D01*
X61588704Y-29050495D01*
X61592304Y-29026227D01*
X61598265Y-29002428D01*
X61606530Y-28979329D01*
X61617020Y-28957150D01*
X61629632Y-28936107D01*
X61644247Y-28916401D01*
X61660723Y-28898223D01*
X61678901Y-28881747D01*
X61698607Y-28867132D01*
X61719650Y-28854520D01*
X61741829Y-28844030D01*
X61764928Y-28835765D01*
X61788727Y-28829804D01*
X61812995Y-28826204D01*
X61837499Y-28825000D01*
X62912501Y-28825000D01*
X62937005Y-28826204D01*
G37*
G36*
X60062005Y-28826204D02*
G01*
X60086273Y-28829804D01*
X60110072Y-28835765D01*
X60133171Y-28844030D01*
X60155350Y-28854520D01*
X60176393Y-28867132D01*
X60196099Y-28881747D01*
X60214277Y-28898223D01*
X60230753Y-28916401D01*
X60245368Y-28936107D01*
X60257980Y-28957150D01*
X60268470Y-28979329D01*
X60276735Y-29002428D01*
X60282696Y-29026227D01*
X60286296Y-29050495D01*
X60287500Y-29074999D01*
X60287500Y-29925001D01*
X60286296Y-29949505D01*
X60282696Y-29973773D01*
X60276735Y-29997572D01*
X60268470Y-30020671D01*
X60257980Y-30042850D01*
X60245368Y-30063893D01*
X60230753Y-30083599D01*
X60214277Y-30101777D01*
X60196099Y-30118253D01*
X60176393Y-30132868D01*
X60155350Y-30145480D01*
X60133171Y-30155970D01*
X60110072Y-30164235D01*
X60086273Y-30170196D01*
X60062005Y-30173796D01*
X60037501Y-30175000D01*
X58962499Y-30175000D01*
X58937995Y-30173796D01*
X58913727Y-30170196D01*
X58889928Y-30164235D01*
X58866829Y-30155970D01*
X58844650Y-30145480D01*
X58823607Y-30132868D01*
X58803901Y-30118253D01*
X58785723Y-30101777D01*
X58769247Y-30083599D01*
X58754632Y-30063893D01*
X58742020Y-30042850D01*
X58731530Y-30020671D01*
X58723265Y-29997572D01*
X58717304Y-29973773D01*
X58713704Y-29949505D01*
X58712500Y-29925001D01*
X58712500Y-29074999D01*
X58713704Y-29050495D01*
X58717304Y-29026227D01*
X58723265Y-29002428D01*
X58731530Y-28979329D01*
X58742020Y-28957150D01*
X58754632Y-28936107D01*
X58769247Y-28916401D01*
X58785723Y-28898223D01*
X58803901Y-28881747D01*
X58823607Y-28867132D01*
X58844650Y-28854520D01*
X58866829Y-28844030D01*
X58889928Y-28835765D01*
X58913727Y-28829804D01*
X58937995Y-28826204D01*
X58962499Y-28825000D01*
X60037501Y-28825000D01*
X60062005Y-28826204D01*
G37*
G36*
X42764703Y-31325722D02*
G01*
X42779264Y-31327882D01*
X42793543Y-31331459D01*
X42807403Y-31336418D01*
X42820710Y-31342712D01*
X42833336Y-31350280D01*
X42845159Y-31359048D01*
X42856066Y-31368934D01*
X42865952Y-31379841D01*
X42874720Y-31391664D01*
X42882288Y-31404290D01*
X42888582Y-31417597D01*
X42893541Y-31431457D01*
X42897118Y-31445736D01*
X42899278Y-31460297D01*
X42900000Y-31475000D01*
X42900000Y-32925000D01*
X42899278Y-32939703D01*
X42897118Y-32954264D01*
X42893541Y-32968543D01*
X42888582Y-32982403D01*
X42882288Y-32995710D01*
X42874720Y-33008336D01*
X42865952Y-33020159D01*
X42856066Y-33031066D01*
X42845159Y-33040952D01*
X42833336Y-33049720D01*
X42820710Y-33057288D01*
X42807403Y-33063582D01*
X42793543Y-33068541D01*
X42779264Y-33072118D01*
X42764703Y-33074278D01*
X42750000Y-33075000D01*
X42450000Y-33075000D01*
X42435297Y-33074278D01*
X42420736Y-33072118D01*
X42406457Y-33068541D01*
X42392597Y-33063582D01*
X42379290Y-33057288D01*
X42366664Y-33049720D01*
X42354841Y-33040952D01*
X42343934Y-33031066D01*
X42334048Y-33020159D01*
X42325280Y-33008336D01*
X42317712Y-32995710D01*
X42311418Y-32982403D01*
X42306459Y-32968543D01*
X42302882Y-32954264D01*
X42300722Y-32939703D01*
X42300000Y-32925000D01*
X42300000Y-31475000D01*
X42300722Y-31460297D01*
X42302882Y-31445736D01*
X42306459Y-31431457D01*
X42311418Y-31417597D01*
X42317712Y-31404290D01*
X42325280Y-31391664D01*
X42334048Y-31379841D01*
X42343934Y-31368934D01*
X42354841Y-31359048D01*
X42366664Y-31350280D01*
X42379290Y-31342712D01*
X42392597Y-31336418D01*
X42406457Y-31331459D01*
X42420736Y-31327882D01*
X42435297Y-31325722D01*
X42450000Y-31325000D01*
X42750000Y-31325000D01*
X42764703Y-31325722D01*
G37*
G36*
X41494703Y-31325722D02*
G01*
X41509264Y-31327882D01*
X41523543Y-31331459D01*
X41537403Y-31336418D01*
X41550710Y-31342712D01*
X41563336Y-31350280D01*
X41575159Y-31359048D01*
X41586066Y-31368934D01*
X41595952Y-31379841D01*
X41604720Y-31391664D01*
X41612288Y-31404290D01*
X41618582Y-31417597D01*
X41623541Y-31431457D01*
X41627118Y-31445736D01*
X41629278Y-31460297D01*
X41630000Y-31475000D01*
X41630000Y-32925000D01*
X41629278Y-32939703D01*
X41627118Y-32954264D01*
X41623541Y-32968543D01*
X41618582Y-32982403D01*
X41612288Y-32995710D01*
X41604720Y-33008336D01*
X41595952Y-33020159D01*
X41586066Y-33031066D01*
X41575159Y-33040952D01*
X41563336Y-33049720D01*
X41550710Y-33057288D01*
X41537403Y-33063582D01*
X41523543Y-33068541D01*
X41509264Y-33072118D01*
X41494703Y-33074278D01*
X41480000Y-33075000D01*
X41180000Y-33075000D01*
X41165297Y-33074278D01*
X41150736Y-33072118D01*
X41136457Y-33068541D01*
X41122597Y-33063582D01*
X41109290Y-33057288D01*
X41096664Y-33049720D01*
X41084841Y-33040952D01*
X41073934Y-33031066D01*
X41064048Y-33020159D01*
X41055280Y-33008336D01*
X41047712Y-32995710D01*
X41041418Y-32982403D01*
X41036459Y-32968543D01*
X41032882Y-32954264D01*
X41030722Y-32939703D01*
X41030000Y-32925000D01*
X41030000Y-31475000D01*
X41030722Y-31460297D01*
X41032882Y-31445736D01*
X41036459Y-31431457D01*
X41041418Y-31417597D01*
X41047712Y-31404290D01*
X41055280Y-31391664D01*
X41064048Y-31379841D01*
X41073934Y-31368934D01*
X41084841Y-31359048D01*
X41096664Y-31350280D01*
X41109290Y-31342712D01*
X41122597Y-31336418D01*
X41136457Y-31331459D01*
X41150736Y-31327882D01*
X41165297Y-31325722D01*
X41180000Y-31325000D01*
X41480000Y-31325000D01*
X41494703Y-31325722D01*
G37*
G36*
X40224703Y-31325722D02*
G01*
X40239264Y-31327882D01*
X40253543Y-31331459D01*
X40267403Y-31336418D01*
X40280710Y-31342712D01*
X40293336Y-31350280D01*
X40305159Y-31359048D01*
X40316066Y-31368934D01*
X40325952Y-31379841D01*
X40334720Y-31391664D01*
X40342288Y-31404290D01*
X40348582Y-31417597D01*
X40353541Y-31431457D01*
X40357118Y-31445736D01*
X40359278Y-31460297D01*
X40360000Y-31475000D01*
X40360000Y-32925000D01*
X40359278Y-32939703D01*
X40357118Y-32954264D01*
X40353541Y-32968543D01*
X40348582Y-32982403D01*
X40342288Y-32995710D01*
X40334720Y-33008336D01*
X40325952Y-33020159D01*
X40316066Y-33031066D01*
X40305159Y-33040952D01*
X40293336Y-33049720D01*
X40280710Y-33057288D01*
X40267403Y-33063582D01*
X40253543Y-33068541D01*
X40239264Y-33072118D01*
X40224703Y-33074278D01*
X40210000Y-33075000D01*
X39910000Y-33075000D01*
X39895297Y-33074278D01*
X39880736Y-33072118D01*
X39866457Y-33068541D01*
X39852597Y-33063582D01*
X39839290Y-33057288D01*
X39826664Y-33049720D01*
X39814841Y-33040952D01*
X39803934Y-33031066D01*
X39794048Y-33020159D01*
X39785280Y-33008336D01*
X39777712Y-32995710D01*
X39771418Y-32982403D01*
X39766459Y-32968543D01*
X39762882Y-32954264D01*
X39760722Y-32939703D01*
X39760000Y-32925000D01*
X39760000Y-31475000D01*
X39760722Y-31460297D01*
X39762882Y-31445736D01*
X39766459Y-31431457D01*
X39771418Y-31417597D01*
X39777712Y-31404290D01*
X39785280Y-31391664D01*
X39794048Y-31379841D01*
X39803934Y-31368934D01*
X39814841Y-31359048D01*
X39826664Y-31350280D01*
X39839290Y-31342712D01*
X39852597Y-31336418D01*
X39866457Y-31331459D01*
X39880736Y-31327882D01*
X39895297Y-31325722D01*
X39910000Y-31325000D01*
X40210000Y-31325000D01*
X40224703Y-31325722D01*
G37*
G36*
X38954703Y-31325722D02*
G01*
X38969264Y-31327882D01*
X38983543Y-31331459D01*
X38997403Y-31336418D01*
X39010710Y-31342712D01*
X39023336Y-31350280D01*
X39035159Y-31359048D01*
X39046066Y-31368934D01*
X39055952Y-31379841D01*
X39064720Y-31391664D01*
X39072288Y-31404290D01*
X39078582Y-31417597D01*
X39083541Y-31431457D01*
X39087118Y-31445736D01*
X39089278Y-31460297D01*
X39090000Y-31475000D01*
X39090000Y-32925000D01*
X39089278Y-32939703D01*
X39087118Y-32954264D01*
X39083541Y-32968543D01*
X39078582Y-32982403D01*
X39072288Y-32995710D01*
X39064720Y-33008336D01*
X39055952Y-33020159D01*
X39046066Y-33031066D01*
X39035159Y-33040952D01*
X39023336Y-33049720D01*
X39010710Y-33057288D01*
X38997403Y-33063582D01*
X38983543Y-33068541D01*
X38969264Y-33072118D01*
X38954703Y-33074278D01*
X38940000Y-33075000D01*
X38640000Y-33075000D01*
X38625297Y-33074278D01*
X38610736Y-33072118D01*
X38596457Y-33068541D01*
X38582597Y-33063582D01*
X38569290Y-33057288D01*
X38556664Y-33049720D01*
X38544841Y-33040952D01*
X38533934Y-33031066D01*
X38524048Y-33020159D01*
X38515280Y-33008336D01*
X38507712Y-32995710D01*
X38501418Y-32982403D01*
X38496459Y-32968543D01*
X38492882Y-32954264D01*
X38490722Y-32939703D01*
X38490000Y-32925000D01*
X38490000Y-31475000D01*
X38490722Y-31460297D01*
X38492882Y-31445736D01*
X38496459Y-31431457D01*
X38501418Y-31417597D01*
X38507712Y-31404290D01*
X38515280Y-31391664D01*
X38524048Y-31379841D01*
X38533934Y-31368934D01*
X38544841Y-31359048D01*
X38556664Y-31350280D01*
X38569290Y-31342712D01*
X38582597Y-31336418D01*
X38596457Y-31331459D01*
X38610736Y-31327882D01*
X38625297Y-31325722D01*
X38640000Y-31325000D01*
X38940000Y-31325000D01*
X38954703Y-31325722D01*
G37*
G36*
X38954703Y-36475722D02*
G01*
X38969264Y-36477882D01*
X38983543Y-36481459D01*
X38997403Y-36486418D01*
X39010710Y-36492712D01*
X39023336Y-36500280D01*
X39035159Y-36509048D01*
X39046066Y-36518934D01*
X39055952Y-36529841D01*
X39064720Y-36541664D01*
X39072288Y-36554290D01*
X39078582Y-36567597D01*
X39083541Y-36581457D01*
X39087118Y-36595736D01*
X39089278Y-36610297D01*
X39090000Y-36625000D01*
X39090000Y-38075000D01*
X39089278Y-38089703D01*
X39087118Y-38104264D01*
X39083541Y-38118543D01*
X39078582Y-38132403D01*
X39072288Y-38145710D01*
X39064720Y-38158336D01*
X39055952Y-38170159D01*
X39046066Y-38181066D01*
X39035159Y-38190952D01*
X39023336Y-38199720D01*
X39010710Y-38207288D01*
X38997403Y-38213582D01*
X38983543Y-38218541D01*
X38969264Y-38222118D01*
X38954703Y-38224278D01*
X38940000Y-38225000D01*
X38640000Y-38225000D01*
X38625297Y-38224278D01*
X38610736Y-38222118D01*
X38596457Y-38218541D01*
X38582597Y-38213582D01*
X38569290Y-38207288D01*
X38556664Y-38199720D01*
X38544841Y-38190952D01*
X38533934Y-38181066D01*
X38524048Y-38170159D01*
X38515280Y-38158336D01*
X38507712Y-38145710D01*
X38501418Y-38132403D01*
X38496459Y-38118543D01*
X38492882Y-38104264D01*
X38490722Y-38089703D01*
X38490000Y-38075000D01*
X38490000Y-36625000D01*
X38490722Y-36610297D01*
X38492882Y-36595736D01*
X38496459Y-36581457D01*
X38501418Y-36567597D01*
X38507712Y-36554290D01*
X38515280Y-36541664D01*
X38524048Y-36529841D01*
X38533934Y-36518934D01*
X38544841Y-36509048D01*
X38556664Y-36500280D01*
X38569290Y-36492712D01*
X38582597Y-36486418D01*
X38596457Y-36481459D01*
X38610736Y-36477882D01*
X38625297Y-36475722D01*
X38640000Y-36475000D01*
X38940000Y-36475000D01*
X38954703Y-36475722D01*
G37*
G36*
X40224703Y-36475722D02*
G01*
X40239264Y-36477882D01*
X40253543Y-36481459D01*
X40267403Y-36486418D01*
X40280710Y-36492712D01*
X40293336Y-36500280D01*
X40305159Y-36509048D01*
X40316066Y-36518934D01*
X40325952Y-36529841D01*
X40334720Y-36541664D01*
X40342288Y-36554290D01*
X40348582Y-36567597D01*
X40353541Y-36581457D01*
X40357118Y-36595736D01*
X40359278Y-36610297D01*
X40360000Y-36625000D01*
X40360000Y-38075000D01*
X40359278Y-38089703D01*
X40357118Y-38104264D01*
X40353541Y-38118543D01*
X40348582Y-38132403D01*
X40342288Y-38145710D01*
X40334720Y-38158336D01*
X40325952Y-38170159D01*
X40316066Y-38181066D01*
X40305159Y-38190952D01*
X40293336Y-38199720D01*
X40280710Y-38207288D01*
X40267403Y-38213582D01*
X40253543Y-38218541D01*
X40239264Y-38222118D01*
X40224703Y-38224278D01*
X40210000Y-38225000D01*
X39910000Y-38225000D01*
X39895297Y-38224278D01*
X39880736Y-38222118D01*
X39866457Y-38218541D01*
X39852597Y-38213582D01*
X39839290Y-38207288D01*
X39826664Y-38199720D01*
X39814841Y-38190952D01*
X39803934Y-38181066D01*
X39794048Y-38170159D01*
X39785280Y-38158336D01*
X39777712Y-38145710D01*
X39771418Y-38132403D01*
X39766459Y-38118543D01*
X39762882Y-38104264D01*
X39760722Y-38089703D01*
X39760000Y-38075000D01*
X39760000Y-36625000D01*
X39760722Y-36610297D01*
X39762882Y-36595736D01*
X39766459Y-36581457D01*
X39771418Y-36567597D01*
X39777712Y-36554290D01*
X39785280Y-36541664D01*
X39794048Y-36529841D01*
X39803934Y-36518934D01*
X39814841Y-36509048D01*
X39826664Y-36500280D01*
X39839290Y-36492712D01*
X39852597Y-36486418D01*
X39866457Y-36481459D01*
X39880736Y-36477882D01*
X39895297Y-36475722D01*
X39910000Y-36475000D01*
X40210000Y-36475000D01*
X40224703Y-36475722D01*
G37*
G36*
X41494703Y-36475722D02*
G01*
X41509264Y-36477882D01*
X41523543Y-36481459D01*
X41537403Y-36486418D01*
X41550710Y-36492712D01*
X41563336Y-36500280D01*
X41575159Y-36509048D01*
X41586066Y-36518934D01*
X41595952Y-36529841D01*
X41604720Y-36541664D01*
X41612288Y-36554290D01*
X41618582Y-36567597D01*
X41623541Y-36581457D01*
X41627118Y-36595736D01*
X41629278Y-36610297D01*
X41630000Y-36625000D01*
X41630000Y-38075000D01*
X41629278Y-38089703D01*
X41627118Y-38104264D01*
X41623541Y-38118543D01*
X41618582Y-38132403D01*
X41612288Y-38145710D01*
X41604720Y-38158336D01*
X41595952Y-38170159D01*
X41586066Y-38181066D01*
X41575159Y-38190952D01*
X41563336Y-38199720D01*
X41550710Y-38207288D01*
X41537403Y-38213582D01*
X41523543Y-38218541D01*
X41509264Y-38222118D01*
X41494703Y-38224278D01*
X41480000Y-38225000D01*
X41180000Y-38225000D01*
X41165297Y-38224278D01*
X41150736Y-38222118D01*
X41136457Y-38218541D01*
X41122597Y-38213582D01*
X41109290Y-38207288D01*
X41096664Y-38199720D01*
X41084841Y-38190952D01*
X41073934Y-38181066D01*
X41064048Y-38170159D01*
X41055280Y-38158336D01*
X41047712Y-38145710D01*
X41041418Y-38132403D01*
X41036459Y-38118543D01*
X41032882Y-38104264D01*
X41030722Y-38089703D01*
X41030000Y-38075000D01*
X41030000Y-36625000D01*
X41030722Y-36610297D01*
X41032882Y-36595736D01*
X41036459Y-36581457D01*
X41041418Y-36567597D01*
X41047712Y-36554290D01*
X41055280Y-36541664D01*
X41064048Y-36529841D01*
X41073934Y-36518934D01*
X41084841Y-36509048D01*
X41096664Y-36500280D01*
X41109290Y-36492712D01*
X41122597Y-36486418D01*
X41136457Y-36481459D01*
X41150736Y-36477882D01*
X41165297Y-36475722D01*
X41180000Y-36475000D01*
X41480000Y-36475000D01*
X41494703Y-36475722D01*
G37*
G36*
X42764703Y-36475722D02*
G01*
X42779264Y-36477882D01*
X42793543Y-36481459D01*
X42807403Y-36486418D01*
X42820710Y-36492712D01*
X42833336Y-36500280D01*
X42845159Y-36509048D01*
X42856066Y-36518934D01*
X42865952Y-36529841D01*
X42874720Y-36541664D01*
X42882288Y-36554290D01*
X42888582Y-36567597D01*
X42893541Y-36581457D01*
X42897118Y-36595736D01*
X42899278Y-36610297D01*
X42900000Y-36625000D01*
X42900000Y-38075000D01*
X42899278Y-38089703D01*
X42897118Y-38104264D01*
X42893541Y-38118543D01*
X42888582Y-38132403D01*
X42882288Y-38145710D01*
X42874720Y-38158336D01*
X42865952Y-38170159D01*
X42856066Y-38181066D01*
X42845159Y-38190952D01*
X42833336Y-38199720D01*
X42820710Y-38207288D01*
X42807403Y-38213582D01*
X42793543Y-38218541D01*
X42779264Y-38222118D01*
X42764703Y-38224278D01*
X42750000Y-38225000D01*
X42450000Y-38225000D01*
X42435297Y-38224278D01*
X42420736Y-38222118D01*
X42406457Y-38218541D01*
X42392597Y-38213582D01*
X42379290Y-38207288D01*
X42366664Y-38199720D01*
X42354841Y-38190952D01*
X42343934Y-38181066D01*
X42334048Y-38170159D01*
X42325280Y-38158336D01*
X42317712Y-38145710D01*
X42311418Y-38132403D01*
X42306459Y-38118543D01*
X42302882Y-38104264D01*
X42300722Y-38089703D01*
X42300000Y-38075000D01*
X42300000Y-36625000D01*
X42300722Y-36610297D01*
X42302882Y-36595736D01*
X42306459Y-36581457D01*
X42311418Y-36567597D01*
X42317712Y-36554290D01*
X42325280Y-36541664D01*
X42334048Y-36529841D01*
X42343934Y-36518934D01*
X42354841Y-36509048D01*
X42366664Y-36500280D01*
X42379290Y-36492712D01*
X42392597Y-36486418D01*
X42406457Y-36481459D01*
X42420736Y-36477882D01*
X42435297Y-36475722D01*
X42450000Y-36475000D01*
X42750000Y-36475000D01*
X42764703Y-36475722D01*
G37*
G36*
X44467642Y-31501174D02*
G01*
X44491303Y-31504684D01*
X44514507Y-31510496D01*
X44537029Y-31518554D01*
X44558653Y-31528782D01*
X44579170Y-31541079D01*
X44598383Y-31555329D01*
X44616107Y-31571393D01*
X44632171Y-31589117D01*
X44646421Y-31608330D01*
X44658718Y-31628847D01*
X44668946Y-31650471D01*
X44677004Y-31672993D01*
X44682816Y-31696197D01*
X44686326Y-31719858D01*
X44687500Y-31743750D01*
X44687500Y-32656250D01*
X44686326Y-32680142D01*
X44682816Y-32703803D01*
X44677004Y-32727007D01*
X44668946Y-32749529D01*
X44658718Y-32771153D01*
X44646421Y-32791670D01*
X44632171Y-32810883D01*
X44616107Y-32828607D01*
X44598383Y-32844671D01*
X44579170Y-32858921D01*
X44558653Y-32871218D01*
X44537029Y-32881446D01*
X44514507Y-32889504D01*
X44491303Y-32895316D01*
X44467642Y-32898826D01*
X44443750Y-32900000D01*
X43956250Y-32900000D01*
X43932358Y-32898826D01*
X43908697Y-32895316D01*
X43885493Y-32889504D01*
X43862971Y-32881446D01*
X43841347Y-32871218D01*
X43820830Y-32858921D01*
X43801617Y-32844671D01*
X43783893Y-32828607D01*
X43767829Y-32810883D01*
X43753579Y-32791670D01*
X43741282Y-32771153D01*
X43731054Y-32749529D01*
X43722996Y-32727007D01*
X43717184Y-32703803D01*
X43713674Y-32680142D01*
X43712500Y-32656250D01*
X43712500Y-31743750D01*
X43713674Y-31719858D01*
X43717184Y-31696197D01*
X43722996Y-31672993D01*
X43731054Y-31650471D01*
X43741282Y-31628847D01*
X43753579Y-31608330D01*
X43767829Y-31589117D01*
X43783893Y-31571393D01*
X43801617Y-31555329D01*
X43820830Y-31541079D01*
X43841347Y-31528782D01*
X43862971Y-31518554D01*
X43885493Y-31510496D01*
X43908697Y-31504684D01*
X43932358Y-31501174D01*
X43956250Y-31500000D01*
X44443750Y-31500000D01*
X44467642Y-31501174D01*
G37*
G36*
X46342642Y-31501174D02*
G01*
X46366303Y-31504684D01*
X46389507Y-31510496D01*
X46412029Y-31518554D01*
X46433653Y-31528782D01*
X46454170Y-31541079D01*
X46473383Y-31555329D01*
X46491107Y-31571393D01*
X46507171Y-31589117D01*
X46521421Y-31608330D01*
X46533718Y-31628847D01*
X46543946Y-31650471D01*
X46552004Y-31672993D01*
X46557816Y-31696197D01*
X46561326Y-31719858D01*
X46562500Y-31743750D01*
X46562500Y-32656250D01*
X46561326Y-32680142D01*
X46557816Y-32703803D01*
X46552004Y-32727007D01*
X46543946Y-32749529D01*
X46533718Y-32771153D01*
X46521421Y-32791670D01*
X46507171Y-32810883D01*
X46491107Y-32828607D01*
X46473383Y-32844671D01*
X46454170Y-32858921D01*
X46433653Y-32871218D01*
X46412029Y-32881446D01*
X46389507Y-32889504D01*
X46366303Y-32895316D01*
X46342642Y-32898826D01*
X46318750Y-32900000D01*
X45831250Y-32900000D01*
X45807358Y-32898826D01*
X45783697Y-32895316D01*
X45760493Y-32889504D01*
X45737971Y-32881446D01*
X45716347Y-32871218D01*
X45695830Y-32858921D01*
X45676617Y-32844671D01*
X45658893Y-32828607D01*
X45642829Y-32810883D01*
X45628579Y-32791670D01*
X45616282Y-32771153D01*
X45606054Y-32749529D01*
X45597996Y-32727007D01*
X45592184Y-32703803D01*
X45588674Y-32680142D01*
X45587500Y-32656250D01*
X45587500Y-31743750D01*
X45588674Y-31719858D01*
X45592184Y-31696197D01*
X45597996Y-31672993D01*
X45606054Y-31650471D01*
X45616282Y-31628847D01*
X45628579Y-31608330D01*
X45642829Y-31589117D01*
X45658893Y-31571393D01*
X45676617Y-31555329D01*
X45695830Y-31541079D01*
X45716347Y-31528782D01*
X45737971Y-31518554D01*
X45760493Y-31510496D01*
X45783697Y-31504684D01*
X45807358Y-31501174D01*
X45831250Y-31500000D01*
X46318750Y-31500000D01*
X46342642Y-31501174D01*
G37*
G36*
X40305142Y-38851174D02*
G01*
X40328803Y-38854684D01*
X40352007Y-38860496D01*
X40374529Y-38868554D01*
X40396153Y-38878782D01*
X40416670Y-38891079D01*
X40435883Y-38905329D01*
X40453607Y-38921393D01*
X40469671Y-38939117D01*
X40483921Y-38958330D01*
X40496218Y-38978847D01*
X40506446Y-39000471D01*
X40514504Y-39022993D01*
X40520316Y-39046197D01*
X40523826Y-39069858D01*
X40525000Y-39093750D01*
X40525000Y-40006250D01*
X40523826Y-40030142D01*
X40520316Y-40053803D01*
X40514504Y-40077007D01*
X40506446Y-40099529D01*
X40496218Y-40121153D01*
X40483921Y-40141670D01*
X40469671Y-40160883D01*
X40453607Y-40178607D01*
X40435883Y-40194671D01*
X40416670Y-40208921D01*
X40396153Y-40221218D01*
X40374529Y-40231446D01*
X40352007Y-40239504D01*
X40328803Y-40245316D01*
X40305142Y-40248826D01*
X40281250Y-40250000D01*
X39793750Y-40250000D01*
X39769858Y-40248826D01*
X39746197Y-40245316D01*
X39722993Y-40239504D01*
X39700471Y-40231446D01*
X39678847Y-40221218D01*
X39658330Y-40208921D01*
X39639117Y-40194671D01*
X39621393Y-40178607D01*
X39605329Y-40160883D01*
X39591079Y-40141670D01*
X39578782Y-40121153D01*
X39568554Y-40099529D01*
X39560496Y-40077007D01*
X39554684Y-40053803D01*
X39551174Y-40030142D01*
X39550000Y-40006250D01*
X39550000Y-39093750D01*
X39551174Y-39069858D01*
X39554684Y-39046197D01*
X39560496Y-39022993D01*
X39568554Y-39000471D01*
X39578782Y-38978847D01*
X39591079Y-38958330D01*
X39605329Y-38939117D01*
X39621393Y-38921393D01*
X39639117Y-38905329D01*
X39658330Y-38891079D01*
X39678847Y-38878782D01*
X39700471Y-38868554D01*
X39722993Y-38860496D01*
X39746197Y-38854684D01*
X39769858Y-38851174D01*
X39793750Y-38850000D01*
X40281250Y-38850000D01*
X40305142Y-38851174D01*
G37*
G36*
X38430142Y-38851174D02*
G01*
X38453803Y-38854684D01*
X38477007Y-38860496D01*
X38499529Y-38868554D01*
X38521153Y-38878782D01*
X38541670Y-38891079D01*
X38560883Y-38905329D01*
X38578607Y-38921393D01*
X38594671Y-38939117D01*
X38608921Y-38958330D01*
X38621218Y-38978847D01*
X38631446Y-39000471D01*
X38639504Y-39022993D01*
X38645316Y-39046197D01*
X38648826Y-39069858D01*
X38650000Y-39093750D01*
X38650000Y-40006250D01*
X38648826Y-40030142D01*
X38645316Y-40053803D01*
X38639504Y-40077007D01*
X38631446Y-40099529D01*
X38621218Y-40121153D01*
X38608921Y-40141670D01*
X38594671Y-40160883D01*
X38578607Y-40178607D01*
X38560883Y-40194671D01*
X38541670Y-40208921D01*
X38521153Y-40221218D01*
X38499529Y-40231446D01*
X38477007Y-40239504D01*
X38453803Y-40245316D01*
X38430142Y-40248826D01*
X38406250Y-40250000D01*
X37918750Y-40250000D01*
X37894858Y-40248826D01*
X37871197Y-40245316D01*
X37847993Y-40239504D01*
X37825471Y-40231446D01*
X37803847Y-40221218D01*
X37783330Y-40208921D01*
X37764117Y-40194671D01*
X37746393Y-40178607D01*
X37730329Y-40160883D01*
X37716079Y-40141670D01*
X37703782Y-40121153D01*
X37693554Y-40099529D01*
X37685496Y-40077007D01*
X37679684Y-40053803D01*
X37676174Y-40030142D01*
X37675000Y-40006250D01*
X37675000Y-39093750D01*
X37676174Y-39069858D01*
X37679684Y-39046197D01*
X37685496Y-39022993D01*
X37693554Y-39000471D01*
X37703782Y-38978847D01*
X37716079Y-38958330D01*
X37730329Y-38939117D01*
X37746393Y-38921393D01*
X37764117Y-38905329D01*
X37783330Y-38891079D01*
X37803847Y-38878782D01*
X37825471Y-38868554D01*
X37847993Y-38860496D01*
X37871197Y-38854684D01*
X37894858Y-38851174D01*
X37918750Y-38850000D01*
X38406250Y-38850000D01*
X38430142Y-38851174D01*
G37*
G36*
X35080142Y-33476174D02*
G01*
X35103803Y-33479684D01*
X35127007Y-33485496D01*
X35149529Y-33493554D01*
X35171153Y-33503782D01*
X35191670Y-33516079D01*
X35210883Y-33530329D01*
X35228607Y-33546393D01*
X35244671Y-33564117D01*
X35258921Y-33583330D01*
X35271218Y-33603847D01*
X35281446Y-33625471D01*
X35289504Y-33647993D01*
X35295316Y-33671197D01*
X35298826Y-33694858D01*
X35300000Y-33718750D01*
X35300000Y-34206250D01*
X35298826Y-34230142D01*
X35295316Y-34253803D01*
X35289504Y-34277007D01*
X35281446Y-34299529D01*
X35271218Y-34321153D01*
X35258921Y-34341670D01*
X35244671Y-34360883D01*
X35228607Y-34378607D01*
X35210883Y-34394671D01*
X35191670Y-34408921D01*
X35171153Y-34421218D01*
X35149529Y-34431446D01*
X35127007Y-34439504D01*
X35103803Y-34445316D01*
X35080142Y-34448826D01*
X35056250Y-34450000D01*
X34143750Y-34450000D01*
X34119858Y-34448826D01*
X34096197Y-34445316D01*
X34072993Y-34439504D01*
X34050471Y-34431446D01*
X34028847Y-34421218D01*
X34008330Y-34408921D01*
X33989117Y-34394671D01*
X33971393Y-34378607D01*
X33955329Y-34360883D01*
X33941079Y-34341670D01*
X33928782Y-34321153D01*
X33918554Y-34299529D01*
X33910496Y-34277007D01*
X33904684Y-34253803D01*
X33901174Y-34230142D01*
X33900000Y-34206250D01*
X33900000Y-33718750D01*
X33901174Y-33694858D01*
X33904684Y-33671197D01*
X33910496Y-33647993D01*
X33918554Y-33625471D01*
X33928782Y-33603847D01*
X33941079Y-33583330D01*
X33955329Y-33564117D01*
X33971393Y-33546393D01*
X33989117Y-33530329D01*
X34008330Y-33516079D01*
X34028847Y-33503782D01*
X34050471Y-33493554D01*
X34072993Y-33485496D01*
X34096197Y-33479684D01*
X34119858Y-33476174D01*
X34143750Y-33475000D01*
X35056250Y-33475000D01*
X35080142Y-33476174D01*
G37*
G36*
X35080142Y-35351174D02*
G01*
X35103803Y-35354684D01*
X35127007Y-35360496D01*
X35149529Y-35368554D01*
X35171153Y-35378782D01*
X35191670Y-35391079D01*
X35210883Y-35405329D01*
X35228607Y-35421393D01*
X35244671Y-35439117D01*
X35258921Y-35458330D01*
X35271218Y-35478847D01*
X35281446Y-35500471D01*
X35289504Y-35522993D01*
X35295316Y-35546197D01*
X35298826Y-35569858D01*
X35300000Y-35593750D01*
X35300000Y-36081250D01*
X35298826Y-36105142D01*
X35295316Y-36128803D01*
X35289504Y-36152007D01*
X35281446Y-36174529D01*
X35271218Y-36196153D01*
X35258921Y-36216670D01*
X35244671Y-36235883D01*
X35228607Y-36253607D01*
X35210883Y-36269671D01*
X35191670Y-36283921D01*
X35171153Y-36296218D01*
X35149529Y-36306446D01*
X35127007Y-36314504D01*
X35103803Y-36320316D01*
X35080142Y-36323826D01*
X35056250Y-36325000D01*
X34143750Y-36325000D01*
X34119858Y-36323826D01*
X34096197Y-36320316D01*
X34072993Y-36314504D01*
X34050471Y-36306446D01*
X34028847Y-36296218D01*
X34008330Y-36283921D01*
X33989117Y-36269671D01*
X33971393Y-36253607D01*
X33955329Y-36235883D01*
X33941079Y-36216670D01*
X33928782Y-36196153D01*
X33918554Y-36174529D01*
X33910496Y-36152007D01*
X33904684Y-36128803D01*
X33901174Y-36105142D01*
X33900000Y-36081250D01*
X33900000Y-35593750D01*
X33901174Y-35569858D01*
X33904684Y-35546197D01*
X33910496Y-35522993D01*
X33918554Y-35500471D01*
X33928782Y-35478847D01*
X33941079Y-35458330D01*
X33955329Y-35439117D01*
X33971393Y-35421393D01*
X33989117Y-35405329D01*
X34008330Y-35391079D01*
X34028847Y-35378782D01*
X34050471Y-35368554D01*
X34072993Y-35360496D01*
X34096197Y-35354684D01*
X34119858Y-35351174D01*
X34143750Y-35350000D01*
X35056250Y-35350000D01*
X35080142Y-35351174D01*
G37*
D12*
X29000000Y-34000000D03*
X31540000Y-31460000D03*
X26460000Y-31460000D03*
X26460000Y-36540000D03*
X31540000Y-36540000D03*
D11*
G36*
X39067642Y-29351174D02*
G01*
X39091303Y-29354684D01*
X39114507Y-29360496D01*
X39137029Y-29368554D01*
X39158653Y-29378782D01*
X39179170Y-29391079D01*
X39198383Y-29405329D01*
X39216107Y-29421393D01*
X39232171Y-29439117D01*
X39246421Y-29458330D01*
X39258718Y-29478847D01*
X39268946Y-29500471D01*
X39277004Y-29522993D01*
X39282816Y-29546197D01*
X39286326Y-29569858D01*
X39287500Y-29593750D01*
X39287500Y-30506250D01*
X39286326Y-30530142D01*
X39282816Y-30553803D01*
X39277004Y-30577007D01*
X39268946Y-30599529D01*
X39258718Y-30621153D01*
X39246421Y-30641670D01*
X39232171Y-30660883D01*
X39216107Y-30678607D01*
X39198383Y-30694671D01*
X39179170Y-30708921D01*
X39158653Y-30721218D01*
X39137029Y-30731446D01*
X39114507Y-30739504D01*
X39091303Y-30745316D01*
X39067642Y-30748826D01*
X39043750Y-30750000D01*
X38556250Y-30750000D01*
X38532358Y-30748826D01*
X38508697Y-30745316D01*
X38485493Y-30739504D01*
X38462971Y-30731446D01*
X38441347Y-30721218D01*
X38420830Y-30708921D01*
X38401617Y-30694671D01*
X38383893Y-30678607D01*
X38367829Y-30660883D01*
X38353579Y-30641670D01*
X38341282Y-30621153D01*
X38331054Y-30599529D01*
X38322996Y-30577007D01*
X38317184Y-30553803D01*
X38313674Y-30530142D01*
X38312500Y-30506250D01*
X38312500Y-29593750D01*
X38313674Y-29569858D01*
X38317184Y-29546197D01*
X38322996Y-29522993D01*
X38331054Y-29500471D01*
X38341282Y-29478847D01*
X38353579Y-29458330D01*
X38367829Y-29439117D01*
X38383893Y-29421393D01*
X38401617Y-29405329D01*
X38420830Y-29391079D01*
X38441347Y-29378782D01*
X38462971Y-29368554D01*
X38485493Y-29360496D01*
X38508697Y-29354684D01*
X38532358Y-29351174D01*
X38556250Y-29350000D01*
X39043750Y-29350000D01*
X39067642Y-29351174D01*
G37*
G36*
X37192642Y-29351174D02*
G01*
X37216303Y-29354684D01*
X37239507Y-29360496D01*
X37262029Y-29368554D01*
X37283653Y-29378782D01*
X37304170Y-29391079D01*
X37323383Y-29405329D01*
X37341107Y-29421393D01*
X37357171Y-29439117D01*
X37371421Y-29458330D01*
X37383718Y-29478847D01*
X37393946Y-29500471D01*
X37402004Y-29522993D01*
X37407816Y-29546197D01*
X37411326Y-29569858D01*
X37412500Y-29593750D01*
X37412500Y-30506250D01*
X37411326Y-30530142D01*
X37407816Y-30553803D01*
X37402004Y-30577007D01*
X37393946Y-30599529D01*
X37383718Y-30621153D01*
X37371421Y-30641670D01*
X37357171Y-30660883D01*
X37341107Y-30678607D01*
X37323383Y-30694671D01*
X37304170Y-30708921D01*
X37283653Y-30721218D01*
X37262029Y-30731446D01*
X37239507Y-30739504D01*
X37216303Y-30745316D01*
X37192642Y-30748826D01*
X37168750Y-30750000D01*
X36681250Y-30750000D01*
X36657358Y-30748826D01*
X36633697Y-30745316D01*
X36610493Y-30739504D01*
X36587971Y-30731446D01*
X36566347Y-30721218D01*
X36545830Y-30708921D01*
X36526617Y-30694671D01*
X36508893Y-30678607D01*
X36492829Y-30660883D01*
X36478579Y-30641670D01*
X36466282Y-30621153D01*
X36456054Y-30599529D01*
X36447996Y-30577007D01*
X36442184Y-30553803D01*
X36438674Y-30530142D01*
X36437500Y-30506250D01*
X36437500Y-29593750D01*
X36438674Y-29569858D01*
X36442184Y-29546197D01*
X36447996Y-29522993D01*
X36456054Y-29500471D01*
X36466282Y-29478847D01*
X36478579Y-29458330D01*
X36492829Y-29439117D01*
X36508893Y-29421393D01*
X36526617Y-29405329D01*
X36545830Y-29391079D01*
X36566347Y-29378782D01*
X36587971Y-29368554D01*
X36610493Y-29360496D01*
X36633697Y-29354684D01*
X36657358Y-29351174D01*
X36681250Y-29350000D01*
X37168750Y-29350000D01*
X37192642Y-29351174D01*
G37*
G36*
X44630142Y-36651174D02*
G01*
X44653803Y-36654684D01*
X44677007Y-36660496D01*
X44699529Y-36668554D01*
X44721153Y-36678782D01*
X44741670Y-36691079D01*
X44760883Y-36705329D01*
X44778607Y-36721393D01*
X44794671Y-36739117D01*
X44808921Y-36758330D01*
X44821218Y-36778847D01*
X44831446Y-36800471D01*
X44839504Y-36822993D01*
X44845316Y-36846197D01*
X44848826Y-36869858D01*
X44850000Y-36893750D01*
X44850000Y-37806250D01*
X44848826Y-37830142D01*
X44845316Y-37853803D01*
X44839504Y-37877007D01*
X44831446Y-37899529D01*
X44821218Y-37921153D01*
X44808921Y-37941670D01*
X44794671Y-37960883D01*
X44778607Y-37978607D01*
X44760883Y-37994671D01*
X44741670Y-38008921D01*
X44721153Y-38021218D01*
X44699529Y-38031446D01*
X44677007Y-38039504D01*
X44653803Y-38045316D01*
X44630142Y-38048826D01*
X44606250Y-38050000D01*
X44118750Y-38050000D01*
X44094858Y-38048826D01*
X44071197Y-38045316D01*
X44047993Y-38039504D01*
X44025471Y-38031446D01*
X44003847Y-38021218D01*
X43983330Y-38008921D01*
X43964117Y-37994671D01*
X43946393Y-37978607D01*
X43930329Y-37960883D01*
X43916079Y-37941670D01*
X43903782Y-37921153D01*
X43893554Y-37899529D01*
X43885496Y-37877007D01*
X43879684Y-37853803D01*
X43876174Y-37830142D01*
X43875000Y-37806250D01*
X43875000Y-36893750D01*
X43876174Y-36869858D01*
X43879684Y-36846197D01*
X43885496Y-36822993D01*
X43893554Y-36800471D01*
X43903782Y-36778847D01*
X43916079Y-36758330D01*
X43930329Y-36739117D01*
X43946393Y-36721393D01*
X43964117Y-36705329D01*
X43983330Y-36691079D01*
X44003847Y-36678782D01*
X44025471Y-36668554D01*
X44047993Y-36660496D01*
X44071197Y-36654684D01*
X44094858Y-36651174D01*
X44118750Y-36650000D01*
X44606250Y-36650000D01*
X44630142Y-36651174D01*
G37*
G36*
X46505142Y-36651174D02*
G01*
X46528803Y-36654684D01*
X46552007Y-36660496D01*
X46574529Y-36668554D01*
X46596153Y-36678782D01*
X46616670Y-36691079D01*
X46635883Y-36705329D01*
X46653607Y-36721393D01*
X46669671Y-36739117D01*
X46683921Y-36758330D01*
X46696218Y-36778847D01*
X46706446Y-36800471D01*
X46714504Y-36822993D01*
X46720316Y-36846197D01*
X46723826Y-36869858D01*
X46725000Y-36893750D01*
X46725000Y-37806250D01*
X46723826Y-37830142D01*
X46720316Y-37853803D01*
X46714504Y-37877007D01*
X46706446Y-37899529D01*
X46696218Y-37921153D01*
X46683921Y-37941670D01*
X46669671Y-37960883D01*
X46653607Y-37978607D01*
X46635883Y-37994671D01*
X46616670Y-38008921D01*
X46596153Y-38021218D01*
X46574529Y-38031446D01*
X46552007Y-38039504D01*
X46528803Y-38045316D01*
X46505142Y-38048826D01*
X46481250Y-38050000D01*
X45993750Y-38050000D01*
X45969858Y-38048826D01*
X45946197Y-38045316D01*
X45922993Y-38039504D01*
X45900471Y-38031446D01*
X45878847Y-38021218D01*
X45858330Y-38008921D01*
X45839117Y-37994671D01*
X45821393Y-37978607D01*
X45805329Y-37960883D01*
X45791079Y-37941670D01*
X45778782Y-37921153D01*
X45768554Y-37899529D01*
X45760496Y-37877007D01*
X45754684Y-37853803D01*
X45751174Y-37830142D01*
X45750000Y-37806250D01*
X45750000Y-36893750D01*
X45751174Y-36869858D01*
X45754684Y-36846197D01*
X45760496Y-36822993D01*
X45768554Y-36800471D01*
X45778782Y-36778847D01*
X45791079Y-36758330D01*
X45805329Y-36739117D01*
X45821393Y-36721393D01*
X45839117Y-36705329D01*
X45858330Y-36691079D01*
X45878847Y-36678782D01*
X45900471Y-36668554D01*
X45922993Y-36660496D01*
X45946197Y-36654684D01*
X45969858Y-36651174D01*
X45993750Y-36650000D01*
X46481250Y-36650000D01*
X46505142Y-36651174D01*
G37*
G36*
X37280142Y-33476174D02*
G01*
X37303803Y-33479684D01*
X37327007Y-33485496D01*
X37349529Y-33493554D01*
X37371153Y-33503782D01*
X37391670Y-33516079D01*
X37410883Y-33530329D01*
X37428607Y-33546393D01*
X37444671Y-33564117D01*
X37458921Y-33583330D01*
X37471218Y-33603847D01*
X37481446Y-33625471D01*
X37489504Y-33647993D01*
X37495316Y-33671197D01*
X37498826Y-33694858D01*
X37500000Y-33718750D01*
X37500000Y-34206250D01*
X37498826Y-34230142D01*
X37495316Y-34253803D01*
X37489504Y-34277007D01*
X37481446Y-34299529D01*
X37471218Y-34321153D01*
X37458921Y-34341670D01*
X37444671Y-34360883D01*
X37428607Y-34378607D01*
X37410883Y-34394671D01*
X37391670Y-34408921D01*
X37371153Y-34421218D01*
X37349529Y-34431446D01*
X37327007Y-34439504D01*
X37303803Y-34445316D01*
X37280142Y-34448826D01*
X37256250Y-34450000D01*
X36343750Y-34450000D01*
X36319858Y-34448826D01*
X36296197Y-34445316D01*
X36272993Y-34439504D01*
X36250471Y-34431446D01*
X36228847Y-34421218D01*
X36208330Y-34408921D01*
X36189117Y-34394671D01*
X36171393Y-34378607D01*
X36155329Y-34360883D01*
X36141079Y-34341670D01*
X36128782Y-34321153D01*
X36118554Y-34299529D01*
X36110496Y-34277007D01*
X36104684Y-34253803D01*
X36101174Y-34230142D01*
X36100000Y-34206250D01*
X36100000Y-33718750D01*
X36101174Y-33694858D01*
X36104684Y-33671197D01*
X36110496Y-33647993D01*
X36118554Y-33625471D01*
X36128782Y-33603847D01*
X36141079Y-33583330D01*
X36155329Y-33564117D01*
X36171393Y-33546393D01*
X36189117Y-33530329D01*
X36208330Y-33516079D01*
X36228847Y-33503782D01*
X36250471Y-33493554D01*
X36272993Y-33485496D01*
X36296197Y-33479684D01*
X36319858Y-33476174D01*
X36343750Y-33475000D01*
X37256250Y-33475000D01*
X37280142Y-33476174D01*
G37*
G36*
X37280142Y-35351174D02*
G01*
X37303803Y-35354684D01*
X37327007Y-35360496D01*
X37349529Y-35368554D01*
X37371153Y-35378782D01*
X37391670Y-35391079D01*
X37410883Y-35405329D01*
X37428607Y-35421393D01*
X37444671Y-35439117D01*
X37458921Y-35458330D01*
X37471218Y-35478847D01*
X37481446Y-35500471D01*
X37489504Y-35522993D01*
X37495316Y-35546197D01*
X37498826Y-35569858D01*
X37500000Y-35593750D01*
X37500000Y-36081250D01*
X37498826Y-36105142D01*
X37495316Y-36128803D01*
X37489504Y-36152007D01*
X37481446Y-36174529D01*
X37471218Y-36196153D01*
X37458921Y-36216670D01*
X37444671Y-36235883D01*
X37428607Y-36253607D01*
X37410883Y-36269671D01*
X37391670Y-36283921D01*
X37371153Y-36296218D01*
X37349529Y-36306446D01*
X37327007Y-36314504D01*
X37303803Y-36320316D01*
X37280142Y-36323826D01*
X37256250Y-36325000D01*
X36343750Y-36325000D01*
X36319858Y-36323826D01*
X36296197Y-36320316D01*
X36272993Y-36314504D01*
X36250471Y-36306446D01*
X36228847Y-36296218D01*
X36208330Y-36283921D01*
X36189117Y-36269671D01*
X36171393Y-36253607D01*
X36155329Y-36235883D01*
X36141079Y-36216670D01*
X36128782Y-36196153D01*
X36118554Y-36174529D01*
X36110496Y-36152007D01*
X36104684Y-36128803D01*
X36101174Y-36105142D01*
X36100000Y-36081250D01*
X36100000Y-35593750D01*
X36101174Y-35569858D01*
X36104684Y-35546197D01*
X36110496Y-35522993D01*
X36118554Y-35500471D01*
X36128782Y-35478847D01*
X36141079Y-35458330D01*
X36155329Y-35439117D01*
X36171393Y-35421393D01*
X36189117Y-35405329D01*
X36208330Y-35391079D01*
X36228847Y-35378782D01*
X36250471Y-35368554D01*
X36272993Y-35360496D01*
X36296197Y-35354684D01*
X36319858Y-35351174D01*
X36343750Y-35350000D01*
X37256250Y-35350000D01*
X37280142Y-35351174D01*
G37*
D13*
X31300000Y-45900000D03*
X33800000Y-45900000D03*
X36300000Y-45900000D03*
D14*
X56000000Y-24500000D03*
X58500000Y-24500000D03*
D11*
G36*
X61624504Y-23526204D02*
G01*
X61648773Y-23529804D01*
X61672571Y-23535765D01*
X61695671Y-23544030D01*
X61717849Y-23554520D01*
X61738893Y-23567133D01*
X61758598Y-23581747D01*
X61776777Y-23598223D01*
X61793253Y-23616402D01*
X61807867Y-23636107D01*
X61820480Y-23657151D01*
X61830970Y-23679329D01*
X61839235Y-23702429D01*
X61845196Y-23726227D01*
X61848796Y-23750496D01*
X61850000Y-23775000D01*
X61850000Y-25225000D01*
X61848796Y-25249504D01*
X61845196Y-25273773D01*
X61839235Y-25297571D01*
X61830970Y-25320671D01*
X61820480Y-25342849D01*
X61807867Y-25363893D01*
X61793253Y-25383598D01*
X61776777Y-25401777D01*
X61758598Y-25418253D01*
X61738893Y-25432867D01*
X61717849Y-25445480D01*
X61695671Y-25455970D01*
X61672571Y-25464235D01*
X61648773Y-25470196D01*
X61624504Y-25473796D01*
X61600000Y-25475000D01*
X60400000Y-25475000D01*
X60375496Y-25473796D01*
X60351227Y-25470196D01*
X60327429Y-25464235D01*
X60304329Y-25455970D01*
X60282151Y-25445480D01*
X60261107Y-25432867D01*
X60241402Y-25418253D01*
X60223223Y-25401777D01*
X60206747Y-25383598D01*
X60192133Y-25363893D01*
X60179520Y-25342849D01*
X60169030Y-25320671D01*
X60160765Y-25297571D01*
X60154804Y-25273773D01*
X60151204Y-25249504D01*
X60150000Y-25225000D01*
X60150000Y-23775000D01*
X60151204Y-23750496D01*
X60154804Y-23726227D01*
X60160765Y-23702429D01*
X60169030Y-23679329D01*
X60179520Y-23657151D01*
X60192133Y-23636107D01*
X60206747Y-23616402D01*
X60223223Y-23598223D01*
X60241402Y-23581747D01*
X60261107Y-23567133D01*
X60282151Y-23554520D01*
X60304329Y-23544030D01*
X60327429Y-23535765D01*
X60351227Y-23529804D01*
X60375496Y-23526204D01*
X60400000Y-23525000D01*
X61600000Y-23525000D01*
X61624504Y-23526204D01*
G37*
D15*
X58840000Y-37100000D03*
X56300000Y-37100000D03*
D16*
X51220000Y-42180000D03*
X61380000Y-42180000D03*
D17*
G36*
X42075000Y-30974206D02*
G01*
X41925000Y-30969519D01*
X41925000Y-30500000D01*
X41924520Y-30495123D01*
X41923097Y-30490433D01*
X41920787Y-30486111D01*
X41917678Y-30482322D01*
X41913889Y-30479213D01*
X41909567Y-30476903D01*
X41904877Y-30475480D01*
X41900000Y-30475000D01*
X40500000Y-30475000D01*
X40495123Y-30475480D01*
X40490433Y-30476903D01*
X40486111Y-30479213D01*
X40482322Y-30482322D01*
X40479213Y-30486111D01*
X40476903Y-30490433D01*
X40475480Y-30495123D01*
X40475000Y-30500000D01*
X40475000Y-32844543D01*
X40208957Y-33425000D01*
X30786038Y-33425000D01*
X30056786Y-32625175D01*
X38076459Y-32649923D01*
X38075000Y-32999896D01*
X38075460Y-33004775D01*
X38076863Y-33009471D01*
X38079156Y-33013802D01*
X38082687Y-33018035D01*
X38395187Y-33318035D01*
X38399038Y-33321066D01*
X38403406Y-33323287D01*
X38408124Y-33324614D01*
X38412500Y-33325000D01*
X39500000Y-33325000D01*
X39504877Y-33324520D01*
X39509567Y-33323097D01*
X39513889Y-33320787D01*
X39517678Y-33317678D01*
X39520787Y-33313889D01*
X39523097Y-33309567D01*
X39524520Y-33304877D01*
X39525000Y-33300000D01*
X39525000Y-29925000D01*
X42075000Y-29925000D01*
X42075000Y-30974206D01*
G37*
X42075000Y-30974206D02*
X41925000Y-30969519D01*
X41925000Y-30500000D01*
X41924520Y-30495123D01*
X41923097Y-30490433D01*
X41920787Y-30486111D01*
X41917678Y-30482322D01*
X41913889Y-30479213D01*
X41909567Y-30476903D01*
X41904877Y-30475480D01*
X41900000Y-30475000D01*
X40500000Y-30475000D01*
X40495123Y-30475480D01*
X40490433Y-30476903D01*
X40486111Y-30479213D01*
X40482322Y-30482322D01*
X40479213Y-30486111D01*
X40476903Y-30490433D01*
X40475480Y-30495123D01*
X40475000Y-30500000D01*
X40475000Y-32844543D01*
X40208957Y-33425000D01*
X30786038Y-33425000D01*
X30056786Y-32625175D01*
X38076459Y-32649923D01*
X38075000Y-32999896D01*
X38075460Y-33004775D01*
X38076863Y-33009471D01*
X38079156Y-33013802D01*
X38082687Y-33018035D01*
X38395187Y-33318035D01*
X38399038Y-33321066D01*
X38403406Y-33323287D01*
X38408124Y-33324614D01*
X38412500Y-33325000D01*
X39500000Y-33325000D01*
X39504877Y-33324520D01*
X39509567Y-33323097D01*
X39513889Y-33320787D01*
X39517678Y-33317678D01*
X39520787Y-33313889D01*
X39523097Y-33309567D01*
X39524520Y-33304877D01*
X39525000Y-33300000D01*
X39525000Y-29925000D01*
X42075000Y-29925000D01*
X42075000Y-30974206D01*
D18*
G36*
X33841250Y-34900000D02*
G01*
X33636500Y-35173000D01*
X30354000Y-35173000D01*
X30763500Y-34627000D01*
X33636500Y-34627000D01*
X33841250Y-34900000D01*
G37*
X33841250Y-34900000D02*
X33636500Y-35173000D01*
X30354000Y-35173000D01*
X30763500Y-34627000D01*
X33636500Y-34627000D01*
X33841250Y-34900000D01*
G36*
X41973000Y-34343439D02*
G01*
X41051265Y-35173000D01*
X37778490Y-35173000D01*
X37641990Y-34900000D01*
X37778490Y-34627000D01*
X40800000Y-34627000D01*
X40824776Y-34624560D01*
X40848601Y-34617333D01*
X40870557Y-34605597D01*
X40889803Y-34589803D01*
X41973000Y-33506606D01*
X41973000Y-34343439D01*
G37*
X41973000Y-34343439D02*
X41051265Y-35173000D01*
X37778490Y-35173000D01*
X37641990Y-34900000D01*
X37778490Y-34627000D01*
X40800000Y-34627000D01*
X40824776Y-34624560D01*
X40848601Y-34617333D01*
X40870557Y-34605597D01*
X40889803Y-34589803D01*
X41973000Y-33506606D01*
X41973000Y-34343439D01*
M02*
